0
SECTION
2
HEADER
9
$INSUNITS
70
4
9
$ACADVER
1
AC1014
9
$HANDSEED
5
FFFF
0
ENDSEC
0
SECTION
2
TABLES
0
TABLE
2
VPORT
5
8
100
AcDbSymbolTable
0
ENDTAB
0
TABLE
2
LTYPE
5
5
100
AcDbSymbolTable
0
LTYPE
5
14
100
AcDbSymbolTableRecord
100
AcDbLinetypeTableRecord
2
BYBLOCK
70
0
0
LTYPE
5
15
100
AcDbSymbolTableRecord
100
AcDbLinetypeTableRecord
2
BYLAYER
70
0
0
ENDTAB
0
TABLE
2
LAYER
5
2
100
AcDbSymbolTable
70
2
0
LAYER
5
50
100
AcDbSymbolTableRecord
100
AcDbLayerTableRecord
2
0
70
0
6
CONTINUOUS
0
ENDTAB
0
TABLE
2
STYLE
5
3
100
AcDbSymbolTable
70
1
0
STYLE
5
11
100
AcDbSymbolTableRecord
100
AcDbTextStyleTableRecord
2
STANDARD
70
0
0
ENDTAB
0
TABLE
2
VIEW
5
6
100
AcDbSymbolTable
70
0
0
ENDTAB
0
TABLE
2
UCS
5
7
100
AcDbSymbolTable
70
0
0
ENDTAB
0
TABLE
2
APPID
5
9
100
AcDbSymbolTable
70
2
0
APPID
5
12
100
AcDbSymbolTableRecord
100
AcDbRegAppTableRecord
2
ACAD
70
0
0
ENDTAB
0
TABLE
2
DIMSTYLE
5
A
100
AcDbSymbolTable
70
1
0
ENDTAB
0
TABLE
2
BLOCK_RECORD
5
1
100
AcDbSymbolTable
70
1
0
BLOCK_RECORD
5
1F
100
AcDbSymbolTableRecord
100
AcDbBlockTableRecord
2
*MODEL_SPACE
0
BLOCK_RECORD
5
1B
100
AcDbSymbolTableRecord
100
AcDbBlockTableRecord
2
*PAPER_SPACE
0
ENDTAB
0
ENDSEC
0
SECTION
2
BLOCKS
0
BLOCK
5
20
100
AcDbEntity
100
AcDbBlockBegin
2
*MODEL_SPACE
0
ENDBLK
5
21
100
AcDbEntity
100
AcDbBlockEnd
0
BLOCK
5
1C
100
AcDbEntity
100
AcDbBlockBegin
2
*PAPER_SPACE
0
ENDBLK
5
1D
100
AcDbEntity
100
AcDbBlockEnd
0
ENDSEC
0
SECTION
2
ENTITIES
0
LINE
5
100
100
AcDbEntity
8
0
100
AcDbLine
10
0
20
0
30
0
11
0
21
100
31
0
0
LINE
5
101
100
AcDbEntity
8
0
100
AcDbLine
10
0
20
0
30
0
11
95.10565162951535
21
30.901699437494749
31
0
0
ARC
5
102
100
AcDbEntity
8
0
100
AcDbCircle
10
0
20
0
30
0
40
100
100
AcDbArc
50
18.000000000000011
51
90
0
LINE
5
103
100
AcDbEntity
8
0
100
AcDbLine
10
12.75380722860036
20
18.748744039383944
30
0
11
17.244391463255699
21
20.207823304816436
31
0
0
LINE
5
104
100
AcDbEntity
8
0
100
AcDbLine
10
17.244391463255699
20
20.207823304816436
30
0
11
17.734774877180786
21
18.698578344875397
31
0
0
LINE
5
105
100
AcDbEntity
8
0
100
AcDbLine
10
17.734774877180786
20
18.698578344875397
30
0
11
14.693065804068844
21
17.710267156810989
31
0
0
LINE
5
106
100
AcDbEntity
8
0
100
AcDbLine
10
14.693065804068844
20
17.710267156810989
30
0
11
14.862483580886025
21
16.63581389319743
31
0
0
LINE
5
107
100
AcDbEntity
8
0
100
AcDbLine
10
13.547265089564595
20
13.430929246059836
30
0
11
15.392624073777146
21
14.261556906781323
31
0
0
LINE
5
108
100
AcDbEntity
8
0
100
AcDbLine
10
15.030597081327652
20
15.186148063399569
30
0
11
13.343744245032898
21
14.894760996830483
31
0
0
LINE
5
109
100
AcDbEntity
8
0
100
AcDbLine
10
13.343744245032898
20
14.894760996830483
30
0
11
12.75380722860036
21
18.748744039383944
31
0
0
LINE
5
110
100
AcDbEntity
8
0
100
AcDbLine
10
23.117935788511335
20
16.099096673612987
30
0
11
24.936706231856036
21
16.885146543469894
31
0
0
LINE
5
111
100
AcDbEntity
8
0
100
AcDbLine
10
27.427135686793214
20
20.107359784598124
30
0
11
25.691954195076022
21
19.348469611512449
31
0
0
LINE
5
112
100
AcDbEntity
8
0
100
AcDbLine
10
34.531593466907246
20
20.505855492666988
30
0
11
30.742227659793745
21
19.274615905704305
31
0
0
LINE
5
113
100
AcDbEntity
8
0
100
AcDbLine
10
32.740656174070807
20
19.318121730275358
30
0
11
34.658660528691072
21
19.751357685555792
31
0
0
LINE
5
114
100
AcDbEntity
8
0
100
AcDbLine
10
34.462185352936309
20
20.719471702381721
30
0
11
34.531593466907246
21
20.505855492666988
31
0
0
LINE
5
115
100
AcDbEntity
8
0
100
AcDbLine
10
30.452641442084662
20
20.181671753711775
30
0
11
32.314817531119601
21
20.786729442893193
31
0
0
LINE
5
116
100
AcDbEntity
8
0
100
AcDbLine
10
37.878173513998775
20
24.837971972597352
30
0
11
39.647472990114267
21
25.412852220921842
31
0
0
LINE
5
117
100
AcDbEntity
8
0
100
AcDbLine
10
39.647472990114267
20
25.412852220921842
30
0
11
41.160871649089231
21
20.755090083011495
31
0
0
LINE
5
118
100
AcDbEntity
8
0
100
AcDbLine
10
41.160871649089231
20
20.755090083011495
30
0
11
41.236432465748976
21
20.538338914693636
31
0
0
LINE
5
119
100
AcDbEntity
8
0
100
AcDbLine
10
35.996784922882888
20
18.651046882593704
30
0
11
37.898997269970081
21
19.038078960449283
31
0
0
LINE
5
120
100
AcDbEntity
8
0
100
AcDbLine
10
39.293114013268848
20
20.02500060994112
30
0
11
39.050185614370577
21
20.772657343942683
31
0
0
LINE
5
121
100
AcDbEntity
8
0
100
AcDbLine
10
38.115066424725661
20
24.108890561179681
30
0
11
37.878173513998775
21
24.837971972597352
31
0
0
LINE
5
122
100
AcDbEntity
8
0
100
AcDbLine
10
40.803786820961399
20
25.788561359590602
30
0
11
42.568442466430923
21
26.361932735872241
31
0
0
LINE
5
123
100
AcDbEntity
8
0
100
AcDbLine
10
42.568442466430923
20
26.361932735872241
30
0
11
42.802317633072128
21
25.642138985746513
31
0
0
LINE
5
124
100
AcDbEntity
8
0
100
AcDbLine
10
49.767974101928054
20
26.673235675640747
30
0
11
50.774391754506624
21
23.575800634777131
31
0
0
LINE
5
125
100
AcDbEntity
8
0
100
AcDbLine
10
50.774391754506624
20
23.575800634777131
30
0
11
48.879708850949868
21
22.960180841295795
31
0
0
LINE
5
126
100
AcDbEntity
8
0
100
AcDbLine
10
48.879708850949868
20
22.960180841295795
30
0
11
47.966841265027782
21
25.769698382109112
31
0
0
LINE
5
127
100
AcDbEntity
8
0
100
AcDbLine
10
46.706136084138024
20
25.06742714286322
30
0
11
47.532997963617866
21
22.522607948870331
31
0
0
LINE
5
128
100
AcDbEntity
8
0
100
AcDbLine
10
47.532997963617866
20
22.522607948870331
30
0
11
45.63831506006111
21
21.906988155388994
31
0
0
LINE
5
129
100
AcDbEntity
8
0
100
AcDbLine
10
45.63831506006111
20
21.906988155388994
30
0
11
44.755624914995956
21
24.623629083282861
31
0
0
LINE
5
130
100
AcDbEntity
8
0
100
AcDbLine
10
43.483083186798282
20
23.989389217166277
30
0
11
44.300891834021044
21
21.472433007049219
31
0
0
LINE
5
131
100
AcDbEntity
8
0
100
AcDbLine
10
44.300891834021044
20
21.472433007049219
30
0
11
42.406208930464295
21
20.856813213567879
31
0
0
LINE
5
132
100
AcDbEntity
8
0
100
AcDbLine
10
42.406208930464295
20
20.856813213567879
30
0
11
40.803786820961399
21
25.788561359590602
31
0
0
LINE
5
133
100
AcDbEntity
8
0
100
AcDbLine
10
56.729103954655457
20
27.718263857472895
30
0
11
52.939738147541952
21
26.487024270510211
31
0
0
LINE
5
134
100
AcDbEntity
8
0
100
AcDbLine
10
54.938166661819025
20
26.530530095081261
30
0
11
56.856171016439284
21
26.963766050361698
31
0
0
LINE
5
135
100
AcDbEntity
8
0
100
AcDbLine
10
56.65969584068452
20
27.931880067187628
30
0
11
56.729103954655457
21
27.718263857472895
31
0
0
LINE
5
136
100
AcDbEntity
8
0
100
AcDbLine
10
52.650151929832873
20
27.394080118517682
30
0
11
54.512328018867819
21
27.999137807699096
31
0
0
LINE
5
137
100
AcDbEntity
8
0
100
AcDbLine
10
56.643893154373359
20
30.93532389773975
30
0
11
58.403904969196901
21
31.507186401978547
31
0
0
LINE
5
138
100
AcDbEntity
8
0
100
AcDbLine
10
58.403904969196901
20
31.507186401978547
30
0
11
58.664939832609342
21
30.703803700225308
31
0
0
LINE
5
139
100
AcDbEntity
8
0
100
AcDbLine
10
62.442848450381959
20
30.832624741864954
30
0
11
63.461337079303291
21
27.698039055833561
31
0
0
LINE
5
140
100
AcDbEntity
8
0
100
AcDbLine
10
63.461337079303291
20
27.698039055833561
30
0
11
61.562010345100582
21
27.080910390309377
31
0
0
LINE
5
141
100
AcDbEntity
8
0
100
AcDbLine
10
61.562010345100582
20
27.080910390309377
30
0
11
60.680829072078254
21
29.792907487557272
31
0
0
LINE
5
142
100
AcDbEntity
8
0
100
AcDbLine
10
59.366829594935368
20
28.986040302601467
30
0
11
60.136354336787043
21
26.617686673155525
31
0
0
LINE
5
143
100
AcDbEntity
8
0
100
AcDbLine
10
60.136354336787043
20
26.617686673155525
30
0
11
58.246315263876262
21
26.00357575171703
31
0
0
LINE
5
144
100
AcDbEntity
8
0
100
AcDbLine
10
58.246315263876262
20
26.00357575171703
30
0
11
56.643893154373359
21
30.93532389773975
31
0
0
LINE
5
145
100
AcDbEntity
8
0
100
AcDbLine
10
64.657902358634203
20
35.613406862278424
30
0
11
65.26748666394414
21
33.73729928130556
31
0
0
LINE
5
146
100
AcDbEntity
8
0
100
AcDbLine
10
65.26748666394414
20
33.73729928130556
30
0
11
66.30770472864198
21
34.075286618903164
31
0
0
LINE
5
147
100
AcDbEntity
8
0
100
AcDbLine
10
66.30770472864198
20
34.075286618903164
30
0
11
66.755839725367366
21
32.696068917049345
31
0
0
LINE
5
148
100
AcDbEntity
8
0
100
AcDbLine
10
66.755839725367366
20
32.696068917049345
30
0
11
65.715621660669555
21
32.358081579451742
31
0
0
LINE
5
149
100
AcDbEntity
8
0
100
AcDbLine
10
65.715621660669555
20
32.358081579451742
30
0
11
66.284466420822639
21
30.607357425920142
31
0
0
LINE
5
150
100
AcDbEntity
8
0
100
AcDbLine
10
67.402896486029832
20
30.467616279569746
30
0
11
67.966204449448853
21
29.207966029336884
31
0
0
LINE
5
151
100
AcDbEntity
8
0
100
AcDbLine
10
64.385256901137367
20
30.005669124376716
30
0
11
63.820938757112799
21
31.742461785970406
31
0
0
LINE
5
152
100
AcDbEntity
8
0
100
AcDbLine
10
63.820938757112799
20
31.742461785970406
30
0
11
63.124364160216935
21
31.516130979543441
31
0
0
LINE
5
153
100
AcDbEntity
8
0
100
AcDbLine
10
63.124364160216935
20
31.516130979543441
30
0
11
62.676229163491541
21
32.895348681397259
31
0
0
LINE
5
154
100
AcDbEntity
8
0
100
AcDbLine
10
62.676229163491541
20
32.895348681397259
30
0
11
63.372803760387406
21
33.121679487824217
31
0
0
LINE
5
155
100
AcDbEntity
8
0
100
AcDbLine
10
63.372803760387406
20
33.121679487824217
30
0
11
63.078573712032366
21
34.027226463788843
31
0
0
LINE
5
156
100
AcDbEntity
8
0
100
AcDbLine
10
63.078573712032366
20
34.027226463788843
30
0
11
64.657902358634203
21
35.613406862278424
31
0
0
LINE
5
157
100
AcDbEntity
8
0
100
AcDbLine
10
68.033065796356681
20
30.692907072023594
30
0
11
69.85183623970137
21
31.478956941880504
31
0
0
LINE
5
158
100
AcDbEntity
8
0
100
AcDbLine
10
72.342265694638556
20
34.701170183008728
30
0
11
70.607084202921371
21
33.94228000992306
31
0
0
SPLINE
5
159
100
AcDbEntity
8
0
100
AcDbSpline
70
1064
71
3
72
9
73
5
74
3
42
0.000000001
43
0.0000000001
44
0.0000000001
40
0
40
0
40
0
40
0
40
0.03568213582518736
40
0.069589568536504651
40
0.069589568536504651
40
0.069589568536504651
40
0.069589568536504651
10
14.862483580886025
20
16.63581389319743
30
0
10
14.951005943356211
20
16.71554548656141
30
0
10
15.123647879374627
20
16.871043106101638
30
0
10
15.317753366597433
20
16.998704001690335
30
0
10
15.412331029389701
20
17.060906617945527
30
0
11
14.862483580886025
21
16.63581389319743
31
0
11
15.133693732289464
21
16.867690014176791
31
0
11
15.412331029389701
21
17.060906617945527
31
0
0
SPLINE
5
160
100
AcDbEntity
8
0
100
AcDbSpline
70
1064
71
3
72
9
73
5
74
3
42
0.000000001
43
0.0000000001
44
0.0000000001
40
0
40
0
40
0
40
0
40
0.032995133532424288
40
0.065037137312714044
40
0.065037137312714044
40
0.065037137312714044
40
0.065037137312714044
10
15.412331029389701
20
17.060906617945527
30
0
10
15.507855922768597
20
17.11590214535514
30
0
10
15.696146283871709
20
17.224304545491194
30
0
10
15.900496839404948
20
17.298047766727688
30
0
10
16.001174721972518
20
17.334379017936811
30
0
11
15.412331029389701
21
17.060906617945527
31
0
11
15.70303930283271
21
17.216972576546482
31
0
11
16.001174721972518
21
17.334379017936811
31
0
0
SPLINE
5
161
100
AcDbEntity
8
0
100
AcDbSpline
70
1064
71
3
72
9
73
5
74
3
42
0.000000001
43
0.0000000001
44
0.0000000001
40
0
40
0
40
0
40
0
40
0.098635380777592915
40
0.18976902442978821
40
0.18976902442978821
40
0.18976902442978821
40
0.18976902442978821
10
16.001174721972518
20
17.334379017936811
30
0
10
16.328031332290131
20
17.416906322076137
30
0
10
16.956885396414062
20
17.575684296793476
30
0
10
17.566800117512081
20
17.359321671256048
30
0
10
17.859702244283252
20
17.255416861318654
30
0
11
16.001174721972518
21
17.334379017936811
31
0
11
16.976627973607169
21
17.48061440349538
31
0
11
17.859702244283252
21
17.255416861318654
31
0
0
SPLINE
5
162
100
AcDbEntity
8
0
100
AcDbSpline
70
1064
71
3
72
9
73
5
74
3
42
0.000000001
43
0.0000000001
44
0.0000000001
40
0
40
0
40
0
40
0
40
0.088878756597990882
40
0.18062578350781833
40
0.18062578350781833
40
0.18062578350781833
40
0.18062578350781833
10
17.859702244283252
20
17.255416861318654
30
0
10
18.117263750909856
20
17.094065421628692
30
0
10
18.640698716886156
20
16.766155453829107
30
0
10
18.879886287145162
20
16.196035624800849
30
0
10
19.001379177135025
20
15.906449064787848
30
0
11
17.859702244283252
21
17.255416861318654
31
0
11
18.563563867594596
21
16.712717909163764
31
0
11
19.001379177135025
21
15.906449064787848
31
0
0
SPLINE
5
163
100
AcDbEntity
8
0
100
AcDbSpline
70
1064
71
3
72
9
73
5
74
3
42
0.000000001
43
0.0000000001
44
0.0000000001
40
0
40
0
40
0
40
0
40
0.068543322890039601
40
0.13883653483054437
40
0.13883653483054437
40
0.13883653483054437
40
0.13883653483054437
10
19.001379177135025
20
15.906449064787848
30
0
10
19.05809454165237
20
15.682839477084931
30
0
10
19.172973195753677
20
15.229911620620136
30
0
10
19.113633217314128
20
14.766287295416829
30
0
10
19.083589268968058
20
14.531553383395281
30
0
11
19.001379177135025
21
15.906449064787848
31
0
11
19.129061615135381
21
15.233013168575663
31
0
11
19.083589268968058
21
14.531553383395281
31
0
0
SPLINE
5
164
100
AcDbEntity
8
0
100
AcDbSpline
70
1064
71
3
72
9
73
5
74
3
42
0.000000001
43
0.0000000001
44
0.0000000001
40
0
40
0
40
0
40
0
40
0.070022408440929884
40
0.13970349603324647
40
0.13970349603324647
40
0.13970349603324647
40
0.13970349603324647
10
19.083589268968058
20
14.531553383395281
30
0
10
19.025817377634528
20
14.302001624112709
30
0
10
18.91055520126201
20
13.844017044513297
30
0
10
18.60767009832977
20
13.481719192250328
30
0
10
18.456597548342856
20
13.301012845631508
30
0
11
19.083589268968058
21
14.531553383395281
31
0
11
18.863138385009162
21
13.866936820143518
31
0
11
18.456597548342856
21
13.301012845631508
31
0
0
SPLINE
5
165
100
AcDbEntity
8
0
100
AcDbSpline
70
1064
71
3
72
9
73
5
74
3
42
0.000000001
43
0.0000000001
44
0.0000000001
40
0
40
0
40
0
40
0
40
0.076210403479616884
40
0.16632657425040728
40
0.16632657425040728
40
0.16632657425040728
40
0.16632657425040728
10
18.456597548342856
20
13.301012845631508
30
0
10
18.261861655490247
20
13.134606125413946
30
0
10
17.836857293055246
20
12.771429204123464
30
0
10
17.309386710033078
20
12.583157813997669
30
0
10
17.023601775482383
20
12.481151884877244
30
0
11
18.456597548342856
21
13.301012845631508
31
0
11
17.850877613940717
21
12.838513201393301
31
0
11
17.023601775482383
21
12.481151884877244
31
0
0
SPLINE
5
166
100
AcDbEntity
8
0
100
AcDbSpline
70
1064
71
3
72
9
73
5
74
3
42
0.000000001
43
0.0000000001
44
0.0000000001
40
0
40
0
40
0
40
0
40
0.065878397048714912
40
0.12253401577066272
40
0.12253401577066272
40
0.12253401577066272
40
0.12253401577066272
10
17.023601775482383
20
12.481151884877244
30
0
10
16.81310106272387
20
12.416580679210147
30
0
10
16.421569106689567
20
12.296478043323425
30
0
10
16.014680187429612
20
12.251583776661477
30
0
10
15.826548399478398
20
12.23082617364974
30
0
11
17.023601775482383
21
12.481151884877244
31
0
11
16.387660709648387
21
12.309177233964004
31
0
11
15.826548399478398
21
12.23082617364974
31
0
0
SPLINE
5
167
100
AcDbEntity
8
0
100
AcDbSpline
70
1064
71
3
72
9
73
5
74
3
42
0.000000001
43
0.0000000001
44
0.0000000001
40
0
40
0
40
0
40
0
40
0.049580386846278843
40
0.095219667256039919
40
0.095219667256039919
40
0.095219667256039919
40
0.095219667256039919
10
15.826548399478398
20
12.23082617364974
30
0
10
15.660363540742246
20
12.228251820105406
30
0
10
15.341203728598991
20
12.223307746380225
30
0
10
15.033155710946073
20
12.306286608204097
30
0
10
14.885506698273844
20
12.346058807078508
30
0
11
15.826548399478398
21
12.23082617364974
31
0
11
15.331006487309828
21
12.246941050843958
31
0
11
14.885506698273844
21
12.346058807078508
31
0
0
SPLINE
5
168
100
AcDbEntity
8
0
100
AcDbSpline
70
1064
71
3
72
9
73
5
74
3
42
0.000000001
43
0.0000000001
44
0.0000000001
40
0
40
0
40
0
40
0
40
0.042790302452967291
40
0.083550272582809837
40
0.083550272582809837
40
0.083550272582809837
40
0.083550272582809837
10
14.885506698273844
20
12.346058807078508
30
0
10
14.752072694557077
20
12.398320786644298
30
0
10
14.491535920024923
20
12.500364997321205
30
0
10
14.265399130169008
20
12.665025978373091
30
0
10
14.155078379382111
20
12.745355778166058
30
0
11
14.885506698273844
21
12.346058807078508
31
0
11
14.494227734117626
21
12.519268999072168
31
0
11
14.155078379382111
21
12.745355778166058
31
0
0
SPLINE
5
169
100
AcDbEntity
8
0
100
AcDbSpline
70
1064
71
3
72
9
73
5
74
3
42
0.000000001
43
0.0000000001
44
0.0000000001
40
0
40
0
40
0
40
0
40
0.042868236542121282
40
0.091865289298175917
40
0.091865289298175917
40
0.091865289298175917
40
0.091865289298175917
10
14.155078379382111
20
12.745355778166058
30
0
10
14.048620843870507
20
12.841328227733941
30
0
10
13.820485676982193
20
13.046994183587877
30
0
10
13.642301160529442
20
13.297382648463188
30
0
10
13.547265089564595
20
13.430929246059836
30
0
11
14.155078379382111
21
12.745355778166058
31
0
11
13.846582781915151
21
13.043011681461509
31
0
11
13.547265089564595
21
13.430929246059836
31
0
0
SPLINE
5
170
100
AcDbEntity
8
0
100
AcDbSpline
70
1064
71
3
72
9
73
5
74
3
42
0.000000001
43
0.0000000001
44
0.0000000001
40
0
40
0
40
0
40
0
40
0.044316903620518378
40
0.08241868349115708
40
0.08241868349115708
40
0.08241868349115708
40
0.08241868349115708
10
15.392624073777146
20
14.261556906781321
30
0
10
15.46559906150107
20
14.129923481713021
30
0
10
15.601314825117832
20
13.885117263064242
30
0
10
15.836709853868022
20
13.735244851592414
30
0
10
15.945531897465026
20
13.665959522238733
30
0
11
15.392624073777146
21
14.261556906781321
31
0
11
15.640368925664809
21
13.89410448399139
31
0
11
15.945531897465026
21
13.665959522238733
31
0
0
SPLINE
5
171
100
AcDbEntity
8
0
100
AcDbSpline
70
1064
71
3
72
9
73
5
74
3
42
0.000000001
43
0.0000000001
44
0.0000000001
40
0
40
0
40
0
40
0
40
0.034846744836306384
40
0.069949123945410419
40
0.069949123945410419
40
0.069949123945410419
40
0.069949123945410419
10
15.945531897465026
20
13.665959522238733
30
0
10
16.057390042225279
20
13.62593509525353
30
0
10
16.281926918449841
20
13.545592623749132
30
0
10
16.51424342435201
20
13.599655946377363
30
0
10
16.630826186272582
20
13.626786396907022
30
0
11
15.945531897465026
21
13.665959522238733
31
0
11
16.283037049523742
21
13.579242540611784
31
0
11
16.630826186272582
21
13.626786396907022
31
0
0
SPLINE
5
172
100
AcDbEntity
8
0
100
AcDbSpline
70
1064
71
3
72
9
73
5
74
3
42
0.000000001
43
0.0000000001
44
0.0000000001
40
0
40
0
40
0
40
0
40
0.038639833682079426
40
0.077118905667581866
40
0.077118905667581866
40
0.077118905667581866
40
0.077118905667581866
10
16.630826186272582
20
13.626786396907022
30
0
10
16.752517437474374
20
13.679902677893143
30
0
10
16.995393641321833
20
13.785914248659328
30
0
10
17.121481938769342
20
14.018955778132156
30
0
10
17.184394665966551
20
14.135233644247759
30
0
11
16.630826186272582
21
13.626786396907022
31
0
11
16.966581108649905
21
13.818025270563179
31
0
11
17.184394665966551
21
14.135233644247759
31
0
0
SPLINE
5
173
100
AcDbEntity
8
0
100
AcDbSpline
70
1064
71
3
72
9
73
5
74
3
42
0.000000001
43
0.0000000001
44
0.0000000001
40
0
40
0
40
0
40
0
40
0.044443150425325255
40
0.099677370247323177
40
0.099677370247323177
40
0.099677370247323177
40
0.099677370247323177
10
17.184394665966551
20
14.135233644247759
30
0
10
17.220473944646081
20
14.281498080968564
30
0
10
17.30139277206446
20
14.609540856368397
30
0
10
17.206062332856057
20
14.935413815113973
30
0
10
17.153236877871649
20
15.115989793319835
30
0
11
17.184394665966551
21
14.135233644247759
31
0
11
17.257594135637543
21
14.57359559470958
31
0
11
17.153236877871649
21
15.115989793319835
31
0
0
SPLINE
5
174
100
AcDbEntity
8
0
100
AcDbSpline
70
1064
71
3
72
9
73
5
74
3
42
0.000000001
43
0.0000000001
44
0.0000000001
40
0
40
0
40
0
40
0
40
0.05583992999758336
40
0.099311360415775957
40
0.099311360415775957
40
0.099311360415775957
40
0.099311360415775957
10
17.153236877871649
20
15.115989793319835
30
0
10
17.090074624466386
20
15.29580051523444
30
0
10
16.977740505980307
20
15.615594028791042
30
0
10
16.717426037426847
20
15.829483074094933
30
0
10
16.603478929470679
20
15.923108442947143
30
0
11
17.153236877871649
21
15.115989793319835
31
0
11
16.916966271964963
21
15.621940363037856
31
0
11
16.603478929470679
21
15.923108442947143
31
0
0
SPLINE
5
175
100
AcDbEntity
8
0
100
AcDbSpline
70
1064
71
3
72
9
73
5
74
3
42
0.000000001
43
0.0000000001
44
0.0000000001
40
0
40
0
40
0
40
0
40
0.038911527712322737
40
0.080477499802265012
40
0.080477499802265012
40
0.080477499802265012
40
0.080477499802265012
10
16.603478929470679
20
15.923108442947143
30
0
10
16.480559971768681
20
15.974486235560395
30
0
10
16.226336841099243
20
16.080746681704852
30
0
10
15.958066441417767
20
16.015341447724186
30
0
10
15.819506968607154
20
15.981560177967342
30
0
11
16.603478929470679
21
15.923108442947143
31
0
11
16.231438083860755
21
16.037109794204653
31
0
11
15.819506968607154
21
15.981560177967342
31
0
0
SPLINE
5
176
100
AcDbEntity
8
0
100
AcDbSpline
70
1064
71
3
72
9
73
5
74
3
42
0.000000001
43
0.0000000001
44
0.0000000001
40
0
40
0
40
0
40
0
40
0.02854070736092016
40
0.057874434589806928
40
0.057874434589806928
40
0.057874434589806928
40
0.057874434589806928
10
15.819506968607154
20
15.981560177967342
30
0
10
15.730306160202169
20
15.946040254456257
30
0
10
15.549426047943244
20
15.874013466056049
30
0
10
15.406373779589043
20
15.741859880938494
30
0
10
15.333867564208843
20
15.67487767634965
30
0
11
15.819506968607154
21
15.981560177967342
31
0
11
15.561104113451393
21
15.860377827298951
31
0
11
15.333867564208843
21
15.67487767634965
31
0
0
SPLINE
5
177
100
AcDbEntity
8
0
100
AcDbSpline
70
1064
71
3
72
9
73
5
74
3
42
0.000000001
43
0.0000000001
44
0.0000000001
40
0
40
0
40
0
40
0
40
0.025462123266175661
40
0.057745047760367714
40
0.057745047760367714
40
0.057745047760367714
40
0.057745047760367714
10
15.333867564208843
20
15.67487767634965
30
0
10
15.279323725523666
20
15.609377369917205
30
0
10
15.155624828264244
20
15.460830515292368
30
0
10
15.075430494909604
20
15.284645815067918
30
0
10
15.030597081327652
20
15.186148063399569
30
0
11
15.333867564208843
21
15.67487767634965
31
0
11
15.178694571695999
21
15.473003174451067
31
0
11
15.030597081327652
21
15.186148063399569
31
0
0
SPLINE
5
178
100
AcDbEntity
8
0
100
AcDbSpline
70
1064
71
3
72
9
73
5
74
3
42
0.000000001
43
0.0000000001
44
0.0000000001
40
0
40
0
40
0
40
0
40
0.033521361315836475
40
0.061577623363105037
40
0.061577623363105037
40
0.061577623363105037
40
0.061577623363105037
10
24.936706231856036
20
16.885146543469894
30
0
10
25.008412410934344
20
16.796962248902979
30
0
10
25.140134271705126
20
16.634970639247875
30
0
10
25.330467673129995
20
16.550802211569678
30
0
10
25.417188197487288
20
16.512453029933983
30
0
11
24.936706231856036
21
16.885146543469894
31
0
11
25.169193999880974
21
16.64365616236649
31
0
11
25.417188197487288
21
16.512453029933983
31
0
0
SPLINE
5
179
100
AcDbEntity
8
0
100
AcDbSpline
70
1064
71
3
72
9
73
5
74
3
42
0.000000001
43
0.0000000001
44
0.0000000001
40
0
40
0
40
0
40
0
40
0.0280360723321629
40
0.061211585394341489
40
0.061211585394341489
40
0.061211585394341489
40
0.061211585394341489
10
25.417188197487288
20
16.512453029933983
30
0
10
25.510462092403831
20
16.496425056027672
30
0
10
25.714108413332944
20
16.461430935530302
30
0
10
25.913277213348
20
16.518583385858317
30
0
10
26.021222908332216
20
16.549558925050409
30
0
11
25.417188197487288
21
16.512453029933983
31
0
11
25.696070581397016
21
16.483699749664563
31
0
11
26.021222908332216
21
16.549558925050409
31
0
0
SPLINE
5
180
100
AcDbEntity
8
0
100
AcDbSpline
70
1064
71
3
72
9
73
5
74
3
42
0.000000001
43
0.0000000001
44
0.0000000001
40
0
40
0
40
0
40
0
40
0.035778473325711886
40
0.065205774962444785
40
0.065205774962444785
40
0.065205774962444785
40
0.065205774962444785
10
26.021222908332216
20
16.549558925050409
30
0
10
26.135515629564161
20
16.590792834458995
30
0
10
26.343812540185549
20
16.665941066560507
30
0
10
26.491519068834684
20
16.829779585727085
30
0
10
26.55817887887109
20
16.90371974710094
30
0
11
26.021222908332216
21
16.549558925050409
31
0
11
26.345858957451807
21
16.699962884319746
31
0
11
26.55817887887109
21
16.90371974710094
31
0
0
SPLINE
5
181
100
AcDbEntity
8
0
100
AcDbSpline
70
1064
71
3
72
9
73
5
74
3
42
0.000000001
43
0.0000000001
44
0.0000000001
40
0
40
0
40
0
40
0
40
0.019190291757676614
40
0.037161595764772321
40
0.037161595764772321
40
0.037161595764772321
40
0.037161595764772321
10
26.55817887887109
20
16.90371974710094
30
0
10
26.592017103143245
20
16.960828160925271
30
0
10
26.657544111678519
20
17.071417401365462
30
0
10
26.634014945693465
20
17.197436549000287
30
0
10
26.622636268695107
20
17.258379260588772
30
0
11
26.55817887887109
21
16.90371974710094
31
0
11
26.635944926074604
21
17.079159684620354
31
0
11
26.622636268695107
21
17.258379260588772
31
0
0
SPLINE
5
182
100
AcDbEntity
8
0
100
AcDbSpline
70
1064
71
3
72
9
73
5
74
3
42
0.000000001
43
0.0000000001
44
0.0000000001
40
0
40
0
40
0
40
0
40
0.019853602088781223
40
0.041860140635314361
40
0.041860140635314361
40
0.041860140635314361
40
0.041860140635314361
10
26.622636268695107
20
17.258379260588772
30
0
10
26.590892392518871
20
17.320018028791196
30
0
10
26.523962315291314
20
17.449979710001628
30
0
10
26.381376421474041
20
17.485878872540518
30
0
10
26.306416760066817
20
17.504751630543961
30
0
11
26.622636268695107
21
17.258379260588772
31
0
11
26.510386206595413
21
17.422136627288964
31
0
11
26.306416760066817
21
17.504751630543961
31
0
0
SPLINE
5
183
100
AcDbEntity
8
0
100
AcDbSpline
70
1064
71
3
72
9
73
5
74
3
42
0.000000001
43
0.0000000001
44
0.0000000001
40
0
40
0
40
0
40
0
40
0.030847097924367694
40
0.087991782452552333
40
0.087991782452552333
40
0.087991782452552333
40
0.087991782452552333
10
26.306416760066817
20
17.504751630543961
30
0
10
26.203475804864098
20
17.505795173935049
30
0
10
25.909835276414253
20
17.508771896195057
30
0
10
25.619152491192246
20
17.464494846053963
30
0
10
25.430373771222094
20
17.435739910176679
30
0
11
26.306416760066817
21
17.504751630543961
31
0
11
25.997957394832895
21
17.502074872235941
31
0
11
25.430373771222094
21
17.435739910176679
31
0
0
SPLINE
5
184
100
AcDbEntity
8
0
100
AcDbSpline
70
1064
71
3
72
9
73
5
74
3
42
0.000000001
43
0.0000000001
44
0.0000000001
40
0
40
0
40
0
40
0
40
0.089463882132654077
40
0.14793301332385378
40
0.14793301332385378
40
0.14793301332385378
40
0.14793301332385378
10
25.430373771222094
20
17.435739910176679
30
0
10
25.134845865892828
20
17.393107568531587
30
0
10
24.646175661621783
20
17.322612854751348
30
0
10
24.15283047389789
20
17.310994992265091
30
0
10
23.957840431746675
20
17.306403141463107
30
0
11
25.430373771222094
21
17.435739910176679
31
0
11
24.542080255087502
21
17.329376148407057
31
0
11
23.957840431746675
21
17.306403141463107
31
0
0
SPLINE
5
185
100
AcDbEntity
8
0
100
AcDbSpline
70
1064
71
3
72
9
73
5
74
3
42
0.000000001
43
0.0000000001
44
0.0000000001
40
0
40
0
40
0
40
0
40
0.042470996721471685
40
0.086493891021476976
40
0.086493891021476976
40
0.086493891021476976
40
0.086493891021476976
10
23.957840431746675
20
17.306403141463107
30
0
10
23.815859580295733
20
17.32534970013495
30
0
10
23.526709872482897
20
17.363935128015097
30
0
10
23.277658582371611
20
17.516108136864005
30
0
10
23.150898663371933
20
17.593559806626505
30
0
11
23.957840431746675
21
17.306403141463107
31
0
11
23.541565980482574
21
17.390629844332814
31
0
11
23.150898663371933
21
17.593559806626505
31
0
0
SPLINE
5
186
100
AcDbEntity
8
0
100
AcDbSpline
70
1064
71
3
72
9
73
5
74
3
42
0.000000001
43
0.0000000001
44
0.0000000001
40
0
40
0
40
0
40
0
40
0.044226699222420077
40
0.089062412118012774
40
0.089062412118012774
40
0.089062412118012774
40
0.089062412118012774
10
23.150898663371933
20
17.593559806626505
30
0
10
23.035845407564199
20
17.689575893980912
30
0
10
22.804154581334217
20
17.882930236318579
30
0
10
22.690195964122921
20
18.162444974845961
30
0
10
22.632827027870739
20
18.303158012688392
30
0
11
23.150898663371933
21
17.593559806626505
31
0
11
22.834770794802669
21
17.902854590166243
31
0
11
22.632827027870739
21
18.303158012688392
31
0
0
SPLINE
5
187
100
AcDbEntity
8
0
100
AcDbSpline
70
1064
71
3
72
9
73
5
74
3
42
0.000000001
43
0.0000000001
44
0.0000000001
40
0
40
0
40
0
40
0
40
0.048306848844433342
40
0.094690033845523297
40
0.094690033845523297
40
0.094690033845523297
40
0.094690033845523297
10
22.632827027870739
20
18.303158012688392
30
0
10
22.593059741561696
20
18.462345228043265
30
0
10
22.515108772359078
20
18.774380543330956
30
0
10
22.600947444158379
20
19.084045537744739
30
0
10
22.642994857519856
20
19.235732554223034
30
0
11
22.632827027870739
21
18.303158012688392
31
0
11
22.556153203033581
21
18.780102756985606
31
0
11
22.642994857519856
21
19.235732554223034
31
0
0
SPLINE
5
188
100
AcDbEntity
8
0
100
AcDbSpline
70
1064
71
3
72
9
73
5
74
3
42
0.000000001
43
0.0000000001
44
0.0000000001
40
0
40
0
40
0
40
0
40
0.047954371033728925
40
0.099872727631744276
40
0.099872727631744276
40
0.099872727631744276
40
0.099872727631744276
10
22.642994857519856
20
19.235732554223034
30
0
10
22.713276536826012
20
19.381424623902685
30
0
10
22.859649492273775
20
19.684851904452078
30
0
10
23.118232653729727
20
19.901402918434478
30
0
10
23.252655865201575
20
20.013975920416122
30
0
11
22.642994857519856
21
19.235732554223034
31
0
11
22.879709806514281
21
19.652779557625074
31
0
11
23.252655865201575
21
20.013975920416122
31
0
0
SPLINE
5
189
100
AcDbEntity
8
0
100
AcDbSpline
70
1064
71
3
72
9
73
5
74
3
42
0.000000001
43
0.0000000001
44
0.0000000001
40
0
40
0
40
0
40
0
40
0.062720505830965681
40
0.14183610140452685
40
0.14183610140452685
40
0.14183610140452685
40
0.14183610140452685
10
23.252655865201575
20
20.013975920416122
30
0
10
23.428849562817604
20
20.127932864113145
30
0
10
23.827293848794113
20
20.385635004869506
30
0
10
24.277162971574555
20
20.53832044759816
30
0
10
24.528098122967499
20
20.623487761259994
30
0
11
23.252655865201575
21
20.013975920416122
31
0
11
23.791292800388501
21
20.335311317192847
31
0
11
24.528098122967499
21
20.623487761259994
31
0
0
SPLINE
5
190
100
AcDbEntity
8
0
100
AcDbSpline
70
1064
71
3
72
9
73
5
74
3
42
0.000000001
43
0.0000000001
44
0.0000000001
40
0
40
0
40
0
40
0
40
0.080644142332869193
40
0.13779195591916835
40
0.13779195591916835
40
0.13779195591916835
40
0.13779195591916835
10
24.528098122967499
20
20.623487761259994
30
0
10
24.784936037110754
20
20.706272000387646
30
0
10
25.223780043882119
20
20.84772061523676
30
0
10
25.682060733672166
20
20.892661902350589
30
0
10
25.87212799308233
20
20.91130084452379
30
0
11
24.528098122967499
21
20.623487761259994
31
0
11
25.305269501863592
21
20.838783876146355
31
0
11
25.87212799308233
21
20.91130084452379
31
0
0
SPLINE
5
191
100
AcDbEntity
8
0
100
AcDbSpline
70
1064
71
3
72
9
73
5
74
3
42
0.000000001
43
0.0000000001
44
0.0000000001
40
0
40
0
40
0
40
0
40
0.044483366536432603
40
0.086484247097840528
40
0.086484247097840528
40
0.086484247097840528
40
0.086484247097840528
10
25.87212799308233
20
20.91130084452379
30
0
10
26.021705270397241
20
20.90500164572806
30
0
10
26.312512356702857
20
20.89275478791162
30
0
10
26.579488526583049
20
20.777277197531284
30
0
10
26.70914490448034
20
20.721195764856084
30
0
11
25.87212799308233
21
20.91130084452379
31
0
11
26.314555159944852
21
20.865092708189774
31
0
11
26.70914490448034
21
20.721195764856084
31
0
0
SPLINE
5
192
100
AcDbEntity
8
0
100
AcDbSpline
70
1064
71
3
72
9
73
5
74
3
42
0.000000001
43
0.0000000001
44
0.0000000001
40
0
40
0
40
0
40
0
40
0.04436680731565984
40
0.094976693678014715
40
0.094976693678014715
40
0.094976693678014715
40
0.094976693678014715
10
26.70914490448034
20
20.721195764856084
30
0
10
26.836169944373776
20
20.643674281175727
30
0
10
27.108094363400824
20
20.4777228716774
30
0
10
27.316228176517843
20
20.236108146876401
30
0
10
27.427135686793214
20
20.107359784598124
30
0
11
26.70914490448034
21
20.721195764856084
31
0
11
27.07630003206754
21
20.472120532396254
31
0
11
27.427135686793214
21
20.107359784598124
31
0
0
SPLINE
5
193
100
AcDbEntity
8
0
100
AcDbSpline
70
1064
71
3
72
9
73
5
74
3
42
0.000000001
43
0.0000000001
44
0.0000000001
40
0
40
0
40
0
40
0
40
0.02371088169348998
40
0.04468744930816726
40
0.04468744930816726
40
0.04468744930816726
40
0.04468744930816726
10
25.691954195076026
20
19.348469611512449
30
0
10
25.643185514616071
20
19.412660999453188
30
0
10
25.551272106921964
20
19.533641291612046
30
0
10
25.411981254875609
20
19.59330621866874
30
0
10
25.346597259563922
20
19.62131330781806
30
0
11
25.691954195076026
21
19.348469611512449
31
0
11
25.532309994260622
21
19.523781676739802
31
0
11
25.346597259563922
21
19.62131330781806
31
0
0
SPLINE
5
194
100
AcDbEntity
8
0
100
AcDbSpline
70
1064
71
3
72
9
73
5
74
3
42
0.000000001
43
0.0000000001
44
0.0000000001
40
0
40
0
40
0
40
0
40
0.028408570718337609
40
0.059417313509953676
40
0.059417313509953676
40
0.059417313509953676
40
0.059417313509953676
10
25.346597259563922
20
19.62131330781806
30
0
10
25.25222645799742
20
19.638543456551275
30
0
10
25.054847309343415
20
19.674580790469097
30
0
10
24.860864738372896
20
19.622215276819723
30
0
10
24.759628999260034
20
19.594886731518994
30
0
11
25.346597259563922
21
19.62131330781806
31
0
11
25.064261306299066
21
19.652795025050537
31
0
11
24.759628999260034
21
19.594886731518994
31
0
0
SPLINE
5
195
100
AcDbEntity
8
0
100
AcDbSpline
70
1064
71
3
72
9
73
5
74
3
42
0.000000001
43
0.0000000001
44
0.0000000001
40
0
40
0
40
0
40
0
40
0.029333981221442252
40
0.051458699190670594
40
0.051458699190670594
40
0.051458699190670594
40
0.051458699190670594
10
24.759628999260034
20
19.594886731518994
30
0
10
24.665383105033165
20
19.56264577363828
30
0
10
24.500053650283551
20
19.50608755398585
30
0
10
24.379958802270355
20
19.380424039718605
30
0
10
24.328323905087981
20
19.326394889042191
30
0
11
24.759628999260034
21
19.594886731518994
31
0
11
24.491590568430972
21
19.47570768542159
31
0
11
24.328323905087981
21
19.326394889042191
31
0
0
SPLINE
5
196
100
AcDbEntity
8
0
100
AcDbSpline
70
1064
71
3
72
9
73
5
74
3
42
0.000000001
43
0.0000000001
44
0.0000000001
40
0
40
0
40
0
40
0
40
0.017305592670404275
40
0.033500969768024025
40
0.033500969768024025
40
0.033500969768024025
40
0.033500969768024025
10
24.328323905087981
20
19.326394889042191
30
0
10
24.298801992852745
20
19.274431960557386
30
0
10
24.241652104482931
20
19.173839711023817
30
0
10
24.263046102859327
20
19.060449896666892
30
0
10
24.273388605590771
20
19.005633847601583
30
0
11
24.328323905087981
21
19.326394889042191
31
0
11
24.26071716971526
21
19.167091144266251
31
0
11
24.273388605590771
21
19.005633847601583
31
0
0
SPLINE
5
197
100
AcDbEntity
8
0
100
AcDbSpline
70
1064
71
3
72
9
73
5
74
3
42
0.000000001
43
0.0000000001
44
0.0000000001
40
0
40
0
40
0
40
0
40
0.017421875684250618
40
0.036411952094110245
40
0.036411952094110245
40
0.036411952094110245
40
0.036411952094110245
10
24.273388605590771
20
19.005633847601583
30
0
10
24.300994379877373
20
18.951263056303578
30
0
10
24.358690815614956
20
18.83762737872545
30
0
10
24.483219382128208
20
18.807641421732988
30
0
10
24.548165281957608
20
18.792002721203065
30
0
11
24.273388605590771
21
19.005633847601583
31
0
11
24.371505779517989
21
18.861671368405489
31
0
11
24.548165281957608
21
18.792002721203065
31
0
0
SPLINE
5
198
100
AcDbEntity
8
0
100
AcDbSpline
70
1064
71
3
72
9
73
5
74
3
42
0.000000001
43
0.0000000001
44
0.0000000001
40
0
40
0
40
0
40
0
40
0.032364060663611721
40
0.08695392625087256
40
0.08695392625087256
40
0.08695392625087256
40
0.08695392625087256
10
24.548165281957608
20
18.792002721203065
30
0
10
24.65627166106615
20
18.791771374744229
30
0
10
24.946725761185363
20
18.791149806173809
30
0
10
25.23164087477727
20
18.850259412761964
30
0
10
25.410511207899283
20
18.887368553403334
30
0
11
24.548165281957608
21
18.792002721203065
31
0
11
24.871717096790942
21
18.799583313650338
31
0
11
25.410511207899283
21
18.887368553403334
31
0
0
SPLINE
5
199
100
AcDbEntity
8
0
100
AcDbSpline
70
1064
71
3
72
9
73
5
74
3
42
0.000000001
43
0.0000000001
44
0.0000000001
40
0
40
0
40
0
40
0
40
0.087462676125981922
40
0.15104666350071308
40
0.15104666350071308
40
0.15104666350071308
40
0.15104666350071308
10
25.410511207899283
20
18.887368553403334
30
0
10
25.697288224704845
20
18.944736554042404
30
0
10
26.192547613918762
20
19.04381018718572
30
0
10
26.69711517236367
20
19.045240605810751
30
0
10
26.90951587372513
20
19.04584274900072
30
0
11
25.410511207899283
21
18.887368553403334
31
0
11
26.273963213414682
21
19.026733562222912
31
0
11
26.90951587372513
21
19.04584274900072
31
0
0
SPLINE
5
200
100
AcDbEntity
8
0
100
AcDbSpline
70
1064
71
3
72
9
73
5
74
3
42
0.000000001
43
0.0000000001
44
0.0000000001
40
0
40
0
40
0
40
0
40
0.049041586628181186
40
0.094287701729678625
40
0.094287701729678625
40
0.094287701729678625
40
0.094287701729678625
10
26.90951587372513
20
19.04584274900072
30
0
10
27.073876647005388
20
19.024405760398263
30
0
10
27.389877833602458
20
18.983190854309367
30
0
10
27.658410685513779
20
18.812340635779062
30
0
10
27.787272330279997
20
18.730354241891757
30
0
11
26.90951587372513
21
19.04584274900072
31
0
11
27.389756481717829
21
18.946461260101941
31
0
11
27.787272330279997
21
18.730354241891757
31
0
0
SPLINE
5
201
100
AcDbEntity
8
0
100
AcDbSpline
70
1064
71
3
72
9
73
5
74
3
42
0.000000001
43
0.0000000001
44
0.0000000001
40
0
40
0
40
0
40
0
40
0.043509462423578553
40
0.086600455639857021
40
0.086600455639857021
40
0.086600455639857021
40
0.086600455639857021
10
27.787272330279997
20
18.730354241891757
30
0
10
27.898113922544031
20
18.633476135120127
30
0
10
28.118731044871666
20
18.440651684515032
30
0
10
28.230007574905969
20
18.169650547376591
30
0
10
28.285376985671888
20
18.034804742285221
30
0
11
27.787272330279997
21
18.730354241891757
31
0
11
28.092197143874404
21
18.419986411578599
31
0
11
28.285376985671888
21
18.034804742285221
31
0
0
SPLINE
5
202
100
AcDbEntity
8
0
100
AcDbSpline
70
1064
71
3
72
9
73
5
74
3
42
0.000000001
43
0.0000000001
44
0.0000000001
40
0
40
0
40
0
40
0
40
0.044835712895592704
40
0.092557711687966421
40
0.092557711687966421
40
0.092557711687966421
40
0.092557711687966421
10
28.285376985671888
20
18.034804742285221
30
0
10
28.319849242078593
20
17.88745052056295
30
0
10
28.391012896310109
20
17.583256192217263
30
0
10
28.3279336885448
20
17.276977176586428
30
0
10
28.295410565166943
20
17.119062222256755
30
0
11
28.285376985671888
21
18.034804742285221
31
0
11
28.357293494516583
21
17.592252902563374
31
0
11
28.295410565166943
21
17.119062222256755
31
0
0
SPLINE
5
203
100
AcDbEntity
8
0
100
AcDbSpline
70
1064
71
3
72
9
73
5
74
3
42
0.000000001
43
0.0000000001
44
0.0000000001
40
0
40
0
40
0
40
0
40
0.051673965194963867
40
0.11037874484658954
40
0.11037874484658954
40
0.11037874484658954
40
0.11037874484658954
10
28.295410565166943
20
17.119062222256755
30
0
10
28.234666499750915
20
16.955486129987211
30
0
10
28.104913467015706
20
16.606077609013447
30
0
10
27.835670113577613
20
16.347200552226397
30
0
10
27.692473416077419
20
16.209517154968463
30
0
11
28.295410565166943
21
17.119062222256755
31
0
11
28.082606868994134
21
16.648175341156605
31
0
11
27.692473416077419
21
16.209517154968463
31
0
0
SPLINE
5
204
100
AcDbEntity
8
0
100
AcDbSpline
70
1064
71
3
72
9
73
5
74
3
42
0.000000001
43
0.0000000001
44
0.0000000001
40
0
40
0
40
0
40
0
40
0.071218167940768295
40
0.1613991345843247
40
0.1613991345843247
40
0.1613991345843247
40
0.1613991345843247
10
27.692473416077419
20
16.209517154968463
30
0
10
27.498590170088764
20
16.070420570497301
30
0
10
27.05919964632529
20
15.755191058051087
30
0
10
26.546595793118037
20
15.580119014738711
30
0
10
26.260180930321546
20
15.482298378098779
30
0
11
27.692473416077419
21
16.209517154968463
31
0
11
27.096568608295676
21
15.819516892729384
31
0
11
26.260180930321546
21
15.482298378098779
31
0
0
SPLINE
5
205
100
AcDbEntity
8
0
100
AcDbSpline
70
1064
71
3
72
9
73
5
74
3
42
0.000000001
43
0.0000000001
44
0.0000000001
40
0
40
0
40
0
40
0
40
0.1221251097710857
40
0.20857726659784259
40
0.20857726659784259
40
0.20857726659784259
40
0.20857726659784259
10
26.260180930321546
20
15.482298378098779
30
0
10
25.866966754304784
20
15.356384802178393
30
0
10
25.195396934021058
20
15.141337220708358
30
0
10
24.497162542745471
20
15.212187883913703
30
0
10
24.207754832686735
20
15.241554423933227
30
0
11
26.260180930321546
21
15.482298378098779
31
0
11
25.071397046923856
21
15.202571507323238
31
0
11
24.207754832686735
21
15.241554423933227
31
0
0
SPLINE
5
206
100
AcDbEntity
8
0
100
AcDbSpline
70
1064
71
3
72
9
73
5
74
3
42
0.000000001
43
0.0000000001
44
0.0000000001
40
0
40
0
40
0
40
0
40
0.069571511259894275
40
0.14134927021383792
40
0.14134927021383792
40
0.14134927021383792
40
0.14134927021383792
10
24.207754832686735
20
15.241554423933227
30
0
10
23.987252957874183
20
15.328914522904544
30
0
10
23.539256665697845
20
15.506405079193817
30
0
10
23.259829890273295
20
15.899487667827255
30
0
10
23.117935788511335
20
16.099096673612987
30
0
11
24.207754832686735
21
15.241554423933227
31
0
11
23.587086297137457
21
15.555863327525968
31
0
11
23.117935788511335
21
16.099096673612987
31
0
0
SPLINE
5
207
100
AcDbEntity
8
0
100
AcDbSpline
70
1064
71
3
72
9
73
5
74
3
42
0.000000001
43
0.0000000001
44
0.0000000001
40
0
40
0
40
0
40
0
40
0.042740126925321482
40
0.076686430090818325
40
0.076686430090818325
40
0.076686430090818325
40
0.076686430090818325
10
30.742227659793741
20
19.274615905704305
30
0
10
30.805048386342612
20
19.144257680732331
30
0
10
30.917764412272099
20
18.910362565644263
30
0
10
31.119392538602625
20
18.74831807326985
30
0
10
31.208646002285857
20
18.676586849663192
30
0
11
30.742227659793741
21
19.274615905704305
31
0
11
30.958308044069089
21
18.905859736277037
31
0
11
31.208646002285857
21
18.676586849663192
31
0
0
SPLINE
5
208
100
AcDbEntity
8
0
100
AcDbSpline
70
1064
71
3
72
9
73
5
74
3
42
0.000000001
43
0.0000000001
44
0.0000000001
40
0
40
0
40
0
40
0
40
0.041724661361846944
40
0.084553252740493356
40
0.084553252740493356
40
0.084553252740493356
40
0.084553252740493356
10
31.208646002285857
20
18.676586849663192
30
0
10
31.338242582978321
20
18.615376679149151
30
0
10
31.600864545240988
20
18.491336870344494
30
0
10
31.884326613568312
20
18.555850744826881
30
0
10
32.027908092722015
20
18.588528829689444
30
0
11
31.208646002285857
21
18.676586849663192
31
0
11
31.602510614429281
21
18.538871912647675
31
0
11
32.027908092722015
21
18.588528829689444
31
0
0
SPLINE
5
209
100
AcDbEntity
8
0
100
AcDbSpline
70
1064
71
3
72
9
73
5
74
3
42
0.000000001
43
0.0000000001
44
0.0000000001
40
0
40
0
40
0
40
0
40
0.028798246950201417
40
0.058040138714376896
40
0.058040138714376896
40
0.058040138714376896
40
0.058040138714376896
10
32.027908092722015
20
18.588528829689444
30
0
10
32.117995132279816
20
18.624411485459444
30
0
10
32.299557026701528
20
18.696729579054946
30
0
10
32.440851418873386
20
18.83180247943557
30
0
10
32.51203862507748
20
18.899855161953106
30
0
11
32.027908092722015
21
18.588528829689444
31
0
11
32.288255645190056
21
18.71162657404075
31
0
11
32.51203862507748
21
18.899855161953106
31
0
0
SPLINE
5
210
100
AcDbEntity
8
0
100
AcDbSpline
70
1064
71
3
72
9
73
5
74
3
42
0.000000001
43
0.0000000001
44
0.0000000001
40
0
40
0
40
0
40
0
40
0.021070481641611735
40
0.04786428958294759
40
0.04786428958294759
40
0.04786428958294759
40
0.04786428958294759
10
32.51203862507748
20
18.899855161953106
30
0
10
32.554317474330588
20
18.956332626589667
30
0
10
32.650359279084057
20
19.084628399237612
30
0
10
32.708249807685874
20
19.234324048913692
30
0
10
32.740656174070807
20
19.318121730275358
30
0
11
32.51203862507748
21
18.899855161953106
31
0
11
32.631481933577312
21
19.073434583877376
31
0
11
32.740656174070807
21
19.318121730275358
31
0
0
SPLINE
5
211
100
AcDbEntity
8
0
100
AcDbSpline
70
1064
71
3
72
9
73
5
74
3
42
0.000000001
43
0.0000000001
44
0.0000000001
40
0
40
0
40
0
40
0
40
0.083449679853717762
40
0.15762424652341395
40
0.15762424652341395
40
0.15762424652341395
40
0.15762424652341395
10
34.658660528691072
20
19.751357685555796
30
0
10
34.589111709129462
20
19.478301430530291
30
0
10
34.457744155662418
20
18.962538080301186
30
0
10
34.129320007337505
20
18.544858183505866
30
0
10
33.974770695139867
20
18.348307043470228
30
0
11
34.658660528691072
21
19.751357685555796
31
0
11
34.394781624016254
21
18.959680459385673
31
0
11
33.974770695139867
21
18.348307043470228
31
0
0
SPLINE
5
212
100
AcDbEntity
8
0
100
AcDbSpline
70
1064
71
3
72
9
73
5
74
3
42
0.000000001
43
0.0000000001
44
0.0000000001
40
0
40
0
40
0
40
0
40
0.081297178509446455
40
0.18649331984229864
40
0.18649331984229864
40
0.18649331984229864
40
0.18649331984229864
10
33.974770695139867
20
18.348307043470228
30
0
10
33.762650388674871
20
18.176491089387099
30
0
10
33.276052687697742
20
17.782350379139558
30
0
10
32.681887509404923
20
17.579497570209274
30
0
10
32.346734035148557
20
17.465073456916418
30
0
11
33.974770695139867
21
18.348307043470228
31
0
11
33.317968623632034
21
17.869209806760708
31
0
11
32.346734035148557
21
17.465073456916418
31
0
0
SPLINE
5
213
100
AcDbEntity
8
0
100
AcDbSpline
70
1064
71
3
72
9
73
5
74
3
42
0.000000001
43
0.0000000001
44
0.0000000001
40
0
40
0
40
0
40
0
40
0.092322367275743514
40
0.16564639788335675
40
0.16564639788335675
40
0.16564639788335675
40
0.16564639788335675
10
32.346734035148557
20
17.465073456916418
30
0
10
32.04989688777745
20
17.374331075799418
30
0
10
31.517306512650531
20
17.211519516575692
30
0
10
30.961838787174006
20
17.229953896088087
30
0
10
30.715958810157773
20
17.238113946803779
30
0
11
32.346734035148557
21
17.465073456916418
31
0
11
31.449116095750771
21
17.249147578867959
31
0
11
30.715958810157773
21
17.238113946803779
31
0
0
SPLINE
5
214
100
AcDbEntity
8
0
100
AcDbSpline
70
1064
71
3
72
9
73
5
74
3
42
0.000000001
43
0.0000000001
44
0.0000000001
40
0
40
0
40
0
40
0
40
0.065932660761425191
40
0.13607052745927201
40
0.13607052745927201
40
0.13607052745927201
40
0.13607052745927201
10
30.715958810157773
20
17.238113946803779
30
0
10
30.4993407924464
20
17.288407022828316
30
0
10
30.052288791408195
20
17.392200883157599
30
0
10
29.68611642410319
20
17.669552914888108
30
0
10
29.497372034219339
20
17.812514658280435
30
0
11
30.715958810157773
21
17.238113946803779
31
0
11
30.085094200806438
21
17.429742285459902
31
0
11
29.497372034219339
21
17.812514658280435
31
0
0
SPLINE
5
215
100
AcDbEntity
8
0
100
AcDbSpline
70
1064
71
3
72
9
73
5
74
3
42
0.000000001
43
0.0000000001
44
0.0000000001
40
0
40
0
40
0
40
0
40
0.074791754259431881
40
0.15532726709818701
40
0.15532726709818701
40
0.15532726709818701
40
0.15532726709818701
10
29.497372034219339
20
17.812514658280435
30
0
10
29.320678386844271
20
17.992374975784358
30
0
10
28.953721606218707
20
18.365908286427
30
0
10
28.767076773159577
20
18.855720015068933
30
0
10
28.670303440119355
20
19.109682113917156
30
0
11
29.497372034219339
21
17.812514658280435
31
0
11
29.009096892393416
21
18.379055068485389
31
0
11
28.670303440119355
21
19.109682113917156
31
0
0
SPLINE
5
216
100
AcDbEntity
8
0
100
AcDbSpline
70
1064
71
3
72
9
73
5
74
3
42
0.000000001
43
0.0000000001
44
0.0000000001
40
0
40
0
40
0
40
0
40
0.11168479670245357
40
0.2161993708686914
40
0.2161993708686914
40
0.2161993708686914
40
0.2161993708686914
10
28.670303440119355
20
19.109682113917156
30
0
10
28.578899844728582
20
19.481074179216517
30
0
10
28.401960812719871
20
20.200014744397144
30
0
10
28.670689102932805
20
20.888318426633319
30
0
10
28.800597079561861
20
21.221056519056628
30
0
11
28.670303440119355
21
19.109682113917156
31
0
11
28.515022280645603
21
20.215682630625594
31
0
11
28.800597079561861
21
21.221056519056628
31
0
0
SPLINE
5
217
100
AcDbEntity
8
0
100
AcDbSpline
70
1064
71
3
72
9
73
5
74
3
42
0.000000001
43
0.0000000001
44
0.0000000001
40
0
40
0
40
0
40
0
40
0.1086744626009343
40
0.23254575956005546
40
0.23254575956005546
40
0.23254575956005546
40
0.23254575956005546
10
28.800597079561861
20
21.221056519056628
30
0
10
29.016641557922807
20
21.521595844964555
30
0
10
29.478941771945397
20
22.164701356123761
30
0
10
30.220924499786655
20
22.449770057790161
30
0
10
30.616160099837355
20
22.601619009431655
30
0
11
28.800597079561861
21
21.221056519056628
31
0
11
29.509811139009354
21
22.044481864817978
31
0
11
30.616160099837355
21
22.601619009431655
31
0
0
SPLINE
5
218
100
AcDbEntity
8
0
100
AcDbSpline
70
1064
71
3
72
9
73
5
74
3
42
0.000000001
43
0.0000000001
44
0.0000000001
40
0
40
0
40
0
40
0
40
0.099964853905432846
40
0.18021854165254392
40
0.18021854165254392
40
0.18021854165254392
40
0.18021854165254392
10
30.616160099837355
20
22.601619009431655
30
0
10
30.9381889046794
20
22.699139193244335
30
0
10
31.518748564513913
20
22.874950437114446
30
0
10
32.122979373978126
20
22.839967148833566
30
0
10
32.392051303343834
20
22.824388630284268
30
0
11
30.616160099837355
21
22.601619009431655
31
0
11
31.589529594354833
21
22.829322827529303
31
0
11
32.392051303343834
21
22.824388630284268
31
0
0
SPLINE
5
219
100
AcDbEntity
8
0
100
AcDbSpline
70
1064
71
3
72
9
73
5
74
3
42
0.000000001
43
0.0000000001
44
0.0000000001
40
0
40
0
40
0
40
0
40
0.070173868630492658
40
0.14012399225738686
40
0.14012399225738686
40
0.14012399225738686
40
0.14012399225738686
10
32.392051303343834
20
22.824388630284268
30
0
10
32.622653412352314
20
22.768148080743526
30
0
10
33.083122369926642
20
22.655846301146703
30
0
10
33.446057745241205
20
22.351057062647477
30
0
10
33.627235671753574
20
22.198905781701917
30
0
11
32.392051303343834
21
22.824388630284268
31
0
11
33.05939630355865
21
22.607391315680498
31
0
11
33.627235671753574
21
22.198905781701917
31
0
0
SPLINE
5
220
100
AcDbEntity
8
0
100
AcDbSpline
70
1064
71
3
72
9
73
5
74
3
42
0.000000001
43
0.0000000001
44
0.0000000001
40
0
40
0
40
0
40
0
40
0.077824778679601331
40
0.1711013555903465
40
0.1711013555903465
40
0.1711013555903465
40
0.1711013555903465
10
33.627235671753574
20
22.198905781701917
30
0
10
33.795400609789006
20
21.998665116430072
30
0
10
34.165118961049416
20
21.55842680347094
30
0
10
34.357375787749469
20
21.01546788962434
30
0
10
34.462185352936309
20
20.719471702381721
30
0
11
33.627235671753574
21
22.198905781701917
31
0
11
34.095016368141749
21
21.576932440038874
31
0
11
34.462185352936309
21
20.719471702381721
31
0
0
SPLINE
5
221
100
AcDbEntity
8
0
100
AcDbSpline
70
1064
71
3
72
9
73
5
74
3
42
0.000000001
43
0.0000000001
44
0.0000000001
40
0
40
0
40
0
40
0
40
0.050592070101015019
40
0.089514127507741625
40
0.089514127507741625
40
0.089514127507741625
40
0.089514127507741625
10
32.314817531119601
20
20.786729442893193
30
0
10
32.242221462103487
20
20.942794425183521
30
0
10
32.11377497304909
20
21.218925065743118
30
0
10
31.869031187320825
20
21.397375947067957
30
0
10
31.762612994536322
20
21.474969011320361
30
0
11
32.314817531119601
21
20.786729442893193
31
0
11
32.059879962570008
21
21.223722110855281
31
0
11
31.762612994536322
21
21.474969011320361
31
0
0
SPLINE
5
222
100
AcDbEntity
8
0
100
AcDbSpline
70
1064
71
3
72
9
73
5
74
3
42
0.000000001
43
0.0000000001
44
0.0000000001
40
0
40
0
40
0
40
0
40
0.034435513724700099
40
0.07194309466923926
40
0.07194309466923926
40
0.07194309466923926
40
0.07194309466923926
10
31.762612994536322
20
21.474969011320361
30
0
10
31.652278229784187
20
21.515450547689817
30
0
10
31.421765495479388
20
21.600025066503949
30
0
10
31.183147195060037
20
21.539606111457665
30
0
10
31.058743383144876
20
21.508106648480691
30
0
11
31.762612994536322
21
21.474969011320361
31
0
11
31.42975167312358
21
21.563194864990155
31
0
11
31.058743383144876
21
21.508106648480691
31
0
0
SPLINE
5
223
100
AcDbEntity
8
0
100
AcDbSpline
70
1064
71
3
72
9
73
5
74
3
42
0.000000001
43
0.0000000001
44
0.0000000001
40
0
40
0
40
0
40
0
40
0.043627116788646038
40
0.087095462072338065
40
0.087095462072338065
40
0.087095462072338065
40
0.087095462072338065
10
31.058743383144876
20
21.508106648480691
30
0
10
30.921026834430286
20
21.447008387273272
30
0
10
30.646094926749722
20
21.325034218834489
30
0
10
30.518709422921582
20
21.052616885750961
30
0
10
30.455132780318323
20
20.916656522099615
30
0
11
31.058743383144876
21
21.508106648480691
31
0
11
30.682614946108572
21
21.287063822807369
31
0
11
30.455132780318323
21
20.916656522099615
31
0
0
SPLINE
5
224
100
AcDbEntity
8
0
100
AcDbSpline
70
1064
71
3
72
9
73
5
74
3
42
0.000000001
43
0.0000000001
44
0.0000000001
40
0
40
0
40
0
40
0
40
0.032700720628036556
40
0.074164755359641676
40
0.074164755359641676
40
0.074164755359641676
40
0.074164755359641676
10
30.455132780318323
20
20.916656522099615
30
0
10
30.43188930773649
20
20.80907825049497
30
0
10
30.379173452408761
20
20.565092306383047
30
0
10
30.426296106522649
20
20.319164873723036
30
0
10
30.452641442084662
20
20.181671753711775
30
0
11
30.455132780318323
21
20.916656522099615
31
0
11
30.40481200783773
21
20.593544261706658
31
0
11
30.452641442084662
21
20.181671753711775
31
0
0
SPLINE
5
225
100
AcDbEntity
8
0
100
AcDbSpline
70
1064
71
3
72
9
73
5
74
3
42
0.000000001
43
0.0000000001
44
0.0000000001
40
0
40
0
40
0
40
0
40
0.04789591699332682
40
0.095728324322088387
40
0.095728324322088387
40
0.095728324322088387
40
0.095728324322088387
10
41.23643246574899
20
20.538338914693636
30
0
10
41.27778637282502
20
20.382829551155716
30
0
10
41.360439351973767
20
20.072017028452507
30
0
10
41.335763284398595
20
19.751354492484833
30
0
10
41.323433436112992
20
19.591129594116477
30
0
11
41.23643246574899
21
20.538338914693636
31
0
11
41.333626310482302
21
20.069345052250725
31
0
11
41.323433436112992
21
19.591129594116477
31
0
0
SPLINE
5
226
100
AcDbEntity
8
0
100
AcDbSpline
70
1064
71
3
72
9
73
5
74
3
42
0.000000001
43
0.0000000001
44
0.0000000001
40
0
40
0
40
0
40
0
40
0.046810423556674828
40
0.091178574303290794
40
0.091178574303290794
40
0.091178574303290794
40
0.091178574303290794
10
41.323433436112992
20
19.591129594116477
30
0
10
41.297520638633365
20
19.435828292746269
30
0
10
41.247047010093326
20
19.133328332897857
30
0
10
41.094644783958138
20
18.867390979327471
30
0
10
41.020484763416519
20
18.737983948316884
30
0
11
41.323433436112992
21
19.591129594116477
31
0
11
41.218829502322968
21
19.13486257537506
31
0
11
41.020484763416519
21
18.737983948316884
31
0
0
SPLINE
5
227
100
AcDbEntity
8
0
100
AcDbSpline
70
1064
71
3
72
9
73
5
74
3
42
0.000000001
43
0.0000000001
44
0.0000000001
40
0
40
0
40
0
40
0
40
0.04551275005486663
40
0.096544857025368594
40
0.096544857025368594
40
0.096544857025368594
40
0.096544857025368594
10
41.020484763416519
20
18.737983948316884
30
0
10
40.926759670409076
20
18.617276268683938
30
0
10
40.727943389406832
20
18.3612226209044
30
0
10
40.455478439809241
20
18.184930721305026
30
0
10
40.311457713258022
20
18.091745570323607
30
0
11
41.020484763416519
21
18.737983948316884
31
0
11
40.722942345467565
21
18.393586574231712
31
0
11
40.311457713258022
21
18.091745570323607
31
0
0
SPLINE
5
228
100
AcDbEntity
8
0
100
AcDbSpline
70
1064
71
3
72
9
73
5
74
3
42
0.000000001
43
0.0000000001
44
0.0000000001
40
0
40
0
40
0
40
0
40
0.057375773912915699
40
0.12190110651966621
40
0.12190110651966621
40
0.12190110651966621
40
0.12190110651966621
10
40.311457713258022
20
18.091745570323607
30
0
10
40.143388805069513
20
17.999735332387527
30
0
10
39.786308028942152
20
17.804249519288607
30
0
10
39.401302603696074
20
17.671642029212926
30
0
10
39.197509514128022
20
17.601449537548387
30
0
11
40.311457713258022
21
18.091745570323607
31
0
11
39.801064709128596
21
17.829644588741441
31
0
11
39.197509514128022
21
17.601449537548387
31
0
0
SPLINE
5
229
100
AcDbEntity
8
0
100
AcDbSpline
70
1064
71
3
72
9
73
5
74
3
42
0.000000001
43
0.0000000001
44
0.0000000001
40
0
40
0
40
0
40
0
40
0.13235574607120917
40
0.22250151053131931
40
0.22250151053131931
40
0.22250151053131931
40
0.22250151053131931
10
39.197509514128022
20
17.601449537548387
30
0
10
38.77032584992314
20
17.462129348895026
30
0
10
38.052192989195262
20
17.227920005190352
30
0
10
37.310049385039392
20
17.338537330549094
30
0
10
37.009372313786891
20
17.383353580709311
30
0
11
39.197509514128022
21
17.601449537548387
31
0
11
37.907462310687151
21
17.30550602148319
31
0
11
37.009372313786891
21
17.383353580709311
31
0
0
SPLINE
5
230
100
AcDbEntity
8
0
100
AcDbSpline
70
1064
71
3
72
9
73
5
74
3
42
0.000000001
43
0.0000000001
44
0.0000000001
40
0
40
0
40
0
40
0
40
0.070023046854843243
40
0.14217909665978168
40
0.14217909665978168
40
0.14217909665978168
40
0.14217909665978168
10
37.009372313786891
20
17.383353580709311
30
0
10
36.795241201632635
20
17.493985821833299
30
0
10
36.360456234963586
20
17.718620321629668
30
0
10
36.167103221464046
20
18.168797078468156
30
0
10
36.068976351904645
20
18.397262283625501
30
0
11
37.009372313786891
21
17.383353580709311
31
0
11
36.425539541824342
21
17.769956740895672
31
0
11
36.068976351904645
21
18.397262283625501
31
0
0
SPLINE
5
231
100
AcDbEntity
8
0
100
AcDbSpline
70
1064
71
3
72
9
73
5
74
3
42
0.000000001
43
0.0000000001
44
0.0000000001
40
0
40
0
40
0
40
0
40
0.011477206321819491
40
0.026387783943501591
40
0.026387783943501591
40
0.026387783943501591
40
0.026387783943501591
10
36.068976351904645
20
18.397262283625501
30
0
10
36.057707942039102
20
18.433826597213962
30
0
10
36.031800211831836
20
18.517893327388567
30
0
10
36.009427026928464
20
18.602972422851384
30
0
10
35.996784922882888
20
18.651046882593704
30
0
11
36.068976351904645
21
18.397262283625501
31
0
11
36.035839774220747
21
18.507146739827277
31
0
11
35.996784922882888
21
18.651046882593704
31
0
0
SPLINE
5
232
100
AcDbEntity
8
0
100
AcDbSpline
70
1064
71
3
72
9
73
5
74
3
42
0.000000001
43
0.0000000001
44
0.0000000001
40
0
40
0
40
0
40
0
40
0.024527325164355317
40
0.044053996991069003
40
0.044053996991069003
40
0.044053996991069003
40
0.044053996991069003
10
37.898997269970081
20
19.038078960449283
30
0
10
37.946691295541143
20
18.969497477557763
30
0
10
38.032355445419689
20
18.846316966813092
30
0
10
38.167420828291512
20
18.782737268146171
30
0
10
38.227287754941145
20
18.754555945326313
30
0
11
37.898997269970081
21
19.038078960449283
31
0
11
38.057392602235915
21
18.850809404225647
31
0
11
38.227287754941145
21
18.754555945326313
31
0
0
SPLINE
5
233
100
AcDbEntity
8
0
100
AcDbSpline
70
1064
71
3
72
9
73
5
74
3
42
0.000000001
43
0.0000000001
44
0.0000000001
40
0
40
0
40
0
40
0
40
0.027256964152356667
40
0.057887127571558922
40
0.057887127571558922
40
0.057887127571558922
40
0.057887127571558922
10
38.227287754941145
20
18.754555945326313
30
0
10
38.317783439790134
20
18.737581575787893
30
0
10
38.509974148346217
20
18.701532165096918
30
0
10
38.698866112167416
20
18.753566497419328
30
0
10
38.798815651264263
20
18.781099736142814
30
0
11
38.227287754941145
21
18.754555945326313
31
0
11
38.498043435220424
21
18.723162138981909
31
0
11
38.798815651264263
21
18.781099736142814
31
0
0
SPLINE
5
234
100
AcDbEntity
8
0
100
AcDbSpline
70
1064
71
3
72
9
73
5
74
3
42
0.000000001
43
0.0000000001
44
0.0000000001
40
0
40
0
40
0
40
0
40
0.037912217113170221
40
0.069502259296617491
40
0.069502259296617491
40
0.069502259296617491
40
0.069502259296617491
10
38.798815651264263
20
18.781099736142814
30
0
10
38.92081742976525
20
18.826587388899515
30
0
10
39.144476183847409
20
18.909977253102227
30
0
10
39.276316607213609
20
19.107324223323069
30
0
10
39.33624047987287
20
19.197022014116399
30
0
11
38.798815651264263
21
18.781099736142814
31
0
11
39.137500406839209
21
18.951470675521453
31
0
11
39.33624047987287
21
19.197022014116399
31
0
0
SPLINE
5
235
100
AcDbEntity
8
0
100
AcDbSpline
70
1064
71
3
72
9
73
5
74
3
42
0.000000001
43
0.0000000001
44
0.0000000001
40
0
40
0
40
0
40
0
40
0.035376810573437466
40
0.084256787924307158
40
0.084256787924307158
40
0.084256787924307158
40
0.084256787924307158
10
39.33624047987287
20
19.197022014116399
30
0
10
39.363811914938481
20
19.31366429367894
30
0
10
39.429478675718663
20
19.591470677375039
30
0
10
39.343179084312361
20
19.865833957206576
30
0
10
39.293114013268848
20
20.02500060994112
30
0
11
39.33624047987287
21
19.197022014116399
31
0
11
39.392164644426366
21
19.546341868195555
31
0
11
39.293114013268848
21
20.02500060994112
31
0
0
SPLINE
5
236
100
AcDbEntity
8
0
100
AcDbSpline
70
1064
71
3
72
9
73
5
74
3
42
0.000000001
43
0.0000000001
44
0.0000000001
40
0
40
0
40
0
40
0
40
0.041865846288189741
40
0.077557377066524852
40
0.077557377066524852
40
0.077557377066524852
40
0.077557377066524852
10
39.050185614370577
20
20.772657343942683
30
0
10
38.994118293346801
20
20.643947852920775
30
0
10
38.890252380119634
20
20.405510763687921
30
0
10
38.72458095012729
20
20.205378188088943
30
0
10
38.64833975726706
20
20.113278142265951
30
0
11
39.050185614370577
21
20.772657343942683
31
0
11
38.863974188236568
21
20.397690394306089
31
0
11
38.64833975726706
21
20.113278142265951
31
0
0
SPLINE
5
237
100
AcDbEntity
8
0
100
AcDbSpline
70
1064
71
3
72
9
73
5
74
3
42
0.000000001
43
0.0000000001
44
0.0000000001
40
0
40
0
40
0
40
0
40
0.05112123385970057
40
0.10287400783504774
40
0.10287400783504774
40
0.10287400783504774
40
0.10287400783504774
10
38.64833975726706
20
20.113278142265951
30
0
10
38.521423019352113
20
19.997169007611934
30
0
10
38.266021642959402
20
19.763516352417831
30
0
10
37.94339124560063
20
19.63795278450927
30
0
10
37.781085738276978
20
19.574785585269506
30
0
11
38.64833975726706
21
20.113278142265951
31
0
11
38.25098801323
21
19.791642250853748
31
0
11
37.781085738276978
21
19.574785585269506
31
0
0
SPLINE
5
238
100
AcDbEntity
8
0
100
AcDbSpline
70
1064
71
3
72
9
73
5
74
3
42
0.000000001
43
0.0000000001
44
0.0000000001
40
0
40
0
40
0
40
0
40
0.09669756483228846
40
0.19725564748179514
40
0.19725564748179514
40
0.19725564748179514
40
0.19725564748179514
10
37.781085738276978
20
19.574785585269506
30
0
10
37.452761120770212
20
19.510920864320326
30
0
10
36.783003975149875
20
19.380641710921541
30
0
10
36.20010916104173
20
19.737542983880402
30
0
10
35.902957796093027
20
19.919486102681208
30
0
11
37.781085738276978
21
19.574785585269506
31
0
11
36.816985788934929
21
19.500265842059289
31
0
11
35.902957796093027
21
19.919486102681208
31
0
0
SPLINE
5
239
100
AcDbEntity
8
0
100
AcDbSpline
70
1064
71
3
72
9
73
5
74
3
42
0.000000001
43
0.0000000001
44
0.0000000001
40
0
40
0
40
0
40
0
40
0.082215057800510208
40
0.17846794429406143
40
0.17846794429406143
40
0.17846794429406143
40
0.17846794429406143
10
35.902957796093027
20
19.919486102681208
30
0
10
35.701738338808973
20
20.110873120212492
30
0
10
35.264942162364164
20
20.52632557499587
30
0
10
35.056762481933575
20
21.093801719921437
30
0
10
34.94448520306419
20
21.399857898140869
30
0
11
35.902957796093027
21
19.919486102681208
31
0
11
35.347815967970242
21
20.525909324187946
31
0
11
34.94448520306419
21
21.399857898140869
31
0
0
SPLINE
5
240
100
AcDbEntity
8
0
100
AcDbSpline
70
1064
71
3
72
9
73
5
74
3
42
0.000000001
43
0.0000000001
44
0.0000000001
40
0
40
0
40
0
40
0
40
0.10769037157194221
40
0.19711418689935475
40
0.19711418689935475
40
0.19711418689935475
40
0.19711418689935475
10
34.94448520306419
20
21.399857898140869
30
0
10
34.844252966078152
20
21.753574171318235
30
0
10
34.660789991568784
20
22.401008984316807
30
0
10
34.846941030163123
20
23.044404483224305
30
0
10
34.931391248384934
20
23.336290527460015
30
0
11
34.94448520306419
21
21.399857898140869
31
0
11
34.754111581081418
21
22.459801055571237
31
0
11
34.931391248384934
21
23.336290527460015
31
0
0
SPLINE
5
241
100
AcDbEntity
8
0
100
AcDbSpline
70
1064
71
3
72
9
73
5
74
3
42
0.000000001
43
0.0000000001
44
0.0000000001
40
0
40
0
40
0
40
0
40
0.082703515079802836
40
0.16985385337604197
40
0.16985385337604197
40
0.16985385337604197
40
0.16985385337604197
10
34.931391248384934
20
23.336290527460015
30
0
10
35.078012005793632
20
23.578561038894218
30
0
10
35.379137062047278
20
24.076128523018401
30
0
10
35.917283216901986
20
24.299278353804553
30
0
10
36.193400705650241
20
24.413774332890206
30
0
11
34.931391248384934
21
23.336290527460015
31
0
11
35.427446768674592
21
23.998042793376555
31
0
11
36.193400705650241
21
24.413774332890206
31
0
0
SPLINE
5
242
100
AcDbEntity
8
0
100
AcDbSpline
70
1064
71
3
72
9
73
5
74
3
42
0.000000001
43
0.0000000001
44
0.0000000001
40
0
40
0
40
0
40
0
40
0.055413468443094221
40
0.10243383731291025
40
0.10243383731291025
40
0.10243383731291025
40
0.10243383731291025
10
36.193400705650241
20
24.413774332890206
30
0
10
36.372387812510787
20
24.466285023953919
30
0
10
36.703252071695147
20
24.563352970370808
30
0
10
37.046536418249772
20
24.538124162636528
30
0
10
37.204114783228171
20
24.526543342500034
30
0
11
36.193400705650241
21
24.413774332890206
31
0
11
36.733996725095011
21
24.535516651949145
31
0
11
37.204114783228171
21
24.526543342500034
31
0
0
SPLINE
5
243
100
AcDbEntity
8
0
100
AcDbSpline
70
1064
71
3
72
9
73
5
74
3
42
0.000000001
43
0.0000000001
44
0.0000000001
40
0
40
0
40
0
40
0
40
0.046913449095210544
40
0.10089696597472467
40
0.10089696597472467
40
0.10089696597472467
40
0.10089696597472467
10
37.204114783228171
20
24.526543342500034
30
0
10
37.356748637909561
20
24.48733182676699
30
0
10
37.685018955684001
20
24.402999443515753
30
0
10
37.965173588803587
20
24.211402068901066
30
0
10
38.115066424725661
20
24.108890561179681
30
0
11
37.204114783228171
21
24.526543342500034
31
0
11
37.651614147664198
21
24.38571902133981
31
0
11
38.115066424725661
21
24.108890561179681
31
0
0
SPLINE
5
244
100
AcDbEntity
8
0
100
AcDbSpline
70
1064
71
3
72
9
73
5
74
3
42
0.000000001
43
0.0000000001
44
0.0000000001
40
0
40
0
40
0
40
0
40
0.049314291124970308
40
0.088242664981219673
40
0.088242664981219673
40
0.088242664981219673
40
0.088242664981219673
10
36.876655478657241
20
21.868501197511371
30
0
10
36.932694439861137
20
21.7100646239053
30
0
10
37.032970184814673
20
21.426559271469774
30
0
10
37.261433424895579
20
21.233506419943083
30
0
10
37.362220299636625
20
21.148340887149558
30
0
11
36.876655478657241
21
21.868501197511371
31
0
11
37.084806826365757
21
21.421440857777505
31
0
11
37.362220299636625
21
21.148340887149558
31
0
0
SPLINE
5
245
100
AcDbEntity
8
0
100
AcDbSpline
70
1064
71
3
72
9
73
5
74
3
42
0.000000001
43
0.0000000001
44
0.0000000001
40
0
40
0
40
0
40
0
40
0.034256766465331753
40
0.070168267362436282
40
0.070168267362436282
40
0.070168267362436282
40
0.070168267362436282
10
37.362220299636625
20
21.148340887149558
30
0
10
37.46966828333138
20
21.100906231470631
30
0
10
37.689754404275646
20
21.003745642619016
30
0
10
37.924249759134248
20
21.059195795528673
30
0
10
38.044262415323622
20
21.08757469514827
30
0
11
37.362220299636625
21
21.148340887149558
31
0
11
37.687998660562975
21
21.042411361434734
31
0
11
38.044262415323622
21
21.08757469514827
31
0
0
SPLINE
5
246
100
AcDbEntity
8
0
100
AcDbSpline
70
1064
71
3
72
9
73
5
74
3
42
0.000000001
43
0.0000000001
44
0.0000000001
40
0
40
0
40
0
40
0
40
0.034761115649660994
40
0.06964888784330879
40
0.06964888784330879
40
0.06964888784330879
40
0.06964888784330879
10
38.044262415323622
20
21.08757469514827
30
0
10
38.153530722746567
20
21.135360044856697
30
0
10
38.372465470561615
20
21.231104856270086
30
0
10
38.489433055592798
20
21.43950848565547
30
0
10
38.548023200919872
20
21.54389979141019
30
0
11
38.044262415323622
21
21.08757469514827
31
0
11
38.346668176269638
21
21.258993106841906
31
0
11
38.548023200919872
21
21.54389979141019
31
0
0
SPLINE
5
247
100
AcDbEntity
8
0
100
AcDbSpline
70
1064
71
3
72
9
73
5
74
3
42
0.000000001
43
0.0000000001
44
0.0000000001
40
0
40
0
40
0
40
0
40
0.040197292386628038
40
0.090162685874693727
40
0.090162685874693727
40
0.090162685874693727
40
0.090162685874693727
10
38.548023200919872
20
21.54389979141019
30
0
10
38.582803777070048
20
21.675781291161069
30
0
10
38.660816746993646
20
21.971592016927207
30
0
10
38.574688365091397
20
22.266795152088736
30
0
10
38.526958659055161
20
22.430387670037408
30
0
11
38.548023200919872
21
21.54389979141019
31
0
11
38.619739373006432
21
21.939423522914197
31
0
11
38.526958659055161
21
22.430387670037408
31
0
0
SPLINE
5
248
100
AcDbEntity
8
0
100
AcDbSpline
70
1064
71
3
72
9
73
5
74
3
42
0.000000001
43
0.0000000001
44
0.0000000001
40
0
40
0
40
0
40
0
40
0.050360033078913777
40
0.091872016725356304
40
0.091872016725356304
40
0.091872016725356304
40
0.091872016725356304
10
38.526958659055161
20
22.430387670037408
30
0
10
38.46815670428871
20
22.591694420382595
30
0
10
38.360884054897816
20
22.885966992491582
30
0
10
38.11859757681497
20
23.082199687613766
30
0
10
38.009121452588836
20
23.170866604060819
30
0
11
38.526958659055161
21
22.430387670037408
31
0
11
38.309984778953485
21
22.884849581009661
31
0
11
38.009121452588836
21
23.170866604060819
31
0
0
SPLINE
5
249
100
AcDbEntity
8
0
100
AcDbSpline
70
1064
71
3
72
9
73
5
74
3
42
0.000000001
43
0.0000000001
44
0.0000000001
40
0
40
0
40
0
40
0
40
0.037065178502578108
40
0.073026852235757583
40
0.073026852235757583
40
0.073026852235757583
40
0.073026852235757583
10
38.009121452588836
20
23.170866604060819
30
0
10
37.894543125815474
20
23.226473212127978
30
0
10
37.66879769906361
20
23.336030907914321
30
0
10
37.423420432647156
20
23.284827722765073
30
0
10
37.302585740664
20
23.259612994455381
30
0
11
38.009121452588836
21
23.170866604060819
31
0
11
37.660329063838127
21
23.296272406527756
31
0
11
37.302585740664
21
23.259612994455381
31
0
0
SPLINE
5
250
100
AcDbEntity
8
0
100
AcDbSpline
70
1064
71
3
72
9
73
5
74
3
42
0.000000001
43
0.0000000001
44
0.0000000001
40
0
40
0
40
0
40
0
40
0.035000349451772848
40
0.068917888373213276
40
0.068917888373213276
40
0.068917888373213276
40
0.068917888373213276
10
37.302585740664
20
23.259612994455381
30
0
10
37.191790179890681
20
23.21220452814476
30
0
10
36.973626755547038
20
23.118854277638185
30
0
10
36.862703066417815
20
22.909391522150671
30
0
10
36.808112616359686
20
22.806305642279149
30
0
11
37.302585740664
21
23.259612994455381
31
0
11
36.997858064394997
21
23.087440146740313
31
0
11
36.808112616359686
21
22.806305642279149
31
0
0
SPLINE
5
251
100
AcDbEntity
8
0
100
AcDbSpline
70
1064
71
3
72
9
73
5
74
3
42
0.000000001
43
0.0000000001
44
0.0000000001
40
0
40
0
40
0
40
0
40
0.040198960504804211
40
0.095295420054643365
40
0.095295420054643365
40
0.095295420054643365
40
0.095295420054643365
10
36.808112616359686
20
22.806305642279149
30
0
10
36.783021818961103
20
22.672809071026435
30
0
10
36.723541721775035
20
22.356342882009894
30
0
10
36.820561852227598
20
22.047223278167493
30
0
10
36.876655478657241
20
21.868501197511371
30
0
11
36.808112616359686
21
22.806305642279149
31
0
11
36.760688644276406
21
22.407123216014512
31
0
11
36.876655478657241
21
21.868501197511371
31
0
0
SPLINE
5
252
100
AcDbEntity
8
0
100
AcDbSpline
70
1064
71
3
72
9
73
5
74
3
42
0.000000001
43
0.0000000001
44
0.0000000001
40
0
40
0
40
0
40
0
40
0.057055956570843051
40
0.10557195726485502
40
0.10557195726485502
40
0.10557195726485502
40
0.10557195726485502
10
42.802317633072121
20
25.642138985746517
30
0
10
42.879098887523419
20
25.817601452830367
30
0
10
43.02116902008899
20
26.142263717559256
30
0
10
43.253538880808016
20
26.409254744414273
30
0
10
43.360325347744762
20
26.531951501960368
30
0
11
42.802317633072121
21
25.642138985746517
31
0
11
43.059036324147101
21
26.151681654886346
31
0
11
43.360325347744762
21
26.531951501960368
31
0
0
SPLINE
5
253
100
AcDbEntity
8
0
100
AcDbSpline
70
1064
71
3
72
9
73
5
74
3
42
0.000000001
43
0.0000000001
44
0.0000000001
40
0
40
0
40
0
40
0
40
0.047596309049541492
40
0.10129684182193927
40
0.10129684182193927
40
0.10129684182193927
40
0.10129684182193927
10
43.360325347744762
20
26.531951501960368
30
0
10
43.483828430730696
20
26.633415201328596
30
0
10
43.746673859537495
20
26.849355313299746
30
0
10
44.066804439808458
20
26.965545018876238
30
0
10
44.236515384474501
20
27.027140711100216
30
0
11
43.360325347744762
21
26.531951501960368
31
0
11
43.743481867179682
21
26.814319958287314
31
0
11
44.236515384474501
21
27.027140711100216
31
0
0
SPLINE
5
254
100
AcDbEntity
8
0
100
AcDbSpline
70
1064
71
3
72
9
73
5
74
3
42
0.000000001
43
0.0000000001
44
0.0000000001
40
0
40
0
40
0
40
0
40
0.055812971140890288
40
0.10149174079736978
40
0.10149174079736978
40
0.10149174079736978
40
0.10149174079736978
10
44.236515384474501
20
27.027140711100216
30
0
10
44.417145300120353
20
27.080689157975275
30
0
10
44.745607379888561
20
27.178063029662304
30
0
10
45.085050254478574
20
27.139022659111731
30
0
10
45.237824586243036
20
27.12145161264359
30
0
11
44.236515384474501
21
27.027140711100216
31
0
11
44.781725930935877
21
27.14653181120681
31
0
11
45.237824586243036
21
27.12145161264359
31
0
0
SPLINE
5
255
100
AcDbEntity
8
0
100
AcDbSpline
70
1064
71
3
72
9
73
5
74
3
42
0.000000001
43
0.0000000001
44
0.0000000001
40
0
40
0
40
0
40
0
40
0.042731061175806412
40
0.088984113090674832
40
0.088984113090674832
40
0.088984113090674832
40
0.088984113090674832
10
45.237824586243036
20
27.12145161264359
30
0
10
45.374688600040528
20
27.076684441664302
30
0
10
45.659697269300878
20
26.983460288190074
30
0
10
45.884872905029859
20
26.784940449638547
30
0
10
46.001916948147127
20
26.6817518232677
30
0
11
45.237824586243036
21
27.12145161264359
31
0
11
45.634619031584087
21
26.962868741350551
31
0
11
46.001916948147127
21
26.6817518232677
31
0
0
SPLINE
5
256
100
AcDbEntity
8
0
100
AcDbSpline
70
1064
71
3
72
9
73
5
74
3
42
0.000000001
43
0.0000000001
44
0.0000000001
40
0
40
0
40
0
40
0
40
0.061822316638977429
40
0.11020806908543816
40
0.11020806908543816
40
0.11020806908543816
40
0.11020806908543816
10
46.001916948147127
20
26.6817518232677
30
0
10
46.091090778704149
20
26.868958181032284
30
0
10
46.250057252510572
20
27.20268315821545
30
0
10
46.494511261195839
20
27.479187903829523
30
0
10
46.601836353150958
20
27.600584551847938
30
0
11
46.001916948147127
21
26.6817518232677
31
0
11
46.296339324176749
21
27.225365057059953
31
0
11
46.601836353150958
21
27.600584551847938
31
0
0
SPLINE
5
257
100
AcDbEntity
8
0
100
AcDbSpline
70
1064
71
3
72
9
73
5
74
3
42
0.000000001
43
0.0000000001
44
0.0000000001
40
0
40
0
40
0
40
0
40
0.045282163001334273
40
0.09761218398429361
40
0.09761218398429361
40
0.09761218398429361
40
0.09761218398429361
10
46.601836353150958
20
27.600584551847938
30
0
10
46.72026200046821
20
27.695887191257992
30
0
10
46.975545434566769
20
27.901325672012753
30
0
10
47.284444821469478
20
28.011965829783165
30
0
10
47.450046191487409
20
28.071280164749943
30
0
11
46.601836353150958
21
27.600584551847938
31
0
11
46.968651554436896
21
27.866091683039347
31
0
11
47.450046191487409
21
28.071280164749943
31
0
0
SPLINE
5
258
100
AcDbEntity
8
0
100
AcDbSpline
70
1064
71
3
72
9
73
5
74
3
42
0.000000001
43
0.0000000001
44
0.0000000001
40
0
40
0
40
0
40
0
40
0.075376317539371768
40
0.14271632549176316
40
0.14271632549176316
40
0.14271632549176316
40
0.14271632549176316
10
47.450046191487409
20
28.071280164749943
30
0
10
47.700290902196123
20
28.136124276158327
30
0
10
48.174100272990081
20
28.25889908941646
30
0
10
48.629143823696666
20
28.083323001996533
30
0
10
48.843853922332386
20
28.000478274300747
30
0
11
47.450046191487409
21
28.071280164749943
31
0
11
48.195545644429302
21
28.182588251801015
31
0
11
48.843853922332386
21
28.000478274300747
31
0
0
SPLINE
5
259
100
AcDbEntity
8
0
100
AcDbSpline
70
1064
71
3
72
9
73
5
74
3
42
0.000000001
43
0.0000000001
44
0.0000000001
40
0
40
0
40
0
40
0
40
0.072455183350803129
40
0.16463378950468371
40
0.16463378950468371
40
0.16463378950468371
40
0.16463378950468371
10
48.843853922332386
20
28.000478274300747
30
0
10
49.036734199566411
20
27.847664809711357
30
0
10
49.474999752052959
20
27.500439689309921
30
0
10
49.662815754173565
20
26.970147017437096
30
0
10
49.767974101928054
20
26.673235675640747
30
0
11
48.843853922332386
21
28.000478274300747
31
0
11
49.373985876401733
21
27.506580035070769
31
0
11
49.767974101928054
21
26.673235675640747
31
0
0
SPLINE
5
260
100
AcDbEntity
8
0
100
AcDbSpline
70
1064
71
3
72
9
73
5
74
3
42
0.000000001
43
0.0000000001
44
0.0000000001
40
0
40
0
40
0
40
0
40
0.030829702670469802
40
0.054745828452582634
40
0.054745828452582634
40
0.054745828452582634
40
0.054745828452582634
10
47.966841265027789
20
25.769698382109112
30
0
10
47.93238457140356
20
25.868641540367378
30
0
10
47.871198115654764
20
26.044339802087958
30
0
10
47.734905256253704
20
26.169613214290909
30
0
10
47.675364698355992
20
26.224339844028464
30
0
11
47.966841265027789
21
25.769698382109112
31
0
11
47.839652729817359
21
26.050536650843959
31
0
11
47.675364698355992
21
26.224339844028464
31
0
0
SPLINE
5
261
100
AcDbEntity
8
0
100
AcDbSpline
70
1064
71
3
72
9
73
5
74
3
42
0.000000001
43
0.0000000001
44
0.0000000001
40
0
40
0
40
0
40
0
40
0.030169153565876003
40
0.058325088582740367
40
0.058325088582740367
40
0.058325088582740367
40
0.058325088582740367
10
47.675364698355992
20
26.224339844028464
30
0
10
47.585569473157896
20
26.277493975208461
30
0
10
47.411971150203641
20
26.380255207897427
30
0
10
47.214185386781494
20
26.343559917236266
30
0
10
47.118706010110252
20
26.325845581186613
30
0
11
47.675364698355992
21
26.224339844028464
31
0
11
47.399507516873847
21
26.346489744203893
31
0
11
47.118706010110252
21
26.325845581186613
31
0
0
SPLINE
5
262
100
AcDbEntity
8
0
100
AcDbSpline
70
1064
71
3
72
9
73
5
74
3
42
0.000000001
43
0.0000000001
44
0.0000000001
40
0
40
0
40
0
40
0
40
0.032366823084329199
40
0.063715848317287244
40
0.063715848317287244
40
0.063715848317287244
40
0.063715848317287244
10
47.118706010110252
20
26.325845581186613
30
0
10
47.016291585415253
20
26.282173328052131
30
0
10
46.814683230700723
20
26.19620212695089
30
0
10
46.709992299705661
20
26.003935104030592
30
0
10
46.658483001405457
20
25.909337230625859
30
0
11
47.118706010110252
21
26.325845581186613
31
0
11
46.836472354679032
21
26.167399100003955
31
0
11
46.658483001405457
21
25.909337230625859
31
0
0
SPLINE
5
263
100
AcDbEntity
8
0
100
AcDbSpline
70
1064
71
3
72
9
73
5
74
3
42
0.000000001
43
0.0000000001
44
0.0000000001
40
0
40
0
40
0
40
0
40
0.03679665761830777
40
0.085555305699160311
40
0.085555305699160311
40
0.085555305699160311
40
0.085555305699160311
10
46.658483001405457
20
25.909337230625859
30
0
10
46.632481126465528
20
25.787575479809153
30
0
10
46.572024593094682
20
25.504469228104227
30
0
10
46.657450934074689
20
25.226082149517929
30
0
10
46.706136084138024
20
25.06742714286322
30
0
11
46.658483001405457
21
25.909337230625859
31
0
11
46.607462670991211
21
25.544924926947296
31
0
11
46.706136084138024
21
25.06742714286322
31
0
0
SPLINE
5
264
100
AcDbEntity
8
0
100
AcDbSpline
70
1064
71
3
72
9
73
5
74
3
42
0.000000001
43
0.0000000001
44
0.0000000001
40
0
40
0
40
0
40
0
40
0.028703140964825489
40
0.046644154953680836
40
0.046644154953680836
40
0.046644154953680836
40
0.046644154953680836
10
44.755624914995956
20
24.623629083282861
30
0
10
44.72648273548154
20
24.715100424732547
30
0
10
44.679125119162677
20
24.863746296960564
30
0
10
44.604019672683151
20
25.000226745542058
30
0
10
44.575131425757768
20
25.05272201830747
30
0
11
44.755624914995956
21
24.623629083282861
31
0
11
44.657691021186778
21
24.893436389648048
31
0
11
44.575131425757768
21
25.05272201830747
31
0
0
SPLINE
5
265
100
AcDbEntity
8
0
100
AcDbSpline
70
1064
71
3
72
9
73
5
74
3
42
0.000000001
43
0.0000000001
44
0.0000000001
40
0
40
0
40
0
40
0
40
0.019598653833715493
40
0.038676412144369524
40
0.038676412144369524
40
0.038676412144369524
40
0.038676412144369524
10
44.575131425757768
20
25.05272201830747
30
0
10
44.532644609977311
20
25.103663663169222
30
0
10
44.448800198429041
20
25.204193019353657
30
0
10
44.328788783871133
20
25.256316967430568
30
0
10
44.269591235946834
20
25.282027937721615
30
0
11
44.575131425757768
21
25.05272201830747
31
0
11
44.438384038249282
21
25.193117442801956
31
0
11
44.269591235946834
21
25.282027937721615
31
0
0
SPLINE
5
266
100
AcDbEntity
8
0
100
AcDbSpline
70
1064
71
3
72
9
73
5
74
3
42
0.000000001
43
0.0000000001
44
0.0000000001
40
0
40
0
40
0
40
0
40
0.019280154748904991
40
0.039169001499078315
40
0.039169001499078315
40
0.039169001499078315
40
0.039169001499078315
10
44.269591235946834
20
25.282027937721615
30
0
10
44.206424803383001
20
25.298937470121025
30
0
10
44.078097716593163
20
25.333290384219843
30
0
10
43.949088934916283
20
25.301235043403508
30
0
10
43.883582136427748
20
25.284958300657443
30
0
11
44.269591235946834
21
25.282027937721615
31
0
11
44.079926770195925
21
25.316666458844686
31
0
11
43.883582136427748
21
25.284958300657443
31
0
0
SPLINE
5
267
100
AcDbEntity
8
0
100
AcDbSpline
70
1064
71
3
72
9
73
5
74
3
42
0.000000001
43
0.0000000001
44
0.0000000001
40
0
40
0
40
0
40
0
40
0.031793165435726307
40
0.063462354805097765
40
0.063462354805097765
40
0.063462354805097765
40
0.063462354805097765
10
43.883582136427748
20
25.284958300657443
30
0
10
43.783437732692235
20
25.241170478228881
30
0
10
43.583539433969669
20
25.153765582081569
30
0
10
43.480787454995763
20
24.961339884774869
30
0
10
43.429511830411784
20
24.86531499149357
30
0
11
43.883582136427748
21
25.284958300657443
31
0
11
43.607530487314712
21
25.127236951866855
31
0
11
43.429511830411784
21
24.86531499149357
31
0
0
SPLINE
5
268
100
AcDbEntity
8
0
100
AcDbSpline
70
1064
71
3
72
9
73
5
74
3
42
0.000000001
43
0.0000000001
44
0.0000000001
40
0
40
0
40
0
40
0
40
0.03794502207609754
40
0.089022514212850318
40
0.089022514212850318
40
0.089022514212850318
40
0.089022514212850318
10
43.429511830411784
20
24.86531499149357
30
0
10
43.403320539487751
20
24.739657591168246
30
0
10
43.341873360359472
20
24.444853764622128
30
0
10
43.431601077785658
20
24.155441935131137
30
0
10
43.483083186798282
20
23.989389217166277
30
0
11
43.429511830411784
21
24.86531499149357
31
0
11
43.378403589109453
21
24.489322414829431
31
0
11
43.483083186798282
21
23.989389217166277
31
0
0
SPLINE
5
269
100
AcDbEntity
8
0
100
AcDbSpline
70
1064
71
3
72
9
73
5
74
3
42
0.000000001
43
0.0000000001
44
0.0000000001
40
0
40
0
40
0
40
0
40
0.042740126925321482
40
0.076686430090818325
40
0.076686430090818325
40
0.076686430090818325
40
0.076686430090818325
10
52.939738147541952
20
26.487024270510211
30
0
10
53.002558874090823
20
26.356666045538233
30
0
10
53.115274900020317
20
26.122770930450173
30
0
10
53.316903026350829
20
25.960726438075756
30
0
10
53.406156490034071
20
25.888995214469098
30
0
11
52.939738147541952
21
26.487024270510211
31
0
11
53.155818531817303
21
26.11826810108294
31
0
11
53.406156490034071
21
25.888995214469098
31
0
0
SPLINE
5
270
100
AcDbEntity
8
0
100
AcDbSpline
70
1064
71
3
72
9
73
5
74
3
42
0.000000001
43
0.0000000001
44
0.0000000001
40
0
40
0
40
0
40
0
40
0.041724661361846944
40
0.084553252740493356
40
0.084553252740493356
40
0.084553252740493356
40
0.084553252740493356
10
53.406156490034071
20
25.888995214469098
30
0
10
53.535753070726535
20
25.827785043955057
30
0
10
53.798375032989199
20
25.7037452351504
30
0
10
54.081837101316523
20
25.768259109632787
30
0
10
54.225418580470226
20
25.800937194495347
30
0
11
53.406156490034071
21
25.888995214469098
31
0
11
53.800021102177496
21
25.751280277453581
31
0
11
54.225418580470226
21
25.800937194495347
31
0
0
SPLINE
5
271
100
AcDbEntity
8
0
100
AcDbSpline
70
1064
71
3
72
9
73
5
74
3
42
0.000000001
43
0.0000000001
44
0.0000000001
40
0
40
0
40
0
40
0
40
0.028798246950201417
40
0.058040138714376896
40
0.058040138714376896
40
0.058040138714376896
40
0.058040138714376896
10
54.225418580470226
20
25.800937194495347
30
0
10
54.315505620028034
20
25.83681985026535
30
0
10
54.497067514449746
20
25.909137943860848
30
0
10
54.638361906621583
20
26.044210844241476
30
0
10
54.709549112825691
20
26.112263526759012
30
0
11
54.225418580470226
21
25.800937194495347
31
0
11
54.485766132938267
21
25.924034938846656
31
0
11
54.709549112825691
21
26.112263526759012
31
0
0
SPLINE
5
272
100
AcDbEntity
8
0
100
AcDbSpline
70
1064
71
3
72
9
73
5
74
3
42
0.000000001
43
0.0000000001
44
0.0000000001
40
0
40
0
40
0
40
0
40
0.021070481641611735
40
0.04786428958294759
40
0.04786428958294759
40
0.04786428958294759
40
0.04786428958294759
10
54.709549112825691
20
26.112263526759012
30
0
10
54.751827962078821
20
26.168740991395577
30
0
10
54.847869766832282
20
26.297036764043522
30
0
10
54.905760295434085
20
26.446732413719598
30
0
10
54.938166661819025
20
26.530530095081261
30
0
11
54.709549112825691
21
26.112263526759012
31
0
11
54.82899242132553
21
26.285842948683282
31
0
11
54.938166661819025
21
26.530530095081261
31
0
0
SPLINE
5
273
100
AcDbEntity
8
0
100
AcDbSpline
70
1064
71
3
72
9
73
5
74
3
42
0.000000001
43
0.0000000001
44
0.0000000001
40
0
40
0
40
0
40
0
40
0.083449679853717762
40
0.15762424652341395
40
0.15762424652341395
40
0.15762424652341395
40
0.15762424652341395
10
56.856171016439276
20
26.963766050361698
30
0
10
56.786622196877673
20
26.690709795336197
30
0
10
56.655254643410622
20
26.174946445107089
30
0
10
56.326830495085716
20
25.757266548311772
30
0
10
56.172281182888085
20
25.560715408276131
30
0
11
56.856171016439276
21
26.963766050361698
31
0
11
56.592292111764465
21
26.172088824191579
31
0
11
56.172281182888085
21
25.560715408276131
31
0
0
SPLINE
5
274
100
AcDbEntity
8
0
100
AcDbSpline
70
1064
71
3
72
9
73
5
74
3
42
0.000000001
43
0.0000000001
44
0.0000000001
40
0
40
0
40
0
40
0
40
0.081297178509446455
40
0.18649331984229864
40
0.18649331984229864
40
0.18649331984229864
40
0.18649331984229864
10
56.172281182888085
20
25.560715408276131
30
0
10
55.960160876423082
20
25.388899454193002
30
0
10
55.47356317544596
20
24.994758743945464
30
0
10
54.879397997153134
20
24.79190593501518
30
0
10
54.544244522896761
20
24.677481821722324
30
0
11
56.172281182888085
21
25.560715408276131
31
0
11
55.515479111380237
21
25.081618171566614
31
0
11
54.544244522896761
21
24.677481821722324
31
0
0
SPLINE
5
275
100
AcDbEntity
8
0
100
AcDbSpline
70
1064
71
3
72
9
73
5
74
3
42
0.000000001
43
0.0000000001
44
0.0000000001
40
0
40
0
40
0
40
0
40
0.092322367275743514
40
0.16564639788335675
40
0.16564639788335675
40
0.16564639788335675
40
0.16564639788335675
10
54.544244522896761
20
24.677481821722324
30
0
10
54.247407375525668
20
24.586739440605321
30
0
10
53.714817000398739
20
24.423927881381594
30
0
10
53.159349274922221
20
24.442362260893987
30
0
10
52.913469297905984
20
24.450522311609681
30
0
11
54.544244522896761
21
24.677481821722324
31
0
11
53.646626583498985
21
24.461555943673865
31
0
11
52.913469297905984
21
24.450522311609681
31
0
0
SPLINE
5
276
100
AcDbEntity
8
0
100
AcDbSpline
70
1064
71
3
72
9
73
5
74
3
42
0.000000001
43
0.0000000001
44
0.0000000001
40
0
40
0
40
0
40
0
40
0.065932660761425191
40
0.13607052745927201
40
0.13607052745927201
40
0.13607052745927201
40
0.13607052745927201
10
52.913469297905984
20
24.450522311609681
30
0
10
52.696851280194615
20
24.500815387634226
30
0
10
52.249799279156413
20
24.604609247963506
30
0
10
51.883626911851394
20
24.881961279694011
30
0
10
51.694882521967557
20
25.024923023086338
30
0
11
52.913469297905984
21
24.450522311609681
31
0
11
52.282604688554656
21
24.642150650265808
31
0
11
51.694882521967557
21
25.024923023086338
31
0
0
SPLINE
5
277
100
AcDbEntity
8
0
100
AcDbSpline
70
1064
71
3
72
9
73
5
74
3
42
0.000000001
43
0.0000000001
44
0.0000000001
40
0
40
0
40
0
40
0
40
0.074791754259431881
40
0.15532726709818701
40
0.15532726709818701
40
0.15532726709818701
40
0.15532726709818701
10
51.694882521967557
20
25.024923023086338
30
0
10
51.518188874592482
20
25.204783340590261
30
0
10
51.151232093966918
20
25.578316651232903
30
0
10
50.964587260907791
20
26.068128379874835
30
0
10
50.867813927867573
20
26.322090478723062
30
0
11
51.694882521967557
21
25.024923023086338
31
0
11
51.206607380141627
21
25.591463433291292
31
0
11
50.867813927867573
21
26.322090478723062
31
0
0
SPLINE
5
278
100
AcDbEntity
8
0
100
AcDbSpline
70
1064
71
3
72
9
73
5
74
3
42
0.000000001
43
0.0000000001
44
0.0000000001
40
0
40
0
40
0
40
0
40
0.11168479670245357
40
0.2161993708686914
40
0.2161993708686914
40
0.2161993708686914
40
0.2161993708686914
10
50.867813927867573
20
26.322090478723062
30
0
10
50.776410332476793
20
26.693482544022423
30
0
10
50.599471300468075
20
27.412423109203047
30
0
10
50.868199590681023
20
28.100726791439229
30
0
10
50.998107567310072
20
28.433464883862534
30
0
11
50.867813927867573
21
26.322090478723062
31
0
11
50.712532768393814
21
27.4280909954315
31
0
11
50.998107567310072
21
28.433464883862534
31
0
0
SPLINE
5
279
100
AcDbEntity
8
0
100
AcDbSpline
70
1064
71
3
72
9
73
5
74
3
42
0.000000001
43
0.0000000001
44
0.0000000001
40
0
40
0
40
0
40
0
40
0.1086744626009343
40
0.23254575956005546
40
0.23254575956005546
40
0.23254575956005546
40
0.23254575956005546
10
50.998107567310072
20
28.433464883862534
30
0
10
51.214152045671014
20
28.734004209770458
30
0
10
51.676452259693605
20
29.377109720929667
30
0
10
52.418434987534866
20
29.662178422596064
30
0
10
52.813670587585563
20
29.814027374237561
30
0
11
50.998107567310072
21
28.433464883862534
31
0
11
51.707321626757562
21
29.256890229623881
31
0
11
52.813670587585563
21
29.814027374237561
31
0
0
SPLINE
5
280
100
AcDbEntity
8
0
100
AcDbSpline
70
1064
71
3
72
9
73
5
74
3
42
0.000000001
43
0.0000000001
44
0.0000000001
40
0
40
0
40
0
40
0
40
0.099964853905432846
40
0.18021854165254392
40
0.18021854165254392
40
0.18021854165254392
40
0.18021854165254392
10
52.813670587585563
20
29.814027374237561
30
0
10
53.135699392427611
20
29.911547558050238
30
0
10
53.716259052262117
20
30.087358801920352
30
0
10
54.320489861726351
20
30.052375513639475
30
0
10
54.589561791092045
20
30.036796995090175
30
0
11
52.813670587585563
21
29.814027374237561
31
0
11
53.787040082103047
21
30.041731192335206
31
0
11
54.589561791092045
21
30.036796995090175
31
0
0
SPLINE
5
281
100
AcDbEntity
8
0
100
AcDbSpline
70
1064
71
3
72
9
73
5
74
3
42
0.000000001
43
0.0000000001
44
0.0000000001
40
0
40
0
40
0
40
0
40
0.070173868630492658
40
0.14012399225738686
40
0.14012399225738686
40
0.14012399225738686
40
0.14012399225738686
10
54.589561791092045
20
30.036796995090175
30
0
10
54.820163900100532
20
29.980556445549436
30
0
10
55.28063285767486
20
29.868254665952605
30
0
10
55.643568232989423
20
29.563465427453384
30
0
10
55.824746159501785
20
29.41131414650782
30
0
11
54.589561791092045
21
30.036796995090175
31
0
11
55.256906791306868
21
29.819799680486405
31
0
11
55.824746159501785
21
29.41131414650782
31
0
0
SPLINE
5
282
100
AcDbEntity
8
0
100
AcDbSpline
70
1064
71
3
72
9
73
5
74
3
42
0.000000001
43
0.0000000001
44
0.0000000001
40
0
40
0
40
0
40
0
40
0.077824778679601331
40
0.1711013555903465
40
0.1711013555903465
40
0.1711013555903465
40
0.1711013555903465
10
55.824746159501785
20
29.41131414650782
30
0
10
55.992911097537217
20
29.211073481235978
30
0
10
56.36262944879762
20
28.770835168276847
30
0
10
56.55488627549768
20
28.22787625443025
30
0
10
56.65969584068452
20
27.931880067187628
30
0
11
55.824746159501785
21
29.41131414650782
31
0
11
56.29252685588996
21
28.789340804844777
31
0
11
56.65969584068452
21
27.931880067187628
31
0
0
SPLINE
5
283
100
AcDbEntity
8
0
100
AcDbSpline
70
1064
71
3
72
9
73
5
74
3
42
0.000000001
43
0.0000000001
44
0.0000000001
40
0
40
0
40
0
40
0
40
0.050592070101015019
40
0.089514127507741625
40
0.089514127507741625
40
0.089514127507741625
40
0.089514127507741625
10
54.512328018867812
20
27.999137807699096
30
0
10
54.439731949851691
20
28.155202789989421
30
0
10
54.311285460797301
20
28.431333430549021
30
0
10
54.06654167506904
20
28.60978431187386
30
0
10
53.96012348228453
20
28.687377376126264
30
0
11
54.512328018867812
21
27.999137807699096
31
0
11
54.257390450318219
21
28.436130475661187
31
0
11
53.96012348228453
21
28.687377376126264
31
0
0
SPLINE
5
284
100
AcDbEntity
8
0
100
AcDbSpline
70
1064
71
3
72
9
73
5
74
3
42
0.000000001
43
0.0000000001
44
0.0000000001
40
0
40
0
40
0
40
0
40
0.034435513724700099
40
0.07194309466923926
40
0.07194309466923926
40
0.07194309466923926
40
0.07194309466923926
10
53.96012348228453
20
28.687377376126264
30
0
10
53.849788717532405
20
28.727858912495723
30
0
10
53.619275983227588
20
28.812433431309856
30
0
10
53.380657682808263
20
28.752014476263568
30
0
10
53.25625387089309
20
28.720515013286594
30
0
11
53.96012348228453
21
28.687377376126264
31
0
11
53.627262160871787
21
28.775603229796062
31
0
11
53.25625387089309
21
28.720515013286594
31
0
0
SPLINE
5
285
100
AcDbEntity
8
0
100
AcDbSpline
70
1064
71
3
72
9
73
5
74
3
42
0.000000001
43
0.0000000001
44
0.0000000001
40
0
40
0
40
0
40
0
40
0.043627116788646038
40
0.087095462072338065
40
0.087095462072338065
40
0.087095462072338065
40
0.087095462072338065
10
53.25625387089309
20
28.720515013286594
30
0
10
53.118537322178497
20
28.659416752079174
30
0
10
52.843605414497937
20
28.537442583640392
30
0
10
52.7162199106698
20
28.265025250556867
30
0
10
52.652643268066541
20
28.129064886905518
30
0
11
53.25625387089309
21
28.720515013286594
31
0
11
52.88012543385679
21
28.499472187613275
31
0
11
52.652643268066541
21
28.129064886905518
31
0
0
SPLINE
5
286
100
AcDbEntity
8
0
100
AcDbSpline
70
1064
71
3
72
9
73
5
74
3
42
0.000000001
43
0.0000000001
44
0.0000000001
40
0
40
0
40
0
40
0
40
0.032700720628036556
40
0.074164755359641676
40
0.074164755359641676
40
0.074164755359641676
40
0.074164755359641676
10
52.652643268066541
20
28.129064886905518
30
0
10
52.629399795484701
20
28.021486615300873
30
0
10
52.576683940156983
20
27.77750067118895
30
0
10
52.62380659427086
20
27.531573238528942
30
0
10
52.650151929832873
20
27.394080118517682
30
0
11
52.652643268066541
21
28.129064886905518
31
0
11
52.602322495585945
21
27.805952626512564
31
0
11
52.650151929832873
21
27.394080118517682
31
0
0
SPLINE
5
287
100
AcDbEntity
8
0
100
AcDbSpline
70
1064
71
3
72
9
73
5
74
3
42
0.000000001
43
0.0000000001
44
0.0000000001
40
0
40
0
40
0
40
0
40
0.060880296707796266
40
0.11235244215348886
40
0.11235244215348886
40
0.11235244215348886
40
0.11235244215348886
10
58.664939832609342
20
30.703803700225315
30
0
10
58.741939890493917
20
30.893164530221799
30
0
10
58.884040783839033
20
31.24262326890749
30
0
10
59.125307324757586
20
31.531983297357442
30
0
10
59.23583902524679
20
31.66454811913674
30
0
11
58.664939832609342
21
30.703803700225315
31
0
11
58.925057214951664
21
31.254239891010684
31
0
11
59.23583902524679
21
31.66454811913674
31
0
0
SPLINE
5
288
100
AcDbEntity
8
0
100
AcDbSpline
70
1064
71
3
72
9
73
5
74
3
42
0.000000001
43
0.0000000001
44
0.0000000001
40
0
40
0
40
0
40
0
40
0.050039895353749093
40
0.10671523661382269
40
0.10671523661382269
40
0.10671523661382269
40
0.10671523661382269
10
59.23583902524679
20
31.66454811913674
30
0
10
59.363004695121255
20
31.774677527153589
30
0
10
59.634198598583197
20
32.009539845541283
30
0
10
59.971686649340327
20
32.132658289531633
30
0
10
60.150923008222009
20
32.19804520193491
30
0
11
59.23583902524679
21
31.66454811913674
31
0
11
59.631912597104922
21
31.970366428557462
31
0
11
60.150923008222009
21
32.19804520193491
31
0
0
SPLINE
5
289
100
AcDbEntity
8
0
100
AcDbSpline
70
1064
71
3
72
9
73
5
74
3
42
0.000000001
43
0.0000000001
44
0.0000000001
40
0
40
0
40
0
40
0
40
0.074513402597342224
40
0.14114243867529447
40
0.14114243867529447
40
0.14114243867529447
40
0.14114243867529447
10
60.150923008222009
20
32.19804520193491
30
0
10
60.398324082212618
20
32.262080897485717
30
0
10
60.866948379275236
20
32.383376582788806
30
0
10
61.316887739992808
20
32.209460838879906
30
0
10
61.529290375086212
20
32.127360526003145
30
0
11
60.150923008222009
21
32.19804520193491
31
0
11
60.88791853952273
21
32.307873720572495
31
0
11
61.529290375086212
21
32.127360526003145
31
0
0
SPLINE
5
290
100
AcDbEntity
8
0
100
AcDbSpline
70
1064
71
3
72
9
73
5
74
3
42
0.000000001
43
0.0000000001
44
0.0000000001
40
0
40
0
40
0
40
0
40
0.071496530968867822
40
0.1613751040648172
40
0.1613751040648172
40
0.1613751040648172
40
0.1613751040648172
10
61.529290375086212
20
32.127360526003145
30
0
10
61.721042669986787
20
31.978166357032784
30
0
10
62.153847536529511
20
31.641419605586339
30
0
10
62.339466919596006
20
31.121947187212086
30
0
10
62.442848450381959
20
30.832624741864954
30
0
11
61.529290375086212
21
32.127360526003145
31
0
11
62.056027367059158
21
31.643910905726607
31
0
11
62.442848450381959
21
30.832624741864954
31
0
0
SPLINE
5
291
100
AcDbEntity
8
0
100
AcDbSpline
70
1064
71
3
72
9
73
5
74
3
42
0.000000001
43
0.0000000001
44
0.0000000001
40
0
40
0
40
0
40
0
40
0.041870295132183828
40
0.072277811506893663
40
0.072277811506893663
40
0.072277811506893663
40
0.072277811506893663
10
60.680829072078254
20
29.792907487557272
30
0
10
60.635382470626944
20
29.92824017378387
30
0
10
60.556931127426267
20
30.161855684611467
30
0
10
60.373448242013652
20
30.323749904689123
30
0
10
60.296256380135929
20
30.391859343054072
30
0
11
60.680829072078254
21
29.792907487557272
31
0
11
60.509242296950355
21
30.174836983730096
31
0
11
60.296256380135929
21
30.391859343054072
31
0
0
SPLINE
5
292
100
AcDbEntity
8
0
100
AcDbSpline
70
1064
71
3
72
9
73
5
74
3
42
0.000000001
43
0.0000000001
44
0.0000000001
40
0
40
0
40
0
40
0
40
0.026621405417058555
40
0.056123049829027424
40
0.056123049829027424
40
0.056123049829027424
40
0.056123049829027424
10
60.296256380135929
20
30.391859343054072
30
0
10
60.212276702764157
20
30.427420313257592
30
0
10
60.035231368608287
20
30.502389687392224
30
0
10
59.848226403767164
20
30.45492685298672
30
0
10
59.749925367155257
20
30.429977537728881
30
0
11
60.296256380135929
21
30.391859343054072
31
0
11
60.0420764470405
21
30.470995202495537
31
0
11
59.749925367155257
21
30.429977537728881
31
0
0
SPLINE
5
293
100
AcDbEntity
8
0
100
AcDbSpline
70
1064
71
3
72
9
73
5
74
3
42
0.000000001
43
0.0000000001
44
0.0000000001
40
0
40
0
40
0
40
0
40
0.033421415934858596
40
0.066440927776063113
40
0.066440927776063113
40
0.066440927776063113
40
0.066440927776063113
10
59.749925367155257
20
30.429977537728881
30
0
10
59.644448465772619
20
30.38401897025566
30
0
10
59.434763059251665
20
30.292654502989187
30
0
10
59.329483756064427
20
30.089714554380702
30
0
10
59.277162524037969
20
29.988858376412857
30
0
11
59.749925367155257
21
30.429977537728881
31
0
11
59.459912922474949
21
30.263869481814559
31
0
11
59.277162524037969
21
29.988858376412857
31
0
0
SPLINE
5
294
100
AcDbEntity
8
0
100
AcDbSpline
70
1064
71
3
72
9
73
5
74
3
42
0.000000001
43
0.0000000001
44
0.0000000001
40
0
40
0
40
0
40
0
40
0.041756790762410081
40
0.10195577496364198
40
0.10195577496364198
40
0.10195577496364198
40
0.10195577496364198
10
59.277162524037969
20
29.988858376412857
30
0
10
59.253997278861561
20
29.849833658586387
30
0
10
59.197435687775204
20
29.510382934852618
30
0
10
59.303943120351228
20
29.180699367790083
30
0
10
59.366829594935368
20
28.986040302601467
30
0
11
59.277162524037969
21
29.988858376412857
31
0
11
59.23501960410465
21
29.573422542887311
31
0
11
59.366829594935368
21
28.986040302601467
31
0
0
SPLINE
5
295
100
AcDbEntity
8
0
100
AcDbSpline
70
1064
71
3
72
9
73
5
74
3
42
0.000000001
43
0.0000000001
44
0.0000000001
40
0
40
0
40
0
40
0
40
0.027633494266536818
40
0.044669629878011943
40
0.044669629878011943
40
0.044669629878011943
40
0.044669629878011943
10
66.284466420822639
20
30.607357425920142
30
0
10
66.31223450729324
20
30.518543694128613
30
0
10
66.357121705889895
20
30.374976019011356
30
0
10
66.446534418392218
20
30.254844029146646
30
0
10
66.480634703076461
20
30.209028004339626
30
0
11
66.284466420822639
21
30.607357425920142
31
0
11
66.384810140842887
21
30.349884828561954
31
0
11
66.480634703076461
21
30.209028004339626
31
0
0
SPLINE
5
296
100
AcDbEntity
8
0
100
AcDbSpline
70
1064
71
3
72
9
73
5
74
3
42
0.000000001
43
0.0000000001
44
0.0000000001
40
0
40
0
40
0
40
0
40
0.018312174406835132
40
0.039475097192742684
40
0.039475097192742684
40
0.039475097192742684
40
0.039475097192742684
10
66.480634703076461
20
30.209028004339626
30
0
10
66.534815233687283
20
30.175789991932582
30
0
10
66.651610850870682
20
30.104139638396642
30
0
10
66.7853212552711
20
30.138394495851344
30
0
10
66.857004497751319
20
30.156758805375816
30
0
11
66.480634703076461
21
30.209028004339626
31
0
11
66.646816282933287
21
30.132104304045608
31
0
11
66.857004497751319
21
30.156758805375816
31
0
0
SPLINE
5
297
100
AcDbEntity
8
0
100
AcDbSpline
70
1064
71
3
72
9
73
5
74
3
42
0.000000001
43
0.0000000001
44
0.0000000001
40
0
40
0
40
0
40
0
40
0.026557517986950462
40
0.062980320992291339
40
0.062980320992291339
40
0.062980320992291339
40
0.062980320992291339
10
66.857004497751319
20
30.156758805375816
30
0
10
66.938632758062141
20
30.19162034460183
30
0
10
67.132211617311881
20
30.274293391526577
30
0
10
67.303713469909795
20
30.396779859300018
30
0
10
67.402896486029832
20
30.467616279569746
30
0
11
66.857004497751319
21
30.156758805375816
31
0
11
67.097963684355321
21
30.268422794888341
31
0
11
67.402896486029832
21
30.467616279569746
31
0
0
SPLINE
5
298
100
AcDbEntity
8
0
100
AcDbSpline
70
1064
71
3
72
9
73
5
74
3
42
0.000000001
43
0.0000000001
44
0.0000000001
40
0
40
0
40
0
40
0
40
0.072306131918322164
40
0.13883445223082216
40
0.13883445223082216
40
0.13883445223082216
40
0.13883445223082216
10
67.966204449448853
20
29.207966029336887
30
0
10
67.755450183114831
20
29.090097687691649
30
0
10
67.350782524293777
20
28.863779584184776
30
0
10
66.915176017188386
20
28.705205223151466
30
0
10
66.706436984698556
20
28.629217701937108
30
0
11
67.966204449448853
21
29.207966029336887
31
0
11
67.325549758197326
21
28.872735902593494
31
0
11
66.706436984698556
21
28.629217701937108
31
0
0
SPLINE
5
299
100
AcDbEntity
8
0
100
AcDbSpline
70
1064
71
3
72
9
73
5
74
3
42
0.000000001
43
0.0000000001
44
0.0000000001
40
0
40
0
40
0
40
0
40
0.064628708701640225
40
0.11176634598967372
40
0.11176634598967372
40
0.11176634598967372
40
0.11176634598967372
10
66.706436984698556
20
28.629217701937108
30
0
10
66.498994954343715
20
28.563482629485186
30
0
10
66.140252868926638
20
28.449802981556047
30
0
10
65.765447627453113
20
28.465654398700188
30
0
10
65.60737291032973
20
28.472339759532428
30
0
11
66.706436984698556
21
28.629217701937108
31
0
11
66.078739837012449
21
28.475323941079608
31
0
11
65.60737291032973
21
28.472339759532428
31
0
0
SPLINE
5
300
100
AcDbEntity
8
0
100
AcDbSpline
70
1064
71
3
72
9
73
5
74
3
42
0.000000001
43
0.0000000001
44
0.0000000001
40
0
40
0
40
0
40
0
40
0.038874555493232946
40
0.078898914752871224
40
0.078898914752871224
40
0.078898914752871224
40
0.078898914752871224
10
65.60737291032973
20
28.472339759532428
30
0
10
65.480287399794946
20
28.507307612204666
30
0
10
65.222357534493852
20
28.578277571656876
30
0
10
65.030010961832446
20
28.764429894959971
30
0
10
64.932436130154798
20
28.85886246717261
30
0
11
65.60737291032973
21
28.472339759532428
31
0
11
65.242037807195487
21
28.605205740496466
31
0
11
64.932436130154798
21
28.85886246717261
31
0
0
SPLINE
5
301
100
AcDbEntity
8
0
100
AcDbSpline
70
1064
71
3
72
9
73
5
74
3
42
0.000000001
43
0.0000000001
44
0.0000000001
40
0
40
0
40
0
40
0
40
0.052522587231539047
40
0.12758858424600544
40
0.12758858424600544
40
0.12758858424600544
40
0.12758858424600544
10
64.932436130154798
20
28.85886246717261
30
0
10
64.834475243063764
20
29.004848493911005
30
0
10
64.596507321941971
20
29.359479738353336
30
0
10
64.46350691334429
20
29.766311838593644
30
0
10
64.385256901137367
20
30.005669124376716
30
0
11
64.932436130154798
21
28.85886246717261
31
0
11
64.656341320205058
21
29.305666532584141
31
0
11
64.385256901137367
21
30.005669124376716
31
0
0
SPLINE
5
302
100
AcDbEntity
8
0
100
AcDbSpline
70
1064
71
3
72
9
73
5
74
3
42
0.000000001
43
0.0000000001
44
0.0000000001
40
0
40
0
40
0
40
0
40
0.033521361315836475
40
0.061577623363105037
40
0.061577623363105037
40
0.061577623363105037
40
0.061577623363105037
10
69.85183623970137
20
31.478956941880504
30
0
10
69.923542418779689
20
31.39077264731359
30
0
10
70.055264279550471
20
31.228781037658486
30
0
10
70.245597680975337
20
31.144612609980289
30
0
10
70.332318205332612
20
31.106263428344594
30
0
11
69.85183623970137
21
31.478956941880504
31
0
11
70.084324007726309
21
31.237466560777101
31
0
11
70.332318205332612
21
31.106263428344594
31
0
0
SPLINE
5
303
100
AcDbEntity
8
0
100
AcDbSpline
70
1064
71
3
72
9
73
5
74
3
42
0.000000001
43
0.0000000001
44
0.0000000001
40
0
40
0
40
0
40
0
40
0.0280360723321629
40
0.061211585394341489
40
0.061211585394341489
40
0.061211585394341489
40
0.061211585394341489
10
70.332318205332612
20
31.106263428344594
30
0
10
70.425592100249162
20
31.090235454438275
30
0
10
70.629238421178272
20
31.055241333940906
30
0
10
70.828407221193331
20
31.112393784268924
30
0
10
70.936352916177555
20
31.14336932346102
30
0
11
70.332318205332612
21
31.106263428344594
31
0
11
70.611200589242344
21
31.077510148075174
31
0
11
70.936352916177555
21
31.14336932346102
31
0
0
SPLINE
5
304
100
AcDbEntity
8
0
100
AcDbSpline
70
1064
71
3
72
9
73
5
74
3
42
0.000000001
43
0.0000000001
44
0.0000000001
40
0
40
0
40
0
40
0
40
0.035778473325711886
40
0.065205774962444785
40
0.065205774962444785
40
0.065205774962444785
40
0.065205774962444785
10
70.936352916177555
20
31.14336932346102
30
0
10
71.050645637409502
20
31.184603232869605
30
0
10
71.258942548030888
20
31.259751464971121
30
0
10
71.406649076680026
20
31.423589984137692
30
0
10
71.473308886716438
20
31.497530145511551
30
0
11
70.936352916177555
21
31.14336932346102
31
0
11
71.26098896529713
21
31.293773282730353
31
0
11
71.473308886716438
21
31.497530145511551
31
0
0
SPLINE
5
305
100
AcDbEntity
8
0
100
AcDbSpline
70
1064
71
3
72
9
73
5
74
3
42
0.000000001
43
0.0000000001
44
0.0000000001
40
0
40
0
40
0
40
0
40
0.019190291757676614
40
0.037161595764772321
40
0.037161595764772321
40
0.037161595764772321
40
0.037161595764772321
10
71.473308886716438
20
31.497530145511551
30
0
10
71.507147110988583
20
31.554638559335881
30
0
10
71.572674119523867
20
31.665227799776076
30
0
10
71.5491449535388
20
31.791246947410897
30
0
10
71.537766276540438
20
31.852189658999382
30
0
11
71.473308886716438
21
31.497530145511551
31
0
11
71.551074933919935
21
31.672970083030961
31
0
11
71.537766276540438
21
31.852189658999382
31
0
0
SPLINE
5
306
100
AcDbEntity
8
0
100
AcDbSpline
70
1064
71
3
72
9
73
5
74
3
42
0.000000001
43
0.0000000001
44
0.0000000001
40
0
40
0
40
0
40
0
40
0.019853602088781223
40
0.041860140635314361
40
0.041860140635314361
40
0.041860140635314361
40
0.041860140635314361
10
71.537766276540438
20
31.852189658999382
30
0
10
71.506022400364202
20
31.913828427201807
30
0
10
71.439092323136649
20
32.043790108412232
30
0
10
71.296506429319379
20
32.079689270951128
30
0
10
71.221546767912145
20
32.098562028954575
30
0
11
71.537766276540438
21
31.852189658999382
31
0
11
71.425516214440748
21
32.015947025699575
31
0
11
71.221546767912145
21
32.098562028954575
31
0
0
SPLINE
5
307
100
AcDbEntity
8
0
100
AcDbSpline
70
1064
71
3
72
9
73
5
74
3
42
0.000000001
43
0.0000000001
44
0.0000000001
40
0
40
0
40
0
40
0
40
0.030847097924367694
40
0.087991782452552333
40
0.087991782452552333
40
0.087991782452552333
40
0.087991782452552333
10
71.221546767912145
20
32.098562028954575
30
0
10
71.118605812709433
20
32.099605572345659
30
0
10
70.824965284259605
20
32.102582294605668
30
0
10
70.534282499037587
20
32.058305244464577
30
0
10
70.345503779067428
20
32.029550308587289
30
0
11
71.221546767912145
21
32.098562028954575
31
0
11
70.913087402678229
21
32.095885270646548
31
0
11
70.345503779067428
21
32.029550308587289
31
0
0
SPLINE
5
308
100
AcDbEntity
8
0
100
AcDbSpline
70
1064
71
3
72
9
73
5
74
3
42
0.000000001
43
0.0000000001
44
0.0000000001
40
0
40
0
40
0
40
0
40
0.089463882132654077
40
0.14793301332385378
40
0.14793301332385378
40
0.14793301332385378
40
0.14793301332385378
10
70.345503779067428
20
32.029550308587289
30
0
10
70.049975873738163
20
31.986917966942201
30
0
10
69.561305669467131
20
31.916423253161959
30
0
10
69.067960481743228
20
31.904805390675698
30
0
10
68.872970439592009
20
31.900213539873722
30
0
11
70.345503779067428
21
32.029550308587289
31
0
11
69.457210262932833
21
31.923186546817668
31
0
11
68.872970439592009
21
31.900213539873722
31
0
0
SPLINE
5
309
100
AcDbEntity
8
0
100
AcDbSpline
70
1064
71
3
72
9
73
5
74
3
42
0.000000001
43
0.0000000001
44
0.0000000001
40
0
40
0
40
0
40
0
40
0.042470996721471685
40
0.086493891021476976
40
0.086493891021476976
40
0.086493891021476976
40
0.086493891021476976
10
68.872970439592009
20
31.900213539873722
30
0
10
68.730989588141057
20
31.919160098545557
30
0
10
68.441839880328217
20
31.9577455264257
30
0
10
68.192788590216949
20
32.109918535274616
30
0
10
68.066028671217268
20
32.187370205037112
30
0
11
68.872970439592009
21
31.900213539873722
31
0
11
68.456695988327908
21
31.984440242743425
31
0
11
68.066028671217268
21
32.187370205037112
31
0
0
SPLINE
5
310
100
AcDbEntity
8
0
100
AcDbSpline
70
1064
71
3
72
9
73
5
74
3
42
0.000000001
43
0.0000000001
44
0.0000000001
40
0
40
0
40
0
40
0
40
0.044226699222420077
40
0.089062412118012774
40
0.089062412118012774
40
0.089062412118012774
40
0.089062412118012774
10
68.066028671217268
20
32.187370205037112
30
0
10
67.95097541540953
20
32.283386292391526
30
0
10
67.719284589179566
20
32.476740634729197
30
0
10
67.605325971968256
20
32.756255373256572
30
0
10
67.547957035716081
20
32.896968411099003
30
0
11
68.066028671217268
21
32.187370205037112
31
0
11
67.749900802648
21
32.496664988576853
31
0
11
67.547957035716081
21
32.896968411099003
31
0
0
SPLINE
5
311
100
AcDbEntity
8
0
100
AcDbSpline
70
1064
71
3
72
9
73
5
74
3
42
0.000000001
43
0.0000000001
44
0.0000000001
40
0
40
0
40
0
40
0
40
0.048306848844433342
40
0.094690033845523297
40
0.094690033845523297
40
0.094690033845523297
40
0.094690033845523297
10
67.547957035716081
20
32.896968411099003
30
0
10
67.508189749407023
20
33.056155626453872
30
0
10
67.430238780204405
20
33.36819094174156
30
0
10
67.516077452003714
20
33.677855936155353
30
0
10
67.558124865365187
20
33.829542952633645
30
0
11
67.547957035716081
21
32.896968411099003
31
0
11
67.471283210878923
21
33.37391315539621
31
0
11
67.558124865365187
21
33.829542952633645
31
0
0
SPLINE
5
312
100
AcDbEntity
8
0
100
AcDbSpline
70
1064
71
3
72
9
73
5
74
3
42
0.000000001
43
0.0000000001
44
0.0000000001
40
0
40
0
40
0
40
0
40
0.047954371033728925
40
0.099872727631744276
40
0.099872727631744276
40
0.099872727631744276
40
0.099872727631744276
10
67.558124865365187
20
33.829542952633645
30
0
10
67.62840654467135
20
33.975235022313292
30
0
10
67.774779500119109
20
34.278662302862685
30
0
10
68.033362661575069
20
34.495213316845089
30
0
10
68.16778587304691
20
34.607786318826726
30
0
11
67.558124865365187
21
33.829542952633645
31
0
11
67.794839814359619
21
34.246589956035685
31
0
11
68.16778587304691
21
34.607786318826726
31
0
0
SPLINE
5
313
100
AcDbEntity
8
0
100
AcDbSpline
70
1064
71
3
72
9
73
5
74
3
42
0.000000001
43
0.0000000001
44
0.0000000001
40
0
40
0
40
0
40
0
40
0.062720505830965681
40
0.14183610140452685
40
0.14183610140452685
40
0.14183610140452685
40
0.14183610140452685
10
68.16778587304691
20
34.607786318826726
30
0
10
68.343979570662952
20
34.721743262523759
30
0
10
68.742423856639448
20
34.97944540328011
30
0
10
69.192292979419875
20
35.132130846008771
30
0
10
69.443228130812841
20
35.217298159670605
30
0
11
68.16778587304691
21
34.607786318826726
31
0
11
68.706422808233839
21
34.929121715603458
31
0
11
69.443228130812841
21
35.217298159670605
31
0
0
SPLINE
5
314
100
AcDbEntity
8
0
100
AcDbSpline
70
1064
71
3
72
9
73
5
74
3
42
0.000000001
43
0.0000000001
44
0.0000000001
40
0
40
0
40
0
40
0
40
0.080644142332869193
40
0.13779195591916835
40
0.13779195591916835
40
0.13779195591916835
40
0.13779195591916835
10
69.443228130812841
20
35.217298159670605
30
0
10
69.700066044956088
20
35.30008239879826
30
0
10
70.138910051727464
20
35.441531013647364
30
0
10
70.597190741517494
20
35.4864723007612
30
0
10
70.787258000927665
20
35.505111242934404
30
0
11
69.443228130812841
21
35.217298159670605
31
0
11
70.220399509708926
21
35.432594274556962
31
0
11
70.787258000927665
21
35.505111242934404
31
0
0
SPLINE
5
315
100
AcDbEntity
8
0
100
AcDbSpline
70
1064
71
3
72
9
73
5
74
3
42
0.000000001
43
0.0000000001
44
0.0000000001
40
0
40
0
40
0
40
0
40
0.044483366536432603
40
0.086484247097840528
40
0.086484247097840528
40
0.086484247097840528
40
0.086484247097840528
10
70.787258000927665
20
35.505111242934404
30
0
10
70.936835278242569
20
35.498812044138674
30
0
10
71.227642364548188
20
35.486565186322224
30
0
10
71.494618534428383
20
35.371087595941894
30
0
10
71.624274912325674
20
35.315006163266688
30
0
11
70.787258000927665
21
35.505111242934404
31
0
11
71.22968516779018
21
35.458903106600388
31
0
11
71.624274912325674
21
35.315006163266688
31
0
0
SPLINE
5
316
100
AcDbEntity
8
0
100
AcDbSpline
70
1064
71
3
72
9
73
5
74
3
42
0.000000001
43
0.0000000001
44
0.0000000001
40
0
40
0
40
0
40
0
40
0.04436680731565984
40
0.094976693678014715
40
0.094976693678014715
40
0.094976693678014715
40
0.094976693678014715
10
71.624274912325674
20
35.315006163266688
30
0
10
71.751299952219114
20
35.237484679586338
30
0
10
72.023224371246158
20
35.071533270088011
30
0
10
72.231358184363174
20
34.829918545287001
30
0
10
72.342265694638556
20
34.701170183008728
30
0
11
71.624274912325674
21
35.315006163266688
31
0
11
71.991430039912871
21
35.065930930806857
31
0
11
72.342265694638556
21
34.701170183008728
31
0
0
SPLINE
5
317
100
AcDbEntity
8
0
100
AcDbSpline
70
1064
71
3
72
9
73
5
74
3
42
0.000000001
43
0.0000000001
44
0.0000000001
40
0
40
0
40
0
40
0
40
0.02371088169348998
40
0.04468744930816726
40
0.04468744930816726
40
0.04468744930816726
40
0.04468744930816726
10
70.607084202921357
20
33.94228000992306
30
0
10
70.558315522461413
20
34.006471397863798
30
0
10
70.466402114767305
20
34.127451690022653
30
0
10
70.327111262720948
20
34.187116617079354
30
0
10
70.261727267409256
20
34.215123706228667
30
0
11
70.607084202921357
21
33.94228000992306
31
0
11
70.447440002105964
21
34.117592075150412
31
0
11
70.261727267409256
21
34.215123706228667
31
0
0
SPLINE
5
318
100
AcDbEntity
8
0
100
AcDbSpline
70
1064
71
3
72
9
73
5
74
3
42
0.000000001
43
0.0000000001
44
0.0000000001
40
0
40
0
40
0
40
0
40
0.028408570718337609
40
0.059417313509953676
40
0.059417313509953676
40
0.059417313509953676
40
0.059417313509953676
10
70.261727267409256
20
34.215123706228667
30
0
10
70.167356465842772
20
34.232353854961886
30
0
10
69.969977317188764
20
34.268391188879711
30
0
10
69.775994746218231
20
34.216025675230327
30
0
10
69.674759007105365
20
34.188697129929601
30
0
11
70.261727267409256
21
34.215123706228667
31
0
11
69.979391314144408
21
34.246605423461148
31
0
11
69.674759007105365
21
34.188697129929601
31
0
0
SPLINE
5
319
100
AcDbEntity
8
0
100
AcDbSpline
70
1064
71
3
72
9
73
5
74
3
42
0.000000001
43
0.0000000001
44
0.0000000001
40
0
40
0
40
0
40
0
40
0.029333981221442252
40
0.051458699190670594
40
0.051458699190670594
40
0.051458699190670594
40
0.051458699190670594
10
69.674759007105365
20
34.188697129929601
30
0
10
69.580513112878492
20
34.156456172048891
30
0
10
69.415183658128882
20
34.099897952396461
30
0
10
69.295088810115686
20
33.974234438129216
30
0
10
69.243453912933319
20
33.920205287452802
30
0
11
69.674759007105365
21
34.188697129929601
31
0
11
69.406720576276314
21
34.0695180838322
31
0
11
69.243453912933319
21
33.920205287452802
31
0
0
SPLINE
5
320
100
AcDbEntity
8
0
100
AcDbSpline
70
1064
71
3
72
9
73
5
74
3
42
0.000000001
43
0.0000000001
44
0.0000000001
40
0
40
0
40
0
40
0
40
0.017305592670404275
40
0.033500969768024025
40
0.033500969768024025
40
0.033500969768024025
40
0.033500969768024025
10
69.243453912933319
20
33.920205287452802
30
0
10
69.21393200069808
20
33.868242358967997
30
0
10
69.156782112328258
20
33.767650109434427
30
0
10
69.178176110704669
20
33.654260295077506
30
0
10
69.188518613436102
20
33.59944424601219
30
0
11
69.243453912933319
21
33.920205287452802
31
0
11
69.175847177560598
21
33.760901542676862
31
0
11
69.188518613436102
21
33.59944424601219
31
0
0
SPLINE
5
321
100
AcDbEntity
8
0
100
AcDbSpline
70
1064
71
3
72
9
73
5
74
3
42
0.000000001
43
0.0000000001
44
0.0000000001
40
0
40
0
40
0
40
0
40
0.017421875684250618
40
0.036411952094110245
40
0.036411952094110245
40
0.036411952094110245
40
0.036411952094110245
10
69.188518613436102
20
33.59944424601219
30
0
10
69.216124387722715
20
33.545073454714192
30
0
10
69.273820823460298
20
33.431437777136061
30
0
10
69.398349389973532
20
33.401451820143592
30
0
10
69.463295289802943
20
33.385813119613672
30
0
11
69.188518613436102
21
33.59944424601219
31
0
11
69.286635787363323
21
33.455481766816099
31
0
11
69.463295289802943
21
33.385813119613672
31
0
0
SPLINE
5
322
100
AcDbEntity
8
0
100
AcDbSpline
70
1064
71
3
72
9
73
5
74
3
42
0.000000001
43
0.0000000001
44
0.0000000001
40
0
40
0
40
0
40
0
40
0.032364060663611721
40
0.08695392625087256
40
0.08695392625087256
40
0.08695392625087256
40
0.08695392625087256
10
69.463295289802943
20
33.385813119613672
30
0
10
69.571401668911491
20
33.38558177315484
30
0
10
69.861855769030697
20
33.384960204584416
30
0
10
70.146770882622619
20
33.444069811172575
30
0
10
70.325641215744611
20
33.481178951813945
30
0
11
69.463295289802943
21
33.385813119613672
31
0
11
69.78684710463628
21
33.393393712060949
31
0
11
70.325641215744611
21
33.481178951813945
31
0
0
SPLINE
5
323
100
AcDbEntity
8
0
100
AcDbSpline
70
1064
71
3
72
9
73
5
74
3
42
0.000000001
43
0.0000000001
44
0.0000000001
40
0
40
0
40
0
40
0
40
0.087462676125981922
40
0.15104666350071308
40
0.15104666350071308
40
0.15104666350071308
40
0.15104666350071308
10
70.325641215744611
20
33.481178951813945
30
0
10
70.612418232550183
20
33.538546952453018
30
0
10
71.107677621764097
20
33.637620585596331
30
0
10
71.612245180209001
20
33.639051004221358
30
0
10
71.824645881570461
20
33.63965314741133
30
0
11
70.325641215744611
21
33.481178951813945
31
0
11
71.189093221260009
21
33.620543960633519
31
0
11
71.824645881570461
21
33.63965314741133
31
0
0
SPLINE
5
324
100
AcDbEntity
8
0
100
AcDbSpline
70
1064
71
3
72
9
73
5
74
3
42
0.000000001
43
0.0000000001
44
0.0000000001
40
0
40
0
40
0
40
0
40
0.049041586628181186
40
0.094287701729678625
40
0.094287701729678625
40
0.094287701729678625
40
0.094287701729678625
10
71.824645881570461
20
33.63965314741133
30
0
10
71.989006654850726
20
33.618216158808877
30
0
10
72.305007841447789
20
33.577001252719974
30
0
10
72.573540693359121
20
33.406151034189676
30
0
10
72.702402338125324
20
33.324164640302364
30
0
11
71.824645881570461
21
33.63965314741133
31
0
11
72.30488648956316
21
33.540271658512552
31
0
11
72.702402338125324
21
33.324164640302364
31
0
0
SPLINE
5
325
100
AcDbEntity
8
0
100
AcDbSpline
70
1064
71
3
72
9
73
5
74
3
42
0.000000001
43
0.0000000001
44
0.0000000001
40
0
40
0
40
0
40
0
40
0.043509462423578553
40
0.086600455639857021
40
0.086600455639857021
40
0.086600455639857021
40
0.086600455639857021
10
72.702402338125324
20
33.324164640302364
30
0
10
72.813243930389362
20
33.227286533530737
30
0
10
73.033861052717
20
33.034462082925636
30
0
10
73.145137582751289
20
32.763460945787202
30
0
10
73.200506993517223
20
32.628615140695828
30
0
11
72.702402338125324
21
33.324164640302364
31
0
11
73.007327151719736
21
33.013796809989209
31
0
11
73.200506993517223
21
32.628615140695828
31
0
0
SPLINE
5
326
100
AcDbEntity
8
0
100
AcDbSpline
70
1064
71
3
72
9
73
5
74
3
42
0.000000001
43
0.0000000001
44
0.0000000001
40
0
40
0
40
0
40
0
40
0.044835712895592704
40
0.092557711687966421
40
0.092557711687966421
40
0.092557711687966421
40
0.092557711687966421
10
73.200506993517223
20
32.628615140695828
30
0
10
73.234979249923924
20
32.481260918973554
30
0
10
73.30614290415545
20
32.177066590627874
30
0
10
73.243063696390152
20
31.870787574997038
30
0
10
73.210540573012281
20
31.712872620667362
30
0
11
73.200506993517223
21
32.628615140695828
31
0
11
73.272423502361917
21
32.186063300973984
31
0
11
73.210540573012281
21
31.712872620667362
31
0
0
SPLINE
5
327
100
AcDbEntity
8
0
100
AcDbSpline
70
1064
71
3
72
9
73
5
74
3
42
0.000000001
43
0.0000000001
44
0.0000000001
40
0
40
0
40
0
40
0
40
0.051673965194963867
40
0.11037874484658954
40
0.11037874484658954
40
0.11037874484658954
40
0.11037874484658954
10
73.210540573012281
20
31.712872620667362
30
0
10
73.149796507596236
20
31.549296528397818
30
0
10
73.020043474861026
20
31.19988800742405
30
0
10
72.750800121422927
20
30.941010950637001
30
0
10
72.607603423922754
20
30.80332755337907
30
0
11
73.210540573012281
21
31.712872620667362
31
0
11
72.997736876839468
21
31.241985739567216
31
0
11
72.607603423922754
21
30.80332755337907
31
0
0
SPLINE
5
328
100
AcDbEntity
8
0
100
AcDbSpline
70
1064
71
3
72
9
73
5
74
3
42
0.000000001
43
0.0000000001
44
0.0000000001
40
0
40
0
40
0
40
0
40
0.071218167940768295
40
0.1613991345843247
40
0.1613991345843247
40
0.1613991345843247
40
0.1613991345843247
10
72.607603423922754
20
30.80332755337907
30
0
10
72.413720177934096
20
30.664230968907908
30
0
10
71.974329654170631
20
30.349001456461696
30
0
10
71.461725800963364
20
30.173929413149317
30
0
10
71.175310938166888
20
30.076108776509393
30
0
11
72.607603423922754
21
30.80332755337907
31
0
11
72.011698616141018
21
30.413327291139993
31
0
11
71.175310938166888
21
30.076108776509393
31
0
0
SPLINE
5
329
100
AcDbEntity
8
0
100
AcDbSpline
70
1064
71
3
72
9
73
5
74
3
42
0.000000001
43
0.0000000001
44
0.0000000001
40
0
40
0
40
0
40
0
40
0.1221251097710857
40
0.20857726659784259
40
0.20857726659784259
40
0.20857726659784259
40
0.20857726659784259
10
71.175310938166888
20
30.076108776509393
30
0
10
70.782096762150118
20
29.950195200589
30
0
10
70.110526941866397
20
29.735147619118969
30
0
10
69.412292550590834
20
29.805998282324317
30
0
10
69.12288484053208
20
29.835364822343841
30
0
11
71.175310938166888
21
30.076108776509393
31
0
11
69.986527054769198
21
29.796381905733853
31
0
11
69.12288484053208
21
29.835364822343841
31
0
0
SPLINE
5
330
100
AcDbEntity
8
0
100
AcDbSpline
70
1064
71
3
72
9
73
5
74
3
42
0.000000001
43
0.0000000001
44
0.0000000001
40
0
40
0
40
0
40
0
40
0.069571511259894275
40
0.14134927021383792
40
0.14134927021383792
40
0.14134927021383792
40
0.14134927021383792
10
69.12288484053208
20
29.835364822343841
30
0
10
68.902382965719525
20
29.922724921315154
30
0
10
68.454386673543169
20
30.100215477604422
30
0
10
68.17495989811863
20
30.493298066237866
30
0
10
68.033065796356681
20
30.692907072023594
30
0
11
69.12288484053208
21
29.835364822343841
31
0
11
68.502216304982795
21
30.149673725936577
31
0
11
68.033065796356681
21
30.692907072023594
31
0
0
ENDSEC
0
SECTION
2
OBJECTS
0
DICTIONARY
5
C
100
AcDbDictionary
3
ACAD_GROUP
350
D
3
ACAD_MLINESTYLE
350
17
0
DICTIONARY
5
D
100
AcDbDictionary
0
DICTIONARY
5
1A
330
C
100
AcDbDictionary
0
DICTIONARY
5
17
100
AcDbDictionary
0
ENDSEC
0
EOF
