0
SECTION
2
HEADER
9
$INSUNITS
70
4
9
$ACADVER
1
AC1014
9
$HANDSEED
5
FFFF
0
ENDSEC
0
SECTION
2
TABLES
0
TABLE
2
VPORT
5
8
100
AcDbSymbolTable
0
ENDTAB
0
TABLE
2
LTYPE
5
5
100
AcDbSymbolTable
0
LTYPE
5
14
100
AcDbSymbolTableRecord
100
AcDbLinetypeTableRecord
2
BYBLOCK
70
0
0
LTYPE
5
15
100
AcDbSymbolTableRecord
100
AcDbLinetypeTableRecord
2
BYLAYER
70
0
0
ENDTAB
0
TABLE
2
LAYER
5
2
100
AcDbSymbolTable
70
2
0
LAYER
5
50
100
AcDbSymbolTableRecord
100
AcDbLayerTableRecord
2
0
70
0
6
CONTINUOUS
0
ENDTAB
0
TABLE
2
STYLE
5
3
100
AcDbSymbolTable
70
1
0
STYLE
5
11
100
AcDbSymbolTableRecord
100
AcDbTextStyleTableRecord
2
STANDARD
70
0
0
ENDTAB
0
TABLE
2
VIEW
5
6
100
AcDbSymbolTable
70
0
0
ENDTAB
0
TABLE
2
UCS
5
7
100
AcDbSymbolTable
70
0
0
ENDTAB
0
TABLE
2
APPID
5
9
100
AcDbSymbolTable
70
2
0
APPID
5
12
100
AcDbSymbolTableRecord
100
AcDbRegAppTableRecord
2
ACAD
70
0
0
ENDTAB
0
TABLE
2
DIMSTYLE
5
A
100
AcDbSymbolTable
70
1
0
ENDTAB
0
TABLE
2
BLOCK_RECORD
5
1
100
AcDbSymbolTable
70
1
0
BLOCK_RECORD
5
1F
100
AcDbSymbolTableRecord
100
AcDbBlockTableRecord
2
*MODEL_SPACE
0
BLOCK_RECORD
5
1B
100
AcDbSymbolTableRecord
100
AcDbBlockTableRecord
2
*PAPER_SPACE
0
ENDTAB
0
ENDSEC
0
SECTION
2
BLOCKS
0
BLOCK
5
20
100
AcDbEntity
100
AcDbBlockBegin
2
*MODEL_SPACE
0
ENDBLK
5
21
100
AcDbEntity
100
AcDbBlockEnd
0
BLOCK
5
1C
100
AcDbEntity
100
AcDbBlockBegin
2
*PAPER_SPACE
0
ENDBLK
5
1D
100
AcDbEntity
100
AcDbBlockEnd
0
ENDSEC
0
SECTION
2
ENTITIES
0
LINE
5
100
100
AcDbEntity
8
0
100
AcDbLine
10
0
20
0
30
0
11
0
21
100
31
0
0
LINE
5
101
100
AcDbEntity
8
0
100
AcDbLine
10
0
20
0
30
0
11
86.60254037844382
21
50.000000000000014
31
0
0
ARC
5
102
100
AcDbEntity
8
0
100
AcDbCircle
10
0
20
0
30
0
40
99.999999999999972
100
AcDbArc
50
30.000000000000014
51
90
0
LINE
5
103
100
AcDbEntity
8
0
100
AcDbLine
10
15.917715639285808
20
19.164805314289918
30
0
11
14.327186886684744
21
17.964603799694107
31
0
0
LINE
5
104
100
AcDbEntity
8
0
100
AcDbLine
10
21.51275110299467
20
17.647747745996476
30
0
11
23.128348090928817
21
18.794764178339292
31
0
0
LINE
5
105
100
AcDbEntity
8
0
100
AcDbLine
10
24.894419883934084
20
22.464353728039907
30
0
11
23.354938410004426
21
21.361282608197094
31
0
0
LINE
5
106
100
AcDbEntity
8
0
100
AcDbLine
10
31.760776299619017
20
24.331241178197082
30
0
11
28.310206331415394
21
22.339053678197082
31
0
0
LINE
5
107
100
AcDbEntity
8
0
100
AcDbLine
10
30.255919018346546
20
22.797105447500968
30
0
11
32.041935556029941
21
23.619649686075064
31
0
0
LINE
5
108
100
AcDbEntity
8
0
100
AcDbLine
10
31.648471612119017
20
24.525758602875225
30
0
11
31.760776299619017
21
24.331241178197082
31
0
0
LINE
5
109
100
AcDbEntity
8
0
100
AcDbLine
10
27.838360752332306
20
23.166079819495739
30
0
11
29.534045258765708
21
24.145083725745739
31
0
0
LINE
5
110
100
AcDbEntity
8
0
100
AcDbLine
10
34.133527881183419
20
29.264483635188121
30
0
11
35.744639594278496
21
30.194659416438121
31
0
0
LINE
5
111
100
AcDbEntity
8
0
100
AcDbLine
10
35.744639594278496
20
30.194659416438121
30
0
11
38.193370063028496
21
25.953333830521167
31
0
0
LINE
5
112
100
AcDbEntity
8
0
100
AcDbLine
10
38.193370063028496
20
25.953333830521167
30
0
11
38.312344796445409
21
25.757029172426101
31
0
0
LINE
5
113
100
AcDbEntity
8
0
100
AcDbLine
10
33.579586201160936
20
22.821595019417124
30
0
11
35.359762150842833
21
23.595661703155891
31
0
0
LINE
5
114
100
AcDbEntity
8
0
100
AcDbLine
10
36.518221549592852
20
24.850869916015178
30
0
11
36.125155143342852
21
25.531680902388686
31
0
0
LINE
5
115
100
AcDbEntity
8
0
100
AcDbLine
10
34.516828662433419
20
28.600587207482278
30
0
11
34.133527881183419
21
29.264483635188121
31
0
0
LINE
5
116
100
AcDbEntity
8
0
100
AcDbLine
10
36.797570871340632
20
30.802569572688121
30
0
11
38.40445394476879
21
31.730303947688121
31
0
0
LINE
5
117
100
AcDbEntity
8
0
100
AcDbLine
10
38.40445394476879
20
31.730303947688121
30
0
11
38.78287191351879
21
31.07486479931611
31
0
0
LINE
5
118
100
AcDbEntity
8
0
100
AcDbLine
10
45.381935019873637
20
33.531670966756217
30
0
11
47.010352988623637
21
30.71116830892311
31
0
0
LINE
5
119
100
AcDbEntity
8
0
100
AcDbLine
10
47.010352988623637
20
30.71116830892311
30
0
11
45.285068004521818
21
29.71507455892311
31
0
0
LINE
5
120
100
AcDbEntity
8
0
100
AcDbLine
10
45.285068004521818
20
29.71507455892311
30
0
11
43.808017223271818
21
32.273401557407411
31
0
0
LINE
5
121
100
AcDbEntity
8
0
100
AcDbLine
10
42.720871876116121
20
31.32436128389319
30
0
11
44.058762501116121
21
29.00706674642311
31
0
0
LINE
5
122
100
AcDbEntity
8
0
100
AcDbLine
10
44.058762501116121
20
29.00706674642311
30
0
11
42.333477517014309
21
28.01097299642311
31
0
0
LINE
5
123
100
AcDbEntity
8
0
100
AcDbLine
10
42.333477517014309
20
28.01097299642311
30
0
11
40.905254860764309
21
30.48472720156909
31
0
0
LINE
5
124
100
AcDbEntity
8
0
100
AcDbLine
10
39.792387105442437
20
29.599770695891692
30
0
11
41.115629292942437
21
27.30784799642311
31
0
0
LINE
5
125
100
AcDbEntity
8
0
100
AcDbLine
10
41.115629292942437
20
27.30784799642311
30
0
11
39.390344308840632
21
26.31175424642311
31
0
0
LINE
5
126
100
AcDbEntity
8
0
100
AcDbLine
10
39.390344308840632
20
26.31175424642311
30
0
11
36.797570871340632
21
30.802569572688121
31
0
0
LINE
5
127
100
AcDbEntity
8
0
100
AcDbLine
10
51.973673907478471
20
36.001163053197075
30
0
11
48.523103939274854
21
34.008975553197075
31
0
0
LINE
5
128
100
AcDbEntity
8
0
100
AcDbLine
10
50.468816626205999
20
34.467027322500961
30
0
11
52.254833163889394
21
35.289571561075064
31
0
0
LINE
5
129
100
AcDbEntity
8
0
100
AcDbLine
10
51.861369219978471
20
36.195680477875221
30
0
11
51.973673907478471
21
36.001163053197075
31
0
0
LINE
5
130
100
AcDbEntity
8
0
100
AcDbLine
10
48.05125836019176
20
34.836001694495735
30
0
11
49.746942866625155
21
35.815005600745735
31
0
0
LINE
5
131
100
AcDbEntity
8
0
100
AcDbLine
10
51.221460775191801
20
39.130206291438114
30
0
11
52.824115208953046
21
40.055499260188114
31
0
0
LINE
5
132
100
AcDbEntity
8
0
100
AcDbLine
10
52.824115208953046
20
40.055499260188114
30
0
11
53.246478490203046
21
39.323944597811618
31
0
0
LINE
5
133
100
AcDbEntity
8
0
100
AcDbLine
10
56.915047339888702
20
40.235421959091546
30
0
11
58.562996558638702
21
37.381090183923106
31
0
0
LINE
5
134
100
AcDbEntity
8
0
100
AcDbLine
10
58.562996558638702
20
37.381090183923106
30
0
11
56.83348293486997
21
36.382555027673106
31
0
0
LINE
5
135
100
AcDbEntity
8
0
100
AcDbLine
10
56.83348293486997
20
36.382555027673106
30
0
11
55.40770168486997
21
38.852080593152174
31
0
0
LINE
5
136
100
AcDbEntity
8
0
100
AcDbLine
10
54.2901733696267
20
37.789649539050373
30
0
11
55.5352905571267
21
35.633043308923106
31
0
0
LINE
5
137
100
AcDbEntity
8
0
100
AcDbLine
10
55.5352905571267
20
35.633043308923106
30
0
11
53.814234212691801
21
34.639390965173106
31
0
0
LINE
5
138
100
AcDbEntity
8
0
100
AcDbLine
10
53.814234212691801
20
34.639390965173106
30
0
11
51.221460775191801
21
39.130206291438114
31
0
0
LINE
5
139
100
AcDbEntity
8
0
100
AcDbLine
10
58.087716511655202
20
45.372268123122268
30
0
11
59.074044636655202
21
43.663897697688121
31
0
0
LINE
5
140
100
AcDbEntity
8
0
100
AcDbLine
10
59.074044636655202
20
43.663897697688121
30
0
11
60.021259922044422
21
44.210772697688121
31
0
0
LINE
5
141
100
AcDbEntity
8
0
100
AcDbLine
10
60.021259922044422
20
44.210772697688121
30
0
11
60.746357578294422
21
42.954866716614006
31
0
0
LINE
5
142
100
AcDbEntity
8
0
100
AcDbLine
10
60.746357578294422
20
42.954866716614006
30
0
11
59.799142292905202
21
42.407991716614006
31
0
0
LINE
5
143
100
AcDbEntity
8
0
100
AcDbLine
10
59.799142292905202
20
42.407991716614006
30
0
11
60.719552449155202
21
40.813794562186594
31
0
0
LINE
5
144
100
AcDbEntity
8
0
100
AcDbLine
10
61.842595952040682
20
40.909641781078811
30
0
11
62.655490298298169
21
39.794636222175356
31
0
0
LINE
5
145
100
AcDbEntity
8
0
100
AcDbLine
10
58.986943246303383
20
39.830386731187346
30
0
11
58.073857308803383
21
41.411897966614006
31
0
0
LINE
5
146
100
AcDbEntity
8
0
100
AcDbLine
10
58.073857308803383
20
41.411897966614006
30
0
11
57.43956135876595
21
41.045687029114006
31
0
0
LINE
5
147
100
AcDbEntity
8
0
100
AcDbLine
10
57.43956135876595
20
41.045687029114006
30
0
11
56.71446370251595
21
42.301593010188121
31
0
0
LINE
5
148
100
AcDbEntity
8
0
100
AcDbLine
10
56.71446370251595
20
42.301593010188121
30
0
11
57.348759652553383
21
42.667803947688121
31
0
0
LINE
5
149
100
AcDbEntity
8
0
100
AcDbLine
10
57.348759652553383
20
42.667803947688121
30
0
11
56.872685433803383
21
43.492388682736788
31
0
0
LINE
5
150
100
AcDbEntity
8
0
100
AcDbLine
10
56.872685433803383
20
43.492388682736788
30
0
11
58.087716511655202
21
45.372268123122268
31
0
0
LINE
5
151
100
AcDbEntity
8
0
100
AcDbLine
10
62.412153961408201
20
41.261028995996476
30
0
11
64.027750949342348
21
42.408045428339292
31
0
0
LINE
5
152
100
AcDbEntity
8
0
100
AcDbLine
10
65.793822742347615
20
46.077634978039903
30
0
11
64.25434126841796
21
44.974563858197087
31
0
0
SPLINE
5
153
100
AcDbEntity
8
0
100
AcDbSpline
70
1064
71
3
72
9
73
5
74
3
42
0.000000001
43
0.0000000001
44
0.0000000001
40
0
40
0
40
0
40
0
40
0.036924201339938081
40
0.065026897710107362
40
0.065026897710107362
40
0.065026897710107362
40
0.065026897710107362
10
14.327186886684746
20
17.96460379969411
30
0
10
14.244034554810296
20
18.058235655534656
30
0
10
14.097595688621244
20
18.223129922470772
30
0
10
13.893901975530357
20
18.30487627389088
30
0
10
13.805871594671268
20
18.340204622224054
30
0
11
14.327186886684746
21
17.96460379969411
31
0
11
14.059269180721046
21
18.218689941170535
31
0
11
13.805871594671268
21
18.340204622224054
31
0
0
SPLINE
5
154
100
AcDbEntity
8
0
100
AcDbSpline
70
1064
71
3
72
9
73
5
74
3
42
0.000000001
43
0.0000000001
44
0.0000000001
40
0
40
0
40
0
40
0
40
0.023977107832677327
40
0.049002712796718119
40
0.049002712796718119
40
0.049002712796718119
40
0.049002712796718119
10
13.805871594671268
20
18.340204622224054
30
0
10
13.724829910310302
20
18.350964297304834
30
0
10
13.559202662394663
20
18.372954158277587
30
0
10
13.408401455377028
20
18.300566098721838
30
0
10
13.331387526564979
20
18.263597635566121
30
0
11
13.805871594671268
21
18.340204622224054
31
0
11
13.566296134431749
21
18.349888054105605
31
0
11
13.331387526564979
21
18.263597635566121
31
0
0
SPLINE
5
155
100
AcDbEntity
8
0
100
AcDbSpline
70
1064
71
3
72
9
73
5
74
3
42
0.000000001
43
0.0000000001
44
0.0000000001
40
0
40
0
40
0
40
0
40
0.044669061871735971
40
0.09345077809833767
40
0.09345077809833767
40
0.09345077809833767
40
0.09345077809833767
10
13.331387526564979
20
18.263597635566121
30
0
10
13.209911634562026
20
18.166097048713151
30
0
10
12.955775636352296
20
17.962119053101393
30
0
10
12.935106843449304
20
17.635338164256485
30
0
10
12.924317642859883
20
17.464757106374499
30
0
11
13.331387526564979
21
18.263597635566121
31
0
11
13.020302392126354
21
17.943037893893216
31
0
11
12.924317642859883
21
17.464757106374499
31
0
0
SPLINE
5
156
100
AcDbEntity
8
0
100
AcDbSpline
70
1064
71
3
72
9
73
5
74
3
42
0.000000001
43
0.0000000001
44
0.0000000001
40
0
40
0
40
0
40
0
40
0.057725836260501089
40
0.15367411136750772
40
0.15367411136750772
40
0.15367411136750772
40
0.15367411136750772
10
12.924317642859883
20
17.464757106374499
30
0
10
12.961298171060394
20
17.275260625688716
30
0
10
13.059745420632813
20
16.770794945100842
30
0
10
13.285702200887876
20
16.307535015272101
30
0
10
13.426781027511829
20
16.01829312021431
30
0
11
12.924317642859883
21
17.464757106374499
31
0
11
13.053251320684547
21
16.902081956825473
31
0
11
13.426781027511829
21
16.01829312021431
31
0
0
SPLINE
5
157
100
AcDbEntity
8
0
100
AcDbSpline
70
1064
71
3
72
9
73
5
74
3
42
0.000000001
43
0.0000000001
44
0.0000000001
40
0
40
0
40
0
40
0
40
0.047851718201675893
40
0.090916249067606592
40
0.090916249067606592
40
0.090916249067606592
40
0.090916249067606592
10
13.426781027511829
20
16.01829312021431
30
0
10
13.471814127709912
20
16.172228271476413
30
0
10
13.557375121290951
20
16.464698575121957
30
0
10
13.718597216518251
20
16.723051224887865
30
0
10
13.794963696299259
20
16.845425781408178
30
0
11
13.426781027511829
21
16.01829312021431
31
0
11
13.582840011301126
21
16.470647281313678
31
0
11
13.794963696299259
21
16.845425781408178
31
0
0
SPLINE
5
158
100
AcDbEntity
8
0
100
AcDbSpline
70
1064
71
3
72
9
73
5
74
3
42
0.000000001
43
0.0000000001
44
0.0000000001
40
0
40
0
40
0
40
0
40
0.04261775141411972
40
0.08921216718788845
40
0.08921216718788845
40
0.08921216718788845
40
0.08921216718788845
10
13.794963696299259
20
16.845425781408178
30
0
10
13.885024840669269
20
16.956591388280774
30
0
10
14.073550738964503
20
17.189295469955429
30
0
10
14.32726112385116
20
17.348878744031023
30
0
10
14.459770932010343
20
17.432227121917162
30
0
11
13.794963696299259
21
16.845425781408178
31
0
11
14.080022819903304
21
17.162235771164912
31
0
11
14.459770932010343
21
17.432227121917162
31
0
0
SPLINE
5
159
100
AcDbEntity
8
0
100
AcDbSpline
70
1064
71
3
72
9
73
5
74
3
42
0.000000001
43
0.0000000001
44
0.0000000001
40
0
40
0
40
0
40
0
40
0.089896228225094105
40
0.17939974301068057
40
0.17939974301068057
40
0.17939974301068057
40
0.17939974301068057
10
14.459770932010343
20
17.432227121917162
30
0
10
14.739201397203754
20
17.560955889462889
30
0
10
15.296841630112432
20
17.817851070403737
30
0
10
15.900219173990209
20
17.704749853924024
30
0
10
16.201247536759606
20
17.648323037298891
30
0
11
14.459770932010343
21
17.432227121917162
31
0
11
15.30954677055545
21
17.725508913262594
31
0
11
16.201247536759606
21
17.648323037298891
31
0
0
SPLINE
5
160
100
AcDbEntity
8
0
100
AcDbSpline
70
1064
71
3
72
9
73
5
74
3
42
0.000000001
43
0.0000000001
44
0.0000000001
40
0
40
0
40
0
40
0
40
0.092135919268013372
40
0.18938857956129368
40
0.18938857956129368
40
0.18938857956129368
40
0.18938857956129368
10
16.201247536759606
20
17.648323037298891
30
0
10
16.492761254462309
20
17.530697597829633
30
0
10
17.091977817958558
20
17.288914424900572
30
0
10
17.456074817502483
20
16.753914339135076
30
0
10
17.643041750210209
20
16.479187205543639
30
0
11
16.201247536759606
21
17.648323037298891
31
0
11
17.020142024972561
21
17.226049927675945
31
0
11
17.643041750210209
21
16.479187205543639
31
0
0
SPLINE
5
161
100
AcDbEntity
8
0
100
AcDbSpline
70
1064
71
3
72
9
73
5
74
3
42
0.000000001
43
0.0000000001
44
0.0000000001
40
0
40
0
40
0
40
0
40
0.068270598394761656
40
0.13489393131541474
40
0.13489393131541474
40
0.13489393131541474
40
0.13489393131541474
10
17.643041750210209
20
16.479187205543639
30
0
10
17.746335655913338
20
16.273597587665432
30
0
10
17.950431142826314
20
15.867378916007313
30
0
10
17.98243282406521
20
15.414041427574753
30
0
10
17.998238269442993
20
15.190140662560845
30
0
11
17.643041750210209
21
16.479187205543639
31
0
11
17.908842833143407
21
15.850349193946515
31
0
11
17.998238269442993
21
15.190140662560845
31
0
0
SPLINE
5
162
100
AcDbEntity
8
0
100
AcDbSpline
70
1064
71
3
72
9
73
5
74
3
42
0.000000001
43
0.0000000001
44
0.0000000001
40
0
40
0
40
0
40
0
40
0.065094502049578035
40
0.12991740114685296
40
0.12991740114685296
40
0.12991740114685296
40
0.12991740114685296
10
17.998238269442993
20
15.190140662560845
30
0
10
17.984758258654111
20
14.970578572113658
30
0
10
17.957854481622533
20
14.532370501030432
30
0
10
17.745225100990133
20
14.148296558135257
30
0
10
17.639132670228914
20
13.956661055682096
30
0
11
17.998238269442993
21
15.190140662560845
31
0
11
17.911172495964323
21
14.545044568326183
31
0
11
17.639132670228914
21
13.956661055682096
31
0
0
SPLINE
5
163
100
AcDbEntity
8
0
100
AcDbSpline
70
1064
71
3
72
9
73
5
74
3
42
0.000000001
43
0.0000000001
44
0.0000000001
40
0
40
0
40
0
40
0
40
0.070294377852612458
40
0.15241976053495082
40
0.15241976053495082
40
0.15241976053495082
40
0.15241976053495082
10
17.639132670228914
20
13.956661055682096
30
0
10
17.492329816134308
20
13.771751902776863
30
0
10
17.174016224770536
20
13.370812173775645
30
0
10
16.737663478128432
20
13.101587593651631
30
0
10
16.502551992736386
20
12.956526536000208
30
0
11
17.639132670228914
21
13.956661055682096
31
0
11
17.173617691632352
21
13.429948837795678
31
0
11
16.502551992736386
21
12.956526536000208
31
0
0
SPLINE
5
164
100
AcDbEntity
8
0
100
AcDbSpline
70
1064
71
3
72
9
73
5
74
3
42
0.000000001
43
0.0000000001
44
0.0000000001
40
0
40
0
40
0
40
0
40
0.09723373564409267
40
0.17763221267963358
40
0.17763221267963358
40
0.17763221267963358
40
0.17763221267963358
10
16.502551992736386
20
12.956526536000208
30
0
10
16.214546012711022
20
12.800136970727218
30
0
10
15.688400028933005
20
12.514435466661489
30
0
10
15.095218031700082
20
12.443819665944414
30
0
10
14.826736721564968
20
12.411858104768923
30
0
11
16.502551992736386
21
12.956526536000208
31
0
11
15.618447811582747
21
12.551804740692386
31
0
11
14.826736721564968
21
12.411858104768923
31
0
0
SPLINE
5
165
100
AcDbEntity
8
0
100
AcDbSpline
70
1064
71
3
72
9
73
5
74
3
42
0.000000001
43
0.0000000001
44
0.0000000001
40
0
40
0
40
0
40
0
40
0.075324603805740797
40
0.15817231389351399
40
0.15817231389351399
40
0.15817231389351399
40
0.15817231389351399
10
14.826736721564968
20
12.411858104768923
30
0
10
14.5731939089384
20
12.434092634455606
30
0
10
14.040785488342667
20
12.480782385628368
30
0
10
13.582553666675402
20
12.757528826193616
30
0
10
13.342540378761816
20
12.902483453911895
30
0
11
14.826736721564968
21
12.411858104768923
31
0
11
14.082930363639253
21
12.530734913939023
31
0
11
13.342540378761816
21
12.902483453911895
31
0
0
SPLINE
5
166
100
AcDbEntity
8
0
100
AcDbSpline
70
1064
71
3
72
9
73
5
74
3
42
0.000000001
43
0.0000000001
44
0.0000000001
40
0
40
0
40
0
40
0
40
0.097879155393548953
40
0.21765277690658072
40
0.21765277690658072
40
0.21765277690658072
40
0.21765277690658072
10
13.342540378761816
20
12.902483453911895
30
0
10
13.091038144876075
20
13.113672922808263
30
0
10
12.53177545627458
20
13.583292569339767
30
0
10
12.15265402279519
20
14.208983534027471
30
0
10
11.944024720075435
20
14.553299254937361
30
0
11
13.342540378761816
21
12.902483453911895
31
0
11
12.624464181622031
21
13.56761462981385
31
0
11
11.944024720075435
21
14.553299254937361
31
0
0
SPLINE
5
167
100
AcDbEntity
8
0
100
AcDbSpline
70
1064
71
3
72
9
73
5
74
3
42
0.000000001
43
0.0000000001
44
0.0000000001
40
0
40
0
40
0
40
0
40
0.16908011818854823
40
0.30007709156258211
40
0.30007709156258211
40
0.30007709156258211
40
0.30007709156258211
10
11.944024720075435
20
14.553299254937361
30
0
10
11.666906706367064
20
15.059217098659033
30
0
10
11.175087984780436
20
15.957101230395432
30
0
10
11.214531616656915
20
16.973952861656141
30
0
10
11.231750513200442
20
17.417853745165676
30
0
11
11.944024720075435
21
14.553299254937361
31
0
11
11.281337027731686
21
16.108822851377305
31
0
11
11.231750513200442
21
17.417853745165676
31
0
0
SPLINE
5
168
100
AcDbEntity
8
0
100
AcDbSpline
70
1064
71
3
72
9
73
5
74
3
42
0.000000001
43
0.0000000001
44
0.0000000001
40
0
40
0
40
0
40
0
40
0.11855497407328677
40
0.24930418890703529
40
0.24930418890703529
40
0.24930418890703529
40
0.24930418890703529
10
11.231750513200442
20
17.417853745165676
30
0
10
11.367581292931746
20
17.800304551413056
30
0
10
11.653214035330137
20
18.604544009045636
30
0
10
12.364770220613494
20
19.080765629276932
30
0
10
12.737950522732646
20
19.330523177295174
30
0
11
11.231750513200442
21
17.417853745165676
31
0
11
11.735561849645997
21
18.491027694262797
31
0
11
12.737950522732646
21
19.330523177295174
31
0
0
SPLINE
5
169
100
AcDbEntity
8
0
100
AcDbSpline
70
1064
71
3
72
9
73
5
74
3
42
0.000000001
43
0.0000000001
44
0.0000000001
40
0
40
0
40
0
40
0
40
0.076579738155514096
40
0.1368301869664301
40
0.1368301869664301
40
0.1368301869664301
40
0.1368301869664301
10
12.737950522732646
20
19.330523177295174
30
0
10
12.962139092027552
20
19.45585908378246
30
0
10
13.362711940553931
20
19.679805207539584
30
0
10
13.808749130278837
20
19.784761612501921
30
0
10
14.005152727051517
20
19.830977075951608
30
0
11
12.737950522732646
21
19.330523177295174
31
0
11
13.42475704466753
21
19.669259698834281
31
0
11
14.005152727051517
21
19.830977075951608
31
0
0
SPLINE
5
170
100
AcDbEntity
8
0
100
AcDbSpline
70
1064
71
3
72
9
73
5
74
3
42
0.000000001
43
0.0000000001
44
0.0000000001
40
0
40
0
40
0
40
0
40
0.051549672929926862
40
0.10141730056384651
40
0.10141730056384651
40
0.10141730056384651
40
0.10141730056384651
10
14.005152727051517
20
19.830977075951608
30
0
10
14.17782234341956
20
19.847816640566847
30
0
10
14.517527435346057
20
19.880946301510956
30
0
10
14.846245630241473
20
19.789540266651208
30
0
10
15.007878768260356
20
19.744595251505498
30
0
11
14.005152727051517
21
19.830977075951608
31
0
11
14.520322985366452
21
19.849320545251757
31
0
11
15.007878768260356
21
19.744595251505498
31
0
0
SPLINE
5
171
100
AcDbEntity
8
0
100
AcDbSpline
70
1064
71
3
72
9
73
5
74
3
42
0.000000001
43
0.0000000001
44
0.0000000001
40
0
40
0
40
0
40
0
40
0.051732470948283912
40
0.10849293482411401
40
0.10849293482411401
40
0.10849293482411401
40
0.10849293482411401
10
15.007878768260356
20
19.744595251505498
30
0
10
15.167289299220892
20
19.675918959193051
30
0
10
15.501603822164682
20
19.531891574279147
30
0
10
15.774791500055878
20
19.290890384632494
30
0
10
15.917715639285808
20
19.164805314289918
30
0
11
15.007878768260356
21
19.744595251505498
31
0
11
15.472212258608412
21
19.51651792956687
31
0
11
15.917715639285808
21
19.164805314289918
31
0
0
SPLINE
5
172
100
AcDbEntity
8
0
100
AcDbSpline
70
1064
71
3
72
9
73
5
74
3
42
0.000000001
43
0.0000000001
44
0.0000000001
40
0
40
0
40
0
40
0
40
0.052394335771499045
40
0.097532134442608345
40
0.097532134442608345
40
0.097532134442608345
40
0.097532134442608345
10
14.340474170348653
20
14.572448924293639
30
0
10
14.436723070414242
20
14.422013173871138
30
0
10
14.615890541915162
20
14.141976799344501
30
0
10
14.913159615028198
20
13.995819274472968
30
0
10
15.050735519113626
20
13.928177681580308
30
0
11
14.340474170348653
21
14.572448924293639
31
0
11
14.663303179414896
21
14.159777053433791
31
0
11
15.050735519113626
21
13.928177681580308
31
0
0
SPLINE
5
173
100
AcDbEntity
8
0
100
AcDbSpline
70
1064
71
3
72
9
73
5
74
3
42
0.000000001
43
0.0000000001
44
0.0000000001
40
0
40
0
40
0
40
0
40
0.040795964184473503
40
0.080824976952395211
40
0.080824976952395211
40
0.080824976952395211
40
0.080824976952395211
10
15.050735519113626
20
13.928177681580308
30
0
10
15.187181334235319
20
13.896778015566063
30
0
10
15.457507825664564
20
13.83456898747597
30
0
10
15.710582934407942
20
13.947711227994645
30
0
10
15.835919768900308
20
14.003745542646922
30
0
11
15.050735519113626
21
13.928177681580308
31
0
11
15.455677880942783
21
13.878652405505269
31
0
11
15.835919768900308
21
14.003745542646922
31
0
0
SPLINE
5
174
100
AcDbEntity
8
0
100
AcDbSpline
70
1064
71
3
72
9
73
5
74
3
42
0.000000001
43
0.0000000001
44
0.0000000001
40
0
40
0
40
0
40
0
40
0.036653021563763648
40
0.073689444060776751
40
0.073689444060776751
40
0.073689444060776751
40
0.073689444060776751
10
15.835919768900308
20
14.003745542646922
30
0
10
15.937964802355582
20
14.077287584626411
30
0
10
16.143122289069215
20
14.225140939066378
30
0
10
16.216667681220652
20
14.467187861936623
30
0
10
16.253631703017078
20
14.588840999828811
30
0
11
15.835919768900308
21
14.003745542646922
31
0
11
16.109493339106148
21
14.247675656942395
31
0
11
16.253631703017078
21
14.588840999828811
31
0
0
SPLINE
5
175
100
AcDbEntity
8
0
100
AcDbSpline
70
1064
71
3
72
9
73
5
74
3
42
0.000000001
43
0.0000000001
44
0.0000000001
40
0
40
0
40
0
40
0
40
0.042049634805334073
40
0.094225519472739716
40
0.094225519472739716
40
0.094225519472739716
40
0.094225519472739716
10
16.253631703017078
20
14.588840999828811
30
0
10
16.259897296603292
20
14.731338975990131
30
0
10
16.273937342686899
20
15.050650805683151
30
0
10
16.121855314736386
20
15.333606909101825
30
0
10
16.037642307530557
20
15.49028935670756
30
0
11
16.253631703017078
21
14.588840999828811
31
0
11
16.239344734527187
21
15.009094567639442
31
0
11
16.037642307530557
21
15.49028935670756
31
0
0
SPLINE
5
176
100
AcDbEntity
8
0
100
AcDbSpline
70
1064
71
3
72
9
73
5
74
3
42
0.000000001
43
0.0000000001
44
0.0000000001
40
0
40
0
40
0
40
0
40
0.053780943590939344
40
0.097791481394768648
40
0.097791481394768648
40
0.097791481394768648
40
0.097791481394768648
10
16.037642307530557
20
15.49028935670756
30
0
10
15.940827814483596
20
15.64581318607415
30
0
10
15.764787156521978
20
15.928606767786402
30
0
10
15.471434508912001
20
16.083206647453014
30
0
10
15.339412704933245
20
16.152783503754723
30
0
11
16.037642307530557
21
15.49028935670756
31
0
11
15.711717719381229
21
15.918088552818155
31
0
11
15.339412704933245
21
16.152783503754723
31
0
0
SPLINE
5
177
100
AcDbEntity
8
0
100
AcDbSpline
70
1064
71
3
72
9
73
5
74
3
42
0.000000001
43
0.0000000001
44
0.0000000001
40
0
40
0
40
0
40
0
40
0.038799545239211933
40
0.076867089500717495
40
0.076867089500717495
40
0.076867089500717495
40
0.076867089500717495
10
15.339412704933245
20
16.152783503754723
30
0
10
15.210003991857031
20
16.184957166018773
30
0
10
14.953628019693594
20
16.248697494972859
30
0
10
14.712403875224279
20
16.14141836953096
30
0
10
14.592940384981894
20
16.088289613354277
30
0
11
15.339412704933245
21
16.152783503754723
31
0
11
14.955047011146757
21
16.205731445329388
31
0
11
14.592940384981894
21
16.088289613354277
31
0
0
SPLINE
5
178
100
AcDbEntity
8
0
100
AcDbSpline
70
1064
71
3
72
9
73
5
74
3
42
0.000000001
43
0.0000000001
44
0.0000000001
40
0
40
0
40
0
40
0
40
0.038974280875706258
40
0.07811338118537009
40
0.07811338118537009
40
0.07811338118537009
40
0.07811338118537009
10
14.592940384981894
20
16.088289613354277
30
0
10
14.484262912594442
20
16.010619886936624
30
0
10
14.266448378596067
20
15.854951974407999
30
0
10
14.183576750223171
20
15.600339216385109
30
0
10
14.142053506362879
20
15.472764220588555
30
0
11
14.592940384981894
21
16.088289613354277
31
0
11
14.300501479483202
21
15.830648499537844
31
0
11
14.142053506362879
21
15.472764220588555
31
0
0
SPLINE
5
179
100
AcDbEntity
8
0
100
AcDbSpline
70
1064
71
3
72
9
73
5
74
3
42
0.000000001
43
0.0000000001
44
0.0000000001
40
0
40
0
40
0
40
0
40
0.042790302452967291
40
0.093804156421272059
40
0.093804156421272059
40
0.093804156421272059
40
0.093804156421272059
10
14.142053506362879
20
15.472764220588555
30
0
10
14.132235442552421
20
15.327743862635277
30
0
10
14.11071245391633
20
15.009832757504146
30
0
10
14.259537893030283
20
14.726522543558776
30
0
10
14.340474170348653
20
14.572448924293639
30
0
11
14.142053506362879
21
15.472764220588555
31
0
11
14.14804673872721
21
15.044903168881966
31
0
11
14.340474170348653
21
14.572448924293639
31
0
0
SPLINE
5
180
100
AcDbEntity
8
0
100
AcDbSpline
70
1064
71
3
72
9
73
5
74
3
42
0.000000001
43
0.0000000001
44
0.0000000001
40
0
40
0
40
0
40
0
40
0.033521361315836475
40
0.061577623363105037
40
0.061577623363105037
40
0.061577623363105037
40
0.061577623363105037
10
23.128348090928821
20
18.794764178339292
30
0
10
23.216821863739039
20
18.723415475120511
30
0
10
23.379345235277853
20
18.592350285587884
30
0
10
23.583018995333134
20
18.549593679306255
30
0
10
23.675817711362953
20
18.530112730146922
30
0
11
23.128348090928821
21
18.794764178339292
31
0
11
23.405964116873804
21
18.606887866407217
31
0
11
23.675817711362953
21
18.530112730146922
31
0
0
SPLINE
5
181
100
AcDbEntity
8
0
100
AcDbSpline
70
1064
71
3
72
9
73
5
74
3
42
0.000000001
43
0.0000000001
44
0.0000000001
40
0
40
0
40
0
40
0
40
0.0280360723321629
40
0.061211585394341489
40
0.061211585394341489
40
0.061211585394341489
40
0.061211585394341489
10
23.675817711362953
20
18.530112730146922
30
0
10
23.770385751041914
20
18.533827739127094
30
0
10
23.976857598018277
20
18.541938775035991
30
0
10
24.159791419311961
20
18.639251829169673
30
0
10
24.258938065142893
20
18.691993650472519
30
0
11
23.675817711362953
21
18.530112730146922
31
0
11
23.954583989188553
21
18.559970686016122
31
0
11
24.258938065142893
21
18.691993650472519
31
0
0
SPLINE
5
182
100
AcDbEntity
8
0
100
AcDbSpline
70
1064
71
3
72
9
73
5
74
3
42
0.000000001
43
0.0000000001
44
0.0000000001
40
0
40
0
40
0
40
0
40
0.035778473325711886
40
0.065205774962444785
40
0.065205774962444785
40
0.065205774962444785
40
0.065205774962444785
10
24.258938065142893
20
18.691993650472519
30
0
10
24.362160204373097
20
18.7560892929489
30
0
10
24.550281131739482
20
18.872902718757793
30
0
10
24.660695974809354
20
19.063870887304621
30
0
10
24.710526084091256
20
19.15005463256459
30
0
11
24.258938065142893
21
18.691993650472519
31
0
11
24.54520929622355
21
18.906606552245538
31
0
11
24.710526084091256
21
19.15005463256459
31
0
0
SPLINE
5
183
100
AcDbEntity
8
0
100
AcDbSpline
70
1064
71
3
72
9
73
5
74
3
42
0.000000001
43
0.0000000001
44
0.0000000001
40
0
40
0
40
0
40
0
40
0.019190291757676614
40
0.037161595764772321
40
0.037161595764772321
40
0.037161595764772321
40
0.037161595764772321
10
24.710526084091256
20
19.15005463256459
30
0
10
24.731751355098019
20
19.212950452951265
30
0
10
24.772853645313894
20
19.334746884293608
30
0
10
24.723637793998172
20
19.453120222515647
30
0
10
24.699837066183324
20
19.510365429664141
30
0
11
24.710526084091256
21
19.15005463256459
31
0
11
24.750116742535305
21
19.337829256884387
31
0
11
24.699837066183324
21
19.510365429664141
31
0
0
SPLINE
5
184
100
AcDbEntity
8
0
100
AcDbSpline
70
1064
71
3
72
9
73
5
74
3
42
0.000000001
43
0.0000000001
44
0.0000000001
40
0
40
0
40
0
40
0
40
0.019853602088781223
40
0.041860140635314361
40
0.041860140635314361
40
0.041860140635314361
40
0.041860140635314361
10
24.699837066183324
20
19.510365429664141
30
0
10
24.655971449346659
20
19.564057319924615
30
0
10
24.563483402007616
20
19.677263481064987
30
0
10
24.41654949648936
20
19.682732886500446
30
0
10
24.339304016505178
20
19.68560823951444
30
0
11
24.699837066183324
21
19.510365429664141
31
0
11
24.555992866263786
21
19.647206204798874
31
0
11
24.339304016505178
21
19.68560823951444
31
0
0
SPLINE
5
185
100
AcDbEntity
8
0
100
AcDbSpline
70
1064
71
3
72
9
73
5
74
3
42
0.000000001
43
0.0000000001
44
0.0000000001
40
0
40
0
40
0
40
0
40
0.030847097924367694
40
0.087991782452552333
40
0.087991782452552333
40
0.087991782452552333
40
0.087991782452552333
10
24.339304016505178
20
19.68560823951444
30
0
10
24.238395603285507
20
19.665226350928101
30
0
10
23.950552929545911
20
19.607086725902153
30
0
10
23.675427976965647
20
19.503340886171951
30
0
10
23.496753012294839
20
19.435965011774922
30
0
11
24.339304016505178
21
19.68560823951444
31
0
11
24.038141757823475
21
19.618857666623349
31
0
11
23.496753012294839
21
19.435965011774922
31
0
0
SPLINE
5
186
100
AcDbEntity
8
0
100
AcDbSpline
70
1064
71
3
72
9
73
5
74
3
42
0.000000001
43
0.0000000001
44
0.0000000001
40
0
40
0
40
0
40
0
40
0.089463882132654077
40
0.14793301332385378
40
0.14793301332385378
40
0.14793301332385378
40
0.14793301332385378
10
23.496753012294839
20
19.435965011774922
30
0
10
23.216546862982085
20
19.33282058260027
30
0
10
22.753211950260024
20
19.162266099029463
30
0
10
22.273063027987536
20
19.048329882576397
30
0
10
22.083288685554557
20
19.003297665375225
30
0
11
23.496753012294839
21
19.435965011774922
31
0
11
22.649985110291656
21
19.14723894651295
31
0
11
22.083288685554557
21
19.003297665375225
31
0
0
SPLINE
5
187
100
AcDbEntity
8
0
100
AcDbSpline
70
1064
71
3
72
9
73
5
74
3
42
0.000000001
43
0.0000000001
44
0.0000000001
40
0
40
0
40
0
40
0
40
0.042470996721471685
40
0.086493891021476976
40
0.086493891021476976
40
0.086493891021476976
40
0.086493891021476976
10
22.083288685554557
20
19.003297665375225
30
0
10
21.940471245309045
20
18.992310717393337
30
0
10
21.64961779080755
20
18.969935356446761
30
0
10
21.374370321358931
20
19.067002345121384
30
0
10
21.234277303103205
20
19.116406640985257
30
0
11
22.083288685554557
21
19.003297665375225
31
0
11
21.658599113598157
21
18.999135487698389
31
0
11
21.234277303103205
21
19.116406640985257
31
0
0
SPLINE
5
188
100
AcDbEntity
8
0
100
AcDbSpline
70
1064
71
3
72
9
73
5
74
3
42
0.000000001
43
0.0000000001
44
0.0000000001
40
0
40
0
40
0
40
0
40
0.044226699222420077
40
0.089062412118012774
40
0.089062412118012774
40
0.089062412118012774
40
0.089062412118012774
10
21.234277303103205
20
19.116406640985257
30
0
10
21.101775369910701
20
19.186403629513741
30
0
10
20.834946915879424
20
19.327361484134357
30
0
10
20.665364185975545
20
19.577074826206996
30
0
10
20.5799930130059
20
19.702785274027931
30
0
11
21.234277303103205
21
19.116406640985257
31
0
11
20.860751585530227
21
19.353215911755285
31
0
11
20.5799930130059
21
19.702785274027931
31
0
0
SPLINE
5
189
100
AcDbEntity
8
0
100
AcDbSpline
70
1064
71
3
72
9
73
5
74
3
42
0.000000001
43
0.0000000001
44
0.0000000001
40
0
40
0
40
0
40
0
40
0.048306848844433342
40
0.094690033845523297
40
0.094690033845523297
40
0.094690033845523297
40
0.094690033845523297
10
20.5799930130059
20
19.702785274027931
30
0
10
20.507997854214011
20
19.850225783059049
30
0
10
20.366874510717278
20
20.139235460244116
30
0
10
20.386454429012304
20
20.459980394952552
30
0
10
20.396045501437786
20
20.617094834989764
30
0
11
20.5799930130059
21
19.702785274027931
31
0
11
20.405832306988874
21
20.153366246781488
31
0
11
20.396045501437786
21
20.617094834989764
31
0
0
SPLINE
5
190
100
AcDbEntity
8
0
100
AcDbSpline
70
1064
71
3
72
9
73
5
74
3
42
0.000000001
43
0.0000000001
44
0.0000000001
40
0
40
0
40
0
40
0
40
0.047954371033728925
40
0.099872727631744276
40
0.099872727631744276
40
0.099872727631744276
40
0.099872727631744276
10
20.396045501437786
20
20.617094834989764
30
0
10
20.434500272880815
20
20.774215566170913
30
0
10
20.514588549125104
20
21.101444881294622
30
0
10
20.722497560628025
20
21.367026198373289
30
0
10
20.830578059229712
20
21.505087367351294
30
0
11
20.396045501437786
21
20.617094834989764
31
0
11
20.540878713226714
21
21.074244166047961
31
0
11
20.830578059229712
21
21.505087367351294
31
0
0
SPLINE
5
191
100
AcDbEntity
8
0
100
AcDbSpline
70
1064
71
3
72
9
73
5
74
3
42
0.000000001
43
0.0000000001
44
0.0000000001
40
0
40
0
40
0
40
0
40
0.062720505830965681
40
0.14183610140452685
40
0.14183610140452685
40
0.14183610140452685
40
0.14183610140452685
10
20.830578059229712
20
21.505087367351294
30
0
10
20.979228520972772
20
21.653186807998281
30
0
10
21.315386555514777
20
21.988098763877129
30
0
10
21.723679870045718
20
22.230980713313127
30
0
10
21.951424206134664
20
22.366459268444107
30
0
11
20.830578059229712
21
21.505087367351294
31
0
11
21.290635099385966
21
21.931389730670908
31
0
11
21.951424206134664
21
22.366459268444107
31
0
0
SPLINE
5
192
100
AcDbEntity
8
0
100
AcDbSpline
70
1064
71
3
72
9
73
5
74
3
42
0.000000001
43
0.0000000001
44
0.0000000001
40
0
40
0
40
0
40
0
40
0.080644142332869193
40
0.13779195591916835
40
0.13779195591916835
40
0.13779195591916835
40
0.13779195591916835
10
21.951424206134664
20
22.366459268444107
30
0
10
22.185437784501261
20
22.500834078321024
30
0
10
22.585283176143982
20
22.730432501015883
30
0
10
23.024205514333381
20
22.869673626263545
30
0
10
23.206244094121203
20
22.92742246810354
30
0
11
21.951424206134664
21
22.366459268444107
31
0
11
22.666849946488338
21
22.738633662108967
31
0
11
23.206244094121203
21
22.92742246810354
31
0
0
SPLINE
5
193
100
AcDbEntity
8
0
100
AcDbSpline
70
1064
71
3
72
9
73
5
74
3
42
0.000000001
43
0.0000000001
44
0.0000000001
40
0
40
0
40
0
40
0
40
0.044483366536432603
40
0.086484247097840528
40
0.086484247097840528
40
0.086484247097840528
40
0.086484247097840528
10
23.206244094121203
20
22.92742246810354
30
0
10
23.353862426123492
20
22.952359786549408
30
0
10
23.640860944785537
20
23.000842744975316
30
0
10
23.926012185874491
20
22.943396083894111
30
0
10
24.064495246325546
20
22.91549724183108
30
0
11
23.206244094121203
21
22.92742246810354
31
0
11
23.648610377641972
21
22.97420987074014
31
0
11
24.064495246325546
21
22.91549724183108
31
0
0
SPLINE
5
194
100
AcDbEntity
8
0
100
AcDbSpline
70
1064
71
3
72
9
73
5
74
3
42
0.000000001
43
0.0000000001
44
0.0000000001
40
0
40
0
40
0
40
0
40
0.04436680731565984
40
0.094976693678014715
40
0.094976693678014715
40
0.094976693678014715
40
0.094976693678014715
10
24.064495246325546
20
22.91549724183108
30
0
10
24.204862107077108
20
22.866079779384254
30
0
10
24.505347563271741
20
22.760291072079617
30
0
10
24.759167679163568
20
22.567229661715071
30
0
10
24.894419883934084
20
22.464353728039907
30
0
11
24.064495246325546
21
22.91549724183108
31
0
11
24.475412806193624
21
22.748200744167342
31
0
11
24.894419883934084
21
22.464353728039907
31
0
0
SPLINE
5
195
100
AcDbEntity
8
0
100
AcDbSpline
70
1064
71
3
72
9
73
5
74
3
42
0.000000001
43
0.0000000001
44
0.0000000001
40
0
40
0
40
0
40
0
40
0.02371088169348998
40
0.04468744930816726
40
0.04468744930816726
40
0.04468744930816726
40
0.04468744930816726
10
23.354938410004426
20
21.361282608197094
30
0
10
23.293889302218872
20
21.413931681485714
30
0
10
23.178831205909241
20
21.513158391994473
30
0
10
23.030179157309053
20
21.542559300678533
30
0
10
22.960400957908618
20
21.556360270715807
30
0
11
23.354938410004426
21
21.361282608197094
31
0
11
23.162333390103605
21
21.499571788458134
31
0
11
22.960400957908618
21
21.556360270715807
31
0
0
SPLINE
5
196
100
AcDbEntity
8
0
100
AcDbSpline
70
1064
71
3
72
9
73
5
74
3
42
0.000000001
43
0.0000000001
44
0.0000000001
40
0
40
0
40
0
40
0
40
0.028408570718337609
40
0.059417313509953676
40
0.059417313509953676
40
0.059417313509953676
40
0.059417313509953676
10
22.960400957908618
20
21.556360270715807
30
0
10
22.864510035420853
20
21.553593106441973
30
0
10
22.663951511702635
20
21.547805505621707
30
0
10
22.485095327807034
20
21.45625305976472
30
0
10
22.39175375654634
20
21.408473615057126
30
0
11
22.960400957908618
21
21.556360270715807
31
0
11
22.677689305562062
21
21.528453091471796
31
0
11
22.39175375654634
21
21.408473615057126
31
0
0
SPLINE
5
197
100
AcDbEntity
8
0
100
AcDbSpline
70
1064
71
3
72
9
73
5
74
3
42
0.000000001
43
0.0000000001
44
0.0000000001
40
0
40
0
40
0
40
0
40
0.029333981221442252
40
0.051458699190670594
40
0.051458699190670594
40
0.051458699190670594
40
0.051458699190670594
10
22.39175375654634
20
21.408473615057126
30
0
10
22.30627063329587
20
21.357342376239409
30
0
10
22.156313138879497
20
21.267646162905635
30
0
10
22.0649695651603
20
21.119759575016424
30
0
10
22.025696306437801
20
21.056175592134217
30
0
11
22.39175375654634
21
21.408473615057126
31
0
11
22.154351325510596
21
21.236170593701399
31
0
11
22.025696306437801
21
21.056175592134217
31
0
0
SPLINE
5
198
100
AcDbEntity
8
0
100
AcDbSpline
70
1064
71
3
72
9
73
5
74
3
42
0.000000001
43
0.0000000001
44
0.0000000001
40
0
40
0
40
0
40
0
40
0.017305592670404275
40
0.033500969768024025
40
0.033500969768024025
40
0.033500969768024025
40
0.033500969768024025
10
22.025696306437801
20
21.056175592134217
30
0
10
22.007623219136949
20
20.999210227620697
30
0
10
21.972636497629495
20
20.888934030166013
30
0
10
22.017138053835939
20
20.782470117680923
30
0
10
22.038651445513398
20
20.731002258036163
30
0
11
22.025696306437801
21
21.056175592134217
31
0
11
21.992688051369498
21
20.886296785731709
31
0
11
22.038651445513398
21
20.731002258036163
31
0
0
SPLINE
5
199
100
AcDbEntity
8
0
100
AcDbSpline
70
1064
71
3
72
9
73
5
74
3
42
0.000000001
43
0.0000000001
44
0.0000000001
40
0
40
0
40
0
40
0
40
0.017421875684250618
40
0.036411952094110245
40
0.036411952094110245
40
0.036411952094110245
40
0.036411952094110245
10
22.038651445513398
20
20.731002258036163
30
0
10
22.076958290548102
20
20.683559162186285
30
0
10
22.157020106598203
20
20.584402460313839
30
0
10
22.285061856175052
20
20.580962713244837
30
0
10
22.351840000940047
20
20.57916876768811
30
0
11
22.038651445513398
21
20.731002258036163
31
0
11
22.164556006245061
21
20.610585411944285
31
0
11
22.351840000940047
21
20.57916876768811
31
0
0
SPLINE
5
200
100
AcDbEntity
8
0
100
AcDbSpline
70
1064
71
3
72
9
73
5
74
3
42
0.000000001
43
0.0000000001
44
0.0000000001
40
0
40
0
40
0
40
0
40
0.032364060663611721
40
0.08695392625087256
40
0.08695392625087256
40
0.08695392625087256
40
0.08695392625087256
10
22.351840000940047
20
20.57916876768811
30
0
10
22.457632095922509
20
20.601419056773103
30
0
10
22.741868308449853
20
20.661199874027993
30
0
10
23.008267764973255
20
20.778254976898936
30
0
10
23.175513927983467
20
20.851742427179126
30
0
11
22.351840000940047
21
20.57916876768811
31
0
11
22.666745338539226
21
20.653853910891698
31
0
11
23.175513927983467
21
20.851742427179126
31
0
0
SPLINE
5
201
100
AcDbEntity
8
0
100
AcDbSpline
70
1064
71
3
72
9
73
5
74
3
42
0.000000001
43
0.0000000001
44
0.0000000001
40
0
40
0
40
0
40
0
40
0.087462676125981922
40
0.15104666350071308
40
0.15104666350071308
40
0.15104666350071308
40
0.15104666350071308
10
23.175513927983467
20
20.851742427179126
30
0
10
23.444096700905725
20
20.96748109381484
30
0
10
23.907934917623919
20
21.167359947374791
30
0
10
24.401179063570009
20
21.273664602128981
30
0
10
24.608813107392162
20
21.318414175996487
30
0
11
23.175513927983467
21
20.851742427179126
31
0
11
23.991121820902634
21
21.167583742588931
31
0
11
24.608813107392162
21
21.318414175996487
31
0
0
SPLINE
5
202
100
AcDbEntity
8
0
100
AcDbSpline
70
1064
71
3
72
9
73
5
74
3
42
0.000000001
43
0.0000000001
44
0.0000000001
40
0
40
0
40
0
40
0
40
0.049041586628181186
40
0.094287701729678625
40
0.094287701729678625
40
0.094287701729678625
40
0.094287701729678625
10
24.608813107392162
20
21.318414175996487
30
0
10
24.774039203977377
20
21.331618163304853
30
0
10
25.091704067288173
20
21.357004242805342
30
0
10
25.389890589914664
20
21.245718630746076
30
0
10
25.532982228346512
20
21.192315678717293
30
0
11
24.608813107392162
21
21.318414175996487
31
0
11
25.0992218792681
21
21.321052047879906
31
0
11
25.532982228346512
21
21.192315678717293
31
0
0
SPLINE
5
203
100
AcDbEntity
8
0
100
AcDbSpline
70
1064
71
3
72
9
73
5
74
3
42
0.000000001
43
0.0000000001
44
0.0000000001
40
0
40
0
40
0
40
0
40
0.043509462423578553
40
0.086600455639857021
40
0.086600455639857021
40
0.086600455639857021
40
0.086600455639857021
10
25.532982228346512
20
21.192315678717293
30
0
10
25.6615437568632
20
21.12059985387554
30
0
10
25.917430323305087
20
20.977857959079834
30
0
10
26.082619498812107
20
20.735914538499504
30
0
10
26.164814974443068
20
20.615527385592287
30
0
11
25.532982228346512
21
21.192315678717293
31
0
11
25.895772803543927
21
20.952127563718225
31
0
11
26.164814974443068
21
20.615527385592287
31
0
0
SPLINE
5
204
100
AcDbEntity
8
0
100
AcDbSpline
70
1064
71
3
72
9
73
5
74
3
42
0.000000001
43
0.0000000001
44
0.0000000001
40
0
40
0
40
0
40
0
40
0.044835712895592704
40
0.092557711687966421
40
0.092557711687966421
40
0.092557711687966421
40
0.092557711687966421
10
26.164814974443068
20
20.615527385592287
30
0
10
26.229170594726583
20
20.47856039227247
30
0
10
26.36202470951611
20
20.195809195520354
30
0
10
26.364002921786085
20
19.883108206484007
30
0
10
26.36502287184576
20
19.721882135214287
30
0
11
26.164814974443068
21
20.615527385592287
31
0
11
26.327171636293741
21
20.197598648319641
31
0
11
26.36502287184576
21
19.721882135214287
31
0
0
SPLINE
5
205
100
AcDbEntity
8
0
100
AcDbSpline
70
1064
71
3
72
9
73
5
74
3
42
0.000000001
43
0.0000000001
44
0.0000000001
40
0
40
0
40
0
40
0
40
0.051673965194963867
40
0.11037874484658954
40
0.11037874484658954
40
0.11037874484658954
40
0.11037874484658954
10
26.36502287184576
20
19.721882135214287
30
0
10
26.339615591921376
20
19.549251171675625
30
0
10
26.285344090645282
20
19.18050089278448
30
0
10
26.07580791705681
20
18.871302079948443
30
0
10
25.964366398885424
20
18.706855127762935
30
0
11
26.36502287184576
21
19.721882135214287
31
0
11
26.254772334640478
21
19.217040885965591
31
0
11
25.964366398885424
21
18.706855127762935
31
0
0
SPLINE
5
206
100
AcDbEntity
8
0
100
AcDbSpline
70
1064
71
3
72
9
73
5
74
3
42
0.000000001
43
0.0000000001
44
0.0000000001
40
0
40
0
40
0
40
0
40
0.071218167940768295
40
0.1613991345843247
40
0.1613991345843247
40
0.1613991345843247
40
0.1613991345843247
10
25.964366398885424
20
18.706855127762935
30
0
10
25.803639773063509
20
18.530487543897461
30
0
10
25.439390887387454
20
18.130792125892746
30
0
10
24.974388182785866
20
17.852969492931162
30
0
10
24.714570225887655
20
17.697737473500204
30
0
11
25.964366398885424
21
18.706855127762935
31
0
11
25.462569154829463
21
18.201481730815885
31
0
11
24.714570225887655
21
17.697737473500204
31
0
0
SPLINE
5
207
100
AcDbEntity
8
0
100
AcDbSpline
70
1064
71
3
72
9
73
5
74
3
42
0.000000001
43
0.0000000001
44
0.0000000001
40
0
40
0
40
0
40
0
40
0.1221251097710857
40
0.20857726659784259
40
0.20857726659784259
40
0.20857726659784259
40
0.20857726659784259
10
24.714570225887655
20
17.697737473500204
30
0
10
24.356127627508858
20
17.492821587124709
30
0
10
23.7439441253428
20
17.142846094428815
30
0
10
23.046237149584176
20
17.066977407776307
30
0
10
22.757048045367434
20
17.035530972104251
30
0
11
24.714570225887655
21
17.697737473500204
31
0
11
23.609922609221293
21
17.176961238776215
31
0
11
22.757048045367434
21
17.035530972104251
31
0
0
SPLINE
5
208
100
AcDbEntity
8
0
100
AcDbSpline
70
1064
71
3
72
9
73
5
74
3
42
0.000000001
43
0.0000000001
44
0.0000000001
40
0
40
0
40
0
40
0
40
0.069571511259894275
40
0.14134927021383792
40
0.14134927021383792
40
0.14134927021383792
40
0.14134927021383792
10
22.757048045367434
20
17.035530972104251
30
0
10
22.523201479675095
20
17.075137125692148
30
0
10
22.04809261968288
20
17.15560542089294
30
0
10
21.693045524086774
20
17.482002118516696
30
0
10
21.51275110299467
20
17.647747745996476
30
0
11
22.757048045367434
21
17.035530972104251
31
0
11
22.084594110883895
21
17.21392722737933
31
0
11
21.51275110299467
21
17.647747745996476
31
0
0
SPLINE
5
209
100
AcDbEntity
8
0
100
AcDbSpline
70
1064
71
3
72
9
73
5
74
3
42
0.000000001
43
0.0000000001
44
0.0000000001
40
0
40
0
40
0
40
0
40
0.042740126925321482
40
0.076686430090818325
40
0.076686430090818325
40
0.076686430090818325
40
0.076686430090818325
10
28.310206331415394
20
22.339053678197082
30
0
10
28.398757273331448
20
22.224605256679997
30
0
10
28.5576397125106
20
22.01925629056651
30
0
10
28.788552724918532
20
21.902673703800147
30
0
10
28.89076954626195
20
21.851066818077314
30
0
11
28.310206331415394
21
22.339053678197082
31
0
11
28.598233559545069
21
22.023281353863243
31
0
11
28.89076954626195
21
21.851066818077314
31
0
0
SPLINE
5
210
100
AcDbEntity
8
0
100
AcDbSpline
70
1064
71
3
72
9
73
5
74
3
42
0.000000001
43
0.0000000001
44
0.0000000001
40
0
40
0
40
0
40
0
40
0.041724661361846944
40
0.084553252740493356
40
0.084553252740493356
40
0.084553252740493356
40
0.084553252740493356
10
28.89076954626195
20
21.851066818077314
30
0
10
29.030260440776413
20
21.818138880864467
30
0
10
29.31293280944093
20
21.751411815706621
30
0
10
29.576787362749503
20
21.873450985154243
30
0
10
29.710437086217041
20
21.935267243560091
30
0
11
28.89076954626195
21
21.851066818077314
31
0
11
29.30465981704975
21
21.7982503403144
31
0
11
29.710437086217041
21
21.935267243560091
31
0
0
SPLINE
5
211
100
AcDbEntity
8
0
100
AcDbSpline
70
1064
71
3
72
9
73
5
74
3
42
0.000000001
43
0.0000000001
44
0.0000000001
40
0
40
0
40
0
40
0
40
0.028798246950201417
40
0.058040138714376896
40
0.058040138714376896
40
0.058040138714376896
40
0.058040138714376896
10
29.710437086217041
20
21.935267243560091
30
0
10
29.79109508418556
20
21.989095925924708
30
0
10
29.953653638482677
20
22.097582536122083
30
0
10
30.063777174080922
20
22.259080525533065
30
0
10
30.119259820745494
20
22.340446746067578
30
0
11
29.710437086217041
21
21.935267243560091
31
0
11
29.939501959856646
21
22.109804306686964
31
0
11
30.119259820745494
21
22.340446746067578
31
0
0
SPLINE
5
212
100
AcDbEntity
8
0
100
AcDbSpline
70
1064
71
3
72
9
73
5
74
3
42
0.000000001
43
0.0000000001
44
0.0000000001
40
0
40
0
40
0
40
0
40
0.021070481641611735
40
0.04786428958294759
40
0.04786428958294759
40
0.04786428958294759
40
0.04786428958294759
10
30.119259820745494
20
22.340446746067578
30
0
10
30.14887245053853
20
22.404480309631403
30
0
10
30.216141320412273
20
22.549940725846763
30
0
10
30.241643326437135
20
22.708401284101644
30
0
10
30.255919018346546
20
22.797105447500968
30
0
11
30.119259820745494
21
22.340446746067578
31
0
11
30.200003815274876
21
22.535066701386629
31
0
11
30.255919018346546
21
22.797105447500968
31
0
0
SPLINE
5
213
100
AcDbEntity
8
0
100
AcDbSpline
70
1064
71
3
72
9
73
5
74
3
42
0.000000001
43
0.0000000001
44
0.0000000001
40
0
40
0
40
0
40
0
40
0.083449679853717762
40
0.15762424652341395
40
0.15762424652341395
40
0.15762424652341395
40
0.15762424652341395
10
32.041935556029941
20
23.619649686075064
30
0
10
32.030678132712602
20
23.338100352687082
30
0
10
32.009414505682507
20
22.806294818954129
30
0
10
31.775007746538755
20
22.329459010045429
30
0
10
31.664700987474546
20
22.10507037518434
30
0
11
32.041935556029941
21
23.619649686075064
31
0
11
31.948421989212946
21
22.790408997499089
31
0
11
31.664700987474546
21
22.10507037518434
31
0
0
SPLINE
5
214
100
AcDbEntity
8
0
100
AcDbSpline
70
1064
71
3
72
9
73
5
74
3
42
0.000000001
43
0.0000000001
44
0.0000000001
40
0
40
0
40
0
40
0
40
0.081297178509446455
40
0.18649331984229864
40
0.18649331984229864
40
0.18649331984229864
40
0.18649331984229864
10
31.664700987474546
20
22.10507037518434
30
0
10
31.492938564161776
20
21.892906720356219
30
0
10
31.098920651916092
20
21.406209579517878
30
0
10
30.559914878821228
20
21.08425570431671
30
0
10
30.255875422964799
20
20.902649706917124
30
0
11
31.664700987474546
21
22.10507037518434
31
0
11
31.121861533622553
21
21.499885733358926
31
0
11
30.255875422964799
21
20.902649706917124
31
0
0
SPLINE
5
215
100
AcDbEntity
8
0
100
AcDbSpline
70
1064
71
3
72
9
73
5
74
3
42
0.000000001
43
0.0000000001
44
0.0000000001
40
0
40
0
40
0
40
0
40
0.092322367275743514
40
0.16564639788335675
40
0.16564639788335675
40
0.16564639788335675
40
0.16564639788335675
10
30.255875422964799
20
20.902649706917124
30
0
10
29.984391281341949
20
20.75217435133521
30
0
10
29.497289710300514
20
20.48218884990289
30
0
10
28.950127564326991
20
20.384732159995437
30
0
10
28.707924084798616
20
20.341592572265178
30
0
11
30.255875422964799
21
20.902649706917124
31
0
11
29.422766103563593
21
20.504817063879134
31
0
11
28.707924084798616
21
20.341592572265178
31
0
0
SPLINE
5
216
100
AcDbEntity
8
0
100
AcDbSpline
70
1064
71
3
72
9
73
5
74
3
42
0.000000001
43
0.0000000001
44
0.0000000001
40
0
40
0
40
0
40
0
40
0.065932660761425191
40
0.13607052745927201
40
0.13607052745927201
40
0.13607052745927201
40
0.13607052745927201
10
28.707924084798616
20
20.341592572265178
30
0
10
28.485583172025844
20
20.345749205588145
30
0
10
28.02672037280951
20
20.354327583620812
30
0
10
27.610885020406268
20
20.549487291999533
30
0
10
27.396541730498463
20
20.65008281306234
30
0
11
28.707924084798616
21
20.341592572265178
31
0
11
28.051003608875149
21
20.397869244346953
31
0
11
27.396541730498463
21
20.65008281306234
31
0
0
SPLINE
5
217
100
AcDbEntity
8
0
100
AcDbSpline
70
1064
71
3
72
9
73
5
74
3
42
0.000000001
43
0.0000000001
44
0.0000000001
40
0
40
0
40
0
40
0
40
0.074791754259431881
40
0.15532726709818701
40
0.15532726709818701
40
0.15532726709818701
40
0.15532726709818701
10
27.396541730498463
20
20.65008281306234
30
0
10
27.186314200530379
20
20.789276076113516
30
0
10
26.749714363796016
20
21.078352182995872
30
0
10
26.465310583465552
20
21.518654707354532
30
0
10
26.317850290562085
20
21.746946817721785
30
0
11
27.396541730498463
21
20.65008281306234
31
0
11
26.801146197421176
21
21.102724845701751
31
0
11
26.317850290562085
21
21.746946817721785
31
0
0
SPLINE
5
218
100
AcDbEntity
8
0
100
AcDbSpline
70
1064
71
3
72
9
73
5
74
3
42
0.000000001
43
0.0000000001
44
0.0000000001
40
0
40
0
40
0
40
0
40
0.11168479670245357
40
0.2161993708686914
40
0.2161993708686914
40
0.2161993708686914
40
0.2161993708686914
10
26.317850290562085
20
21.746946817721785
30
0
10
26.151227330779463
20
22.091219199261406
30
0
10
25.828678692639802
20
22.757661494846456
30
0
10
25.948428242591071
20
23.486795843390752
30
0
10
26.00631727885176
20
23.839272197239012
30
0
11
26.317850290562085
21
21.746946817721785
31
0
11
25.9360119595095
21
22.796493801132158
31
0
11
26.00631727885176
21
23.839272197239012
31
0
0
SPLINE
5
219
100
AcDbEntity
8
0
100
AcDbSpline
70
1064
71
3
72
9
73
5
74
3
42
0.000000001
43
0.0000000001
44
0.0000000001
40
0
40
0
40
0
40
0
40
0.1086744626009343
40
0.23254575956005546
40
0.23254575956005546
40
0.23254575956005546
40
0.23254575956005546
10
26.00631727885176
20
23.839272197239012
30
0
10
26.155155027605556
20
24.178162190589873
30
0
10
26.473643718571147
20
24.903331922511786
30
0
10
27.140143227832318
20
25.336438072594124
30
0
10
27.495170809461808
20
25.567142862194107
30
0
11
26.00631727885176
21
23.839272197239012
31
0
11
26.528833553607569
21
24.792157617830334
31
0
11
27.495170809461808
21
25.567142862194107
31
0
0
SPLINE
5
220
100
AcDbEntity
8
0
100
AcDbSpline
70
1064
71
3
72
9
73
5
74
3
42
0.000000001
43
0.0000000001
44
0.0000000001
40
0
40
0
40
0
40
0
40
0.099964853905432846
40
0.18021854165254392
40
0.18021854165254392
40
0.18021854165254392
40
0.18021854165254392
10
27.495170809461808
20
25.567142862194107
30
0
10
27.789886925979875
20
25.72948554932033
30
0
10
28.32120675135203
20
26.022160036190684
30
0
10
28.919507102535739
20
26.113567865932851
30
0
10
29.185938120801641
20
26.154272975176891
30
0
11
27.495170809461808
21
25.567142862194107
31
0
11
28.39992755932521
21
25.992245702939805
31
0
11
29.185938120801641
21
26.154272975176891
31
0
0
SPLINE
5
221
100
AcDbEntity
8
0
100
AcDbSpline
70
1064
71
3
72
9
73
5
74
3
42
0.000000001
43
0.0000000001
44
0.0000000001
40
0
40
0
40
0
40
0
40
0.070173868630492658
40
0.14012399225738686
40
0.14012399225738686
40
0.14012399225738686
40
0.14012399225738686
10
29.185938120801641
20
26.154272975176891
30
0
10
29.423194088199974
20
26.147206290969756
30
0
10
29.896949547141517
20
26.133095454237356
30
0
10
30.315323159646319
20
25.910425099409085
30
0
10
30.524175943851795
20
25.79926769804365
30
0
11
29.185938120801641
21
26.154272975176891
31
0
11
29.883816310205646
21
26.080766399884968
31
0
11
30.524175943851795
21
25.79926769804365
31
0
0
SPLINE
5
222
100
AcDbEntity
8
0
100
AcDbSpline
70
1064
71
3
72
9
73
5
74
3
42
0.000000001
43
0.0000000001
44
0.0000000001
40
0
40
0
40
0
40
0
40
0.077824778679601331
40
0.1711013555903465
40
0.1711013555903465
40
0.1711013555903465
40
0.1711013555903465
10
30.524175943851795
20
25.79926769804365
30
0
10
30.730298449805844
20
25.638366228341862
30
0
10
31.183468260048564
20
25.284616946306699
30
0
10
31.484411319632333
20
24.793495429341078
30
0
10
31.648471612119017
20
24.525758602875225
30
0
11
30.524175943851795
21
25.79926769804365
31
0
11
31.111050038802208
21
25.288143041693534
31
0
11
31.648471612119017
21
24.525758602875225
31
0
0
SPLINE
5
223
100
AcDbEntity
8
0
100
AcDbSpline
70
1064
71
3
72
9
73
5
74
3
42
0.000000001
43
0.0000000001
44
0.0000000001
40
0
40
0
40
0
40
0
40
0.050592070101015019
40
0.089514127507741625
40
0.089514127507741625
40
0.089514127507741625
40
0.089514127507741625
10
29.534045258765708
20
24.145083725745735
30
0
10
29.430587853689467
20
24.282644742275718
30
0
10
29.247537440232886
20
24.526035739109275
30
0
10
28.971039868964105
20
24.649701946218094
30
0
10
28.850814663833066
20
24.70347382945458
30
0
11
29.534045258765708
21
24.145083725745735
31
0
11
29.193822803281048
21
24.519522554521004
31
0
11
28.850814663833066
21
24.70347382945458
31
0
0
SPLINE
5
224
100
AcDbEntity
8
0
100
AcDbSpline
70
1064
71
3
72
9
73
5
74
3
42
0.000000001
43
0.0000000001
44
0.0000000001
40
0
40
0
40
0
40
0
40
0.034435513724700099
40
0.07194309466923926
40
0.07194309466923926
40
0.07194309466923926
40
0.07194309466923926
10
28.850814663833066
20
24.70347382945458
30
0
10
28.734474393739763
20
24.720130859632778
30
0
10
28.491414884534191
20
24.754930929949701
30
0
10
28.270572773588945
20
24.646220739732094
30
0
10
28.15543659004938
20
24.589544608717304
30
0
11
28.850814663833066
21
24.70347382945458
31
0
11
28.506883974505783
21
24.720565976401623
31
0
11
28.15543659004938
21
24.589544608717304
31
0
0
SPLINE
5
225
100
AcDbEntity
8
0
100
AcDbSpline
70
1064
71
3
72
9
73
5
74
3
42
0.000000001
43
0.0000000001
44
0.0000000001
40
0
40
0
40
0
40
0
40
0.043627116788646038
40
0.087095462072338065
40
0.087095462072338065
40
0.087095462072338065
40
0.087095462072338065
10
28.15543659004938
20
24.589544608717304
30
0
10
28.033432521136525
20
24.50114861061142
30
0
10
27.789868390869813
20
24.324678312615909
30
0
10
27.721905314261509
20
24.031729016375376
30
0
10
27.687985722927372
20
23.885521385614759
30
0
11
28.15543659004938
21
24.589544608717304
31
0
11
27.833484849423442
21
24.295130599816666
31
0
11
27.687985722927372
21
23.885521385614759
31
0
0
SPLINE
5
226
100
AcDbEntity
8
0
100
AcDbSpline
70
1064
71
3
72
9
73
5
74
3
42
0.000000001
43
0.0000000001
44
0.0000000001
40
0
40
0
40
0
40
0
40
0.032700720628036556
40
0.074164755359641676
40
0.074164755359641676
40
0.074164755359641676
40
0.074164755359641676
10
27.687985722927372
20
23.885521385614759
30
0
10
27.687616956333304
20
23.775461367668616
30
0
10
27.686780599099933
20
23.525846859208674
30
0
10
27.784004698504454
20
23.2950908816903
30
0
10
27.838360752332306
20
23.166079819495739
30
0
11
27.687985722927372
21
23.885521385614759
31
0
11
27.705943396440659
21
23.559007626454012
31
0
11
27.838360752332306
21
23.166079819495739
31
0
0
SPLINE
5
227
100
AcDbEntity
8
0
100
AcDbSpline
70
1064
71
3
72
9
73
5
74
3
42
0.000000001
43
0.0000000001
44
0.0000000001
40
0
40
0
40
0
40
0
40
0.04789591699332682
40
0.095728324322088387
40
0.095728324322088387
40
0.095728324322088387
40
0.095728324322088387
10
38.312344796445416
20
25.757029172426105
30
0
10
38.385127236143958
20
25.613516022331947
30
0
10
38.530595606514368
20
25.326680019617719
30
0
10
38.573128260255132
20
25.007894286483435
30
0
10
38.594380478268015
20
24.848607166962022
30
0
11
38.312344796445416
21
25.757029172426105
31
0
11
38.50492402940106
21
25.318491687714271
31
0
11
38.594380478268015
21
24.848607166962022
31
0
0
SPLINE
5
228
100
AcDbEntity
8
0
100
AcDbSpline
70
1064
71
3
72
9
73
5
74
3
42
0.000000001
43
0.0000000001
44
0.0000000001
40
0
40
0
40
0
40
0
40
0.046810423556674828
40
0.091178574303290794
40
0.091178574303290794
40
0.091178574303290794
40
0.091178574303290794
10
38.594380478268015
20
24.848607166962022
30
0
10
38.601322893739095
20
24.691311998098115
30
0
10
38.614845513206717
20
24.384928330698848
30
0
10
38.521065126198508
20
24.093116141838319
30
0
10
38.475430914656485
20
23.951118229675341
30
0
11
38.594380478268015
21
24.848607166962022
31
0
11
38.58692563873489
21
24.380562296545669
31
0
11
38.475430914656485
21
23.951118229675341
31
0
0
SPLINE
5
229
100
AcDbEntity
8
0
100
AcDbSpline
70
1064
71
3
72
9
73
5
74
3
42
0.000000001
43
0.0000000001
44
0.0000000001
40
0
40
0
40
0
40
0
40
0.04551275005486663
40
0.096544857025368594
40
0.096544857025368594
40
0.096544857025368594
40
0.096544857025368594
10
38.475430914656485
20
23.951118229675341
30
0
10
38.408850477569871
20
23.813561759892998
30
0
10
38.267615356170602
20
23.521767269513031
30
0
10
38.037757566360838
20
23.292679122531688
30
0
10
37.916258320528485
20
23.171586697905127
30
0
11
38.475430914656485
21
23.951118229675341
31
0
11
38.255994752782414
21
23.552384217309136
31
0
11
37.916258320528485
21
23.171586697905127
31
0
0
SPLINE
5
230
100
AcDbEntity
8
0
100
AcDbSpline
70
1064
71
3
72
9
73
5
74
3
42
0.000000001
43
0.0000000001
44
0.0000000001
40
0
40
0
40
0
40
0
40
0.057375773912915699
40
0.12190110651966621
40
0.12190110651966621
40
0.12190110651966621
40
0.12190110651966621
10
37.916258320528485
20
23.171586697905127
30
0
10
37.770992125367769
20
23.046643613549634
30
0
10
37.462358206862909
20
22.781188366566276
30
0
10
37.113336721365698
20
22.571431539372494
30
0
10
36.928590839383261
20
22.460401956232225
30
0
11
37.916258320528485
21
23.171586697905127
31
0
11
37.471512486353703
21
22.809096579150456
31
0
11
36.928590839383261
21
22.460401956232225
31
0
0
SPLINE
5
231
100
AcDbEntity
8
0
100
AcDbSpline
70
1064
71
3
72
9
73
5
74
3
42
0.000000001
43
0.0000000001
44
0.0000000001
40
0
40
0
40
0
40
0
40
0.13235574607120917
40
0.22250151053131931
40
0.22250151053131931
40
0.22250151053131931
40
0.22250151053131931
10
36.928590839383261
20
22.460401956232225
30
0
10
36.53970845915655
20
22.235309770052602
30
0
10
35.885963385082427
20
21.856910245132703
30
0
10
35.137038764128341
20
21.810809984962319
30
0
10
34.833614385940137
20
21.792132614256179
30
0
11
36.928590839383261
21
22.460401956232225
31
0
11
35.728264379315888
21
21.902709620738214
31
0
11
34.833614385940137
21
21.792132614256179
31
0
0
SPLINE
5
232
100
AcDbEntity
8
0
100
AcDbSpline
70
1064
71
3
72
9
73
5
74
3
42
0.000000001
43
0.0000000001
44
0.0000000001
40
0
40
0
40
0
40
0
40
0.070023046854843243
40
0.14217909665978168
40
0.14217909665978168
40
0.14217909665978168
40
0.14217909665978168
10
34.833614385940137
20
21.792132614256179
30
0
10
34.60116081603293
20
21.855826913890731
30
0
10
34.129172805381813
20
21.985155733346289
30
0
10
33.846448008451439
20
22.385294695992577
30
0
10
33.702964859327111
20
22.588365664903645
30
0
11
34.833614385940137
21
21.792132614256179
31
0
11
34.182160444105364
21
22.048901909055026
31
0
11
33.702964859327111
21
22.588365664903645
31
0
0
SPLINE
5
233
100
AcDbEntity
8
0
100
AcDbSpline
70
1064
71
3
72
9
73
5
74
3
42
0.000000001
43
0.0000000001
44
0.0000000001
40
0
40
0
40
0
40
0
40
0.011477206321819491
40
0.026387783943501591
40
0.026387783943501591
40
0.026387783943501591
40
0.026387783943501591
10
33.702964859327111
20
22.588365664903645
30
0
10
33.684340542991265
20
22.621788126364702
30
0
10
33.64152050283645
20
22.69863127679389
30
0
10
33.601947287111514
20
22.777199543191209
30
0
10
33.579586201160936
20
22.821595019417124
30
0
11
33.702964859327111
21
22.588365664903645
31
0
11
33.647706132285563
21
22.688959400201174
31
0
11
33.579586201160936
21
22.821595019417124
31
0
0
SPLINE
5
234
100
AcDbEntity
8
0
100
AcDbSpline
70
1064
71
3
72
9
73
5
74
3
42
0.000000001
43
0.0000000001
44
0.0000000001
40
0
40
0
40
0
40
0
40
0.024527325164355317
40
0.044053996991069003
40
0.044053996991069003
40
0.044053996991069003
40
0.044053996991069003
10
35.35976215084284
20
23.595661703155891
30
0
10
35.420672839591269
20
23.538495035709168
30
0
10
35.530075690528591
20
23.435816892910818
30
0
10
35.675408533378381
20
23.401708235328222
30
0
10
35.739826450520987
20
23.386589775970261
30
0
11
35.35976215084284
21
23.595661703155891
31
0
11
35.553631695139245
21
23.445416677394284
31
0
11
35.739826450520987
21
23.386589775970261
31
0
0
SPLINE
5
235
100
AcDbEntity
8
0
100
AcDbSpline
70
1064
71
3
72
9
73
5
74
3
42
0.000000001
43
0.0000000001
44
0.0000000001
40
0
40
0
40
0
40
0
40
0.027256964152356667
40
0.057887127571558922
40
0.057887127571558922
40
0.057887127571558922
40
0.057887127571558922
10
35.739826450520987
20
23.386589775970261
30
0
10
35.83187375740409
20
23.388801447980949
30
0
10
36.027359731791286
20
23.39349849858106
30
0
10
36.201305406987167
20
23.483668603477966
30
0
10
36.293346326632516
20
23.531380852545858
30
0
11
35.739826450520987
21
23.386589775970261
31
0
11
36.011192608929477
21
23.412175270901958
31
0
11
36.293346326632516
21
23.531380852545858
31
0
0
SPLINE
5
236
100
AcDbEntity
8
0
100
AcDbSpline
70
1064
71
3
72
9
73
5
74
3
42
0.000000001
43
0.0000000001
44
0.0000000001
40
0
40
0
40
0
40
0
40
0.037912217113170221
40
0.069502259296617491
40
0.069502259296617491
40
0.069502259296617491
40
0.069502259296617491
10
36.293346326632516
20
23.531380852545858
30
0
10
36.403224658762532
20
23.601240087003752
30
0
10
36.604658204787661
20
23.729308952326566
30
0
10
36.692586856326656
20
23.949754583100365
30
0
10
36.732552029248538
20
24.049951135640917
30
0
11
36.293346326632516
21
23.531380852545858
31
0
11
36.589207897630835
21
23.768445298319627
31
0
11
36.732552029248538
21
24.049951135640917
31
0
0
SPLINE
5
237
100
AcDbEntity
8
0
100
AcDbSpline
70
1064
71
3
72
9
73
5
74
3
42
0.000000001
43
0.0000000001
44
0.0000000001
40
0
40
0
40
0
40
0
40
0.035376810573437466
40
0.084256787924307158
40
0.084256787924307158
40
0.084256787924307158
40
0.084256787924307158
10
36.732552029248538
20
24.049951135640917
30
0
10
36.73526966874207
20
24.1697769252219
30
0
10
36.741742258292945
20
24.455165460167105
30
0
10
36.60028518660647
20
24.705590550097618
30
0
10
36.518221549592852
20
24.850869916015178
30
0
11
36.732552029248538
21
24.049951135640917
31
0
11
36.714626435131777
21
24.403264800407015
31
0
11
36.518221549592852
21
24.850869916015178
31
0
0
SPLINE
5
238
100
AcDbEntity
8
0
100
AcDbSpline
70
1064
71
3
72
9
73
5
74
3
42
0.000000001
43
0.0000000001
44
0.0000000001
40
0
40
0
40
0
40
0
40
0.041865846288189741
40
0.077557377066524852
40
0.077557377066524852
40
0.077557377066524852
40
0.077557377066524852
10
36.125155143342852
20
25.531680902388686
30
0
10
36.097073235706524
20
25.394126971040265
30
0
10
36.045050900261423
20
25.139305366643796
30
0
10
35.924609690684768
20
24.909101140863083
30
0
10
35.869183227062905
20
24.803162266696319
30
0
11
36.125155143342852
21
25.531680902388686
31
0
11
36.020972896140378
21
25.126192347790067
31
0
11
35.869183227062905
21
24.803162266696319
31
0
0
SPLINE
5
239
100
AcDbEntity
8
0
100
AcDbSpline
70
1064
71
3
72
9
73
5
74
3
42
0.000000001
43
0.0000000001
44
0.0000000001
40
0
40
0
40
0
40
0
40
0.05112123385970057
40
0.10287400783504774
40
0.10287400783504774
40
0.10287400783504774
40
0.10287400783504774
10
35.869183227062905
20
24.803162266696319
30
0
10
35.769180370883738
20
24.663202921638245
30
0
10
35.567939245946562
20
24.381555205552054
30
0
10
35.27846523055527
20
24.191656871438649
30
0
10
35.132839687178915
20
24.096124814600508
30
0
11
35.869183227062905
21
24.803162266696319
31
0
11
35.547386433996849
21
24.405940818249459
31
0
11
35.132839687178915
21
24.096124814600508
31
0
0
SPLINE
5
240
100
AcDbEntity
8
0
100
AcDbSpline
70
1064
71
3
72
9
73
5
74
3
42
0.000000001
43
0.0000000001
44
0.0000000001
40
0
40
0
40
0
40
0
40
0.09669756483228846
40
0.19725564748179514
40
0.19725564748179514
40
0.19725564748179514
40
0.19725564748179514
10
35.132839687178915
20
24.096124814600508
30
0
10
34.824967972418975
20
23.965393164669607
30
0
10
34.196933186417567
20
23.698710582763756
30
0
10
33.552572075401621
20
23.926622060237179
30
0
10
33.224086079259742
20
24.042808042646922
30
0
11
35.132839687178915
21
24.096124814600508
31
0
11
34.205301160672548
21
23.822785855987114
31
0
11
33.224086079259742
21
24.042808042646922
31
0
0
SPLINE
5
241
100
AcDbEntity
8
0
100
AcDbSpline
70
1064
71
3
72
9
73
5
74
3
42
0.000000001
43
0.0000000001
44
0.0000000001
40
0
40
0
40
0
40
0
40
0.082215057800510208
40
0.17846794429406143
40
0.17846794429406143
40
0.17846794429406143
40
0.17846794429406143
10
33.224086079259742
20
24.042808042646922
30
0
10
32.987472151480887
20
24.188176917067384
30
0
10
32.473843597153298
20
24.503735707345346
30
0
10
32.152228217428359
20
25.01552814762573
30
0
10
31.978771808986536
20
25.291552505150676
30
0
11
33.224086079259742
21
24.042808042646922
31
0
11
32.55499295467984
21
24.52055898566433
31
0
11
31.978771808986536
21
25.291552505150676
31
0
0
SPLINE
5
242
100
AcDbEntity
8
0
100
AcDbSpline
70
1064
71
3
72
9
73
5
74
3
42
0.000000001
43
0.0000000001
44
0.0000000001
40
0
40
0
40
0
40
0
40
0.10769037157194221
40
0.19711418689935475
40
0.19711418689935475
40
0.19711418689935475
40
0.19711418689935475
10
31.978771808986536
20
25.291552505150676
30
0
10
31.807188138436395
20
25.616699775233407
30
0
10
31.493125003431757
20
26.211842486966802
30
0
10
31.54143874916452
20
26.879881227727726
30
0
10
31.563357006516483
20
27.182947049245001
30
0
11
31.978771808986536
21
25.291552505150676
31
0
11
31.572183733369023
21
26.288752459871869
31
0
11
31.563357006516483
21
27.182947049245001
31
0
0
SPLINE
5
243
100
AcDbEntity
8
0
100
AcDbSpline
70
1064
71
3
72
9
73
5
74
3
42
0.000000001
43
0.0000000001
44
0.0000000001
40
0
40
0
40
0
40
0
40
0.082703515079802836
40
0.16985385337604197
40
0.16985385337604197
40
0.16985385337604197
40
0.16985385337604197
10
31.563357006516483
20
27.182947049245001
30
0
10
31.656402876925998
20
27.450407538314742
30
0
10
31.847497531301144
20
27.999709398707253
30
0
10
32.327488442891948
20
28.329869747257803
30
0
10
32.57376704942817
20
28.499271768444107
30
0
11
31.563357006516483
21
27.182947049245001
31
0
11
31.910986491009371
21
27.933374182394331
31
0
11
32.57376704942817
21
28.499271768444107
31
0
0
SPLINE
5
244
100
AcDbEntity
8
0
100
AcDbSpline
70
1064
71
3
72
9
73
5
74
3
42
0.000000001
43
0.0000000001
44
0.0000000001
40
0
40
0
40
0
40
0
40
0.055413468443094221
40
0.10243383731291025
40
0.10243383731291025
40
0.10243383731291025
40
0.10243383731291025
10
32.57376704942817
20
28.499271768444107
30
0
10
32.737925272001021
20
28.587848486942899
30
0
10
33.041377792427035
20
28.751585813396929
30
0
10
33.382405916452264
20
28.798281144565713
30
0
10
33.538948603979073
20
28.819715777433625
30
0
11
32.57376704942817
21
28.499271768444107
31
0
11
33.0772380974147
21
28.730749958191488
31
0
11
33.538948603979073
21
28.819715777433625
31
0
0
SPLINE
5
245
100
AcDbEntity
8
0
100
AcDbSpline
70
1064
71
3
72
9
73
5
74
3
42
0.000000001
43
0.0000000001
44
0.0000000001
40
0
40
0
40
0
40
0
40
0.046913449095210544
40
0.10089696597472467
40
0.10089696597472467
40
0.10089696597472467
40
0.10089696597472467
10
33.538948603979073
20
28.819715777433625
30
0
10
33.696399575262021
20
28.81309549020105
30
0
10
34.035030087377663
20
28.798857208673454
30
0
10
34.348898003710431
20
28.669694119849531
30
0
10
34.516828662433419
20
28.600587207482278
30
0
11
33.538948603979073
21
28.819715777433625
31
0
11
34.005948056352764
21
28.77500915506555
31
0
11
34.516828662433419
21
28.600587207482278
31
0
0
SPLINE
5
246
100
AcDbEntity
8
0
100
AcDbSpline
70
1064
71
3
72
9
73
5
74
3
42
0.000000001
43
0.0000000001
44
0.0000000001
40
0
40
0
40
0
40
0
40
0.049314291124970308
40
0.088242664981219673
40
0.088242664981219673
40
0.088242664981219673
40
0.088242664981219673
10
33.771283107504516
20
26.151675612976277
30
0
10
33.859038298859538
20
26.008352413810584
30
0
10
34.016066855378384
20
25.751890833211881
30
0
10
34.279675570297492
20
25.610556828211152
30
0
10
34.395966919933407
20
25.548207136183603
30
0
11
33.771283107504516
21
26.151675612976277
31
0
11
34.067834919986737
21
25.757661712930428
31
0
11
34.395966919933407
21
25.548207136183603
31
0
0
SPLINE
5
247
100
AcDbEntity
8
0
100
AcDbSpline
70
1064
71
3
72
9
73
5
74
3
42
0.000000001
43
0.0000000001
44
0.0000000001
40
0
40
0
40
0
40
0
40
0.034256766465331753
40
0.070168267362436282
40
0.070168267362436282
40
0.070168267362436282
40
0.070168267362436282
10
34.395966919933407
20
25.548207136183603
30
0
10
34.510929126853682
20
25.524148733504568
30
0
10
34.74640666031911
20
25.474869814164514
30
0
10
34.964248994009729
20
25.577862573910974
30
0
10
35.075738780715596
20
25.63057336075321
30
0
11
34.395966919933407
21
25.548207136183603
31
0
11
34.736650228843402
21
25.512325554610808
31
0
11
35.075738780715596
21
25.63057336075321
31
0
0
SPLINE
5
248
100
AcDbEntity
8
0
100
AcDbSpline
70
1064
71
3
72
9
73
5
74
3
42
0.000000001
43
0.0000000001
44
0.0000000001
40
0
40
0
40
0
40
0
40
0.034761115649660994
40
0.06964888784330879
40
0.06964888784330879
40
0.06964888784330879
40
0.06964888784330879
10
35.075738780715596
20
25.63057336075321
30
0
10
35.172684180603397
20
25.700032644469836
30
0
10
35.366928213267961
20
25.839204295633543
30
0
10
35.438010224971762
20
26.067372734075779
30
0
10
35.47361586216396
20
26.181664415517435
30
0
11
35.075738780715596
21
25.63057336075321
31
0
11
35.335896358420499
21
25.861119561944264
31
0
11
35.47361586216396
21
26.181664415517435
31
0
0
SPLINE
5
249
100
AcDbEntity
8
0
100
AcDbSpline
70
1064
71
3
72
9
73
5
74
3
42
0.000000001
43
0.0000000001
44
0.0000000001
40
0
40
0
40
0
40
0
40
0.040197292386628038
40
0.090162685874693727
40
0.090162685874693727
40
0.090162685874693727
40
0.090162685874693727
10
35.47361586216396
20
26.181664415517435
30
0
10
35.480216693676603
20
26.317895276474932
30
0
10
35.495022384877416
20
26.623461636636936
30
0
10
35.349399931798509
20
26.894306777515588
30
0
10
35.268700437343597
20
27.044400842560854
30
0
11
35.47361586216396
21
26.181664415517435
31
0
11
35.461530856048689
21
26.58345563511886
31
0
11
35.268700437343597
21
27.044400842560854
31
0
0
SPLINE
5
250
100
AcDbEntity
8
0
100
AcDbSpline
70
1064
71
3
72
9
73
5
74
3
42
0.000000001
43
0.0000000001
44
0.0000000001
40
0
40
0
40
0
40
0
40
0.050360033078913777
40
0.091872016725356304
40
0.091872016725356304
40
0.091872016725356304
40
0.091872016725356304
10
35.268700437343597
20
27.044400842560854
30
0
10
35.177645887165745
20
27.189957039554283
30
0
10
35.011534694511219
20
27.455495812011094
30
0
10
34.733743685847649
20
27.597066160609902
30
0
10
34.608224989080128
20
27.661034126105022
30
0
11
35.268700437343597
21
27.044400842560854
31
0
11
34.96198001277773
21
27.443820264128039
31
0
11
34.608224989080128
21
27.661034126105022
31
0
0
SPLINE
5
251
100
AcDbEntity
8
0
100
AcDbSpline
70
1064
71
3
72
9
73
5
74
3
42
0.000000001
43
0.0000000001
44
0.0000000001
40
0
40
0
40
0
40
0
40
0.037065178502578108
40
0.073026852235757583
40
0.073026852235757583
40
0.073026852235757583
40
0.073026852235757583
10
34.608224989080128
20
27.661034126105022
30
0
10
34.484589209746787
20
27.691603422720341
30
0
10
34.240998536419774
20
27.751831906625316
30
0
10
34.011629092799545
20
27.650730831572773
30
0
10
33.898677365547186
20
27.600944160453828
30
0
11
34.608224989080128
21
27.661034126105022
31
0
11
34.240981218440155
21
27.711181495616625
31
0
11
33.898677365547186
21
27.600944160453828
31
0
0
SPLINE
5
252
100
AcDbEntity
8
0
100
AcDbSpline
70
1064
71
3
72
9
73
5
74
3
42
0.000000001
43
0.0000000001
44
0.0000000001
40
0
40
0
40
0
40
0
40
0.035000349451772848
40
0.068917888373213276
40
0.068917888373213276
40
0.068917888373213276
40
0.068917888373213276
10
33.898677365547186
20
27.600944160453828
30
0
10
33.800159727994526
20
27.531535990502142
30
0
10
33.606172306326002
20
27.394866940511349
30
0
10
33.541222321596479
20
27.166919117029554
30
0
10
33.509257563432662
20
27.054735918189607
30
0
11
33.898677365547186
21
27.600944160453828
31
0
11
33.636405468008817
21
27.369177256137771
31
0
11
33.509257563432662
21
27.054735918189607
31
0
0
SPLINE
5
253
100
AcDbEntity
8
0
100
AcDbSpline
70
1064
71
3
72
9
73
5
74
3
42
0.000000001
43
0.0000000001
44
0.0000000001
40
0
40
0
40
0
40
0
40
0.040198960504804211
40
0.095295420054643365
40
0.095295420054643365
40
0.095295420054643365
40
0.095295420054643365
10
33.509257563432662
20
27.054735918189607
30
0
10
33.51247055800426
20
26.918939897201465
30
0
10
33.52008726409538
20
26.597022646125605
30
0
10
33.67925685142022
20
26.314829666653129
30
0
10
33.771283107504516
20
26.151675612976277
30
0
11
33.509257563432662
21
27.054735918189607
31
0
11
33.545864612111551
21
26.65441658746262
31
0
11
33.771283107504516
21
26.151675612976277
31
0
0
SPLINE
5
254
100
AcDbEntity
8
0
100
AcDbSpline
70
1064
71
3
72
9
73
5
74
3
42
0.000000001
43
0.0000000001
44
0.0000000001
40
0
40
0
40
0
40
0
40
0.057055956570843051
40
0.10557195726485502
40
0.10557195726485502
40
0.10557195726485502
40
0.10557195726485502
10
38.78287191351879
20
31.074864799316106
30
0
10
38.821494615135201
20
31.262456710949095
30
0
10
38.892959094035646
20
31.609562367718873
30
0
10
39.064740559954203
20
31.919031410691737
30
0
10
39.143683396059963
20
32.061249104600542
30
0
11
38.78287191351879
21
31.074864799316106
31
0
11
38.928040807372646
21
31.626647555732653
31
0
11
39.143683396059963
21
32.061249104600542
31
0
0
SPLINE
5
255
100
AcDbEntity
8
0
100
AcDbSpline
70
1064
71
3
72
9
73
5
74
3
42
0.000000001
43
0.0000000001
44
0.0000000001
40
0
40
0
40
0
40
0
40
0.047596309049541492
40
0.10129684182193927
40
0.10129684182193927
40
0.10129684182193927
40
0.10129684182193927
10
39.143683396059963
20
32.061249104600542
30
0
10
39.243392151073607
20
32.186173313503957
30
0
10
39.455597302829524
20
32.452043253457674
30
0
10
39.744575063701063
20
32.63225282542389
30
0
10
39.89777095252704
20
32.72778739344411
30
0
11
39.143683396059963
21
32.061249104600542
31
0
11
39.459759323062208
21
32.417109852483215
31
0
11
39.89777095252704
21
32.72778739344411
31
0
0
SPLINE
5
256
100
AcDbEntity
8
0
100
AcDbSpline
70
1064
71
3
72
9
73
5
74
3
42
0.000000001
43
0.0000000001
44
0.0000000001
40
0
40
0
40
0
40
0
40
0.055812971140890288
40
0.10149174079736978
40
0.10149174079736978
40
0.10149174079736978
40
0.10149174079736978
10
39.89777095252704
20
32.72778739344411
30
0
10
40.063320323006323
20
32.817720749452164
30
0
10
40.364359551959708
20
32.981257874791126
30
0
10
40.704501734777445
20
33.01364477199737
30
0
10
40.857590806827197
20
33.028221264682877
30
0
11
39.89777095252704
21
32.72778739344411
31
0
11
40.406244534951256
21
32.957925158128802
31
0
11
40.857590806827197
21
33.028221264682877
31
0
0
SPLINE
5
257
100
AcDbEntity
8
0
100
AcDbSpline
70
1064
71
3
72
9
73
5
74
3
42
0.000000001
43
0.0000000001
44
0.0000000001
40
0
40
0
40
0
40
0
40
0.042731061175806412
40
0.088984113090674832
40
0.088984113090674832
40
0.088984113090674832
40
0.088984113090674832
10
40.857590806827197
20
33.028221264682877
30
0
10
41.000771631761438
20
33.012887992318596
30
0
10
41.298934569160657
20
32.980957644590973
30
0
10
41.560464172286792
20
32.833592587969108
30
0
10
41.696404644024057
20
32.756993705566103
30
0
11
40.857590806827197
21
33.028221264682877
31
0
11
41.278685574427307
21
32.955602013648068
31
0
11
41.696404644024057
21
32.756993705566103
31
0
0
SPLINE
5
258
100
AcDbEntity
8
0
100
AcDbSpline
70
1064
71
3
72
9
73
5
74
3
42
0.000000001
43
0.0000000001
44
0.0000000001
40
0
40
0
40
0
40
0
40
0.061822316638977429
40
0.11020806908543816
40
0.11020806908543816
40
0.11020806908543816
40
0.11020806908543816
10
41.696404644024057
20
32.756993705566103
30
0
10
41.744707422056983
20
32.958649437143464
30
0
10
41.830814772733582
20
33.31813271123255
30
0
10
42.01243830563908
20
33.639420011019396
30
0
10
42.092178304484385
20
33.780477992351294
30
0
11
41.696404644024057
21
32.756993705566103
31
0
11
41.871369638151123
21
33.349941539942044
31
0
11
42.092178304484385
21
33.780477992351294
31
0
0
SPLINE
5
259
100
AcDbEntity
8
0
100
AcDbSpline
70
1064
71
3
72
9
73
5
74
3
42
0.000000001
43
0.0000000001
44
0.0000000001
40
0
40
0
40
0
40
0
40
0.045282163001334273
40
0.09761218398429361
40
0.09761218398429361
40
0.09761218398429361
40
0.09761218398429361
10
42.092178304484385
20
33.780477992351294
30
0
10
42.188201534373974
20
33.898320117003756
30
0
10
42.395193351051816
20
34.152345684473616
30
0
10
42.674339162944449
20
34.324791883165069
30
0
10
42.823989602033052
20
34.41724051844411
30
0
11
42.092178304484385
21
33.780477992351294
31
0
11
42.395775676964746
21
34.116448324420901
31
0
11
42.823989602033052
21
34.41724051844411
31
0
0
SPLINE
5
260
100
AcDbEntity
8
0
100
AcDbSpline
70
1064
71
3
72
9
73
5
74
3
42
0.000000001
43
0.0000000001
44
0.0000000001
40
0
40
0
40
0
40
0
40
0.075376317539371768
40
0.14271632549176316
40
0.14271632549176316
40
0.14271632549176316
40
0.14271632549176316
10
42.823989602033052
20
34.41724051844411
30
0
10
43.055284016566603
20
34.532696431361586
30
0
10
43.49321319679958
20
34.751298827787636
30
0
10
43.97481727535525
20
34.674168373154728
30
0
10
44.20205983059968
20
34.637774741168656
30
0
11
42.823989602033052
21
34.41724051844411
31
0
11
43.530055850696037
21
34.681114308500241
31
0
11
44.20205983059968
21
34.637774741168656
31
0
0
SPLINE
5
261
100
AcDbEntity
8
0
100
AcDbSpline
70
1064
71
3
72
9
73
5
74
3
42
0.000000001
43
0.0000000001
44
0.0000000001
40
0
40
0
40
0
40
0
40
0.072455183350803129
40
0.16463378950468371
40
0.16463378950468371
40
0.16463378950468371
40
0.16463378950468371
10
44.20205983059968
20
34.637774741168656
30
0
10
44.422496916807518
20
34.528402681985845
30
0
10
44.92337747733356
20
34.279885795595327
30
0
10
45.217343295224602
20
33.80023043347974
30
0
10
45.381935019873637
20
33.531670966756217
30
0
11
44.20205983059968
21
34.637774741168656
31
0
11
44.823294347555141
21
34.26488999438628
31
0
11
45.381935019873637
21
33.531670966756217
31
0
0
SPLINE
5
262
100
AcDbEntity
8
0
100
AcDbSpline
70
1064
71
3
72
9
73
5
74
3
42
0.000000001
43
0.0000000001
44
0.0000000001
40
0
40
0
40
0
40
0
40
0.030829702670469802
40
0.054745828452582634
40
0.054745828452582634
40
0.054745828452582634
40
0.054745828452582634
10
43.808017223271818
20
32.273401557407418
30
0
10
43.753742051745739
20
32.363018620835362
30
0
10
43.657362944189593
20
32.522156074520566
30
0
10
43.498002603823664
20
32.616355083258156
30
0
10
43.428384843848171
20
32.65750662676745
30
0
11
43.808017223271818
21
32.273401557407418
31
0
11
43.625218503415908
21
32.521658852756403
31
0
11
43.428384843848171
21
32.65750662676745
31
0
0
SPLINE
5
263
100
AcDbEntity
8
0
100
AcDbSpline
70
1064
71
3
72
9
73
5
74
3
42
0.000000001
43
0.0000000001
44
0.0000000001
40
0
40
0
40
0
40
0
40
0.030169153565876003
40
0.058325088582740367
40
0.058325088582740367
40
0.058325088582740367
40
0.058325088582740367
10
43.428384843848171
20
32.65750662676745
30
0
10
43.329500494475724
20
32.690829735551958
30
0
10
43.13833044974772
20
32.75525226790657
30
0
10
42.952496159723452
20
32.678236884895348
30
0
10
42.862786254072709
20
32.641058370947839
30
0
11
43.428384843848171
21
32.65750662676745
31
0
11
43.133159411357518
21
32.719633325527738
31
0
11
42.862786254072709
21
32.641058370947839
31
0
0
SPLINE
5
264
100
AcDbEntity
8
0
100
AcDbSpline
70
1064
71
3
72
9
73
5
74
3
42
0.000000001
43
0.0000000001
44
0.0000000001
40
0
40
0
40
0
40
0
40
0.032366823084329199
40
0.063715848317287244
40
0.063715848317287244
40
0.063715848317287244
40
0.063715848317287244
10
42.862786254072709
20
32.641058370947839
30
0
10
42.771689802267787
20
32.577047305123237
30
0
10
42.592361491598467
20
32.451038047122175
30
0
10
42.529932870450921
20
32.241206051475984
30
0
10
42.499217177710435
20
32.137965983268195
30
0
11
42.862786254072709
21
32.641058370947839
31
0
11
42.619662956973158
21
32.427394649027931
31
0
11
42.499217177710435
21
32.137965983268195
31
0
0
SPLINE
5
265
100
AcDbEntity
8
0
100
AcDbSpline
70
1064
71
3
72
9
73
5
74
3
42
0.000000001
43
0.0000000001
44
0.0000000001
40
0
40
0
40
0
40
0
40
0.03679665761830777
40
0.085555305699160311
40
0.085555305699160311
40
0.085555305699160311
40
0.085555305699160311
10
42.499217177710435
20
32.137965983268195
30
0
10
42.499099197612594
20
32.013458925062494
30
0
10
42.498824884020266
20
31.723969604130463
30
0
10
42.640264382700011
20
31.469427086129514
30
0
10
42.720871876116121
20
31.32436128389319
30
0
11
42.499217177710435
21
32.137965983268195
31
0
11
42.525077342139703
21
31.770909239584626
31
0
11
42.720871876116121
21
31.32436128389319
31
0
0
SPLINE
5
266
100
AcDbEntity
8
0
100
AcDbSpline
70
1064
71
3
72
9
73
5
74
3
42
0.000000001
43
0.0000000001
44
0.0000000001
40
0
40
0
40
0
40
0
40
0.028703140964825489
40
0.046644154953680836
40
0.046644154953680836
40
0.046644154953680836
40
0.046644154953680836
10
40.905254860764309
20
30.48472720156909
30
0
10
40.857731546529962
20
30.568140674927044
30
0
10
40.780503593123179
20
30.703692076123911
30
0
10
40.678663500019056
20
30.821574799083788
30
0
10
40.639492149678979
20
30.866916719926127
30
0
11
40.905254860764309
21
30.48472720156909
31
0
11
40.753364964242984
21
30.728276969500421
31
0
11
40.639492149678979
21
30.866916719926127
31
0
0
SPLINE
5
267
100
AcDbEntity
8
0
100
AcDbSpline
70
1064
71
3
72
9
73
5
74
3
42
0.000000001
43
0.0000000001
44
0.0000000001
40
0
40
0
40
0
40
0
40
0.019598653833715493
40
0.038676412144369524
40
0.038676412144369524
40
0.038676412144369524
40
0.038676412144369524
10
40.639492149678979
20
30.866916719926127
30
0
10
40.587342409244272
20
30.907911661918707
30
0
10
40.484428970832255
20
30.988811977103204
30
0
10
40.356202915444996
20
31.014845115737238
30
0
10
40.292953364667746
20
31.027686377358769
30
0
11
40.639492149678979
21
30.866916719926127
31
0
11
40.476543170591214
21
30.975812786997615
31
0
11
40.292953364667746
21
31.027686377358769
31
0
0
SPLINE
5
268
100
AcDbEntity
8
0
100
AcDbSpline
70
1064
71
3
72
9
73
5
74
3
42
0.000000001
43
0.0000000001
44
0.0000000001
40
0
40
0
40
0
40
0
40
0.019280154748904991
40
0.039169001499078315
40
0.039169001499078315
40
0.039169001499078315
40
0.039169001499078315
10
40.292953364667746
20
31.027686377358769
30
0
10
40.227651580736428
20
31.031093356107505
30
0
10
40.094986376228974
20
31.038014875019286
30
0
10
39.975461426067014
20
30.979837586380302
30
0
10
39.914770233399032
20
30.950296900281671
30
0
11
40.292953364667746
21
31.027686377358769
31
0
11
40.100231769054915
21
31.022134503925948
31
0
11
39.914770233399032
21
30.950296900281671
31
0
0
SPLINE
5
269
100
AcDbEntity
8
0
100
AcDbSpline
70
1064
71
3
72
9
73
5
74
3
42
0.000000001
43
0.0000000001
44
0.0000000001
40
0
40
0
40
0
40
0
40
0.031793165435726307
40
0.063462354805097765
40
0.063462354805097765
40
0.063462354805097765
40
0.063462354805097765
10
39.914770233399032
20
30.950296900281671
30
0
10
39.825918225356588
20
30.886644754525232
30
0
10
39.648560683814068
20
30.759588671787345
30
0
10
39.588061634193913
20
30.550004599963927
30
0
10
39.55787120295367
20
30.445417279185115
30
0
11
39.914770233399032
21
30.950296900281671
31
0
11
39.677543087445628
21
30.73862777625753
31
0
11
39.55787120295367
21
30.445417279185115
31
0
0
SPLINE
5
270
100
AcDbEntity
8
0
100
AcDbSpline
70
1064
71
3
72
9
73
5
74
3
42
0.000000001
43
0.0000000001
44
0.0000000001
40
0
40
0
40
0
40
0
40
0.03794502207609754
40
0.089022514212850318
40
0.089022514212850318
40
0.089022514212850318
40
0.089022514212850318
10
39.55787120295367
20
30.445417279185115
30
0
10
39.558377897141618
20
30.31706031896174
30
0
10
39.559566648342184
20
30.015923076429964
30
0
10
39.707505702674062
20
29.751491031232664
30
0
10
39.792387105442437
20
29.599770695891692
30
0
11
39.55787120295367
21
30.445417279185115
31
0
11
39.586053051695245
21
30.067015041563479
31
0
11
39.792387105442437
21
29.599770695891692
31
0
0
SPLINE
5
271
100
AcDbEntity
8
0
100
AcDbSpline
70
1064
71
3
72
9
73
5
74
3
42
0.000000001
43
0.0000000001
44
0.0000000001
40
0
40
0
40
0
40
0
40
0.042740126925321482
40
0.076686430090818325
40
0.076686430090818325
40
0.076686430090818325
40
0.076686430090818325
10
48.523103939274847
20
34.008975553197075
30
0
10
48.611654881190908
20
33.894527131679993
30
0
10
48.770537320370067
20
33.68917816556651
30
0
10
49.001450332777985
20
33.57259557880014
30
0
10
49.10366715412141
20
33.520988693077307
30
0
11
48.523103939274847
21
34.008975553197075
31
0
11
48.811131167404525
21
33.69320322886324
31
0
11
49.10366715412141
21
33.520988693077307
31
0
0
SPLINE
5
272
100
AcDbEntity
8
0
100
AcDbSpline
70
1064
71
3
72
9
73
5
74
3
42
0.000000001
43
0.0000000001
44
0.0000000001
40
0
40
0
40
0
40
0
40
0.041724661361846944
40
0.084553252740493356
40
0.084553252740493356
40
0.084553252740493356
40
0.084553252740493356
10
49.10366715412141
20
33.520988693077307
30
0
10
49.243158048635877
20
33.488060755864467
30
0
10
49.525830417300398
20
33.421333690706618
30
0
10
49.78968497060896
20
33.543372860154236
30
0
10
49.923334694076502
20
33.605189118560091
30
0
11
49.10366715412141
21
33.520988693077307
31
0
11
49.517557424909207
21
33.468172215314397
31
0
11
49.923334694076502
21
33.605189118560091
31
0
0
SPLINE
5
273
100
AcDbEntity
8
0
100
AcDbSpline
70
1064
71
3
72
9
73
5
74
3
42
0.000000001
43
0.0000000001
44
0.0000000001
40
0
40
0
40
0
40
0
40
0.028798246950201417
40
0.058040138714376896
40
0.058040138714376896
40
0.058040138714376896
40
0.058040138714376896
10
49.923334694076502
20
33.605189118560091
30
0
10
50.00399269204501
20
33.659017800924708
30
0
10
50.166551246342131
20
33.767504411122083
30
0
10
50.276674781940372
20
33.929002400533065
30
0
10
50.332157428604951
20
34.010368621067578
30
0
11
49.923334694076502
21
33.605189118560091
31
0
11
50.152399567716095
21
33.779726181686968
31
0
11
50.332157428604951
21
34.010368621067578
31
0
0
SPLINE
5
274
100
AcDbEntity
8
0
100
AcDbSpline
70
1064
71
3
72
9
73
5
74
3
42
0.000000001
43
0.0000000001
44
0.0000000001
40
0
40
0
40
0
40
0
40
0.021070481641611735
40
0.04786428958294759
40
0.04786428958294759
40
0.04786428958294759
40
0.04786428958294759
10
50.332157428604951
20
34.010368621067578
30
0
10
50.361770058397994
20
34.074402184631403
30
0
10
50.429038928271737
20
34.219862600846767
30
0
10
50.454540934296602
20
34.378323159101647
30
0
10
50.468816626205999
20
34.467027322500961
30
0
11
50.332157428604951
21
34.010368621067578
31
0
11
50.412901423134329
21
34.204988576386626
31
0
11
50.468816626205999
21
34.467027322500961
31
0
0
SPLINE
5
275
100
AcDbEntity
8
0
100
AcDbSpline
70
1064
71
3
72
9
73
5
74
3
42
0.000000001
43
0.0000000001
44
0.0000000001
40
0
40
0
40
0
40
0
40
0.083449679853717762
40
0.15762424652341395
40
0.15762424652341395
40
0.15762424652341395
40
0.15762424652341395
10
52.254833163889394
20
35.289571561075064
30
0
10
52.243575740572069
20
35.008022227687078
30
0
10
52.22231211354196
20
34.476216693954115
30
0
10
51.987905354398208
20
33.999380885045426
30
0
10
51.877598595334
20
33.774992250184333
30
0
11
52.254833163889394
21
35.289571561075064
31
0
11
52.161319597072406
21
34.460330872499085
31
0
11
51.877598595334
21
33.774992250184333
31
0
0
SPLINE
5
276
100
AcDbEntity
8
0
100
AcDbSpline
70
1064
71
3
72
9
73
5
74
3
42
0.000000001
43
0.0000000001
44
0.0000000001
40
0
40
0
40
0
40
0
40
0.081297178509446455
40
0.18649331984229864
40
0.18649331984229864
40
0.18649331984229864
40
0.18649331984229864
10
51.877598595334
20
33.774992250184333
30
0
10
51.705836172021236
20
33.562828595356216
30
0
10
51.311818259775549
20
33.076131454517878
30
0
10
50.772812486680685
20
32.75417757931671
30
0
10
50.468773030824252
20
32.572571581917117
30
0
11
51.877598595334
21
33.774992250184333
31
0
11
51.33475914148201
21
33.169807608358923
31
0
11
50.468773030824252
21
32.572571581917117
31
0
0
SPLINE
5
277
100
AcDbEntity
8
0
100
AcDbSpline
70
1064
71
3
72
9
73
5
74
3
42
0.000000001
43
0.0000000001
44
0.0000000001
40
0
40
0
40
0
40
0
40
0.092322367275743514
40
0.16564639788335675
40
0.16564639788335675
40
0.16564639788335675
40
0.16564639788335675
10
50.468773030824252
20
32.572571581917117
30
0
10
50.19728888920141
20
32.422096226335206
30
0
10
49.710187318159981
20
32.15211072490289
30
0
10
49.163025172186451
20
32.054654034995437
30
0
10
48.92082169265808
20
32.011514447265171
30
0
11
50.468773030824252
21
32.572571581917117
31
0
11
49.635663711423057
21
32.174738938879131
31
0
11
48.92082169265808
21
32.011514447265171
31
0
0
SPLINE
5
278
100
AcDbEntity
8
0
100
AcDbSpline
70
1064
71
3
72
9
73
5
74
3
42
0.000000001
43
0.0000000001
44
0.0000000001
40
0
40
0
40
0
40
0
40
0.065932660761425191
40
0.13607052745927201
40
0.13607052745927201
40
0.13607052745927201
40
0.13607052745927201
10
48.92082169265808
20
32.011514447265171
30
0
10
48.698480779885301
20
32.015671080588149
30
0
10
48.239617980668974
20
32.024249458620815
30
0
10
47.823782628265725
20
32.219409166999526
30
0
10
47.609439338357916
20
32.32000468806234
30
0
11
48.92082169265808
21
32.011514447265171
31
0
11
48.26390121673461
21
32.06779111934695
31
0
11
47.609439338357916
21
32.32000468806234
31
0
0
SPLINE
5
279
100
AcDbEntity
8
0
100
AcDbSpline
70
1064
71
3
72
9
73
5
74
3
42
0.000000001
43
0.0000000001
44
0.0000000001
40
0
40
0
40
0
40
0
40
0.074791754259431881
40
0.15532726709818701
40
0.15532726709818701
40
0.15532726709818701
40
0.15532726709818701
10
47.609439338357916
20
32.32000468806234
30
0
10
47.399211808389836
20
32.459197951113509
30
0
10
46.96261197165547
20
32.748274057995872
30
0
10
46.678208191325005
20
33.188576582354521
30
0
10
46.530747898421545
20
33.416868692721778
30
0
11
47.609439338357916
21
32.32000468806234
31
0
11
47.014043805280636
21
32.772646720701751
31
0
11
46.530747898421545
21
33.416868692721778
31
0
0
SPLINE
5
280
100
AcDbEntity
8
0
100
AcDbSpline
70
1064
71
3
72
9
73
5
74
3
42
0.000000001
43
0.0000000001
44
0.0000000001
40
0
40
0
40
0
40
0
40
0.11168479670245357
40
0.2161993708686914
40
0.2161993708686914
40
0.2161993708686914
40
0.2161993708686914
10
46.530747898421545
20
33.416868692721778
30
0
10
46.364124938638923
20
33.761141074261403
30
0
10
46.041576300499258
20
34.427583369846452
30
0
10
46.161325850450524
20
35.156717718390745
30
0
10
46.219214886711214
20
35.509194072239012
30
0
11
46.530747898421545
21
33.416868692721778
31
0
11
46.14890956736896
21
34.466415676132158
31
0
11
46.219214886711214
21
35.509194072239012
31
0
0
SPLINE
5
281
100
AcDbEntity
8
0
100
AcDbSpline
70
1064
71
3
72
9
73
5
74
3
42
0.000000001
43
0.0000000001
44
0.0000000001
40
0
40
0
40
0
40
0
40
0.1086744626009343
40
0.23254575956005546
40
0.23254575956005546
40
0.23254575956005546
40
0.23254575956005546
10
46.219214886711214
20
35.509194072239012
30
0
10
46.36805263546502
20
35.848084065589866
30
0
10
46.6865413264306
20
36.573253797511782
30
0
10
47.353040835691772
20
37.00635994759412
30
0
10
47.708068417321272
20
37.237064737194103
30
0
11
46.219214886711214
21
35.509194072239012
31
0
11
46.74173116146703
21
36.462079492830327
31
0
11
47.708068417321272
21
37.237064737194103
31
0
0
SPLINE
5
282
100
AcDbEntity
8
0
100
AcDbSpline
70
1064
71
3
72
9
73
5
74
3
42
0.000000001
43
0.0000000001
44
0.0000000001
40
0
40
0
40
0
40
0
40
0.099964853905432846
40
0.18021854165254392
40
0.18021854165254392
40
0.18021854165254392
40
0.18021854165254392
10
47.708068417321272
20
37.237064737194103
30
0
10
48.002784533839325
20
37.399407424320323
30
0
10
48.53410435921149
20
37.692081911190684
30
0
10
49.132404710395207
20
37.783489740932851
30
0
10
49.398835728661091
20
37.824194850176887
30
0
11
47.708068417321272
21
37.237064737194103
31
0
11
48.612825167184667
21
37.662167577939798
31
0
11
49.398835728661091
21
37.824194850176887
31
0
0
SPLINE
5
283
100
AcDbEntity
8
0
100
AcDbSpline
70
1064
71
3
72
9
73
5
74
3
42
0.000000001
43
0.0000000001
44
0.0000000001
40
0
40
0
40
0
40
0
40
0.070173868630492658
40
0.14012399225738686
40
0.14012399225738686
40
0.14012399225738686
40
0.14012399225738686
10
49.398835728661091
20
37.824194850176887
30
0
10
49.636091696059438
20
37.817128165969756
30
0
10
50.109847155000971
20
37.803017329237349
30
0
10
50.528220767505786
20
37.580346974409082
30
0
10
50.737073551711248
20
37.46918957304365
30
0
11
49.398835728661091
21
37.824194850176887
31
0
11
50.096713918065106
21
37.750688274884972
31
0
11
50.737073551711248
21
37.46918957304365
31
0
0
SPLINE
5
284
100
AcDbEntity
8
0
100
AcDbSpline
70
1064
71
3
72
9
73
5
74
3
42
0.000000001
43
0.0000000001
44
0.0000000001
40
0
40
0
40
0
40
0
40
0.077824778679601331
40
0.1711013555903465
40
0.1711013555903465
40
0.1711013555903465
40
0.1711013555903465
10
50.737073551711248
20
37.46918957304365
30
0
10
50.943196057665297
20
37.308288103341866
30
0
10
51.396365867908017
20
36.954538821306699
30
0
10
51.69730892749179
20
36.463417304341078
30
0
10
51.861369219978471
20
36.195680477875221
30
0
11
50.737073551711248
21
37.46918957304365
31
0
11
51.323947646661665
21
36.95806491669353
31
0
11
51.861369219978471
21
36.195680477875221
31
0
0
SPLINE
5
285
100
AcDbEntity
8
0
100
AcDbSpline
70
1064
71
3
72
9
73
5
74
3
42
0.000000001
43
0.0000000001
44
0.0000000001
40
0
40
0
40
0
40
0
40
0.050592070101015019
40
0.089514127507741625
40
0.089514127507741625
40
0.089514127507741625
40
0.089514127507741625
10
49.746942866625162
20
35.815005600745735
30
0
10
49.643485461548913
20
35.952566617275714
30
0
10
49.460435048092336
20
36.195957614109275
30
0
10
49.183937476823573
20
36.319623821218094
30
0
10
49.063712271692523
20
36.373395704454573
30
0
11
49.746942866625162
21
35.815005600745735
31
0
11
49.406720411140498
21
36.189444429521004
31
0
11
49.063712271692523
21
36.373395704454573
31
0
0
SPLINE
5
286
100
AcDbEntity
8
0
100
AcDbSpline
70
1064
71
3
72
9
73
5
74
3
42
0.000000001
43
0.0000000001
44
0.0000000001
40
0
40
0
40
0
40
0
40
0.034435513724700099
40
0.07194309466923926
40
0.07194309466923926
40
0.07194309466923926
40
0.07194309466923926
10
49.063712271692523
20
36.373395704454573
30
0
10
48.947372001599227
20
36.390052734632775
30
0
10
48.704312492393655
20
36.424852804949701
30
0
10
48.483470381448406
20
36.316142614732094
30
0
10
48.368334197908837
20
36.259466483717297
30
0
11
49.063712271692523
21
36.373395704454573
31
0
11
48.719781582365236
21
36.390487851401623
31
0
11
48.368334197908837
21
36.259466483717297
31
0
0
SPLINE
5
287
100
AcDbEntity
8
0
100
AcDbSpline
70
1064
71
3
72
9
73
5
74
3
42
0.000000001
43
0.0000000001
44
0.0000000001
40
0
40
0
40
0
40
0
40
0.043627116788646038
40
0.087095462072338065
40
0.087095462072338065
40
0.087095462072338065
40
0.087095462072338065
10
48.368334197908837
20
36.259466483717297
30
0
10
48.246330128995993
20
36.171070485611423
30
0
10
48.002765998729267
20
35.994600187615909
30
0
10
47.934802922120966
20
35.70165089137538
30
0
10
47.900883330786826
20
35.555443260614751
30
0
11
48.368334197908837
21
36.259466483717297
31
0
11
48.046382457282903
21
35.965052474816666
31
0
11
47.900883330786826
21
35.555443260614751
31
0
0
SPLINE
5
288
100
AcDbEntity
8
0
100
AcDbSpline
70
1064
71
3
72
9
73
5
74
3
42
0.000000001
43
0.0000000001
44
0.0000000001
40
0
40
0
40
0
40
0
40
0.032700720628036556
40
0.074164755359641676
40
0.074164755359641676
40
0.074164755359641676
40
0.074164755359641676
10
47.900883330786826
20
35.555443260614751
30
0
10
47.900514564192761
20
35.445383242668612
30
0
10
47.899678206959393
20
35.19576873420867
30
0
10
47.996902306363907
20
34.9650127566903
30
0
10
48.05125836019176
20
34.836001694495735
30
0
11
47.900883330786826
21
35.555443260614751
31
0
11
47.918841004300113
21
35.228929501454012
31
0
11
48.05125836019176
21
34.836001694495735
31
0
0
SPLINE
5
289
100
AcDbEntity
8
0
100
AcDbSpline
70
1064
71
3
72
9
73
5
74
3
42
0.000000001
43
0.0000000001
44
0.0000000001
40
0
40
0
40
0
40
0
40
0.060880296707796266
40
0.11235244215348886
40
0.11235244215348886
40
0.11235244215348886
40
0.11235244215348886
10
53.246478490203046
20
39.323944597811618
30
0
10
53.282425581739986
20
39.525176651573489
30
0
10
53.348764672396456
20
39.896543315376448
30
0
10
53.524597627763185
20
40.229742267413172
30
0
10
53.605152169162629
20
40.382391062515957
30
0
11
53.246478490203046
21
39.323944597811618
31
0
11
53.386469564536881
21
39.916433881959257
31
0
11
53.605152169162629
21
40.382391062515957
31
0
0
SPLINE
5
290
100
AcDbEntity
8
0
100
AcDbSpline
70
1064
71
3
72
9
73
5
74
3
42
0.000000001
43
0.0000000001
44
0.0000000001
40
0
40
0
40
0
40
0
40
0.050039895353749093
40
0.10671523661382269
40
0.10671523661382269
40
0.10671523661382269
40
0.10671523661382269
10
53.605152169162629
20
40.382391062515957
30
0
10
53.706641772616514
20
40.516553108175458
30
0
10
53.92307881689608
20
40.8026675044174
30
0
10
54.227594180159599
20
40.993263226276341
30
0
10
54.389319091048868
20
41.094486612194103
30
0
11
53.605152169162629
21
40.382391062515957
31
0
11
53.928987381395046
21
40.763874834149561
31
0
11
54.389319091048868
21
41.094486612194103
31
0
0
SPLINE
5
291
100
AcDbEntity
8
0
100
AcDbSpline
70
1064
71
3
72
9
73
5
74
3
42
0.000000001
43
0.0000000001
44
0.0000000001
40
0
40
0
40
0
40
0
40
0.074513402597342224
40
0.14114243867529447
40
0.14114243867529447
40
0.14114243867529447
40
0.14114243867529447
10
54.389319091048868
20
41.094486612194103
30
0
10
54.618000088257091
20
41.208560549761955
30
0
10
55.051165029054197
20
41.424638103281112
30
0
10
55.527431251591715
20
41.34807048889904
30
0
10
55.752261994364744
20
41.311925255835575
30
0
11
54.389319091048868
21
41.094486612194103
31
0
11
55.087374868732255
21
41.355145101229468
31
0
11
55.752261994364744
21
41.311925255835575
31
0
0
SPLINE
5
292
100
AcDbEntity
8
0
100
AcDbSpline
70
1064
71
3
72
9
73
5
74
3
42
0.000000001
43
0.0000000001
44
0.0000000001
40
0
40
0
40
0
40
0
40
0.071496530968867822
40
0.1613751040648172
40
0.1613751040648172
40
0.1613751040648172
40
0.1613751040648172
10
55.752261994364744
20
41.311925255835575
30
0
10
55.970843253487715
20
41.205858881264696
30
0
10
56.464203881753015
20
40.966456045879497
30
0
10
56.753771424786585
20
40.496927785981242
30
0
10
56.915047339888702
20
40.235421959091546
30
0
11
55.752261994364744
21
41.311925255835575
31
0
11
56.368003347257712
21
40.948554948303752
31
0
11
56.915047339888702
21
40.235421959091546
31
0
0
SPLINE
5
293
100
AcDbEntity
8
0
100
AcDbSpline
70
1064
71
3
72
9
73
5
74
3
42
0.000000001
43
0.0000000001
44
0.0000000001
40
0
40
0
40
0
40
0
40
0.041870295132183828
40
0.072277811506893663
40
0.072277811506893663
40
0.072277811506893663
40
0.072277811506893663
10
55.40770168486997
20
38.852080593152174
30
0
10
55.335110953082577
20
38.975007055735908
30
0
10
55.209802564099078
20
39.187206555734349
30
0
10
54.996669518927035
20
39.307414761733725
30
0
10
54.907003735944073
20
39.357986754937357
30
0
11
55.40770168486997
21
38.852080593152174
31
0
11
55.160456885138494
21
39.189989116944275
31
0
11
54.907003735944073
21
39.357986754937357
31
0
0
SPLINE
5
294
100
AcDbEntity
8
0
100
AcDbSpline
70
1064
71
3
72
9
73
5
74
3
42
0.000000001
43
0.0000000001
44
0.0000000001
40
0
40
0
40
0
40
0
40
0.026621405417058555
40
0.056123049829027424
40
0.056123049829027424
40
0.056123049829027424
40
0.056123049829027424
10
54.907003735944073
20
39.357986754937357
30
0
10
54.817465674570329
20
39.375310275905008
30
0
10
54.628702196408767
20
39.411831594567566
30
0
10
54.455651816876376
20
39.326525418538353
30
0
10
54.364686148084786
20
39.281683370947832
30
0
11
54.907003735944073
21
39.357986754937357
31
0
11
54.641924973891307
21
39.382546326320217
31
0
11
54.364686148084786
21
39.281683370947832
31
0
0
SPLINE
5
295
100
AcDbEntity
8
0
100
AcDbSpline
70
1064
71
3
72
9
73
5
74
3
42
0.000000001
43
0.0000000001
44
0.0000000001
40
0
40
0
40
0
40
0
40
0.033421415934858596
40
0.066440927776063113
40
0.066440927776063113
40
0.066440927776063113
40
0.066440927776063113
10
54.364686148084786
20
39.281683370947832
30
0
10
54.27106949353545
20
39.214799227532062
30
0
10
54.084961957108113
20
39.081835245673453
30
0
10
54.02417684713825
20
38.86144122391525
30
0
10
53.993968138054846
20
38.75191079960053
30
0
11
54.364686148084786
21
39.281683370947832
31
0
11
54.115546977901403
21
39.058908196861012
31
0
11
53.993968138054846
21
38.75191079960053
31
0
0
SPLINE
5
296
100
AcDbEntity
8
0
100
AcDbSpline
70
1064
71
3
72
9
73
5
74
3
42
0.000000001
43
0.0000000001
44
0.0000000001
40
0
40
0
40
0
40
0
40
0.041756790762410081
40
0.10195577496364198
40
0.10195577496364198
40
0.10195577496364198
40
0.10195577496364198
10
53.993968138054846
20
38.75191079960053
30
0
10
54.000213973213903
20
38.611107780123042
30
0
10
54.015464162519905
20
38.267315053097391
30
0
10
54.18818922001725
20
37.96698000336535
30
0
10
54.2901733696267
20
37.789649539050373
30
0
11
53.993968138054846
21
38.75191079960053
31
0
11
54.039120108608728
21
38.336791230039339
31
0
11
54.2901733696267
21
37.789649539050373
31
0
0
SPLINE
5
297
100
AcDbEntity
8
0
100
AcDbSpline
70
1064
71
3
72
9
73
5
74
3
42
0.000000001
43
0.0000000001
44
0.0000000001
40
0
40
0
40
0
40
0
40
0.027633494266536818
40
0.044669629878011943
40
0.044669629878011943
40
0.044669629878011943
40
0.044669629878011943
10
60.719552449155202
20
40.813794562186594
30
0
10
60.765179149457978
20
40.732694933331366
30
0
10
60.838934853149354
20
40.601597129728795
30
0
10
60.951370528492689
20
40.50268026030821
30
0
10
60.994251327325102
20
40.464955273414134
30
0
11
60.719552449155202
21
40.813794562186594
31
0
11
60.871234981197674
21
40.582810991318325
31
0
11
60.994251327325102
21
40.464955273414134
31
0
0
SPLINE
5
298
100
AcDbEntity
8
0
100
AcDbSpline
70
1064
71
3
72
9
73
5
74
3
42
0.000000001
43
0.0000000001
44
0.0000000001
40
0
40
0
40
0
40
0
40
0.018312174406835132
40
0.039475097192742684
40
0.039475097192742684
40
0.039475097192742684
40
0.039475097192742684
10
60.994251327325102
20
40.464955273414134
30
0
10
61.054158454707526
20
40.443708357053723
30
0
10
61.183298753583045
20
40.397906909899525
30
0
10
61.306965279508319
20
40.459213172791131
30
0
10
61.373263916509238
20
40.492079962238989
30
0
11
60.994251327325102
21
40.464955273414134
31
0
11
61.172794777540304
21
40.424263633782772
31
0
11
61.373263916509238
21
40.492079962238989
31
0
0
SPLINE
5
299
100
AcDbEntity
8
0
100
AcDbSpline
70
1064
71
3
72
9
73
5
74
3
42
0.000000001
43
0.0000000001
44
0.0000000001
40
0
40
0
40
0
40
0
40
0.026557517986950462
40
0.062980320992291339
40
0.062980320992291339
40
0.062980320992291339
40
0.062980320992291339
10
61.373263916509238
20
40.492079962238989
30
0
10
61.445860281919352
20
40.543151162810531
30
0
10
61.618020285676103
20
40.664264913238519
30
0
10
61.760308042699066
20
40.819731997965476
30
0
10
61.842595952040682
20
40.909641781078811
30
0
11
61.373263916509238
21
40.492079962238989
31
0
11
61.585741317897714
21
40.651402057573947
31
0
11
61.842595952040682
21
40.909641781078811
31
0
0
SPLINE
5
300
100
AcDbEntity
8
0
100
AcDbSpline
70
1064
71
3
72
9
73
5
74
3
42
0.000000001
43
0.0000000001
44
0.0000000001
40
0
40
0
40
0
40
0
40
0.072306131918322164
40
0.13883445223082216
40
0.13883445223082216
40
0.13883445223082216
40
0.13883445223082216
10
62.655490298298169
20
39.794636222175356
30
0
10
62.47384772454447
20
39.635525310732028
30
0
10
62.125077204536879
20
39.330017663619408
30
0
10
61.731959208270489
20
39.08434084741328
30
0
10
61.543580318477794
20
38.966614550667117
30
0
11
62.655490298298169
21
39.794636222175356
31
0
11
62.0985337116159
21
39.33353207791918
31
0
11
61.543580318477794
21
38.966614550667117
31
0
0
SPLINE
5
301
100
AcDbEntity
8
0
100
AcDbSpline
70
1064
71
3
72
9
73
5
74
3
42
0.000000001
43
0.0000000001
44
0.0000000001
40
0
40
0
40
0
40
0
40
0.064628708701640225
40
0.11176634598967372
40
0.11176634598967372
40
0.11176634598967372
40
0.11176634598967372
10
61.543580318477794
20
38.966614550667117
30
0
10
61.354338484254363
20
38.859186323986471
30
0
10
61.02707110193392
20
38.673404175565764
30
0
10
60.657160559303847
20
38.610982809731418
30
0
10
60.501150189338574
20
38.584656497676853
30
0
11
61.543580318477794
21
38.966614550667117
31
0
11
60.96159617150736
21
38.685578162419546
31
0
11
60.501150189338574
21
38.584656497676853
31
0
0
SPLINE
5
302
100
AcDbEntity
8
0
100
AcDbSpline
70
1064
71
3
72
9
73
5
74
3
42
0.000000001
43
0.0000000001
44
0.0000000001
40
0
40
0
40
0
40
0
40
0.038874555493232946
40
0.078898914752871224
40
0.078898914752871224
40
0.078898914752871224
40
0.078898914752871224
10
60.501150189338574
20
38.584656497676853
30
0
10
60.369571576747589
20
38.592437655497285
30
0
10
60.10252261357877
20
38.6082301166525
30
0
10
59.875676030733025
20
38.750323463917411
30
0
10
59.760599807478542
20
38.822405509622961
30
0
11
60.501150189338574
21
38.584656497676853
31
0
11
60.116174143989582
21
38.638661599168245
31
0
11
59.760599807478542
21
38.822405509622961
31
0
0
SPLINE
5
303
100
AcDbEntity
8
0
100
AcDbSpline
70
1064
71
3
72
9
73
5
74
3
42
0.000000001
43
0.0000000001
44
0.0000000001
40
0
40
0
40
0
40
0
40
0.052522587231539047
40
0.12758858424600544
40
0.12758858424600544
40
0.12758858424600544
40
0.12758858424600544
10
59.760599807478542
20
38.822405509622961
30
0
10
59.634427399149743
20
38.944834177748682
30
0
10
59.327927666404044
20
39.242239565804375
30
0
10
59.113248485997694
20
39.612529068724925
30
0
10
58.986943246303383
20
39.830386731187346
30
0
11
59.760599807478542
21
38.822405509622961
31
0
11
59.397642542847173
21
39.202042495440708
31
0
11
58.986943246303383
21
39.830386731187346
31
0
0
SPLINE
5
304
100
AcDbEntity
8
0
100
AcDbSpline
70
1064
71
3
72
9
73
5
74
3
42
0.000000001
43
0.0000000001
44
0.0000000001
40
0
40
0
40
0
40
0
40
0.033521361315836475
40
0.061577623363105037
40
0.061577623363105037
40
0.061577623363105037
40
0.061577623363105037
10
64.027750949342348
20
42.408045428339285
30
0
10
64.116224722152566
20
42.336696725120504
30
0
10
64.278748093691391
20
42.20563153558787
30
0
10
64.482421853746672
20
42.162874929306255
30
0
10
64.575220569776491
20
42.143393980146925
30
0
11
64.027750949342348
21
42.408045428339285
31
0
11
64.305366975287342
21
42.220169116407213
31
0
11
64.575220569776491
21
42.143393980146925
31
0
0
SPLINE
5
305
100
AcDbEntity
8
0
100
AcDbSpline
70
1064
71
3
72
9
73
5
74
3
42
0.000000001
43
0.0000000001
44
0.0000000001
40
0
40
0
40
0
40
0
40
0.0280360723321629
40
0.061211585394341489
40
0.061211585394341489
40
0.061211585394341489
40
0.061211585394341489
10
64.575220569776491
20
42.143393980146925
30
0
10
64.669788609455438
20
42.147108989127076
30
0
10
64.876260456431794
20
42.15522002503598
30
0
10
65.059194277725496
20
42.252533079169666
30
0
10
65.158340923556437
20
42.305274900472511
30
0
11
64.575220569776491
21
42.143393980146925
31
0
11
64.853986847602087
21
42.173251936016115
31
0
11
65.158340923556437
21
42.305274900472511
31
0
0
SPLINE
5
306
100
AcDbEntity
8
0
100
AcDbSpline
70
1064
71
3
72
9
73
5
74
3
42
0.000000001
43
0.0000000001
44
0.0000000001
40
0
40
0
40
0
40
0
40
0.035778473325711886
40
0.065205774962444785
40
0.065205774962444785
40
0.065205774962444785
40
0.065205774962444785
10
65.158340923556437
20
42.305274900472511
30
0
10
65.261563062786635
20
42.3693705429489
30
0
10
65.449683990153019
20
42.486183968757786
30
0
10
65.560098833222881
20
42.677152137304617
30
0
10
65.60992894250478
20
42.763335882564576
30
0
11
65.158340923556437
21
42.305274900472511
31
0
11
65.444612154637085
21
42.519887802245535
31
0
11
65.60992894250478
21
42.763335882564576
31
0
0
SPLINE
5
307
100
AcDbEntity
8
0
100
AcDbSpline
70
1064
71
3
72
9
73
5
74
3
42
0.000000001
43
0.0000000001
44
0.0000000001
40
0
40
0
40
0
40
0
40
0.019190291757676614
40
0.037161595764772321
40
0.037161595764772321
40
0.037161595764772321
40
0.037161595764772321
10
65.60992894250478
20
42.763335882564576
30
0
10
65.63115421351155
20
42.826231702951262
30
0
10
65.672256503727425
20
42.948028134293608
30
0
10
65.623040652411703
20
43.066401472515651
30
0
10
65.599239924596858
20
43.123646679664134
30
0
11
65.60992894250478
21
42.763335882564576
31
0
11
65.649519600948835
21
42.95111050688439
31
0
11
65.599239924596858
21
43.123646679664134
31
0
0
SPLINE
5
308
100
AcDbEntity
8
0
100
AcDbSpline
70
1064
71
3
72
9
73
5
74
3
42
0.000000001
43
0.0000000001
44
0.0000000001
40
0
40
0
40
0
40
0
40
0.019853602088781223
40
0.041860140635314361
40
0.041860140635314361
40
0.041860140635314361
40
0.041860140635314361
10
65.599239924596858
20
43.123646679664134
30
0
10
65.555374307760189
20
43.177338569924615
30
0
10
65.462886260421143
20
43.290544731064983
30
0
10
65.31595235490289
20
43.296014136500446
30
0
10
65.238706874918705
20
43.298889489514437
30
0
11
65.599239924596858
21
43.123646679664134
31
0
11
65.455395724677317
21
43.26048745479887
31
0
11
65.238706874918705
21
43.298889489514437
31
0
0
SPLINE
5
309
100
AcDbEntity
8
0
100
AcDbSpline
70
1064
71
3
72
9
73
5
74
3
42
0.000000001
43
0.0000000001
44
0.0000000001
40
0
40
0
40
0
40
0
40
0.030847097924367694
40
0.087991782452552333
40
0.087991782452552333
40
0.087991782452552333
40
0.087991782452552333
10
65.238706874918705
20
43.298889489514437
30
0
10
65.137798461699049
20
43.278507600928094
30
0
10
64.849955787959445
20
43.220367975902157
30
0
10
64.574830835379174
20
43.116622136171955
30
0
10
64.39615587070837
20
43.049246261774918
30
0
11
65.238706874918705
21
43.298889489514437
31
0
11
64.937544616237005
21
43.232138916623342
31
0
11
64.39615587070837
21
43.049246261774918
31
0
0
SPLINE
5
310
100
AcDbEntity
8
0
100
AcDbSpline
70
1064
71
3
72
9
73
5
74
3
42
0.000000001
43
0.0000000001
44
0.0000000001
40
0
40
0
40
0
40
0
40
0.089463882132654077
40
0.14793301332385378
40
0.14793301332385378
40
0.14793301332385378
40
0.14793301332385378
10
64.39615587070837
20
43.049246261774918
30
0
10
64.115949721395623
20
42.94610183260027
30
0
10
63.652614808673569
20
42.775547349029466
30
0
10
63.172465886401064
20
42.66161113257639
30
0
10
62.982691543968095
20
42.616578915375229
30
0
11
64.39615587070837
21
43.049246261774918
31
0
11
63.54938796870519
21
42.760520196512942
31
0
11
62.982691543968095
21
42.616578915375229
31
0
0
SPLINE
5
311
100
AcDbEntity
8
0
100
AcDbSpline
70
1064
71
3
72
9
73
5
74
3
42
0.000000001
43
0.0000000001
44
0.0000000001
40
0
40
0
40
0
40
0
40
0.042470996721471685
40
0.086493891021476976
40
0.086493891021476976
40
0.086493891021476976
40
0.086493891021476976
10
62.982691543968095
20
42.616578915375229
30
0
10
62.839874103722558
20
42.60559196739333
30
0
10
62.549020649221063
20
42.583216606446754
30
0
10
62.273773179772469
20
42.680283595121381
30
0
10
62.133680161516736
20
42.729687890985261
30
0
11
62.982691543968095
21
42.616578915375229
31
0
11
62.558001972011688
21
42.612416737698389
31
0
11
62.133680161516736
21
42.729687890985261
31
0
0
SPLINE
5
312
100
AcDbEntity
8
0
100
AcDbSpline
70
1064
71
3
72
9
73
5
74
3
42
0.000000001
43
0.0000000001
44
0.0000000001
40
0
40
0
40
0
40
0
40
0.044226699222420077
40
0.089062412118012774
40
0.089062412118012774
40
0.089062412118012774
40
0.089062412118012774
10
62.133680161516736
20
42.729687890985261
30
0
10
62.001178228324235
20
42.799684879513734
30
0
10
61.734349774292966
20
42.940642734134364
30
0
10
61.564767044389079
20
43.190356076206996
30
0
10
61.479395871419428
20
43.316066524027917
30
0
11
62.133680161516736
21
42.729687890985261
31
0
11
61.760154443943762
21
42.966497161755285
31
0
11
61.479395871419428
21
43.316066524027917
31
0
0
SPLINE
5
313
100
AcDbEntity
8
0
100
AcDbSpline
70
1064
71
3
72
9
73
5
74
3
42
0.000000001
43
0.0000000001
44
0.0000000001
40
0
40
0
40
0
40
0
40
0.048306848844433342
40
0.094690033845523297
40
0.094690033845523297
40
0.094690033845523297
40
0.094690033845523297
10
61.479395871419428
20
43.316066524027917
30
0
10
61.407400712627542
20
43.463507033059045
30
0
10
61.266277369130798
20
43.752516710244109
30
0
10
61.285857287425827
20
44.073261644952552
30
0
10
61.295448359851321
20
44.230376084989764
30
0
11
61.479395871419428
21
43.316066524027917
31
0
11
61.305235165402401
21
43.766647496781488
31
0
11
61.295448359851321
21
44.230376084989764
31
0
0
SPLINE
5
314
100
AcDbEntity
8
0
100
AcDbSpline
70
1064
71
3
72
9
73
5
74
3
42
0.000000001
43
0.0000000001
44
0.0000000001
40
0
40
0
40
0
40
0
40
0.047954371033728925
40
0.099872727631744276
40
0.099872727631744276
40
0.099872727631744276
40
0.099872727631744276
10
61.295448359851321
20
44.230376084989764
30
0
10
61.333903131294335
20
44.387496816170909
30
0
10
61.413991407538624
20
44.714726131294611
30
0
10
61.621900419041552
20
44.980307448373281
30
0
10
61.729980917643239
20
45.118368617351294
30
0
11
61.295448359851321
21
44.230376084989764
31
0
11
61.440281571640242
21
44.687525416047961
31
0
11
61.729980917643239
21
45.118368617351294
31
0
0
SPLINE
5
315
100
AcDbEntity
8
0
100
AcDbSpline
70
1064
71
3
72
9
73
5
74
3
42
0.000000001
43
0.0000000001
44
0.0000000001
40
0
40
0
40
0
40
0
40
0.062720505830965681
40
0.14183610140452685
40
0.14183610140452685
40
0.14183610140452685
40
0.14183610140452685
10
61.729980917643239
20
45.118368617351294
30
0
10
61.878631379386306
20
45.266468057998281
30
0
10
62.214789413928308
20
45.601380013877119
30
0
10
62.623082728459238
20
45.844261963313116
30
0
10
62.850827064548191
20
45.979740518444103
30
0
11
61.729980917643239
21
45.118368617351294
31
0
11
62.19003795779949
21
45.544670980670901
31
0
11
62.850827064548191
21
45.979740518444103
31
0
0
SPLINE
5
316
100
AcDbEntity
8
0
100
AcDbSpline
70
1064
71
3
72
9
73
5
74
3
42
0.000000001
43
0.0000000001
44
0.0000000001
40
0
40
0
40
0
40
0
40
0.080644142332869193
40
0.13779195591916835
40
0.13779195591916835
40
0.13779195591916835
40
0.13779195591916835
10
62.850827064548191
20
45.979740518444103
30
0
10
63.084840642914799
20
46.11411532832102
30
0
10
63.484686034557505
20
46.343713751015876
30
0
10
63.923608372746912
20
46.482954876263548
30
0
10
64.105646952534727
20
46.540703718103543
30
0
11
62.850827064548191
21
45.979740518444103
31
0
11
63.566252804901865
21
46.351914912108967
31
0
11
64.105646952534727
21
46.540703718103543
31
0
0
SPLINE
5
317
100
AcDbEntity
8
0
100
AcDbSpline
70
1064
71
3
72
9
73
5
74
3
42
0.000000001
43
0.0000000001
44
0.0000000001
40
0
40
0
40
0
40
0
40
0.044483366536432603
40
0.086484247097840528
40
0.086484247097840528
40
0.086484247097840528
40
0.086484247097840528
10
64.105646952534727
20
46.540703718103543
30
0
10
64.253265284537022
20
46.565641036549408
30
0
10
64.540263803199068
20
46.614123994975301
30
0
10
64.825415044288007
20
46.556677333894108
30
0
10
64.963898104739073
20
46.528778491831076
30
0
11
64.105646952534727
21
46.540703718103543
31
0
11
64.548013236055496
21
46.587491120740133
31
0
11
64.963898104739073
21
46.528778491831076
31
0
0
SPLINE
5
318
100
AcDbEntity
8
0
100
AcDbSpline
70
1064
71
3
72
9
73
5
74
3
42
0.000000001
43
0.0000000001
44
0.0000000001
40
0
40
0
40
0
40
0
40
0.04436680731565984
40
0.094976693678014715
40
0.094976693678014715
40
0.094976693678014715
40
0.094976693678014715
10
64.963898104739073
20
46.528778491831076
30
0
10
65.104264965490643
20
46.479361029384251
30
0
10
65.404750421685264
20
46.37357232207961
30
0
10
65.658570537577091
20
46.180510911715061
30
0
10
65.793822742347615
20
46.077634978039903
30
0
11
64.963898104739073
21
46.528778491831076
31
0
11
65.374815664607155
21
46.361481994167342
31
0
11
65.793822742347615
21
46.077634978039903
31
0
0
SPLINE
5
319
100
AcDbEntity
8
0
100
AcDbSpline
70
1064
71
3
72
9
73
5
74
3
42
0.000000001
43
0.0000000001
44
0.0000000001
40
0
40
0
40
0
40
0
40
0.02371088169348998
40
0.04468744930816726
40
0.04468744930816726
40
0.04468744930816726
40
0.04468744930816726
10
64.25434126841796
20
44.974563858197087
30
0
10
64.19329216063241
20
45.027212931485714
30
0
10
64.078234064322771
20
45.12643964199448
30
0
10
63.929582015722588
20
45.155840550678533
30
0
10
63.859803816322149
20
45.1696415207158
30
0
11
64.25434126841796
21
44.974563858197087
31
0
11
64.061736248517136
21
45.112853038458134
31
0
11
63.859803816322149
21
45.1696415207158
31
0
0
SPLINE
5
320
100
AcDbEntity
8
0
100
AcDbSpline
70
1064
71
3
72
9
73
5
74
3
42
0.000000001
43
0.0000000001
44
0.0000000001
40
0
40
0
40
0
40
0
40
0.028408570718337609
40
0.059417313509953676
40
0.059417313509953676
40
0.059417313509953676
40
0.059417313509953676
10
63.859803816322149
20
45.1696415207158
30
0
10
63.763912893834387
20
45.166874356441973
30
0
10
63.563354370116173
20
45.16108675562171
30
0
10
63.384498186220569
20
45.06953430976472
30
0
10
63.291156614959867
20
45.021754865057126
30
0
11
63.859803816322149
21
45.1696415207158
31
0
11
63.577092163975593
21
45.141734341471789
31
0
11
63.291156614959867
21
45.021754865057126
31
0
0
SPLINE
5
321
100
AcDbEntity
8
0
100
AcDbSpline
70
1064
71
3
72
9
73
5
74
3
42
0.000000001
43
0.0000000001
44
0.0000000001
40
0
40
0
40
0
40
0
40
0.029333981221442252
40
0.051458699190670594
40
0.051458699190670594
40
0.051458699190670594
40
0.051458699190670594
10
63.291156614959867
20
45.021754865057126
30
0
10
63.205673491709405
20
44.970623626239401
30
0
10
63.055715997293021
20
44.880927412905635
30
0
10
62.964372423573835
20
44.733040825016417
30
0
10
62.925099164851332
20
44.669456842134217
30
0
11
63.291156614959867
21
45.021754865057126
31
0
11
63.053754183924127
21
44.849451843701395
31
0
11
62.925099164851332
21
44.669456842134217
31
0
0
SPLINE
5
322
100
AcDbEntity
8
0
100
AcDbSpline
70
1064
71
3
72
9
73
5
74
3
42
0.000000001
43
0.0000000001
44
0.0000000001
40
0
40
0
40
0
40
0
40
0.017305592670404275
40
0.033500969768024025
40
0.033500969768024025
40
0.033500969768024025
40
0.033500969768024025
10
62.925099164851332
20
44.669456842134217
30
0
10
62.907026077550483
20
44.612491477620694
30
0
10
62.872039356043025
20
44.502215280165998
30
0
10
62.916540912249474
20
44.395751367680916
30
0
10
62.938054303926933
20
44.344283508036156
30
0
11
62.925099164851332
21
44.669456842134217
31
0
11
62.892090909783029
21
44.499578035731709
31
0
11
62.938054303926933
21
44.344283508036156
31
0
0
SPLINE
5
323
100
AcDbEntity
8
0
100
AcDbSpline
70
1064
71
3
72
9
73
5
74
3
42
0.000000001
43
0.0000000001
44
0.0000000001
40
0
40
0
40
0
40
0
40
0.017421875684250618
40
0.036411952094110245
40
0.036411952094110245
40
0.036411952094110245
40
0.036411952094110245
10
62.938054303926933
20
44.344283508036156
30
0
10
62.976361148961637
20
44.296840412186285
30
0
10
63.056422965011734
20
44.197683710313839
30
0
10
63.184464714588572
20
44.19424396324483
30
0
10
63.251242859353582
20
44.19245001768811
30
0
11
62.938054303926933
21
44.344283508036156
31
0
11
63.063958864658588
21
44.223866661944278
31
0
11
63.251242859353582
21
44.19245001768811
31
0
0
SPLINE
5
324
100
AcDbEntity
8
0
100
AcDbSpline
70
1064
71
3
72
9
73
5
74
3
42
0.000000001
43
0.0000000001
44
0.0000000001
40
0
40
0
40
0
40
0
40
0.032364060663611721
40
0.08695392625087256
40
0.08695392625087256
40
0.08695392625087256
40
0.08695392625087256
10
63.251242859353582
20
44.19245001768811
30
0
10
63.357034954336029
20
44.214700306773096
30
0
10
63.641271166863376
20
44.274481124027986
30
0
10
63.907670623386792
20
44.391536226898943
30
0
10
64.074916786396997
20
44.465023677179119
30
0
11
63.251242859353582
21
44.19245001768811
31
0
11
63.566148196952753
21
44.267135160891691
31
0
11
64.074916786396997
21
44.465023677179119
31
0
0
SPLINE
5
325
100
AcDbEntity
8
0
100
AcDbSpline
70
1064
71
3
72
9
73
5
74
3
42
0.000000001
43
0.0000000001
44
0.0000000001
40
0
40
0
40
0
40
0
40
0.087462676125981922
40
0.15104666350071308
40
0.15104666350071308
40
0.15104666350071308
40
0.15104666350071308
10
64.074916786396997
20
44.465023677179119
30
0
10
64.343499559319255
20
44.58076234381484
30
0
10
64.807337776037443
20
44.780641197374784
30
0
10
65.300581921983536
20
44.886945852128974
30
0
10
65.50821596580569
20
44.931695425996487
30
0
11
64.074916786396997
21
44.465023677179119
31
0
11
64.890524679316158
21
44.780864992588931
31
0
11
65.50821596580569
21
44.931695425996487
31
0
0
SPLINE
5
326
100
AcDbEntity
8
0
100
AcDbSpline
70
1064
71
3
72
9
73
5
74
3
42
0.000000001
43
0.0000000001
44
0.0000000001
40
0
40
0
40
0
40
0
40
0.049041586628181186
40
0.094287701729678625
40
0.094287701729678625
40
0.094287701729678625
40
0.094287701729678625
10
65.50821596580569
20
44.931695425996487
30
0
10
65.673442062390905
20
44.944899413304853
30
0
10
65.9911069257017
20
44.970285492805345
30
0
10
66.289293448328195
20
44.858999880746069
30
0
10
66.432385086760036
20
44.805596928717293
30
0
11
65.50821596580569
21
44.931695425996487
31
0
11
65.998624737681638
21
44.934333297879903
31
0
11
66.432385086760036
21
44.805596928717293
31
0
0
SPLINE
5
327
100
AcDbEntity
8
0
100
AcDbSpline
70
1064
71
3
72
9
73
5
74
3
42
0.000000001
43
0.0000000001
44
0.0000000001
40
0
40
0
40
0
40
0
40
0.043509462423578553
40
0.086600455639857021
40
0.086600455639857021
40
0.086600455639857021
40
0.086600455639857021
10
66.432385086760036
20
44.805596928717293
30
0
10
66.56094661527672
20
44.733881103875532
30
0
10
66.816833181718621
20
44.591139209079827
30
0
10
66.982022357225631
20
44.3491957884995
30
0
10
67.064217832856599
20
44.228808635592287
30
0
11
66.432385086760036
21
44.805596928717293
31
0
11
66.795175661957458
21
44.565408813718221
31
0
11
67.064217832856599
21
44.228808635592287
31
0
0
SPLINE
5
328
100
AcDbEntity
8
0
100
AcDbSpline
70
1064
71
3
72
9
73
5
74
3
42
0.000000001
43
0.0000000001
44
0.0000000001
40
0
40
0
40
0
40
0
40
0.044835712895592704
40
0.092557711687966421
40
0.092557711687966421
40
0.092557711687966421
40
0.092557711687966421
10
67.064217832856599
20
44.228808635592287
30
0
10
67.128573453140092
20
44.09184164227247
30
0
10
67.261427567929644
20
43.809090445520347
30
0
10
67.263405780199633
20
43.49638945648401
30
0
10
67.264425730259291
20
43.33516338521428
30
0
11
67.064217832856599
21
44.228808635592287
31
0
11
67.226574494707279
21
43.810879898319641
31
0
11
67.264425730259291
21
43.33516338521428
31
0
0
SPLINE
5
329
100
AcDbEntity
8
0
100
AcDbSpline
70
1064
71
3
72
9
73
5
74
3
42
0.000000001
43
0.0000000001
44
0.0000000001
40
0
40
0
40
0
40
0
40
0.051673965194963867
40
0.11037874484658954
40
0.11037874484658954
40
0.11037874484658954
40
0.11037874484658954
10
67.264425730259291
20
43.33516338521428
30
0
10
67.239018450334896
20
43.162532421675621
30
0
10
67.184746949058805
20
42.793782142784465
30
0
10
66.975210775470316
20
42.484583329948428
30
0
10
66.863769257298955
20
42.320136377762921
30
0
11
67.264425730259291
21
43.33516338521428
31
0
11
67.154175193054016
21
42.830322135965588
31
0
11
66.863769257298955
21
42.320136377762921
31
0
0
SPLINE
5
330
100
AcDbEntity
8
0
100
AcDbSpline
70
1064
71
3
72
9
73
5
74
3
42
0.000000001
43
0.0000000001
44
0.0000000001
40
0
40
0
40
0
40
0
40
0.071218167940768295
40
0.1613991345843247
40
0.1613991345843247
40
0.1613991345843247
40
0.1613991345843247
10
66.863769257298955
20
42.320136377762921
30
0
10
66.703042631477047
20
42.143768793897458
30
0
10
66.338793745800984
20
41.744073375892739
30
0
10
65.873791041199397
20
41.466250742931159
30
0
10
65.613973084301193
20
41.311018723500212
30
0
11
66.863769257298955
21
42.320136377762921
31
0
11
66.36197201324299
21
41.814762980815878
31
0
11
65.613973084301193
21
41.311018723500212
31
0
0
SPLINE
5
331
100
AcDbEntity
8
0
100
AcDbSpline
70
1064
71
3
72
9
73
5
74
3
42
0.000000001
43
0.0000000001
44
0.0000000001
40
0
40
0
40
0
40
0
40
0.1221251097710857
40
0.20857726659784259
40
0.20857726659784259
40
0.20857726659784259
40
0.20857726659784259
10
65.613973084301193
20
41.311018723500212
30
0
10
65.255530485922392
20
41.106102837124695
30
0
10
64.643346983756345
20
40.756127344428812
30
0
10
63.945640007997717
20
40.680258657776314
30
0
10
63.656450903780957
20
40.648812222104247
30
0
11
65.613973084301193
21
41.311018723500212
31
0
11
64.509325467634824
21
40.790242488776215
31
0
11
63.656450903780957
21
40.648812222104247
31
0
0
SPLINE
5
332
100
AcDbEntity
8
0
100
AcDbSpline
70
1064
71
3
72
9
73
5
74
3
42
0.000000001
43
0.0000000001
44
0.0000000001
40
0
40
0
40
0
40
0
40
0.069571511259894275
40
0.14134927021383792
40
0.14134927021383792
40
0.14134927021383792
40
0.14134927021383792
10
63.656450903780957
20
40.648812222104247
30
0
10
63.422604338088618
20
40.688418375692152
30
0
10
62.947495478096407
20
40.768886670892933
30
0
10
62.592448382500308
20
41.095283368516689
30
0
10
62.412153961408201
20
41.261028995996476
30
0
11
63.656450903780957
21
40.648812222104247
31
0
11
62.983996969297422
21
40.827208477379322
31
0
11
62.412153961408201
21
41.261028995996476
31
0
0
ENDSEC
0
SECTION
2
OBJECTS
0
DICTIONARY
5
C
100
AcDbDictionary
3
ACAD_GROUP
350
D
3
ACAD_MLINESTYLE
350
17
0
DICTIONARY
5
D
100
AcDbDictionary
0
DICTIONARY
5
1A
330
C
100
AcDbDictionary
0
DICTIONARY
5
17
100
AcDbDictionary
0
ENDSEC
0
EOF
