0
SECTION
2
HEADER
9
$INSUNITS
70
4
9
$ACADVER
1
AC1014
9
$HANDSEED
5
FFFF
0
ENDSEC
0
SECTION
2
TABLES
0
TABLE
2
VPORT
5
8
100
AcDbSymbolTable
0
ENDTAB
0
TABLE
2
LTYPE
5
5
100
AcDbSymbolTable
0
LTYPE
5
14
100
AcDbSymbolTableRecord
100
AcDbLinetypeTableRecord
2
BYBLOCK
70
0
0
LTYPE
5
15
100
AcDbSymbolTableRecord
100
AcDbLinetypeTableRecord
2
BYLAYER
70
0
0
ENDTAB
0
TABLE
2
LAYER
5
2
100
AcDbSymbolTable
70
2
0
LAYER
5
50
100
AcDbSymbolTableRecord
100
AcDbLayerTableRecord
2
0
70
0
6
CONTINUOUS
0
ENDTAB
0
TABLE
2
STYLE
5
3
100
AcDbSymbolTable
70
1
0
STYLE
5
11
100
AcDbSymbolTableRecord
100
AcDbTextStyleTableRecord
2
STANDARD
70
0
0
ENDTAB
0
TABLE
2
VIEW
5
6
100
AcDbSymbolTable
70
0
0
ENDTAB
0
TABLE
2
UCS
5
7
100
AcDbSymbolTable
70
0
0
ENDTAB
0
TABLE
2
APPID
5
9
100
AcDbSymbolTable
70
2
0
APPID
5
12
100
AcDbSymbolTableRecord
100
AcDbRegAppTableRecord
2
ACAD
70
0
0
ENDTAB
0
TABLE
2
DIMSTYLE
5
A
100
AcDbSymbolTable
70
1
0
ENDTAB
0
TABLE
2
BLOCK_RECORD
5
1
100
AcDbSymbolTable
70
1
0
BLOCK_RECORD
5
1F
100
AcDbSymbolTableRecord
100
AcDbBlockTableRecord
2
*MODEL_SPACE
0
BLOCK_RECORD
5
1B
100
AcDbSymbolTableRecord
100
AcDbBlockTableRecord
2
*PAPER_SPACE
0
ENDTAB
0
ENDSEC
0
SECTION
2
BLOCKS
0
BLOCK
5
20
100
AcDbEntity
100
AcDbBlockBegin
2
*MODEL_SPACE
0
ENDBLK
5
21
100
AcDbEntity
100
AcDbBlockEnd
0
BLOCK
5
1C
100
AcDbEntity
100
AcDbBlockBegin
2
*PAPER_SPACE
0
ENDBLK
5
1D
100
AcDbEntity
100
AcDbBlockEnd
0
ENDSEC
0
SECTION
2
ENTITIES
0
LINE
5
100
100
AcDbEntity
8
0
100
AcDbLine
10
0
20
0
30
0
11
0
21
100
31
0
0
LINE
5
101
100
AcDbEntity
8
0
100
AcDbLine
10
0
20
0
30
0
11
70.710678118654741
21
70.710678118654783
31
0
0
ARC
5
102
100
AcDbEntity
8
0
100
AcDbCircle
10
0
20
0
30
0
40
100.00000000000003
100
AcDbArc
50
45.000000000000007
51
90
0
LINE
5
103
100
AcDbEntity
8
0
100
AcDbLine
10
16.047341153360584
20
22.298267119817432
30
0
11
17.311018311145141
21
23.824347184682928
31
0
0
LINE
5
104
100
AcDbEntity
8
0
100
AcDbLine
10
18.067153003917863
20
27.825991517667347
30
0
11
16.865623903073534
21
26.362059509742075
31
0
0
LINE
5
105
100
AcDbEntity
8
0
100
AcDbLine
10
24.216357971170016
20
31.406410131390246
30
0
11
21.398979389879862
21
28.589031550100096
31
0
0
LINE
5
106
100
AcDbEntity
8
0
100
AcDbLine
10
23.159841003186209
20
29.535063083523504
30
0
11
24.672110388731653
21
30.791834901648031
31
0
0
LINE
5
107
100
AcDbEntity
8
0
100
AcDbLine
10
24.057535158989442
20
31.56523294357082
30
0
11
24.216357971170016
21
31.406410131390246
31
0
0
LINE
5
108
100
AcDbEntity
8
0
100
AcDbLine
10
20.729161442857453
20
29.265754836782534
30
0
11
22.113682044692439
21
30.650275438617523
31
0
0
LINE
5
109
100
AcDbEntity
8
0
100
AcDbLine
10
25.231442901193674
20
36.785669726549628
30
0
11
26.546910106428413
21
38.101136931784367
31
0
0
LINE
5
110
100
AcDbEntity
8
0
100
AcDbLine
10
26.546910106428413
20
38.101136931784367
30
0
11
30.009937945930893
21
34.638109092281894
31
0
0
LINE
5
111
100
AcDbEntity
8
0
100
AcDbLine
10
30.009937945930893
20
34.638109092281894
30
0
11
30.175666097771487
21
34.479286280101313
31
0
0
LINE
5
112
100
AcDbEntity
8
0
100
AcDbLine
10
26.363918605437753
20
30.418946560006688
30
0
11
27.883093330643227
21
31.627381000511043
31
0
0
LINE
5
113
100
AcDbEntity
8
0
100
AcDbLine
10
28.677207391546084
20
33.139650386056488
30
0
11
28.121327548914081
21
33.69553022868849
31
0
0
LINE
5
114
100
AcDbEntity
8
0
100
AcDbLine
10
25.773512064505624
20
36.243600563237678
30
0
11
25.231442901193674
21
36.785669726549628
31
0
0
LINE
5
115
100
AcDbEntity
8
0
100
AcDbLine
10
27.406624894101512
20
38.960851719457466
30
0
11
28.718639429506236
21
40.272866254862194
31
0
0
LINE
5
116
100
AcDbEntity
8
0
100
AcDbLine
10
28.718639429506236
20
40.272866254862194
30
0
11
29.253803253158168
21
39.737702431210266
31
0
0
LINE
5
117
100
AcDbEntity
8
0
100
AcDbLine
10
34.992140510638833
20
43.818758170284966
30
0
11
37.295071287257137
21
41.515827393666669
31
0
0
LINE
5
118
100
AcDbEntity
8
0
100
AcDbLine
10
37.295071287257137
20
41.515827393666669
30
0
11
35.886381996612059
21
40.107138103021597
31
0
0
LINE
5
119
100
AcDbEntity
8
0
100
AcDbLine
10
35.886381996612059
20
40.107138103021597
30
0
11
33.79751674945453
21
42.196003350179119
31
0
0
LINE
5
120
100
AcDbEntity
8
0
100
AcDbLine
10
32.993044679061633
20
40.997926919164804
30
0
11
34.885107745908449
21
39.105863852317988
31
0
0
LINE
5
121
100
AcDbEntity
8
0
100
AcDbLine
10
34.885107745908449
20
39.105863852317988
30
0
11
33.476418455263378
21
37.697174561672917
31
0
0
LINE
5
122
100
AcDbEntity
8
0
100
AcDbLine
10
33.476418455263378
20
37.697174561672917
30
0
11
31.456606604706103
21
39.716986412230185
31
0
0
LINE
5
123
100
AcDbEntity
8
0
100
AcDbLine
10
30.610702496353056
20
38.574152698496071
30
0
11
32.482049544219798
21
36.70280565062933
31
0
0
LINE
5
124
100
AcDbEntity
8
0
100
AcDbLine
10
32.482049544219798
20
36.70280565062933
30
0
11
31.073360253574723
21
35.294116359984251
31
0
0
LINE
5
125
100
AcDbEntity
8
0
100
AcDbLine
10
31.073360253574723
20
35.294116359984251
30
0
11
27.406624894101512
21
38.960851719457466
31
0
0
LINE
5
126
100
AcDbEntity
8
0
100
AcDbLine
10
40.72011975862948
20
47.910171918849713
30
0
11
37.902741177339323
21
45.092793337559556
31
0
0
LINE
5
127
100
AcDbEntity
8
0
100
AcDbLine
10
39.663602790645662
20
46.038824870982964
30
0
11
41.175872176191113
21
47.295596689107491
31
0
0
LINE
5
128
100
AcDbEntity
8
0
100
AcDbLine
10
40.561296946448905
20
48.068994731030287
30
0
11
40.72011975862948
21
47.910171918849713
31
0
0
LINE
5
129
100
AcDbEntity
8
0
100
AcDbLine
10
37.232923230316914
20
45.769516624242002
30
0
11
38.617443832151899
21
47.154037226076994
31
0
0
LINE
5
130
100
AcDbEntity
8
0
100
AcDbLine
10
39.183681684273935
20
50.737908509629897
30
0
11
40.492243549848652
21
52.046470375204606
31
0
0
LINE
5
131
100
AcDbEntity
8
0
100
AcDbLine
10
40.492243549848652
20
52.046470375204606
30
0
11
41.089555430440811
21
51.449158494612455
31
0
0
LINE
5
132
100
AcDbEntity
8
0
100
AcDbLine
10
44.397213127592721
20
53.279073504519054
30
0
11
46.727765262851122
21
50.948521369260654
31
0
0
LINE
5
133
100
AcDbEntity
8
0
100
AcDbLine
10
46.727765262851122
20
50.948521369260654
30
0
11
45.315623302376025
21
49.536379408785571
31
0
0
LINE
5
134
100
AcDbEntity
8
0
100
AcDbLine
10
45.315623302376025
20
49.536379408785571
30
0
11
43.299264121648761
21
51.552738589512835
31
0
0
LINE
5
135
100
AcDbEntity
8
0
100
AcDbLine
10
42.494792051255871
20
50.237271384278088
30
0
11
44.255653664562217
21
48.476409770971749
31
0
0
LINE
5
136
100
AcDbEntity
8
0
100
AcDbLine
10
44.255653664562217
20
48.476409770971749
30
0
11
42.850417043747143
21
47.071173150156689
31
0
0
LINE
5
137
100
AcDbEntity
8
0
100
AcDbLine
10
42.850417043747143
20
47.071173150156689
30
0
11
39.183681684273935
21
50.737908509629897
31
0
0
LINE
5
138
100
AcDbEntity
8
0
100
AcDbLine
10
44.200410947282009
20
58.544394995288023
30
0
11
45.595289558607035
21
57.149516383963004
31
0
0
LINE
5
139
100
AcDbEntity
8
0
100
AcDbLine
10
45.595289558607035
20
57.149516383963004
30
0
11
46.36868760052981
21
57.922914425885786
31
0
0
LINE
5
140
100
AcDbEntity
8
0
100
AcDbLine
10
46.36868760052981
20
57.922914425885786
30
0
11
47.39413054004352
21
56.897471486372083
31
0
0
LINE
5
141
100
AcDbEntity
8
0
100
AcDbLine
10
47.39413054004352
20
56.897471486372083
30
0
11
46.620732498120731
21
56.124073444449309
31
0
0
LINE
5
142
100
AcDbEntity
8
0
100
AcDbLine
10
46.620732498120731
20
56.124073444449309
30
0
11
47.922389024035411
21
54.822416918534614
31
0
0
LINE
5
143
100
AcDbEntity
8
0
100
AcDbLine
10
48.982358661849233
20
55.20566326966599
30
0
11
50.056138978983107
21
54.339043142332869
31
0
0
LINE
5
144
100
AcDbEntity
8
0
100
AcDbLine
10
46.503341723900306
20
53.424085637379584
30
0
11
45.212043207475652
21
54.71538415380423
31
0
0
LINE
5
145
100
AcDbEntity
8
0
100
AcDbLine
10
45.212043207475652
20
54.71538415380423
30
0
11
44.694142732973788
21
54.197483679302366
31
0
0
LINE
5
146
100
AcDbEntity
8
0
100
AcDbLine
10
44.694142732973788
20
54.197483679302366
30
0
11
43.668699793460092
21
55.222926618816061
31
0
0
LINE
5
147
100
AcDbEntity
8
0
100
AcDbLine
10
43.668699793460092
20
55.222926618816061
30
0
11
44.186600267961957
21
55.740827093317918
31
0
0
LINE
5
148
100
AcDbEntity
8
0
100
AcDbLine
10
44.186600267961957
20
55.740827093317918
30
0
11
43.51332965110953
21
56.414097710170346
31
0
0
LINE
5
149
100
AcDbEntity
8
0
100
AcDbLine
10
43.51332965110953
20
56.414097710170346
30
0
11
44.200410947282009
21
58.544394995288023
31
0
0
LINE
5
150
100
AcDbEntity
8
0
100
AcDbLine
10
49.441563749240885
20
55.692489715697747
30
0
11
50.705240907025441
21
57.218569780563243
31
0
0
LINE
5
151
100
AcDbEntity
8
0
100
AcDbLine
10
51.461375599798167
20
61.220214113547669
30
0
11
50.259846498953841
21
59.756282105622404
31
0
0
SPLINE
5
152
100
AcDbEntity
8
0
100
AcDbSpline
70
1064
71
3
72
9
73
5
74
3
42
0.000000001
43
0.0000000001
44
0.0000000001
40
0
40
0
40
0
40
0
40
0.048349707011426865
40
0.088759221339943628
40
0.088759221339943628
40
0.088759221339943628
40
0.088759221339943628
10
8.2270439883824107
20
17.889207746891543
30
0
10
8.0703092213699339
20
17.845616392480895
30
0
10
7.7825793314320881
20
17.765592439621614
30
0
10
7.4853745976869401
20
17.788849886374333
30
0
10
7.3500658515592523
20
17.799438331311222
30
0
11
8.2270439883824107
21
17.889207746891543
31
0
11
7.7540282216707066
21
17.789080321821181
31
0
11
7.3500658515592523
21
17.799438331311222
31
0
0
SPLINE
5
153
100
AcDbEntity
8
0
100
AcDbSpline
70
1064
71
3
72
9
73
5
74
3
42
0.000000001
43
0.0000000001
44
0.0000000001
40
0
40
0
40
0
40
0
40
0.050227149930275841
40
0.10225889572400275
40
0.10225889572400275
40
0.10225889572400275
40
0.10225889572400275
10
7.3500658515592523
20
17.799438331311222
30
0
10
7.185832275515307
20
17.842839029423128
30
0
10
6.8514644256498229
20
17.931199756016923
30
0
10
6.5915351840076681
20
18.159660523513445
30
0
10
6.4592770354160418
20
18.275906767852938
30
0
11
7.3500658515592523
21
17.799438331311222
31
0
11
6.8753237499325417
21
17.96344014823681
31
0
11
6.4592770354160418
21
18.275906767852938
31
0
0
SPLINE
5
154
100
AcDbEntity
8
0
100
AcDbSpline
70
1064
71
3
72
9
73
5
74
3
42
0.000000001
43
0.0000000001
44
0.0000000001
40
0
40
0
40
0
40
0
40
0.084351380892373762
40
0.17533971279842117
40
0.17533971279842117
40
0.17533971279842117
40
0.17533971279842117
10
6.4592770354160418
20
18.275906767852938
30
0
10
6.2832661156060716
20
18.508817852856993
30
0
10
5.9173953521120666
20
18.992965976102152
30
0
10
5.9831918073211803
20
19.598332073353252
30
0
10
6.0173352971744496
20
19.912472267278833
30
0
11
6.4592770354160418
21
18.275906767852938
31
0
11
6.0311459764944999
21
19.002693767070554
31
0
11
6.0173352971744496
21
19.912472267278833
31
0
0
SPLINE
5
155
100
AcDbEntity
8
0
100
AcDbSpline
70
1064
71
3
72
9
73
5
74
3
42
0.000000001
43
0.0000000001
44
0.0000000001
40
0
40
0
40
0
40
0
40
0.083332906165617615
40
0.18172650010752023
40
0.18172650010752023
40
0.18172650010752023
40
0.18172650010752023
10
6.0173352971744496
20
19.912472267278833
30
0
10
6.1038785066679191
20
20.179952153843303
30
0
10
6.2926058089182906
20
20.763253347466776
30
0
10
6.7120793281153652
20
21.212549673244045
30
0
10
6.9391981417877711
20
21.455815681294396
30
0
11
6.0173352971744496
21
19.912472267278833
31
0
11
6.3254860795030599
21
20.686733476659125
31
0
11
6.9391981417877711
21
21.455815681294396
31
0
0
SPLINE
5
156
100
AcDbEntity
8
0
100
AcDbSpline
70
1064
71
3
72
9
73
5
74
3
42
0.000000001
43
0.0000000001
44
0.0000000001
40
0
40
0
40
0
40
0
40
0.1255027673575782
40
0.22182947116352905
40
0.22182947116352905
40
0.22182947116352905
40
0.22182947116352905
10
6.9391981417877711
20
21.455815681294396
30
0
10
7.2464273680707434
20
21.751624724774622
30
0
10
7.7894631769796785
20
22.274475057577632
30
0
10
8.5110260968200642
20
22.478834713791464
30
0
10
8.8243558689745623
20
22.567575366558401
30
0
11
6.9391981417877711
21
21.455815681294396
31
0
11
7.9180300385962967
21
22.241298067622225
31
0
11
8.8243558689745623
21
22.567575366558401
31
0
0
SPLINE
5
157
100
AcDbEntity
8
0
100
AcDbSpline
70
1064
71
3
72
9
73
5
74
3
42
0.000000001
43
0.0000000001
44
0.0000000001
40
0
40
0
40
0
40
0
40
0.080507661614792572
40
0.15836182549197669
40
0.15836182549197669
40
0.15836182549197669
40
0.15836182549197669
10
8.8243558689745623
20
22.567575366558401
30
0
10
9.101888696586375
20
22.57400146395986
30
0
10
9.6478069897402357
20
22.586641857369298
30
0
10
10.074877789035517
20
22.247485608057588
30
0
10
10.284835207069825
20
22.080748920526645
30
0
11
8.8243558689745623
21
22.567575366558401
31
0
11
9.6262384369949512
21
22.495932467585643
31
0
11
10.284835207069825
21
22.080748920526645
31
0
0
SPLINE
5
158
100
AcDbEntity
8
0
100
AcDbSpline
70
1064
71
3
72
9
73
5
74
3
42
0.000000001
43
0.0000000001
44
0.0000000001
40
0
40
0
40
0
40
0
40
0.047250042072660897
40
0.095413393975636321
40
0.095413393975636321
40
0.095413393975636321
40
0.095413393975636321
10
10.284835207069825
20
22.080748920526645
30
0
10
10.389007197471329
20
21.959856322331063
30
0
10
10.599364749029064
20
21.715734357685285
30
0
10
10.68633051045191
20
21.405338829461549
30
0
10
10.730229615141429
20
21.248655491493651
30
0
11
10.284835207069825
21
22.080748920526645
31
0
11
10.567090965673342
21
21.701818406682779
31
0
11
10.730229615141429
21
21.248655491493651
31
0
0
SPLINE
5
159
100
AcDbEntity
8
0
100
AcDbSpline
70
1064
71
3
72
9
73
5
74
3
42
0.000000001
43
0.0000000001
44
0.0000000001
40
0
40
0
40
0
40
0
40
0.040515576228337881
40
0.088865283239764753
40
0.088865283239764753
40
0.088865283239764753
40
0.088865283239764753
10
10.730229615141429
20
21.248655491493651
30
0
10
10.746686253608747
20
21.113864351907409
30
0
10
10.782781601983666
20
20.818218728356722
30
0
10
10.730858506398228
20
20.524550590918615
30
0
10
10.702608256501328
20
20.364772015010463
30
0
11
10.730229615141429
21
21.248655491493651
31
0
11
10.761303643611541
21
20.844693121382193
31
0
11
10.702608256501328
21
20.364772015010463
31
0
0
SPLINE
5
160
100
AcDbEntity
8
0
100
AcDbSpline
70
1064
71
3
72
9
73
5
74
3
42
0.000000001
43
0.0000000001
44
0.0000000001
40
0
40
0
40
0
40
0
40
0.060106459981006735
40
0.11480295102831976
40
0.11480295102831976
40
0.11480295102831976
40
0.11480295102831976
10
10.702608256501328
20
20.364772015010463
30
0
10
10.897166618379428
20
20.423035854974078
30
0
10
11.268771835154787
20
20.534319413649445
30
0
10
11.652338308440955
20
20.48028532498186
30
0
10
11.835083960745409
20
20.454541430590787
30
0
11
10.702608256501328
21
20.364772015010463
31
0
11
11.289562127603446
21
20.49424713363593
31
0
11
11.835083960745409
21
20.454541430590787
31
0
0
SPLINE
5
161
100
AcDbEntity
8
0
100
AcDbSpline
70
1064
71
3
72
9
73
5
74
3
42
0.000000001
43
0.0000000001
44
0.0000000001
40
0
40
0
40
0
40
0
40
0.052948833535937948
40
0.10665658046709722
40
0.10665658046709722
40
0.10665658046709722
40
0.10665658046709722
10
11.835083960745409
20
20.454541430590787
30
0
10
12.006019154717823
20
20.402433916456069
30
0
10
12.350339549579843
20
20.29747203338686
30
0
10
12.620769639600962
20
20.059783518168356
30
0
10
12.75694680535873
20
19.940093625918934
30
0
11
11.835083960745409
21
20.454541430590787
31
0
11
12.329678913894693
21
20.265507757397607
31
0
11
12.75694680535873
21
19.940093625918934
31
0
0
SPLINE
5
162
100
AcDbEntity
8
0
100
AcDbSpline
70
1064
71
3
72
9
73
5
74
3
42
0.000000001
43
0.0000000001
44
0.0000000001
40
0
40
0
40
0
40
0
40
0.052373285643349657
40
0.10442350005344622
40
0.10442350005344622
40
0.10442350005344622
40
0.10442350005344622
10
12.75694680535873
20
19.940093625918934
30
0
10
12.874112926031858
20
19.808436098880694
30
0
10
13.107722413351199
20
19.545933190903217
30
0
10
13.230774792556122
20
19.216809963455134
30
0
10
13.292110629010661
20
19.052757479605738
30
0
11
12.75694680535873
21
19.940093625918934
31
0
11
13.080634601922396
21
19.52836274868995
31
0
11
13.292110629010661
21
19.052757479605738
31
0
0
SPLINE
5
163
100
AcDbEntity
8
0
100
AcDbSpline
70
1064
71
3
72
9
73
5
74
3
42
0.000000001
43
0.0000000001
44
0.0000000001
40
0
40
0
40
0
40
0
40
0.049396261393819925
40
0.094576296432974355
40
0.094576296432974355
40
0.094576296432974355
40
0.094576296432974355
10
13.292110629010661
20
19.052757479605738
30
0
10
13.334838917071847
20
18.892157147932313
30
0
10
13.416648412845827
20
18.584664553412193
30
0
10
13.386110363989005
20
18.268242100473316
30
0
10
13.371522035100947
20
18.117083955672367
30
0
11
13.292110629010661
21
19.052757479605738
31
0
11
13.389648551708513
21
18.56852053594649
31
0
11
13.371522035100947
21
18.117083955672367
31
0
0
SPLINE
5
164
100
AcDbEntity
8
0
100
AcDbSpline
70
1064
71
3
72
9
73
5
74
3
42
0.000000001
43
0.0000000001
44
0.0000000001
40
0
40
0
40
0
40
0
40
0.045778971280096808
40
0.09724937969938377
40
0.09724937969938377
40
0.09724937969938377
40
0.09724937969938377
10
13.371522035100947
20
18.117083955672367
30
0
10
13.335365851929538
20
17.967905816078581
30
0
10
13.258558394544711
20
17.651003073737776
30
0
10
13.090848728835013
20
17.371024506788466
30
0
10
13.002086363289616
20
17.222842469699145
30
0
11
13.371522035100947
21
18.117083955672367
31
0
11
13.242910083932982
21
17.677731719803283
31
0
11
13.002086363289616
21
17.222842469699145
31
0
0
SPLINE
5
165
100
AcDbEntity
8
0
100
AcDbSpline
70
1064
71
3
72
9
73
5
74
3
42
0.000000001
43
0.0000000001
44
0.0000000001
40
0
40
0
40
0
40
0
40
0.055809767242886797
40
0.11460484170253811
40
0.11460484170253811
40
0.11460484170253811
40
0.11460484170253811
10
13.002086363289616
20
17.222842469699145
30
0
10
12.897885213345655
20
17.068299398401557
30
0
10
12.683909114098046
20
16.750946628496553
30
0
10
12.419552446366593
20
16.474088576048182
30
0
10
12.283931038647026
20
16.332053653555935
30
0
11
13.002086363289616
21
17.222842469699145
31
0
11
12.677535399268445
21
16.768816387052507
31
0
11
12.283931038647026
21
16.332053653555935
31
0
0
SPLINE
5
166
100
AcDbEntity
8
0
100
AcDbSpline
70
1064
71
3
72
9
73
5
74
3
42
0.000000001
43
0.0000000001
44
0.0000000001
40
0
40
0
40
0
40
0
40
0.10056615838698001
40
0.17676277599430998
40
0.17676277599430998
40
0.17676277599430998
40
0.17676277599430998
10
12.283931038647026
20
16.332053653555935
30
0
10
12.042672808652966
20
16.09580012730639
30
0
10
11.618618880878145
20
15.680542849827241
30
0
10
11.091924401451397
20
15.40959621529446
30
0
10
10.864883738511914
20
15.292800034722189
30
0
11
12.283931038647026
21
16.332053653555935
31
0
11
11.526933178416801
21
15.670004213651049
31
0
11
10.864883738511914
21
15.292800034722189
31
0
0
SPLINE
5
167
100
AcDbEntity
8
0
100
AcDbSpline
70
1064
71
3
72
9
73
5
74
3
42
0.000000001
43
0.0000000001
44
0.0000000001
40
0
40
0
40
0
40
0
40
0.062419959314620896
40
0.122296785252549
40
0.122296785252549
40
0.122296785252549
40
0.122296785252549
10
10.864883738511914
20
15.292800034722189
30
0
10
10.663166383562583
20
15.229985817347753
30
0
10
10.267950104814187
20
15.106916578959941
30
0
10
9.8597552408868889
20
15.173757700860421
30
0
10
9.6599019678375733
20
15.206483288971878
30
0
11
10.864883738511914
21
15.292800034722189
31
0
11
10.256350680972224
21
15.153830074064189
31
0
11
9.6599019678375733
21
15.206483288971878
31
0
0
SPLINE
5
168
100
AcDbEntity
8
0
100
AcDbSpline
70
1064
71
3
72
9
73
5
74
3
42
0.000000001
43
0.0000000001
44
0.0000000001
40
0
40
0
40
0
40
0
40
0.060059710236382957
40
0.12195609986246859
40
0.12195609986246859
40
0.12195609986246859
40
0.12195609986246859
10
9.6599019678375733
20
15.206483288971878
30
0
10
9.4676028769308473
20
15.269890935311508
30
0
10
9.0771240177791785
20
15.398645290246034
30
0
10
8.7697463983826562
20
15.671976630900325
30
0
10
8.6137430093438052
20
15.810700509224056
30
0
11
9.6599019678375733
21
15.206483288971878
31
0
11
9.103158957748068
21
15.431769995380192
31
0
11
8.6137430093438052
21
15.810700509224056
31
0
0
SPLINE
5
169
100
AcDbEntity
8
0
100
AcDbSpline
70
1064
71
3
72
9
73
5
74
3
42
0.000000001
43
0.0000000001
44
0.0000000001
40
0
40
0
40
0
40
0
40
0.058565260000746841
40
0.11166458312689487
40
0.11166458312689487
40
0.11166458312689487
40
0.11166458312689487
10
8.6137430093438052
20
15.810700509224056
30
0
10
8.480637772182936
20
15.957428000980943
30
0
10
8.2268501031896548
20
16.237188804571311
30
0
10
8.1193433475731851
20
16.598655974168981
30
0
10
8.0682211762018383
20
16.770542721967516
30
0
11
8.6137430093438052
21
15.810700509224056
31
0
11
8.2546653470225113
21
16.273358266445722
31
0
11
8.0682211762018383
21
16.770542721967516
31
0
0
SPLINE
5
170
100
AcDbEntity
8
0
100
AcDbSpline
70
1064
71
3
72
9
73
5
74
3
42
0.000000001
43
0.0000000001
44
0.0000000001
40
0
40
0
40
0
40
0
40
0.05387520379826706
40
0.11434549030331888
40
0.11434549030331888
40
0.11434549030331888
40
0.11434549030331888
10
8.0682211762018383
20
16.770542721967516
30
0
10
8.0512870170533599
20
16.951795788900903
30
0
10
8.0153457194954374
20
17.336489847508719
30
0
10
8.1538157294349851
20
17.698017853494296
30
0
10
8.2270439883824107
20
17.889207746891543
30
0
11
8.0682211762018383
21
16.770542721967516
31
0
11
8.0561368317967954
21
17.309159215449455
31
0
11
8.2270439883824107
21
17.889207746891543
31
0
0
SPLINE
5
171
100
AcDbEntity
8
0
100
AcDbSpline
70
1064
71
3
72
9
73
5
74
3
42
0.000000001
43
0.0000000001
44
0.0000000001
40
0
40
0
40
0
40
0
40
0.034056085805064834
40
0.065646127988512104
40
0.065646127988512104
40
0.065646127988512104
40
0.065646127988512104
10
7.8645136562311047
20
19.515415236827401
30
0
10
7.9523877642038387
20
19.438913118258327
30
0
10
8.1217729064622155
20
19.291448494880171
30
0
10
8.3443564907451684
20
19.265499453373359
30
0
10
8.4514675273332198
20
19.253012329746458
30
0
11
7.8645136562311047
21
19.515415236827401
31
0
11
8.1424535775471067
21
19.318613056516693
31
0
11
8.4514675273332198
21
19.253012329746458
31
0
0
SPLINE
5
172
100
AcDbEntity
8
0
100
AcDbSpline
70
1064
71
3
72
9
73
5
74
3
42
0.000000001
43
0.0000000001
44
0.0000000001
40
0
40
0
40
0
40
0
40
0.0320124594304231
40
0.067252744262649655
40
0.067252744262649655
40
0.067252744262649655
40
0.067252744262649655
10
8.4514675273332198
20
19.253012329746458
30
0
10
8.5594658083423756
20
19.268422154144183
30
0
10
8.7863518677937176
20
19.300795579922511
30
0
10
8.9585486737600348
20
19.452950010743677
30
0
10
9.0487794079253714
20
19.532678585977465
30
0
11
8.4514675273332198
21
19.253012329746458
31
0
11
8.7630709794918413
21
19.326381563634222
31
0
11
9.0487794079253714
21
19.532678585977465
31
0
0
SPLINE
5
173
100
AcDbEntity
8
0
100
AcDbSpline
70
1064
71
3
72
9
73
5
74
3
42
0.000000001
43
0.0000000001
44
0.0000000001
40
0
40
0
40
0
40
0
40
0.031630347195630425
40
0.0617965370933799
40
0.0617965370933799
40
0.0617965370933799
40
0.0617965370933799
10
9.0487794079253714
20
19.532678585977465
30
0
10
9.1191301055098677
20
19.614964517221839
30
0
10
9.2565749924071579
20
19.775727393802235
30
0
10
9.277028954828257
20
19.985941632537134
30
0
10
9.2870136261962291
20
20.088558428609467
30
0
11
9.0487794079253714
21
19.532678585977465
31
0
11
9.2291814065435211
21
19.7924919906859
31
0
11
9.2870136261962291
21
20.088558428609467
31
0
0
SPLINE
5
174
100
AcDbEntity
8
0
100
AcDbSpline
70
1064
71
3
72
9
73
5
74
3
42
0.000000001
43
0.0000000001
44
0.0000000001
40
0
40
0
40
0
40
0
40
0.030577577737112616
40
0.063389296623137054
40
0.063389296623137054
40
0.063389296623137054
40
0.063389296623137054
10
9.2870136261962291
20
20.088558428609467
30
0
10
9.2741001353344039
20
20.192073430980635
30
0
10
9.2473296334418684
20
20.406666726978912
30
0
10
9.1051245784595203
20
20.570165602750052
30
0
10
9.0315160587753098
20
20.654796280731507
30
0
11
9.2870136261962291
21
20.088558428609467
31
0
11
9.2214128994259941
21
20.387214368905546
31
0
11
9.0315160587753098
21
20.654796280731507
31
0
0
SPLINE
5
175
100
AcDbEntity
8
0
100
AcDbSpline
70
1064
71
3
72
9
73
5
74
3
42
0.000000001
43
0.0000000001
44
0.0000000001
40
0
40
0
40
0
40
0
40
0.034056085805064834
40
0.065646127988512104
40
0.065646127988512104
40
0.065646127988512104
40
0.065646127988512104
10
9.0315160587753098
20
20.654796280731507
30
0
10
8.9436419508025757
20
20.731298399300584
30
0
10
8.7742568085442016
20
20.878763022678744
30
0
10
8.5516732242612452
20
20.904712064185553
30
0
10
8.4445621876731938
20
20.91719918781245
30
0
11
9.0315160587753098
21
20.654796280731507
31
0
11
8.7535761374593086
21
20.851598461042219
31
0
11
8.4445621876731938
21
20.91719918781245
31
0
0
SPLINE
5
176
100
AcDbEntity
8
0
100
AcDbSpline
70
1064
71
3
72
9
73
5
74
3
42
0.000000001
43
0.0000000001
44
0.0000000001
40
0
40
0
40
0
40
0
40
0.031486569463011878
40
0.064481702995436166
40
0.064481702995436166
40
0.064481702995436166
40
0.064481702995436166
10
8.4445621876731938
20
20.91719918781245
30
0
10
8.3374581344347458
20
20.906755117240454
30
0
10
8.1181185281101538
20
20.885366586569369
30
0
10
7.9503568874046051
20
20.741978368851321
30
0
10
7.8645136562311047
20
20.668606960051559
30
0
11
8.4445621876731938
21
20.91719918781245
31
0
11
8.1355482378870807
21
20.856777465787239
31
0
11
7.8645136562311047
21
20.668606960051559
31
0
0
SPLINE
5
177
100
AcDbEntity
8
0
100
AcDbSpline
70
1064
71
3
72
9
73
5
74
3
42
0.000000001
43
0.0000000001
44
0.0000000001
40
0
40
0
40
0
40
0
40
0.033334360504218764
40
0.064719964877569508
40
0.064719964877569508
40
0.064719964877569508
40
0.064719964877569508
10
7.8645136562311047
20
20.668606960051559
30
0
10
7.7900134355468822
20
20.582288366331582
30
0
10
7.6453683428220973
20
20.414697440052034
30
0
10
7.6208877989659047
20
20.19506703225893
30
0
10
7.6090160888101845
20
20.088558428609467
30
0
11
7.8645136562311047
21
20.668606960051559
31
0
11
7.6728904806654139
21
20.395846043480574
31
0
11
7.6090160888101845
21
20.088558428609467
31
0
0
SPLINE
5
178
100
AcDbEntity
8
0
100
AcDbSpline
70
1064
71
3
72
9
73
5
74
3
42
0.000000001
43
0.0000000001
44
0.0000000001
40
0
40
0
40
0
40
0
40
0.030878722487692457
40
0.064071972685181333
40
0.064071972685181333
40
0.064071972685181333
40
0.064071972685181333
10
7.6090160888101845
20
20.088558428609467
30
0
10
7.6211196351469992
20
19.983841579756255
30
0
10
7.6462339542576832
20
19.766558786335139
30
0
10
7.7900223576363636
20
19.601121827808555
30
0
10
7.8645136562311047
20
19.515415236827401
30
0
11
7.6090160888101845
21
20.088558428609467
31
0
11
7.6728904806654139
21
19.786449818483376
31
0
11
7.8645136562311047
21
19.515415236827401
31
0
0
SPLINE
5
179
100
AcDbEntity
8
0
100
AcDbSpline
70
1064
71
3
72
9
73
5
74
3
42
0.000000001
43
0.0000000001
44
0.0000000001
40
0
40
0
40
0
40
0
40
0.043688553847889569
40
0.084434812300612783
40
0.084434812300612783
40
0.084434812300612783
40
0.084434812300612783
10
9.9671895827086807
20
17.26082183782928
30
0
10
10.079685705092199
20
17.162806999528165
30
0
10
10.297101667430301
20
16.973378333533784
30
0
10
10.582260598930237
20
16.934376313965597
30
0
10
10.719871605651395
20
16.915554854828038
30
0
11
9.9671895827086807
21
17.26082183782928
31
0
11
10.322814575199963
21
17.007050605323364
31
0
11
10.719871605651395
21
16.915554854828038
31
0
0
SPLINE
5
180
100
AcDbEntity
8
0
100
AcDbSpline
70
1064
71
3
72
9
73
5
74
3
42
0.000000001
43
0.0000000001
44
0.0000000001
40
0
40
0
40
0
40
0
40
0.038116051921438014
40
0.073932821278519134
40
0.073932821278519134
40
0.073932821278519134
40
0.073932821278519134
10
10.719871605651395
20
16.915554854828038
30
0
10
10.850188448807288
20
16.923049236576546
30
0
10
11.102961004959852
20
16.937585914917399
30
0
10
11.300767498731823
20
17.09486064788998
30
0
10
11.39659489233383
20
17.171052422248959
30
0
11
10.719871605651395
21
16.915554854828038
31
0
11
11.096212617122747
21
16.975976576853252
31
0
11
11.39659489233383
21
17.171052422248959
31
0
0
SPLINE
5
181
100
AcDbEntity
8
0
100
AcDbSpline
70
1064
71
3
72
9
73
5
74
3
42
0.000000001
43
0.0000000001
44
0.0000000001
40
0
40
0
40
0
40
0
40
0.034650126419277137
40
0.07239433810713472
40
0.07239433810713472
40
0.07239433810713472
40
0.07239433810713472
10
11.39659489233383
20
17.171052422248959
30
0
10
11.469403420351444
20
17.264561918716876
30
0
10
11.621521918581731
20
17.459930848157782
30
0
10
11.630268768439116
20
17.708053878592519
30
0
10
11.63482911060469
20
17.837417699441357
30
0
11
11.39659489233383
21
17.171052422248959
31
0
11
11.582175895696999
21
17.463666190342511
31
0
11
11.63482911060469
21
17.837417699441357
31
0
0
SPLINE
5
182
100
AcDbEntity
8
0
100
AcDbSpline
70
1064
71
3
72
9
73
5
74
3
42
0.000000001
43
0.0000000001
44
0.0000000001
40
0
40
0
40
0
40
0
40
0.040761432436498199
40
0.084189136341946941
40
0.084189136341946941
40
0.084189136341946941
40
0.084189136341946941
10
11.63482911060469
20
17.837417699441357
30
0
10
11.614315709038845
20
17.974713982280427
30
0
10
11.571947091008688
20
18.25828732070979
30
0
10
11.383379317120452
20
18.474907025286797
30
0
10
11.286109457773431
20
18.586647052554056
30
0
11
11.63482911060469
21
17.837417699441357
31
0
11
11.539017522821844
21
18.233611562435286
31
0
11
11.286109457773431
21
18.586647052554056
31
0
0
SPLINE
5
183
100
AcDbEntity
8
0
100
AcDbSpline
70
1064
71
3
72
9
73
5
74
3
42
0.000000001
43
0.0000000001
44
0.0000000001
40
0
40
0
40
0
40
0
40
0.043688553847889569
40
0.084434812300612783
40
0.084434812300612783
40
0.084434812300612783
40
0.084434812300612783
10
11.286109457773431
20
18.586647052554056
30
0
10
11.173613335389918
20
18.684661890855171
30
0
10
10.956197373051815
20
18.874090556849552
30
0
10
10.671038441551875
20
18.913092576417739
30
0
10
10.533427434830722
20
18.931914035555302
30
0
11
11.286109457773431
21
18.586647052554056
31
0
11
10.93048446528215
21
18.840418285059972
31
0
11
10.533427434830722
21
18.931914035555302
31
0
0
SPLINE
5
184
100
AcDbEntity
8
0
100
AcDbSpline
70
1064
71
3
72
9
73
5
74
3
42
0.000000001
43
0.0000000001
44
0.0000000001
40
0
40
0
40
0
40
0
40
0.038135398634811066
40
0.074216417851298011
40
0.074216417851298011
40
0.074216417851298011
40
0.074216417851298011
10
10.533427434830722
20
18.931914035555302
30
0
10
10.402812782057298
20
18.926142825991107
30
0
10
10.14861977517246
20
18.914911305780045
30
0
10
9.9498737523987408
20
18.756757243428073
30
0
10
9.8532514783182705
20
18.679869137964392
30
0
11
10.533427434830722
21
18.931914035555302
31
0
11
10.156223255901864
21
18.875808150817598
31
0
11
9.8532514783182705
21
18.679869137964392
31
0
0
SPLINE
5
185
100
AcDbEntity
8
0
100
AcDbSpline
70
1064
71
3
72
9
73
5
74
3
42
0.000000001
43
0.0000000001
44
0.0000000001
40
0
40
0
40
0
40
0
40
0.035552651072291747
40
0.072860861508549812
40
0.072860861508549812
40
0.072860861508549812
40
0.072860861508549812
10
9.8532514783182705
20
18.679869137964392
30
0
10
9.7772014045654458
20
18.584950614354661
30
0
10
9.6213459697582753
20
18.390426571991064
30
0
10
9.6080266850520992
20
18.141146869650299
30
0
10
9.6012065807273608
20
18.013503860771994
30
0
11
9.8532514783182705
21
18.679869137964392
31
0
11
9.6590388003800705
21
18.382076365125819
31
0
11
9.6012065807273608
21
18.013503860771994
31
0
0
SPLINE
5
186
100
AcDbEntity
8
0
100
AcDbSpline
70
1064
71
3
72
9
73
5
74
3
42
0.000000001
43
0.0000000001
44
0.0000000001
40
0
40
0
40
0
40
0
40
0.040069568456806433
40
0.085267245281915066
40
0.085267245281915066
40
0.085267245281915066
40
0.085267245281915066
10
9.6012065807273608
20
18.013503860771994
30
0
10
9.6231342629401677
20
17.878898909717314
30
0
10
9.6697959348700486
20
17.592462249184987
30
0
10
9.8641618740512964
20
17.375713840158497
30
0
10
9.9671895827086807
20
17.26082183782928
30
0
11
9.6012065807273608
21
18.013503860771994
31
0
11
9.6996076708827168
21
17.625078504895594
31
0
11
9.9671895827086807
21
17.26082183782928
31
0
0
SPLINE
5
187
100
AcDbEntity
8
0
100
AcDbSpline
70
1064
71
3
72
9
73
5
74
3
42
0.000000001
43
0.0000000001
44
0.0000000001
40
0
40
0
40
0
40
0
40
0.033521361315836475
40
0.061577623363105037
40
0.061577623363105037
40
0.061577623363105037
40
0.061577623363105037
10
17.311018311145141
20
23.824347184682928
30
0
10
17.414943816488147
20
23.778328326967035
30
0
10
17.605851505634082
20
23.693793219298517
30
0
10
17.813651474618517
20
23.705208157136568
30
0
10
17.908330191737289
20
23.710409080292514
30
0
11
17.311018311145141
21
23.824347184682928
31
0
11
17.627800768048782
21
23.714724917580035
31
0
11
17.908330191737289
21
23.710409080292514
31
0
0
SPLINE
5
188
100
AcDbEntity
8
0
100
AcDbSpline
70
1064
71
3
72
9
73
5
74
3
42
0.000000001
43
0.0000000001
44
0.0000000001
40
0
40
0
40
0
40
0
40
0.0280360723321629
40
0.061211585394341489
40
0.061211585394341489
40
0.061211585394341489
40
0.061211585394341489
10
17.908330191737289
20
23.710409080292514
30
0
10
17.998714388527933
20
23.738473513138292
30
0
10
18.196051587355274
20
23.799747018475628
30
0
10
18.347565618097708
20
23.941090967642602
30
0
10
18.429683336069171
20
24.017696695163625
30
0
11
17.908330191737289
21
23.710409080292514
31
0
11
18.169869931360733
21
23.811399672820382
31
0
11
18.429683336069171
21
24.017696695163625
31
0
0
SPLINE
5
189
100
AcDbEntity
8
0
100
AcDbSpline
70
1064
71
3
72
9
73
5
74
3
42
0.000000001
43
0.0000000001
44
0.0000000001
40
0
40
0
40
0
40
0
40
0.035778473325711886
40
0.065205774962444785
40
0.065205774962444785
40
0.065205774962444785
40
0.065205774962444785
10
18.429683336069171
20
24.017696695163625
30
0
10
18.512799093215456
20
24.106324187093154
30
0
10
18.664276416101085
20
24.267846570724032
30
0
10
18.721502765599659
20
24.480885120971028
30
0
10
18.747328960430313
20
24.577029207625642
30
0
11
18.429683336069171
21
24.017696695163625
31
0
11
18.650654205189966
21
24.299089286309638
31
0
11
18.747328960430313
21
24.577029207625642
31
0
0
SPLINE
5
190
100
AcDbEntity
8
0
100
AcDbSpline
70
1064
71
3
72
9
73
5
74
3
42
0.000000001
43
0.0000000001
44
0.0000000001
40
0
40
0
40
0
40
0
40
0.019190291757676614
40
0.037161595764772321
40
0.037161595764772321
40
0.037161595764772321
40
0.037161595764772321
10
18.747328960430313
20
24.577029207625642
30
0
10
18.751552361692312
20
24.643275409276786
30
0
10
18.759730889274529
20
24.771559783365401
30
0
10
18.681554753061647
20
24.873161648256673
30
0
10
18.64374886552994
20
24.922296190626881
30
0
11
18.747328960430313
21
24.577029207625642
31
0
11
18.736970950940275
21
24.768652383191331
31
0
11
18.64374886552994
21
24.922296190626881
31
0
0
SPLINE
5
191
100
AcDbEntity
8
0
100
AcDbSpline
70
1064
71
3
72
9
73
5
74
3
42
0.000000001
43
0.0000000001
44
0.0000000001
40
0
40
0
40
0
40
0
40
0.019853602088781223
40
0.041860140635314361
40
0.041860140635314361
40
0.041860140635314361
40
0.041860140635314361
10
18.64374886552994
20
24.922296190626881
30
0
10
18.587481449574341
20
24.962805317029257
30
0
10
18.468844945500443
20
25.048216403674097
30
0
10
18.325502105110758
20
25.015470150519231
30
0
10
18.250144504908519
20
24.99825492688716
30
0
11
18.64374886552994
21
24.922296190626881
31
0
11
18.469389039114311
21
25.017244610952226
31
0
11
18.250144504908519
21
24.99825492688716
31
0
0
SPLINE
5
192
100
AcDbEntity
8
0
100
AcDbSpline
70
1064
71
3
72
9
73
5
74
3
42
0.000000001
43
0.0000000001
44
0.0000000001
40
0
40
0
40
0
40
0
40
0.030847097924367694
40
0.087991782452552333
40
0.087991782452552333
40
0.087991782452552333
40
0.087991782452552333
10
18.250144504908519
20
24.99825492688716
30
0
10
18.157949683431095
20
24.952450515160738
30
0
10
17.894962653189754
20
24.821792783860374
30
0
10
17.656063755208255
20
24.650374420384225
30
0
10
17.500915151795823
20
24.539049839495505
30
0
11
18.250144504908519
21
24.99825492688716
31
0
11
17.976520420880036
21
24.855832296399143
31
0
11
17.500915151795823
21
24.539049839495505
31
0
0
SPLINE
5
193
100
AcDbEntity
8
0
100
AcDbSpline
70
1064
71
3
72
9
73
5
74
3
42
0.000000001
43
0.0000000001
44
0.0000000001
40
0
40
0
40
0
40
0
40
0.089463882132654077
40
0.14793301332385378
40
0.14793301332385378
40
0.14793301332385378
40
0.14793301332385378
10
17.500915151795823
20
24.539049839495505
30
0
10
17.256952538156245
20
24.366897283520885
30
0
10
16.853548128312369
20
24.082234403377065
30
0
10
16.41924874656949
20
23.847908783785812
30
0
10
16.247596003501311
20
23.755293788082682
30
0
11
17.500915151795823
21
24.539049839495505
31
0
11
16.757727970885647
21
24.041002216516208
31
0
11
16.247596003501311
21
23.755293788082682
31
0
0
SPLINE
5
194
100
AcDbEntity
8
0
100
AcDbSpline
70
1064
71
3
72
9
73
5
74
3
42
0.000000001
43
0.0000000001
44
0.0000000001
40
0
40
0
40
0
40
0
40
0.042470996721471685
40
0.086493891021476976
40
0.086493891021476976
40
0.086493891021476976
40
0.086493891021476976
10
16.247596003501311
20
23.755293788082682
30
0
10
16.112488580908927
20
23.707717337766553
30
0
10
15.837336887094562
20
23.610825985396868
30
0
10
15.54634546241369
20
23.633346209428218
30
0
10
15.39823922531825
20
23.644808353522283
30
0
11
16.247596003501311
21
23.755293788082682
31
0
11
15.838454628644833
21
23.641355683692268
31
0
11
15.39823922531825
21
23.644808353522283
31
0
0
SPLINE
5
195
100
AcDbEntity
8
0
100
AcDbSpline
70
1064
71
3
72
9
73
5
74
3
42
0.000000001
43
0.0000000001
44
0.0000000001
40
0
40
0
40
0
40
0
40
0.044226699222420077
40
0.089062412118012774
40
0.089062412118012774
40
0.089062412118012774
40
0.089062412118012774
10
15.39823922531825
20
23.644808353522283
30
0
10
15.25213563228338
20
23.678126228681279
30
0
10
14.957916560013182
20
23.745220775199076
30
0
10
14.729481652761823
20
23.942534101256395
30
0
10
14.614483173905422
20
24.041865383973715
30
0
11
15.39823922531825
21
23.644808353522283
31
0
11
14.976150338599226
21
23.776872974520256
31
0
11
14.614483173905422
21
24.041865383973715
31
0
0
SPLINE
5
196
100
AcDbEntity
8
0
100
AcDbSpline
70
1064
71
3
72
9
73
5
74
3
42
0.000000001
43
0.0000000001
44
0.0000000001
40
0
40
0
40
0
40
0
40
0.048306848844433342
40
0.094690033845523297
40
0.094690033845523297
40
0.094690033845523297
40
0.094690033845523297
10
14.614483173905422
20
24.041865383973715
30
0
10
14.506780778903693
20
24.165648261237553
30
0
10
14.295664888053503
20
24.408284763472579
30
0
10
14.231562739088591
20
24.723168235315161
30
0
10
14.20016279430393
20
24.87741148283672
30
0
11
14.614483173905422
21
24.041865383973715
31
0
11
14.329637912929396
21
24.432017074765117
31
0
11
14.20016279430393
21
24.87741148283672
31
0
0
SPLINE
5
197
100
AcDbEntity
8
0
100
AcDbSpline
70
1064
71
3
72
9
73
5
74
3
42
0.000000001
43
0.0000000001
44
0.0000000001
40
0
40
0
40
0
40
0
40
0.047954371033728925
40
0.099872727631744276
40
0.099872727631744276
40
0.099872727631744276
40
0.099872727631744276
10
14.20016279430393
20
24.87741148283672
30
0
10
14.19664141357468
20
25.039131282154532
30
0
10
14.189307569112138
20
25.375938899932862
30
0
10
14.321394749957669
20
25.686281564904409
30
0
10
14.390059634954614
20
25.847611705070218
30
0
11
14.20016279430393
21
24.87741148283672
31
0
11
14.221741980741509
21
25.356469421750948
31
0
11
14.390059634954614
21
25.847611705070218
31
0
0
SPLINE
5
198
100
AcDbEntity
8
0
100
AcDbSpline
70
1064
71
3
72
9
73
5
74
3
42
0.000000001
43
0.0000000001
44
0.0000000001
40
0
40
0
40
0
40
0
40
0.062720505830965681
40
0.14183610140452685
40
0.14183610140452685
40
0.14183610140452685
40
0.14183610140452685
10
14.390059634954614
20
25.847611705070218
30
0
10
14.495313999233561
20
26.029138350212495
30
0
10
14.733336133898277
20
26.439642559432563
30
0
10
15.064854716879212
20
26.779922592920869
30
0
10
15.249774422627711
20
26.96972939982426
30
0
11
14.390059634954614
21
25.847611705070218
31
0
11
14.724105441008319
21
26.378459691434628
31
0
11
15.249774422627711
21
26.96972939982426
31
0
0
SPLINE
5
199
100
AcDbEntity
8
0
100
AcDbSpline
70
1064
71
3
72
9
73
5
74
3
42
0.000000001
43
0.0000000001
44
0.0000000001
40
0
40
0
40
0
40
0
40
0.080644142332869193
40
0.13779195591916835
40
0.13779195591916835
40
0.13779195591916835
40
0.13779195591916835
10
15.249774422627711
20
26.96972939982426
30
0
10
15.441035421696157
20
27.160092669980926
30
0
10
15.767831967487593
20
27.485355318590734
30
0
10
16.155760134604328
20
27.733453377993342
30
0
10
16.316649400101554
20
27.836349527157385
30
0
11
15.249774422627711
21
26.96972939982426
31
0
11
15.844496800847354
21
27.514388065508726
31
0
11
16.316649400101554
21
27.836349527157385
31
0
0
SPLINE
5
200
100
AcDbEntity
8
0
100
AcDbSpline
70
1064
71
3
72
9
73
5
74
3
42
0.000000001
43
0.0000000001
44
0.0000000001
40
0
40
0
40
0
40
0
40
0.044483366536432603
40
0.086484247097840528
40
0.086484247097840528
40
0.086484247097840528
40
0.086484247097840528
10
16.316649400101554
20
27.836349527157385
30
0
10
16.452783506468705
20
27.898643562811106
30
0
10
16.717454474747548
20
28.019755187035535
30
0
10
17.007757712879105
20
28.038068545391567
30
0
10
17.148742829134555
20
28.046962386788145
30
0
11
16.316649400101554
21
27.836349527157385
31
0
11
16.731832947160555
21
27.996035506795458
31
0
11
17.148742829134555
21
28.046962386788145
31
0
0
SPLINE
5
201
100
AcDbEntity
8
0
100
AcDbSpline
70
1064
71
3
72
9
73
5
74
3
42
0.000000001
43
0.0000000001
44
0.0000000001
40
0
40
0
40
0
40
0
40
0.04436680731565984
40
0.094976693678014715
40
0.094976693678014715
40
0.094976693678014715
40
0.094976693678014715
10
17.148742829134555
20
28.046962386788145
30
0
10
17.297116985531488
20
28.035558400404838
30
0
10
17.61474378030135
20
28.011145714729047
30
0
10
17.909883155349647
20
27.890356192421073
30
0
10
18.067153003917863
20
27.825991517667347
30
0
11
17.148742829134555
21
28.046962386788145
31
0
11
17.588958232461138
21
27.991719669507944
31
0
11
18.067153003917863
21
27.825991517667347
31
0
0
SPLINE
5
202
100
AcDbEntity
8
0
100
AcDbSpline
70
1064
71
3
72
9
73
5
74
3
42
0.000000001
43
0.0000000001
44
0.0000000001
40
0
40
0
40
0
40
0
40
0.02371088169348998
40
0.04468744930816726
40
0.04468744930816726
40
0.04468744930816726
40
0.04468744930816726
10
16.865623903073534
20
26.362059509742075
30
0
10
16.793028410317469
20
26.397113937580322
30
0
10
16.656209061105795
20
26.463180353300267
30
0
10
16.505012693121341
20
26.453105469043336
30
0
10
16.434040174321979
20
26.448376255492381
30
0
11
16.865623903073534
21
26.362059509742075
31
0
11
16.643789866495236
21
26.445786753119872
31
0
11
16.434040174321979
21
26.448376255492381
31
0
0
SPLINE
5
203
100
AcDbEntity
8
0
100
AcDbSpline
70
1064
71
3
72
9
73
5
74
3
42
0.000000001
43
0.0000000001
44
0.0000000001
40
0
40
0
40
0
40
0
40
0.028408570718337609
40
0.059417313509953676
40
0.059417313509953676
40
0.059417313509953676
40
0.059417313509953676
10
16.434040174321979
20
26.448376255492381
30
0
10
16.342132850599359
20
26.420884983062418
30
0
10
16.149906134175261
20
26.363386224361953
30
0
10
16.000839843572496
20
26.228661965722218
30
0
10
15.923045039480135
20
26.158351989771337
30
0
11
16.434040174321979
21
26.448376255492381
31
0
11
16.16818459741102
21
26.348248830422023
31
0
11
15.923045039480135
21
26.158351989771337
31
0
0
SPLINE
5
204
100
AcDbEntity
8
0
100
AcDbSpline
70
1064
71
3
72
9
73
5
74
3
42
0.000000001
43
0.0000000001
44
0.0000000001
40
0
40
0
40
0
40
0
40
0.029333981221442252
40
0.051458699190670594
40
0.051458699190670594
40
0.051458699190670594
40
0.051458699190670594
10
15.923045039480135
20
26.158351989771337
30
0
10
15.853708421426372
20
26.086838345335082
30
0
10
15.732075693008355
20
25.961386600844847
30
0
10
15.682120441548397
20
25.794897669714633
30
0
10
15.660642132399193
20
25.72331559118977
30
0
11
15.923045039480135
21
26.158351989771337
31
0
11
15.738327203574475
21
25.930475780990516
31
0
11
15.660642132399193
21
25.72331559118977
31
0
0
SPLINE
5
205
100
AcDbEntity
8
0
100
AcDbSpline
70
1064
71
3
72
9
73
5
74
3
42
0.000000001
43
0.0000000001
44
0.0000000001
40
0
40
0
40
0
40
0
40
0.017305592670404275
40
0.033500969768024025
40
0.033500969768024025
40
0.033500969768024025
40
0.033500969768024025
10
15.660642132399193
20
25.72331559118977
30
0
10
15.657928591861827
20
25.663613615204927
30
0
10
15.652675594103357
20
25.548039758206667
30
0
10
15.723215684720483
20
25.456721365852466
30
0
10
15.75731688763954
20
25.412575306488652
30
0
11
15.660642132399193
21
25.72331559118977
31
0
11
15.672726476804236
21
25.550682099689148
31
0
11
15.75731688763954
21
25.412575306488652
31
0
0
SPLINE
5
206
100
AcDbEntity
8
0
100
AcDbSpline
70
1064
71
3
72
9
73
5
74
3
42
0.000000001
43
0.0000000001
44
0.0000000001
40
0
40
0
40
0
40
0
40
0.017421875684250618
40
0.036411952094110245
40
0.036411952094110245
40
0.036411952094110245
40
0.036411952094110245
10
15.75731688763954
20
25.412575306488652
30
0
10
15.806597635346789
20
25.376663335980922
30
0
10
15.909595054063326
20
25.301606839571935
30
0
10
16.034164158874631
20
25.331423942400821
30
0
10
16.099131200810774
20
25.346974579718413
30
0
11
15.75731688763954
21
25.412575306488652
31
0
11
15.910097527617593
21
25.328848063110847
31
0
11
16.099131200810774
21
25.346974579718413
31
0
0
SPLINE
5
207
100
AcDbEntity
8
0
100
AcDbSpline
70
1064
71
3
72
9
73
5
74
3
42
0.000000001
43
0.0000000001
44
0.0000000001
40
0
40
0
40
0
40
0
40
0.032364060663611721
40
0.08695392625087256
40
0.08695392625087256
40
0.08695392625087256
40
0.08695392625087256
10
16.099131200810774
20
25.346974579718413
30
0
10
16.195559718997323
20
25.395847717590769
30
0
10
16.454638403406715
20
25.527157298003811
30
0
10
16.681664428622604
20
25.709173097919003
30
0
10
16.824191865113384
20
25.823443016260129
30
0
11
16.099131200810774
21
25.346974579718413
31
0
11
16.383976461786798
21
25.50061838715397
31
0
11
16.824191865113384
21
25.823443016260129
31
0
0
SPLINE
5
208
100
AcDbEntity
8
0
100
AcDbSpline
70
1064
71
3
72
9
73
5
74
3
42
0.000000001
43
0.0000000001
44
0.0000000001
40
0
40
0
40
0
40
0
40
0.087462676125981922
40
0.15104666350071308
40
0.15104666350071308
40
0.15104666350071308
40
0.15104666350071308
10
16.824191865113384
20
25.823443016260129
30
0
10
17.053667530795231
20
26.004752320282556
30
0
10
17.449968389528628
20
26.317870631398222
30
0
10
17.898891979530418
20
26.548214021736214
30
0
10
18.087869022897934
20
26.645178435803093
30
0
11
16.824191865113384
21
25.823443016260129
31
0
11
17.530262845350926
21
26.339617155846994
31
0
11
18.087869022897934
21
26.645178435803093
31
0
0
SPLINE
5
209
100
AcDbEntity
8
0
100
AcDbSpline
70
1064
71
3
72
9
73
5
74
3
42
0.000000001
43
0.0000000001
44
0.0000000001
40
0
40
0
40
0
40
0
40
0.049041586628181186
40
0.094287701729678625
40
0.094287701729678625
40
0.094287701729678625
40
0.094287701729678625
10
18.087869022897934
20
26.645178435803093
30
0
10
18.244047733379837
20
26.700696168698435
30
0
10
18.544318028101102
20
26.807434955100913
30
0
10
18.861146927204189
20
26.777117659367107
30
0
10
19.013184537341271
20
26.762569210023514
30
0
11
18.087869022897934
21
26.645178435803093
31
0
11
18.560884789609638
21
26.774653554428557
31
0
11
19.013184537341271
21
26.762569210023514
31
0
0
SPLINE
5
210
100
AcDbEntity
8
0
100
AcDbSpline
70
1064
71
3
72
9
73
5
74
3
42
0.000000001
43
0.0000000001
44
0.0000000001
40
0
40
0
40
0
40
0
40
0.043509462423578553
40
0.086600455639857021
40
0.086600455639857021
40
0.086600455639857021
40
0.086600455639857021
10
19.013184537341271
20
26.762569210023514
30
0
10
19.155926859307023
20
26.726571214702854
30
0
10
19.440038623340826
20
26.654921448807297
30
0
10
19.662218679269895
20
26.46397615503404
30
0
10
19.772771899944004
20
26.368964849402094
30
0
11
19.013184537341271
21
26.762569210023514
31
0
11
19.425778582027753
21
26.624462416823018
31
0
11
19.772771899944004
21
26.368964849402094
31
0
0
SPLINE
5
211
100
AcDbEntity
8
0
100
AcDbSpline
70
1064
71
3
72
9
73
5
74
3
42
0.000000001
43
0.0000000001
44
0.0000000001
40
0
40
0
40
0
40
0
40
0.044835712895592704
40
0.092557711687966421
40
0.092557711687966421
40
0.092557711687966421
40
0.092557711687966421
10
19.772771899944004
20
26.368964849402094
30
0
10
19.870384322064304
20
26.253321353394085
30
0
10
20.071892937413264
20
26.014589845164839
30
0
10
20.154736715119714
20
25.713055882959218
30
0
10
20.197450289035537
20
25.55758743934917
30
0
11
19.772771899944004
21
26.368964849402094
31
0
11
20.037764309397463
21
26.007297684708295
31
0
11
20.197450289035537
21
25.55758743934917
31
0
0
SPLINE
5
212
100
AcDbEntity
8
0
100
AcDbSpline
70
1064
71
3
72
9
73
5
74
3
42
0.000000001
43
0.0000000001
44
0.0000000001
40
0
40
0
40
0
40
0
40
0.051673965194963867
40
0.11037874484658954
40
0.11037874484658954
40
0.11037874484658954
40
0.11037874484658954
10
20.197450289035537
20
25.55758743934917
30
0
10
20.217588922319024
20
25.384262845321331
30
0
10
20.260606272668863
20
25.014030929352522
30
0
10
20.138236412543023
20
24.661135858213669
30
0
10
20.073154175155089
20
24.47344911272527
30
0
11
20.197450289035537
21
25.55758743934917
31
0
11
20.221618977845623
21
25.041413299762315
31
0
11
20.073154175155089
21
24.47344911272527
31
0
0
SPLINE
5
213
100
AcDbEntity
8
0
100
AcDbSpline
70
1064
71
3
72
9
73
5
74
3
42
0.000000001
43
0.0000000001
44
0.0000000001
40
0
40
0
40
0
40
0
40
0.071218167940768295
40
0.1613991345843247
40
0.1613991345843247
40
0.1613991345843247
40
0.1613991345843247
10
20.073154175155089
20
24.47344911272527
30
0
10
19.963551465944505
20
24.261491996731628
30
0
10
19.715162846492824
20
23.781141321061135
30
0
10
19.337910513394867
20
23.392433708780839
30
0
10
19.127122641731681
20
23.17524525664059
30
0
11
20.073154175155089
21
24.47344911272527
31
0
11
19.719255517578816
21
23.85542121315304
31
0
11
19.127122641731681
21
23.17524525664059
31
0
0
SPLINE
5
214
100
AcDbEntity
8
0
100
AcDbSpline
70
1064
71
3
72
9
73
5
74
3
42
0.000000001
43
0.0000000001
44
0.0000000001
40
0
40
0
40
0
40
0
40
0.1221251097710857
40
0.20857726659784259
40
0.20857726659784259
40
0.20857726659784259
40
0.20857726659784259
10
19.127122641731681
20
23.17524525664059
30
0
10
18.833929812753489
20
22.884539938737113
30
0
10
18.333186280412036
20
22.388044822315774
30
0
10
17.678889354377322
20
22.13418144524427
30
0
10
17.407693066385484
20
22.028958873076459
30
0
11
19.127122641731681
21
23.17524525664059
31
0
11
18.194901787628325
21
22.386310200482747
31
0
11
17.407693066385484
21
22.028958873076459
31
0
0
SPLINE
5
215
100
AcDbEntity
8
0
100
AcDbSpline
70
1064
71
3
72
9
73
5
74
3
42
0.000000001
43
0.0000000001
44
0.0000000001
40
0
40
0
40
0
40
0
40
0.069571511259894275
40
0.14134927021383792
40
0.14134927021383792
40
0.14134927021383792
40
0.14134927021383792
10
17.407693066385484
20
22.028958873076459
30
0
10
17.171563802342455
20
22.006691534873987
30
0
10
16.69181715685232
20
21.961450717942952
30
0
10
16.264390316063519
20
22.184832767544592
30
0
10
16.047341153360584
20
22.298267119817432
30
0
11
17.407693066385484
21
22.028958873076459
31
0
11
16.711980095637983
21
22.027232538161456
31
0
11
16.047341153360584
21
22.298267119817432
31
0
0
SPLINE
5
216
100
AcDbEntity
8
0
100
AcDbSpline
70
1064
71
3
72
9
73
5
74
3
42
0.000000001
43
0.0000000001
44
0.0000000001
40
0
40
0
40
0
40
0
40
0.042740126925321482
40
0.076686430090818325
40
0.076686430090818325
40
0.076686430090818325
40
0.076686430090818325
10
21.398979389879862
20
28.589031550100096
30
0
10
21.514134462789354
20
28.50140153420837
30
0
10
21.72075133745858
20
28.344171465629501
30
0
10
21.973969973552059
20
28.291326019549452
30
0
10
22.086060686052345
20
28.267933255908936
30
0
11
21.398979389879862
21
28.589031550100096
31
0
11
21.758920219658666
21
28.358565838946763
31
0
11
22.086060686052345
21
28.267933255908936
31
0
0
SPLINE
5
217
100
AcDbEntity
8
0
100
AcDbSpline
70
1064
71
3
72
9
73
5
74
3
42
0.000000001
43
0.0000000001
44
0.0000000001
40
0
40
0
40
0
40
0
40
0.041724661361846944
40
0.084553252740493356
40
0.084553252740493356
40
0.084553252740493356
40
0.084553252740493356
10
22.086060686052345
20
28.267933255908936
30
0
10
22.229320920862648
20
28.272230211067356
30
0
10
22.51963169742066
20
28.280937808053537
30
0
10
22.74290956354384
20
28.467109177175143
30
0
10
22.856006058145116
20
28.561410191459995
30
0
11
22.086060686052345
21
28.267933255908936
31
0
11
22.499517898196334
21
28.32403914064664
31
0
11
22.856006058145116
21
28.561410191459995
31
0
0
SPLINE
5
218
100
AcDbEntity
8
0
100
AcDbSpline
70
1064
71
3
72
9
73
5
74
3
42
0.000000001
43
0.0000000001
44
0.0000000001
40
0
40
0
40
0
40
0
40
0.028798246950201417
40
0.058040138714376896
40
0.058040138714376896
40
0.058040138714376896
40
0.058040138714376896
10
22.856006058145116
20
28.561410191459995
30
0
10
22.919983813310939
20
28.634280531965178
30
0
10
23.048924918333039
20
28.781143800357803
30
0
10
23.113497330044325
20
28.965640947550483
30
0
10
23.14603032386616
20
29.058594646981788
30
0
11
22.856006058145116
21
28.561410191459995
31
0
11
23.032092219475754
21
28.789286400240819
31
0
11
23.14603032386616
21
29.058594646981788
31
0
0
SPLINE
5
219
100
AcDbEntity
8
0
100
AcDbSpline
70
1064
71
3
72
9
73
5
74
3
42
0.000000001
43
0.0000000001
44
0.0000000001
40
0
40
0
40
0
40
0
40
0.021070481641611735
40
0.04786428958294759
40
0.04786428958294759
40
0.04786428958294759
40
0.04786428958294759
10
23.14603032386616
20
29.058594646981788
30
0
10
23.158060821991491
20
29.128110632343414
30
0
10
23.185389634682743
20
29.286025069734436
30
0
10
23.169010070550392
20
29.445686620248562
30
0
10
23.159841003186209
20
29.535063083523504
30
0
11
23.14603032386616
21
29.058594646981788
31
0
11
23.173651682506261
21
29.26748117169754
31
0
11
23.159841003186209
21
29.535063083523504
31
0
0
SPLINE
5
220
100
AcDbEntity
8
0
100
AcDbSpline
70
1064
71
3
72
9
73
5
74
3
42
0.000000001
43
0.0000000001
44
0.0000000001
40
0
40
0
40
0
40
0
40
0.083449679853717762
40
0.15762424652341395
40
0.15762424652341395
40
0.15762424652341395
40
0.15762424652341395
10
24.67211038873166
20
30.791834901648034
30
0
10
24.734106882428705
20
30.5169654936008
30
0
10
24.851209196340754
20
29.997777362361347
30
0
10
24.748203842559519
20
29.476520406069831
30
0
10
24.699731747371757
20
29.231228138482411
30
0
11
24.67211038873166
21
30.791834901648034
31
0
11
24.796406502612104
21
29.966646812275059
31
0
11
24.699731747371757
21
29.231228138482411
31
0
0
SPLINE
5
221
100
AcDbEntity
8
0
100
AcDbSpline
70
1064
71
3
72
9
73
5
74
3
42
0.000000001
43
0.0000000001
44
0.0000000001
40
0
40
0
40
0
40
0
40
0.081297178509446455
40
0.18649331984229864
40
0.18649331984229864
40
0.18649331984229864
40
0.18649331984229864
10
24.699731747371757
20
29.231228138482411
30
0
10
24.588733981256038
20
28.981838398497743
30
0
10
24.334108393043337
20
28.409745720780222
30
0
10
23.896796590838726
20
27.959257198352411
30
0
10
23.650120119047976
20
27.705148073616911
30
0
11
24.699731747371757
21
29.231228138482411
31
0
11
24.332022410475432
21
28.506167474179797
31
0
11
23.650120119047976
21
27.705148073616911
31
0
0
SPLINE
5
222
100
AcDbEntity
8
0
100
AcDbSpline
70
1064
71
3
72
9
73
5
74
3
42
0.000000001
43
0.0000000001
44
0.0000000001
40
0
40
0
40
0
40
0
40
0.092322367275743514
40
0.16564639788335675
40
0.16564639788335675
40
0.16564639788335675
40
0.16564639788335675
10
23.650120119047976
20
27.705148073616911
30
0
10
23.426832463069722
20
27.48953477514501
30
0
10
23.026205865247057
20
27.102677643103043
30
0
10
22.52291146470418
20
26.866925725239675
30
0
10
22.300126215513117
20
26.762569210023514
30
0
11
23.650120119047976
21
27.705148073616911
31
0
11
22.948364976097949
21
27.105246690652251
31
0
11
22.300126215513117
21
26.762569210023514
31
0
0
SPLINE
5
223
100
AcDbEntity
8
0
100
AcDbSpline
70
1064
71
3
72
9
73
5
74
3
42
0.000000001
43
0.0000000001
44
0.0000000001
40
0
40
0
40
0
40
0
40
0.065932660761425191
40
0.13607052745927201
40
0.13607052745927201
40
0.13607052745927201
40
0.13607052745927201
10
22.300126215513117
20
26.762569210023514
30
0
10
22.084285569757711
20
26.709038146769508
30
0
10
21.638837893660416
20
26.598561792132696
30
0
10
21.186660737925045
20
26.679445485877867
30
0
10
20.953584981808259
20
26.721137172063365
30
0
11
22.300126215513117
21
26.762569210023514
31
0
11
21.651024287470776
21
26.646904770718098
31
0
11
20.953584981808259
21
26.721137172063365
31
0
0
SPLINE
5
224
100
AcDbEntity
8
0
100
AcDbSpline
70
1064
71
3
72
9
73
5
74
3
42
0.000000001
43
0.0000000001
44
0.0000000001
40
0
40
0
40
0
40
0
40
0.074791754259431881
40
0.15532726709818701
40
0.15532726709818701
40
0.15532726709818701
40
0.15532726709818701
10
20.953584981808259
20
26.721137172063365
30
0
10
20.714494913787522
20
26.801176651129346
30
0
10
20.217953453786961
20
26.967402375694604
30
0
10
19.829281818360791
20
27.319092840504226
30
0
10
19.627759767083486
20
27.501440553646177
30
0
11
20.953584981808259
21
26.721137172063365
31
0
11
20.26132468089077
21
27.004256098124387
31
0
11
19.627759767083486
21
27.501440553646177
31
0
0
SPLINE
5
225
100
AcDbEntity
8
0
100
AcDbSpline
70
1064
71
3
72
9
73
5
74
3
42
0.000000001
43
0.0000000001
44
0.0000000001
40
0
40
0
40
0
40
0
40
0.11168479670245357
40
0.2161993708686914
40
0.2161993708686914
40
0.2161993708686914
40
0.2161993708686914
10
19.627759767083486
20
27.501440553646177
30
0
10
19.377710097931473
20
27.790856942910249
30
0
10
18.893664079558754
20
28.351109037424791
30
0
10
18.820619406701489
20
29.086392199688031
30
0
10
18.785308328560447
20
29.441840998113165
30
0
11
19.627759767083486
21
27.501440553646177
31
0
11
18.987289513616176
21
28.416398058599476
31
0
11
18.785308328560447
21
29.441840998113165
31
0
0
SPLINE
5
226
100
AcDbEntity
8
0
100
AcDbSpline
70
1064
71
3
72
9
73
5
74
3
42
0.000000001
43
0.0000000001
44
0.0000000001
40
0
40
0
40
0
40
0
40
0.1086744626009343
40
0.23254575956005546
40
0.23254575956005546
40
0.23254575956005546
40
0.23254575956005546
10
18.785308328560447
20
29.441840998113165
30
0
10
18.841363369534591
20
29.80770563896936
30
0
10
18.961312083965979
20
30.590596750347522
30
0
10
19.493005052977992
20
31.181447932784955
30
0
10
19.776224569774019
20
31.49617954697057
30
0
11
18.785308328560447
21
29.441840998113165
31
0
11
19.043395398353876
21
30.497494798639472
31
0
11
19.776224569774019
21
31.49617954697057
31
0
0
SPLINE
5
227
100
AcDbEntity
8
0
100
AcDbSpline
70
1064
71
3
72
9
73
5
74
3
42
0.000000001
43
0.0000000001
44
0.0000000001
40
0
40
0
40
0
40
0
40
0.099964853905432846
40
0.18021854165254392
40
0.18021854165254392
40
0.18021854165254392
40
0.18021854165254392
10
19.776224569774019
20
31.49617954697057
30
0
10
20.018881098881053
20
31.729268685028483
30
0
10
20.45634690900976
20
32.149486220439314
30
0
10
21.010602582887159
20
32.392630929490181
30
0
10
21.257419926849359
20
32.500906467504187
30
0
11
19.776224569774019
21
31.49617954697057
31
0
11
20.54012776966427
21
32.140965637725394
31
0
11
21.257419926849359
21
32.500906467504187
31
0
0
SPLINE
5
228
100
AcDbEntity
8
0
100
AcDbSpline
70
1064
71
3
72
9
73
5
74
3
42
0.000000001
43
0.0000000001
44
0.0000000001
40
0
40
0
40
0
40
0
40
0.070173868630492658
40
0.14012399225738686
40
0.14012399225738686
40
0.14012399225738686
40
0.14012399225738686
10
21.257419926849359
20
32.500906467504187
30
0
10
21.488420585659135
20
32.555486937649206
30
0
10
21.949685372084883
20
32.664473851514188
30
0
10
22.411434578050418
20
32.557673863921188
30
0
10
22.641940528684344
20
32.504359137334198
30
0
11
21.257419926849359
21
32.500906467504187
31
0
11
21.950543395224354
21
32.610528734607087
31
0
11
22.641940528684344
21
32.504359137334198
31
0
0
SPLINE
5
229
100
AcDbEntity
8
0
100
AcDbSpline
70
1064
71
3
72
9
73
5
74
3
42
0.000000001
43
0.0000000001
44
0.0000000001
40
0
40
0
40
0
40
0
40
0.077824778679601331
40
0.1711013555903465
40
0.1711013555903465
40
0.1711013555903465
40
0.1711013555903465
10
22.641940528684344
20
32.504359137334198
30
0
10
22.882683945308585
20
32.402288682426544
30
0
10
23.41196942009859
20
32.177882092433876
30
0
10
23.82976969564335
20
31.781384930662217
30
0
10
24.057535158989442
20
31.56523294357082
30
0
11
22.641940528684344
21
32.504359137334198
31
0
11
23.341106169261863
21
32.162544824162971
31
0
11
24.057535158989442
21
31.56523294357082
31
0
0
SPLINE
5
230
100
AcDbEntity
8
0
100
AcDbSpline
70
1064
71
3
72
9
73
5
74
3
42
0.000000001
43
0.0000000001
44
0.0000000001
40
0
40
0
40
0
40
0
40
0.050592070101015019
40
0.089514127507741625
40
0.089514127507741625
40
0.089514127507741625
40
0.089514127507741625
10
22.113682044692439
20
30.650275438617523
30
0
10
21.978146454266824
20
30.756372430383792
30
0
10
21.738339107009214
20
30.944093146895113
30
0
10
21.439255792379143
20
30.991982692811781
30
0
10
21.309209974299542
20
31.012805770768828
30
0
11
22.113682044692439
21
30.650275438617523
31
0
11
21.688140488143407
21
30.923899522646007
31
0
11
21.309209974299542
21
31.012805770768828
31
0
0
SPLINE
5
231
100
AcDbEntity
8
0
100
AcDbSpline
70
1064
71
3
72
9
73
5
74
3
42
0.000000001
43
0.0000000001
44
0.0000000001
40
0
40
0
40
0
40
0
40
0.034435513724700099
40
0.07194309466923926
40
0.07194309466923926
40
0.07194309466923926
40
0.07194309466923926
10
21.309209974299542
20
31.012805770768828
30
0
10
21.192522746134003
20
30.998784148794712
30
0
10
20.948738367898272
20
30.969490005394825
30
0
10
20.763557537029097
20
30.807325880809564
30
0
10
20.66701338591723
20
30.722781505047784
30
0
11
21.309209974299542
21
31.012805770768828
31
0
11
20.972574665873328
21
30.940299704338567
31
0
11
20.66701338591723
21
30.722781505047784
31
0
0
SPLINE
5
232
100
AcDbEntity
8
0
100
AcDbSpline
70
1064
71
3
72
9
73
5
74
3
42
0.000000001
43
0.0000000001
44
0.0000000001
40
0
40
0
40
0
40
0
40
0.043627116788646038
40
0.087095462072338065
40
0.087095462072338065
40
0.087095462072338065
40
0.087095462072338065
10
20.66701338591723
20
30.722781505047784
30
0
10
20.572045072662597
20
30.605820550922065
30
0
10
20.3824540628965
20
30.372324296898412
30
0
10
20.392627629082909
20
30.071766867276484
30
0
10
20.39770513917626
20
29.921762104484898
30
0
11
20.66701338591723
21
30.722781505047784
31
0
11
20.432231837476383
21
30.355072168151459
31
0
11
20.39770513917626
21
29.921762104484898
31
0
0
SPLINE
5
233
100
AcDbEntity
8
0
100
AcDbSpline
70
1064
71
3
72
9
73
5
74
3
42
0.000000001
43
0.0000000001
44
0.0000000001
40
0
40
0
40
0
40
0
40
0.032700720628036556
40
0.074164755359641676
40
0.074164755359641676
40
0.074164755359641676
40
0.074164755359641676
10
20.39770513917626
20
29.921762104484898
30
0
10
20.425834566747962
20
29.815356846891138
30
0
10
20.489631696419583
20
29.574031281372726
30
0
10
20.643267006725111
20
29.376301571685978
30
0
10
20.729161442857453
20
29.265754836782534
30
0
11
20.39770513917626
21
29.921762104484898
31
0
11
20.499558899161627
21
29.611021819783776
31
0
11
20.729161442857453
21
29.265754836782534
31
0
0
SPLINE
5
234
100
AcDbEntity
8
0
100
AcDbSpline
70
1064
71
3
72
9
73
5
74
3
42
0.000000001
43
0.0000000001
44
0.0000000001
40
0
40
0
40
0
40
0
40
0.04789591699332682
40
0.095728324322088387
40
0.095728324322088387
40
0.095728324322088387
40
0.095728324322088387
10
30.175666097771487
20
34.47928628010132
30
0
10
30.283112472443662
20
34.359500703556279
30
0
10
30.49786274861615
20
34.120088385336977
30
0
10
30.621453956367084
20
33.823173273476939
30
0
10
30.683208562783314
20
33.674814209708416
30
0
11
30.175666097771487
21
34.47928628010132
31
0
11
30.475185205525065
21
34.105534771002468
31
0
11
30.683208562783314
21
33.674814209708416
31
0
0
SPLINE
5
235
100
AcDbEntity
8
0
100
AcDbSpline
70
1064
71
3
72
9
73
5
74
3
42
0.000000001
43
0.0000000001
44
0.0000000001
40
0
40
0
40
0
40
0
40
0.046810423556674828
40
0.091178574303290794
40
0.091178574303290794
40
0.091178574303290794
40
0.091178574303290794
10
30.683208562783314
20
33.674814209708416
30
0
10
30.730625406588263
20
33.524675573095195
30
0
10
30.822985182202402
20
33.232231587458976
30
0
10
30.807926836461945
20
32.926090507597849
30
0
10
30.800599337003739
20
32.777120053905186
30
0
11
30.683208562783314
21
33.674814209708416
31
0
11
30.797146667173724
21
33.220788127061788
31
0
11
30.800599337003739
21
32.777120053905186
31
0
0
SPLINE
5
236
100
AcDbEntity
8
0
100
AcDbSpline
70
1064
71
3
72
9
73
5
74
3
42
0.000000001
43
0.0000000001
44
0.0000000001
40
0
40
0
40
0
40
0
40
0.04551275005486663
40
0.096544857025368594
40
0.096544857025368594
40
0.096544857025368594
40
0.096544857025368594
10
30.800599337003739
20
32.777120053905186
30
0
10
30.771889807452901
20
32.627018422020001
30
0
10
30.710989127480598
20
32.308612248537635
30
0
10
30.548255927375646
20
32.027838517203705
30
0
10
30.462237693662519
20
31.87942589810195
30
0
11
30.800599337003739
21
32.777120053905186
31
0
11
30.691840237358345
21
32.33517831566359
31
0
11
30.462237693662519
21
31.87942589810195
31
0
0
SPLINE
5
237
100
AcDbEntity
8
0
100
AcDbSpline
70
1064
71
3
72
9
73
5
74
3
42
0.000000001
43
0.0000000001
44
0.0000000001
40
0
40
0
40
0
40
0
40
0.057375773912915699
40
0.12190110651966621
40
0.12190110651966621
40
0.12190110651966621
40
0.12190110651966621
10
30.462237693662519
20
31.87942589810195
30
0
10
30.354258973855096
20
31.721142488189599
30
0
10
30.124846374644143
20
31.384852073330745
30
0
10
29.84200656959063
20
31.091909129107165
30
0
10
29.692292321569745
20
30.936847034508553
30
0
11
30.462237693662519
21
31.87942589810195
31
0
11
30.126465552693809
21
31.414178638507778
31
0
11
29.692292321569745
21
30.936847034508553
31
0
0
SPLINE
5
238
100
AcDbEntity
8
0
100
AcDbSpline
70
1064
71
3
72
9
73
5
74
3
42
0.000000001
43
0.0000000001
44
0.0000000001
40
0
40
0
40
0
40
0
40
0.13235574607120917
40
0.22250151053131931
40
0.22250151053131931
40
0.22250151053131931
40
0.22250151053131931
10
29.692292321569745
20
30.936847034508553
30
0
10
29.374918931807045
20
30.618774512274314
30
0
10
28.841386684656605
20
30.084066962686332
30
0
10
28.129912676649589
20
29.845701575540005
30
0
10
27.841661292683074
20
29.749128612984279
30
0
11
29.692292321569745
21
30.936847034508553
31
0
11
28.677207391546091
21
30.087490256325495
31
0
11
27.841661292683074
21
29.749128612984279
31
0
0
SPLINE
5
239
100
AcDbEntity
8
0
100
AcDbSpline
70
1064
71
3
72
9
73
5
74
3
42
0.000000001
43
0.0000000001
44
0.0000000001
40
0
40
0
40
0
40
0
40
0.070023046854843243
40
0.14217909665978168
40
0.14217909665978168
40
0.14217909665978168
40
0.14217909665978168
10
27.841661292683074
20
29.749128612984279
30
0
10
27.600643088286731
20
29.750489170994634
30
0
10
27.111264917544297
20
29.753251731573663
30
0
10
26.734610150236492
20
30.066581727729911
30
0
10
26.543457436598402
20
30.225597049525991
30
0
11
27.841661292683074
21
29.749128612984279
31
0
11
27.14594832193557
21
29.828540019074559
31
0
11
26.543457436598402
21
30.225597049525991
31
0
0
SPLINE
5
240
100
AcDbEntity
8
0
100
AcDbSpline
70
1064
71
3
72
9
73
5
74
3
42
0.000000001
43
0.0000000001
44
0.0000000001
40
0
40
0
40
0
40
0
40
0.011477206321819491
40
0.026387783943501591
40
0.026387783943501591
40
0.026387783943501591
40
0.026387783943501591
10
26.543457436598402
20
30.225597049525991
30
0
10
26.516817358892308
20
30.253060340459651
30
0
10
26.455567905407289
20
30.316202482128496
30
0
10
26.397008150624956
20
30.381851297862859
30
0
10
26.363918605437753
20
30.418946560006688
30
0
11
26.543457436598402
21
30.225597049525991
31
0
11
26.464046030508115
21
30.308461125446293
31
0
11
26.363918605437753
21
30.418946560006688
31
0
0
SPLINE
5
241
100
AcDbEntity
8
0
100
AcDbSpline
70
1064
71
3
72
9
73
5
74
3
42
0.000000001
43
0.0000000001
44
0.0000000001
40
0
40
0
40
0
40
0
40
0.024527325164355317
40
0.044053996991069003
40
0.044053996991069003
40
0.044053996991069003
40
0.044053996991069003
10
27.883093330643227
20
31.627381000511043
30
0
10
27.956724360282649
20
31.58792708631978
30
0
10
28.088974458344627
20
31.517063157806547
30
0
10
28.238183174846505
20
31.521731632155884
30
0
10
28.304319049904745
20
31.52380090561067
30
0
11
27.883093330643227
21
31.627381000511043
31
0
11
28.109243204509042
21
31.532432580185702
31
0
11
28.304319049904745
21
31.52380090561067
31
0
0
SPLINE
5
242
100
AcDbEntity
8
0
100
AcDbSpline
70
1064
71
3
72
9
73
5
74
3
42
0.000000001
43
0.0000000001
44
0.0000000001
40
0
40
0
40
0
40
0
40
0.027256964152356667
40
0.057887127571558922
40
0.057887127571558922
40
0.057887127571558922
40
0.057887127571558922
10
28.304319049904745
20
31.52380090561067
30
0
10
28.392657498025603
20
31.549760812796819
30
0
10
28.580266763212364
20
31.604893308500685
30
0
10
28.724947642809148
20
31.73701139513371
30
0
10
28.801503505426535
20
31.806919831671689
30
0
11
28.304319049904745
21
31.52380090561067
31
0
11
28.559816617325669
21
31.618749325936012
31
0
11
28.801503505426535
21
31.806919831671689
31
0
0
SPLINE
5
243
100
AcDbEntity
8
0
100
AcDbSpline
70
1064
71
3
72
9
73
5
74
3
42
0.000000001
43
0.0000000001
44
0.0000000001
40
0
40
0
40
0
40
0
40
0.037912217113170221
40
0.069502259296617491
40
0.069502259296617491
40
0.069502259296617491
40
0.069502259296617491
10
28.801503505426535
20
31.806919831671689
30
0
10
28.889556923826504
20
31.902837275438706
30
0
10
29.050980126782949
20
32.078677138031388
30
0
10
29.078857154521337
20
32.314368875716852
30
0
10
29.091527771147582
20
32.421495061413907
30
0
11
28.801503505426535
21
31.806919831671689
31
0
11
29.025927044377347
21
32.112481111627794
31
0
11
29.091527771147582
21
32.421495061413907
31
0
0
SPLINE
5
244
100
AcDbEntity
8
0
100
AcDbSpline
70
1064
71
3
72
9
73
5
74
3
42
0.000000001
43
0.0000000001
44
0.0000000001
40
0
40
0
40
0
40
0
40
0.035376810573437466
40
0.084256787924307158
40
0.084256787924307158
40
0.084256787924307158
40
0.084256787924307158
10
29.091527771147582
20
32.421495061413907
30
0
10
29.063139612882921
20
32.537941263084306
30
0
10
28.995527666195354
20
32.815280648961576
30
0
10
28.794075844696643
20
33.020560926659329
30
0
10
28.677207391546084
20
33.139650386056488
30
0
11
29.091527771147582
21
32.421495061413907
31
0
11
28.982768671502189
21
32.758130369840117
31
0
11
28.677207391546084
21
33.139650386056488
31
0
0
SPLINE
5
245
100
AcDbEntity
8
0
100
AcDbSpline
70
1064
71
3
72
9
73
5
74
3
42
0.000000001
43
0.0000000001
44
0.0000000001
40
0
40
0
40
0
40
0
40
0.041865846288189741
40
0.077557377066524852
40
0.077557377066524852
40
0.077557377066524852
40
0.077557377066524852
10
28.121327548914085
20
33.69553022868849
30
0
10
28.129804086238394
20
33.55539520137237
30
0
10
28.145507053209474
20
33.2957920614055
30
0
10
28.088751016225018
20
33.042259375549406
30
0
10
28.062632161803872
20
32.925584856595719
30
0
11
28.121327548914085
21
33.69553022868849
31
0
11
28.125643386201599
21
33.276894011799484
31
0
11
28.062632161803872
21
32.925584856595719
31
0
0
SPLINE
5
246
100
AcDbEntity
8
0
100
AcDbSpline
70
1064
71
3
72
9
73
5
74
3
42
0.000000001
43
0.0000000001
44
0.0000000001
40
0
40
0
40
0
40
0
40
0.05112123385970057
40
0.10287400783504774
40
0.10287400783504774
40
0.10287400783504774
40
0.10287400783504774
10
28.062632161803872
20
32.925584856595719
30
0
10
28.00226096435885
20
32.764511866829807
30
0
10
27.8807727574033
20
32.440376028155228
30
0
10
27.650311635399039
20
32.182026934620254
30
0
10
27.534373677811971
20
32.052059389602576
30
0
11
28.062632161803872
21
32.925584856595719
31
0
11
27.854608804545627
21
32.458611262086535
31
0
11
27.534373677811971
21
32.052059389602576
31
0
0
SPLINE
5
247
100
AcDbEntity
8
0
100
AcDbSpline
70
1064
71
3
72
9
73
5
74
3
42
0.000000001
43
0.0000000001
44
0.0000000001
40
0
40
0
40
0
40
0
40
0.09669756483228846
40
0.19725564748179514
40
0.19725564748179514
40
0.19725564748179514
40
0.19725564748179514
10
27.534373677811971
20
32.052059389602576
30
0
10
27.270828278141227
20
31.846099249392694
30
0
10
26.733215789728892
20
31.425956292504328
30
0
10
26.051822920174704
20
31.479328947249261
30
0
10
25.704458667905378
20
31.506537556460607
30
0
11
27.534373677811971
21
32.052059389602576
31
0
11
26.709185588438999
21
31.547969594420756
31
0
11
25.704458667905378
21
31.506537556460607
31
0
0
SPLINE
5
248
100
AcDbEntity
8
0
100
AcDbSpline
70
1064
71
3
72
9
73
5
74
3
42
0.000000001
43
0.0000000001
44
0.0000000001
40
0
40
0
40
0
40
0
40
0.082215057800510208
40
0.17846794429406143
40
0.17846794429406143
40
0.17846794429406143
40
0.17846794429406143
10
25.704458667905378
20
31.506537556460607
30
0
10
25.438282930938954
20
31.585712915756226
30
0
10
24.860483220420967
20
31.75758244902979
30
0
10
24.417364988328831
20
32.168695799325427
30
0
10
24.178378603039882
20
32.390421032943792
30
0
11
25.704458667905378
21
31.506537556460607
31
0
11
24.934513295812604
21
31.794835487266646
31
0
11
24.178378603039882
21
32.390421032943792
31
0
0
SPLINE
5
249
100
AcDbEntity
8
0
100
AcDbSpline
70
1064
71
3
72
9
73
5
74
3
42
0.000000001
43
0.0000000001
44
0.0000000001
40
0
40
0
40
0
40
0
40
0.10769037157194221
40
0.19711418689935475
40
0.19711418689935475
40
0.19711418689935475
40
0.19711418689935475
10
24.178378603039882
20
32.390421032943792
30
0
10
23.92848719832552
20
32.660080056697119
30
0
10
23.471091236788673
20
33.153658251584304
30
0
10
23.344857582581476
20
33.811438641782793
30
0
10
23.287589786896671
20
34.109850608289989
30
0
11
24.178378603039882
21
32.390421032943792
31
0
11
23.527550340082538
21
33.248409485701885
31
0
11
23.287589786896671
21
34.109850608289989
31
0
0
SPLINE
5
250
100
AcDbEntity
8
0
100
AcDbSpline
70
1064
71
3
72
9
73
5
74
3
42
0.000000001
43
0.0000000001
44
0.0000000001
40
0
40
0
40
0
40
0
40
0.082703515079802836
40
0.16985385337604197
40
0.16985385337604197
40
0.16985385337604197
40
0.16985385337604197
10
23.287589786896671
20
34.109850608289989
30
0
10
23.308241327771093
20
34.392279645524475
30
0
10
23.350654806717998
20
34.972323434875811
30
0
10
23.728838638465017
20
35.415464631753203
30
0
10
23.922881035618957
20
35.642836012815515
30
0
11
23.287589786896671
21
34.109850608289989
31
0
11
23.429149249927178
21
34.92468068817292
31
0
11
23.922881035618957
21
35.642836012815515
31
0
0
SPLINE
5
251
100
AcDbEntity
8
0
100
AcDbSpline
70
1064
71
3
72
9
73
5
74
3
42
0.000000001
43
0.0000000001
44
0.0000000001
40
0
40
0
40
0
40
0
40
0.055413468443094221
40
0.10243383731291025
40
0.10243383731291025
40
0.10243383731291025
40
0.10243383731291025
10
23.922881035618957
20
35.642836012815515
30
0
10
24.058520360699617
20
35.770881827233467
30
0
10
24.309254648751143
20
36.007579231153542
30
0
10
24.626576880214174
20
36.140948030909911
30
0
10
24.772237813802018
20
36.202168525277528
30
0
11
23.922881035618957
21
35.642836012815515
31
0
11
24.349285759625495
21
35.996734670391788
31
0
11
24.772237813802018
21
36.202168525277528
31
0
0
SPLINE
5
252
100
AcDbEntity
8
0
100
AcDbSpline
70
1064
71
3
72
9
73
5
74
3
42
0.000000001
43
0.0000000001
44
0.0000000001
40
0
40
0
40
0
40
0
40
0.046913449095210544
40
0.10089696597472467
40
0.10089696597472467
40
0.10089696597472467
40
0.10089696597472467
10
24.772237813802018
20
36.202168525277528
30
0
10
24.92603722975835
20
36.236525128900041
30
0
10
25.256814325409216
20
36.310416030838908
30
0
10
25.593417319150475
20
36.266889061934179
30
0
10
25.773512064505624
20
36.243600563237678
30
0
11
24.772237813802018
21
36.202168525277528
31
0
11
25.234895571023689
21
36.279853596452803
31
0
11
25.773512064505624
21
36.243600563237678
31
0
0
SPLINE
5
253
100
AcDbEntity
8
0
100
AcDbSpline
70
1064
71
3
72
9
73
5
74
3
42
0.000000001
43
0.0000000001
44
0.0000000001
40
0
40
0
40
0
40
0
40
0.049314291124970308
40
0.088242664981219673
40
0.088242664981219673
40
0.088242664981219673
40
0.088242664981219673
10
25.687195318755315
20
33.685172219198456
30
0
10
25.809055098025176
20
33.56944535444724
30
0
10
26.027110177627666
20
33.36236447134808
30
0
10
26.3183165756177
20
33.294073261661069
30
0
10
26.446782681358055
20
33.263946499936942
30
0
11
25.687195318755315
21
33.685172219198456
31
0
11
26.075620674631711
21
33.381337274157367
31
0
11
26.446782681358055
21
33.263946499936942
31
0
0
SPLINE
5
254
100
AcDbEntity
8
0
100
AcDbSpline
70
1064
71
3
72
9
73
5
74
3
42
0.000000001
43
0.0000000001
44
0.0000000001
40
0
40
0
40
0
40
0
40
0.034256766465331753
40
0.070168267362436282
40
0.070168267362436282
40
0.070168267362436282
40
0.070168267362436282
10
26.446782681358055
20
33.263946499936942
30
0
10
26.564054418877614
20
33.270462276067974
30
0
10
26.804262572809993
20
33.283808565540426
30
0
10
26.988025621250792
20
33.439673676889029
30
0
10
27.082073930080345
20
33.51944406735786
30
0
11
26.446782681358055
21
33.263946499936942
31
0
11
26.785144324699274
21
33.317462882302131
31
0
11
27.082073930080345
21
33.51944406735786
31
0
0
SPLINE
5
255
100
AcDbEntity
8
0
100
AcDbSpline
70
1064
71
3
72
9
73
5
74
3
42
0.000000001
43
0.0000000001
44
0.0000000001
40
0
40
0
40
0
40
0
40
0.034761115649660994
40
0.06964888784330879
40
0.06964888784330879
40
0.06964888784330879
40
0.06964888784330879
10
27.082073930080345
20
33.51944406735786
30
0
10
27.157738610086845
20
33.611627899201331
30
0
10
27.309343663980556
20
33.796331446398753
30
0
10
27.318949277509684
20
34.035122612227298
30
0
10
27.32376081818121
20
34.154735316080149
30
0
11
27.082073930080345
21
33.51944406735786
31
0
11
27.273697105646029
21
33.809468333078904
31
0
11
27.32376081818121
21
34.154735316080149
31
0
0
SPLINE
5
256
100
AcDbEntity
8
0
100
AcDbSpline
70
1064
71
3
72
9
73
5
74
3
42
0.000000001
43
0.0000000001
44
0.0000000001
40
0
40
0
40
0
40
0
40
0.040197292386628038
40
0.090162685874693727
40
0.090162685874693727
40
0.090162685874693727
40
0.090162685874693727
10
27.32376081818121
20
34.154735316080149
30
0
10
27.294877590467742
20
34.288032643925575
30
0
10
27.230092396422094
20
34.587019077709883
30
0
10
27.019332027372741
20
34.810945529958104
30
0
10
26.902535098919692
20
34.935038697662961
30
0
11
27.32376081818121
21
34.154735316080149
31
0
11
27.208096378875798
21
34.539708002126531
31
0
11
26.902535098919692
21
34.935038697662961
31
0
0
SPLINE
5
257
100
AcDbEntity
8
0
100
AcDbSpline
70
1064
71
3
72
9
73
5
74
3
42
0.000000001
43
0.0000000001
44
0.0000000001
40
0
40
0
40
0
40
0
40
0.050360033078913777
40
0.091872016725356304
40
0.091872016725356304
40
0.091872016725356304
40
0.091872016725356304
10
26.902535098919692
20
34.935038697662961
30
0
10
26.77691044138718
20
35.052068535786056
30
0
10
26.54773285884152
20
35.265566553719502
30
0
10
26.242766246823322
20
35.330415406067473
30
0
10
26.104968368186817
20
35.359717086754486
30
0
11
26.902535098919692
21
34.935038697662961
31
0
11
26.502888566095756
21
35.241463145076565
31
0
11
26.104968368186817
21
35.359717086754486
31
0
0
SPLINE
5
258
100
AcDbEntity
8
0
100
AcDbSpline
70
1064
71
3
72
9
73
5
74
3
42
0.000000001
43
0.0000000001
44
0.0000000001
40
0
40
0
40
0
40
0
40
0.037065178502578108
40
0.073026852235757583
40
0.073026852235757583
40
0.073026852235757583
40
0.073026852235757583
10
26.104968368186817
20
35.359717086754486
30
0
10
25.977633459715939
20
35.357245465499155
30
0
10
25.726754658613981
20
35.352375808114836
30
0
10
25.531367672963583
20
35.195354488282504
30
0
10
25.435150421164408
20
35.118030198653621
30
0
11
26.104968368186817
21
35.359717086754486
31
0
11
25.737259031290499
21
35.31310604404932
31
0
11
25.435150421164408
21
35.118030198653621
31
0
0
SPLINE
5
259
100
AcDbEntity
8
0
100
AcDbSpline
70
1064
71
3
72
9
73
5
74
3
42
0.000000001
43
0.0000000001
44
0.0000000001
40
0
40
0
40
0
40
0
40
0.035000349451772848
40
0.068917888373213276
40
0.068917888373213276
40
0.068917888373213276
40
0.068917888373213276
10
25.435150421164408
20
35.118030198653621
30
0
10
25.357953846976518
20
35.025488813864683
30
0
10
25.205948939425351
20
34.843269009586052
30
0
10
25.202209309764775
20
34.606278026811474
30
0
10
25.200368872723562
20
34.489644289591354
30
0
11
25.435150421164408
21
35.118030198653621
31
0
11
25.241800910683708
21
34.826279598017571
31
0
11
25.200368872723562
21
34.489644289591354
31
0
0
SPLINE
5
260
100
AcDbEntity
8
0
100
AcDbSpline
70
1064
71
3
72
9
73
5
74
3
42
0.000000001
43
0.0000000001
44
0.0000000001
40
0
40
0
40
0
40
0
40
0.040198960504804211
40
0.095295420054643365
40
0.095295420054643365
40
0.095295420054643365
40
0.095295420054643365
10
25.200368872723562
20
34.489644289591354
30
0
10
25.238618983640869
20
34.359306989998558
30
0
10
25.329294472291014
20
34.050330151853736
30
0
10
25.55607740492956
20
33.818948785584588
30
0
10
25.687195318755315
20
33.685172219198456
30
0
11
25.200368872723562
21
34.489644289591354
31
0
11
25.339338833381561
21
34.112440110662497
31
0
11
25.687195318755315
21
33.685172219198456
31
0
0
SPLINE
5
261
100
AcDbEntity
8
0
100
AcDbSpline
70
1064
71
3
72
9
73
5
74
3
42
0.000000001
43
0.0000000001
44
0.0000000001
40
0
40
0
40
0
40
0
40
0.057055956570843051
40
0.10557195726485502
40
0.10557195726485502
40
0.10557195726485502
40
0.10557195726485502
10
29.253803253158161
20
39.737702431210266
30
0
10
29.242557558692713
20
39.928898594211141
30
0
10
29.2217493898901
20
40.28267328072387
30
0
10
29.307581062107605
20
40.626057736743668
30
0
10
29.347025338568503
20
40.783861389704029
30
0
11
29.253803253158161
21
39.737702431210266
31
0
11
29.251213750785652
21
40.308256120619816
31
0
11
29.347025338568503
21
40.783861389704029
31
0
0
SPLINE
5
262
100
AcDbEntity
8
0
100
AcDbSpline
70
1064
71
3
72
9
73
5
74
3
42
0.000000001
43
0.0000000001
44
0.0000000001
40
0
40
0
40
0
40
0
40
0.047596309049541492
40
0.10129684182193927
40
0.10129684182193927
40
0.10129684182193927
40
0.10129684182193927
10
29.347025338568503
20
40.783861389704029
30
0
10
29.411003835684738
20
40.930335434173564
30
0
10
29.547166068257095
20
41.24206881035208
30
0
10
29.77965548137146
20
41.490930838183388
30
0
10
29.902905181200502
20
41.622860158397053
30
0
11
29.347025338568503
21
40.783861389704029
31
0
11
29.560227700571765
21
41.209402946253064
31
0
11
29.902905181200502
21
41.622860158397053
31
0
0
SPLINE
5
263
100
AcDbEntity
8
0
100
AcDbSpline
70
1064
71
3
72
9
73
5
74
3
42
0.000000001
43
0.0000000001
44
0.0000000001
40
0
40
0
40
0
40
0
40
0.055812971140890288
40
0.10149174079736978
40
0.10149174079736978
40
0.10149174079736978
40
0.10149174079736978
10
29.902905181200502
20
41.622860158397053
30
0
10
30.039537128347472
20
41.752576439594861
30
0
10
30.287992171700662
20
41.988455858292951
30
0
10
30.608161944885886
20
42.107774473693809
30
0
10
30.752261959383564
20
42.161476651878985
30
0
11
29.902905181200502
21
41.622860158397053
31
0
11
30.334488909952061
21
41.976758815973326
31
0
11
30.752261959383564
21
42.161476651878985
31
0
0
SPLINE
5
264
100
AcDbEntity
8
0
100
AcDbSpline
70
1064
71
3
72
9
73
5
74
3
42
0.000000001
43
0.0000000001
44
0.0000000001
40
0
40
0
40
0
40
0
40
0.042731061175806412
40
0.088984113090674832
40
0.088984113090674832
40
0.088984113090674832
40
0.088984113090674832
10
30.752261959383564
20
42.161476651878985
30
0
10
30.894532558928539
20
42.183723772487276
30
0
10
31.190800022713319
20
42.230051671717419
30
0
10
31.481559103948328
20
42.155396799780945
30
0
10
31.632692766036733
20
42.116591944088839
30
0
11
30.752261959383564
21
42.161476651878985
31
0
11
31.177803515932595
21
42.200319187466633
31
0
11
31.632692766036733
21
42.116591944088839
31
0
0
SPLINE
5
265
100
AcDbEntity
8
0
100
AcDbSpline
70
1064
71
3
72
9
73
5
74
3
42
0.000000001
43
0.0000000001
44
0.0000000001
40
0
40
0
40
0
40
0
40
0.061822316638977429
40
0.11020806908543816
40
0.11020806908543816
40
0.11020806908543816
40
0.11020806908543816
10
31.632692766036733
20
42.116591944088839
30
0
10
31.627157322933954
20
42.323878102124901
30
0
10
31.617289519055735
20
42.693398502964925
30
0
10
31.709569108016623
20
43.050745832842466
30
0
10
31.750083540257158
20
43.207635610372762
30
0
11
31.632692766036733
21
42.116591944088839
31
0
11
31.648229780271787
21
42.734619843661065
31
0
11
31.750083540257158
21
43.207635610372762
31
0
0
SPLINE
5
266
100
AcDbEntity
8
0
100
AcDbSpline
70
1064
71
3
72
9
73
5
74
3
42
0.000000001
43
0.0000000001
44
0.0000000001
40
0
40
0
40
0
40
0
40
0.045282163001334273
40
0.09761218398429361
40
0.09761218398429361
40
0.09761218398429361
40
0.09761218398429361
10
31.750083540257158
20
43.207635610372762
30
0
10
31.81233507175579
20
43.346315002667033
30
0
10
31.946527158511241
20
43.645258283160508
30
0
10
32.171528947041892
20
43.884076772600373
30
0
10
32.292152703569108
20
44.012107680765666
30
0
11
31.750083540257158
21
43.207635610372762
31
0
11
31.956380562600405
21
43.610734813026717
31
0
11
32.292152703569108
21
44.012107680765666
31
0
0
SPLINE
5
267
100
AcDbEntity
8
0
100
AcDbSpline
70
1064
71
3
72
9
73
5
74
3
42
0.000000001
43
0.0000000001
44
0.0000000001
40
0
40
0
40
0
40
0
40
0.075376317539371768
40
0.14271632549176316
40
0.14271632549176316
40
0.14271632549176316
40
0.14271632549176316
10
32.292152703569108
20
44.012107680765666
30
0
10
32.485683762910746
20
44.183492928357559
30
0
10
32.852112404683254
20
44.507991041004601
30
0
10
33.337269052822748
20
44.558137050610505
30
0
10
33.566187870843699
20
44.581798202717721
30
0
11
32.292152703569108
21
44.012107680765666
31
0
11
32.905864765853828
21
44.449733581719748
31
0
11
33.566187870843699
21
44.581798202717721
31
0
0
SPLINE
5
268
100
AcDbEntity
8
0
100
AcDbSpline
70
1064
71
3
72
9
73
5
74
3
42
0.000000001
43
0.0000000001
44
0.0000000001
40
0
40
0
40
0
40
0
40
0.072455183350803129
40
0.16463378950468371
40
0.16463378950468371
40
0.16463378950468371
40
0.16463378950468371
10
33.566187870843699
20
44.581798202717721
30
0
10
33.807421317402351
20
44.533206222236132
30
0
10
34.355555689928046
20
44.422794771788347
30
0
10
34.763648808276258
20
44.035567222082193
30
0
10
34.992140510638833
20
43.818758170284966
30
0
11
33.566187870843699
21
44.581798202717721
31
0
11
34.262764009048709
21
44.3824065200345
31
0
11
34.992140510638833
21
43.818758170284966
31
0
0
SPLINE
5
269
100
AcDbEntity
8
0
100
AcDbSpline
70
1064
71
3
72
9
73
5
74
3
42
0.000000001
43
0.0000000001
44
0.0000000001
40
0
40
0
40
0
40
0
40
0.030829702670469802
40
0.054745828452582634
40
0.054745828452582634
40
0.054745828452582634
40
0.054745828452582634
10
33.797516749454537
20
42.196003350179119
30
0
10
33.721896356769918
20
42.268519338153197
30
0
10
33.58761348386389
20
42.39728956601212
30
0
10
33.409302717927154
20
42.447033330241851
30
0
10
33.331406322402856
20
42.4687642667501
30
0
11
33.797516749454537
21
42.196003350179119
31
0
11
33.556693028811168
21
42.388489693202317
31
0
11
33.331406322402856
21
42.4687642667501
31
0
0
SPLINE
5
270
100
AcDbEntity
8
0
100
AcDbSpline
70
1064
71
3
72
9
73
5
74
3
42
0.000000001
43
0.0000000001
44
0.0000000001
40
0
40
0
40
0
40
0
40
0.030169153565876003
40
0.058325088582740367
40
0.058325088582740367
40
0.058325088582740367
40
0.058325088582740367
10
33.331406322402856
20
42.4687642667501
30
0
10
33.227266720332764
20
42.475358765257141
30
0
10
33.025936858610045
20
42.488107704624696
30
0
10
32.866367766354678
20
42.365619103661217
30
0
10
32.789337159090898
20
42.306488784739514
30
0
11
33.331406322402856
21
42.4687642667501
31
0
11
33.030160879734268
21
42.452364085057546
31
0
11
32.789337159090898
21
42.306488784739514
31
0
0
SPLINE
5
271
100
AcDbEntity
8
0
100
AcDbSpline
70
1064
71
3
72
9
73
5
74
3
42
0.000000001
43
0.0000000001
44
0.0000000001
40
0
40
0
40
0
40
0
40
0.032366823084329199
40
0.063715848317287244
40
0.063715848317287244
40
0.063715848317287244
40
0.063715848317287244
10
32.789337159090898
20
42.306488784739514
30
0
10
32.717912026541946
20
42.221081346422871
30
0
10
32.577307775711574
20
42.052952167640839
30
0
10
32.571314874990641
20
41.834112307751937
30
0
10
32.568366289970101
20
41.726440253297426
30
0
11
32.789337159090898
21
42.306488784739514
31
0
11
32.609798327930257
21
42.037180537998545
31
0
11
32.568366289970101
21
41.726440253297426
31
0
0
SPLINE
5
272
100
AcDbEntity
8
0
100
AcDbSpline
70
1064
71
3
72
9
73
5
74
3
42
0.000000001
43
0.0000000001
44
0.0000000001
40
0
40
0
40
0
40
0
40
0.03679665761830777
40
0.085555305699160311
40
0.085555305699160311
40
0.085555305699160311
40
0.085555305699160311
10
32.568366289970101
20
41.726440253297426
30
0
10
32.600477127859946
20
41.606145134724997
30
0
10
32.675137510887609
20
41.326448925619843
30
0
10
32.877638026966757
20
41.11718696958215
30
0
10
32.993044679061633
20
40.997926919164804
30
0
11
32.568366289970101
21
41.726440253297426
31
0
11
32.688346566563041
21
41.378583767923672
31
0
11
32.993044679061633
21
40.997926919164804
31
0
0
SPLINE
5
273
100
AcDbEntity
8
0
100
AcDbSpline
70
1064
71
3
72
9
73
5
74
3
42
0.000000001
43
0.0000000001
44
0.0000000001
40
0
40
0
40
0
40
0
40
0.028703140964825489
40
0.046644154953680836
40
0.046644154953680836
40
0.046644154953680836
40
0.046644154953680836
10
31.456606604706103
20
39.716986412230185
30
0
10
31.389113612613095
20
39.785257701596869
30
0
10
31.279433853685962
20
39.896202235646633
30
0
10
31.150553583814439
20
39.983710046576498
30
0
10
31.100981612214824
20
40.017368687441262
30
0
11
31.456606604706103
21
39.716986412230185
31
0
11
31.246856912532849
21
39.912925425083394
31
0
11
31.100981612214824
21
40.017368687441262
31
0
0
SPLINE
5
274
100
AcDbEntity
8
0
100
AcDbSpline
70
1064
71
3
72
9
73
5
74
3
42
0.000000001
43
0.0000000001
44
0.0000000001
40
0
40
0
40
0
40
0
40
0.019598653833715493
40
0.038676412144369524
40
0.038676412144369524
40
0.038676412144369524
40
0.038676412144369524
10
31.100981612214824
20
40.017368687441262
30
0
10
31.03999855935411
20
40.043469414637471
30
0
10
30.919653268995187
20
40.094977160571084
30
0
10
30.789058538411179
20
40.086935896304468
30
0
10
30.724640600743463
20
40.082969414211504
30
0
11
31.100981612214824
21
40.017368687441262
31
0
11
30.915400608851652
21
40.080379911838989
31
0
11
30.724640600743463
21
40.082969414211504
31
0
0
SPLINE
5
275
100
AcDbEntity
8
0
100
AcDbSpline
70
1064
71
3
72
9
73
5
74
3
42
0.000000001
43
0.0000000001
44
0.0000000001
40
0
40
0
40
0
40
0
40
0.019280154748904991
40
0.039169001499078315
40
0.039169001499078315
40
0.039169001499078315
40
0.039169001499078315
10
30.724640600743463
20
40.082969414211504
30
0
10
30.660682130155013
20
40.069358957613936
30
0
10
30.530745961955944
20
40.041708349939015
30
0
10
30.430351116000786
20
39.954578070872316
30
0
10
30.379373617742221
20
39.910335922710885
30
0
11
30.724640600743463
21
40.082969414211504
31
0
11
30.539922764837797
21
40.027726696931303
31
0
11
30.379373617742221
21
39.910335922710885
31
0
0
SPLINE
5
276
100
AcDbEntity
8
0
100
AcDbSpline
70
1064
71
3
72
9
73
5
74
3
42
0.000000001
43
0.0000000001
44
0.0000000001
40
0
40
0
40
0
40
0
40
0.031793165435726307
40
0.063462354805097765
40
0.063462354805097765
40
0.063462354805097765
40
0.063462354805097765
10
30.379373617742221
20
39.910335922710885
30
0
10
30.310023556039788
20
39.825856079349037
30
0
10
30.171593860185414
20
39.657225818101629
30
0
10
30.167400615029401
20
39.439124844096263
30
0
10
30.165308088281449
20
39.330287391268797
30
0
11
30.379373617742221
21
39.910335922710885
31
0
11
30.205013791326589
21
39.644480345799927
31
0
11
30.165308088281449
21
39.330287391268797
31
0
0
SPLINE
5
277
100
AcDbEntity
8
0
100
AcDbSpline
70
1064
71
3
72
9
73
5
74
3
42
0.000000001
43
0.0000000001
44
0.0000000001
40
0
40
0
40
0
40
0
40
0.03794502207609754
40
0.089022514212850318
40
0.089022514212850318
40
0.089022514212850318
40
0.089022514212850318
10
30.165308088281449
20
39.330287391268797
30
0
10
30.199018743160899
20
39.206435230510969
30
0
10
30.278107042203434
20
38.915866662142648
30
0
10
30.48944524493184
20
38.698734365163681
30
0
10
30.610702496353056
20
38.574152698496071
30
0
11
30.165308088281449
21
39.330287391268797
31
0
11
30.2904673696194
21
38.972072896405002
31
0
11
30.610702496353056
21
38.574152698496071
31
0
0
SPLINE
5
278
100
AcDbEntity
8
0
100
AcDbSpline
70
1064
71
3
72
9
73
5
74
3
42
0.000000001
43
0.0000000001
44
0.0000000001
40
0
40
0
40
0
40
0
40
0.042740126925321482
40
0.076686430090818325
40
0.076686430090818325
40
0.076686430090818325
40
0.076686430090818325
10
37.902741177339323
20
45.092793337559556
30
0
10
38.01789625024881
20
45.005163321667837
30
0
10
38.224513124918047
20
44.847933253088968
30
0
10
38.477731761011512
20
44.795087807008912
30
0
10
38.589822473511802
20
44.77169504336841
30
0
11
37.902741177339323
21
45.092793337559556
31
0
11
38.262682007118123
21
44.862327626406227
31
0
11
38.589822473511802
21
44.77169504336841
31
0
0
SPLINE
5
279
100
AcDbEntity
8
0
100
AcDbSpline
70
1064
71
3
72
9
73
5
74
3
42
0.000000001
43
0.0000000001
44
0.0000000001
40
0
40
0
40
0
40
0
40
0.041724661361846944
40
0.084553252740493356
40
0.084553252740493356
40
0.084553252740493356
40
0.084553252740493356
10
38.589822473511802
20
44.77169504336841
30
0
10
38.733082708322108
20
44.77599199852682
30
0
10
39.023393484880124
20
44.784699595513004
30
0
10
39.246671351003293
20
44.970870964634599
30
0
10
39.35976784560458
20
45.065171978919459
30
0
11
38.589822473511802
21
44.77169504336841
31
0
11
39.003279685655791
21
44.827800928106107
31
0
11
39.35976784560458
21
45.065171978919459
31
0
0
SPLINE
5
280
100
AcDbEntity
8
0
100
AcDbSpline
70
1064
71
3
72
9
73
5
74
3
42
0.000000001
43
0.0000000001
44
0.0000000001
40
0
40
0
40
0
40
0
40
0.028798246950201417
40
0.058040138714376896
40
0.058040138714376896
40
0.058040138714376896
40
0.058040138714376896
10
39.35976784560458
20
45.065171978919459
30
0
10
39.423745600770395
20
45.138042319424642
30
0
10
39.552686705792503
20
45.284905587817263
30
0
10
39.617259117503778
20
45.469402735009936
30
0
10
39.649792111325624
20
45.562356434441256
30
0
11
39.35976784560458
21
45.065171978919459
31
0
11
39.53585400693521
21
45.293048187700279
31
0
11
39.649792111325624
21
45.562356434441256
31
0
0
SPLINE
5
281
100
AcDbEntity
8
0
100
AcDbSpline
70
1064
71
3
72
9
73
5
74
3
42
0.000000001
43
0.0000000001
44
0.0000000001
40
0
40
0
40
0
40
0
40
0.021070481641611735
40
0.04786428958294759
40
0.04786428958294759
40
0.04786428958294759
40
0.04786428958294759
10
39.649792111325624
20
45.562356434441256
30
0
10
39.661822609450958
20
45.631872419802882
30
0
10
39.68915142214221
20
45.78978685719391
30
0
10
39.67277185800986
20
45.949448407708019
30
0
10
39.663602790645662
20
46.038824870982964
30
0
11
39.649792111325624
21
45.562356434441256
31
0
11
39.677413469965714
21
45.771242959157007
31
0
11
39.663602790645662
21
46.038824870982964
31
0
0
SPLINE
5
282
100
AcDbEntity
8
0
100
AcDbSpline
70
1064
71
3
72
9
73
5
74
3
42
0.000000001
43
0.0000000001
44
0.0000000001
40
0
40
0
40
0
40
0
40
0.083449679853717762
40
0.15762424652341395
40
0.15762424652341395
40
0.15762424652341395
40
0.15762424652341395
10
41.175872176191113
20
47.295596689107491
30
0
10
41.237868669888158
20
47.02072728106026
30
0
10
41.354970983800207
20
46.501539149820807
30
0
10
41.251965630018972
20
45.980282193529298
30
0
10
41.20349353483121
20
45.734989925941875
30
0
11
41.175872176191113
21
47.295596689107491
31
0
11
41.300168290071554
21
46.470408599734519
31
0
11
41.20349353483121
21
45.734989925941875
31
0
0
SPLINE
5
283
100
AcDbEntity
8
0
100
AcDbSpline
70
1064
71
3
72
9
73
5
74
3
42
0.000000001
43
0.0000000001
44
0.0000000001
40
0
40
0
40
0
40
0
40
0.081297178509446455
40
0.18649331984229864
40
0.18649331984229864
40
0.18649331984229864
40
0.18649331984229864
10
41.20349353483121
20
45.734989925941875
30
0
10
41.092495768715487
20
45.48560018595721
30
0
10
40.83787018050279
20
44.913507508239682
30
0
10
40.400558378298179
20
44.463018985811871
30
0
10
40.153881906507429
20
44.208909861076371
30
0
11
41.20349353483121
21
45.734989925941875
31
0
11
40.835784197934892
21
45.009929261639257
31
0
11
40.153881906507429
21
44.208909861076371
31
0
0
SPLINE
5
284
100
AcDbEntity
8
0
100
AcDbSpline
70
1064
71
3
72
9
73
5
74
3
42
0.000000001
43
0.0000000001
44
0.0000000001
40
0
40
0
40
0
40
0
40
0.092322367275743514
40
0.16564639788335675
40
0.16564639788335675
40
0.16564639788335675
40
0.16564639788335675
10
40.153881906507429
20
44.208909861076371
30
0
10
39.930594250529182
20
43.993296562604471
30
0
10
39.529967652706517
20
43.606439430562517
30
0
10
39.02667325216364
20
43.370687512699142
30
0
10
38.80388800297257
20
43.266330997482982
30
0
11
40.153881906507429
21
44.208909861076371
31
0
11
39.452126763557409
21
43.609008478111718
31
0
11
38.80388800297257
21
43.266330997482982
31
0
0
SPLINE
5
285
100
AcDbEntity
8
0
100
AcDbSpline
70
1064
71
3
72
9
73
5
74
3
42
0.000000001
43
0.0000000001
44
0.0000000001
40
0
40
0
40
0
40
0
40
0.065932660761425191
40
0.13607052745927201
40
0.13607052745927201
40
0.13607052745927201
40
0.13607052745927201
10
38.80388800297257
20
43.266330997482982
30
0
10
38.588047357217171
20
43.212799934228975
30
0
10
38.142599681119883
20
43.102323579592159
30
0
10
37.690422525384498
20
43.183207273337331
30
0
10
37.457346769267723
20
43.224898959522832
30
0
11
38.80388800297257
21
43.266330997482982
31
0
11
38.154786074930236
21
43.150666558177562
31
0
11
37.457346769267723
21
43.224898959522832
31
0
0
SPLINE
5
286
100
AcDbEntity
8
0
100
AcDbSpline
70
1064
71
3
72
9
73
5
74
3
42
0.000000001
43
0.0000000001
44
0.0000000001
40
0
40
0
40
0
40
0
40
0.074791754259431881
40
0.15532726709818701
40
0.15532726709818701
40
0.15532726709818701
40
0.15532726709818701
10
37.457346769267723
20
43.224898959522832
30
0
10
37.218256701246972
20
43.304938438588806
30
0
10
36.721715241246415
20
43.471164163154057
30
0
10
36.333043605820244
20
43.822854627963679
30
0
10
36.131521554542942
20
44.005202341105644
30
0
11
37.457346769267723
21
43.224898959522832
31
0
11
36.765086468350226
21
43.508017885583847
31
0
11
36.131521554542942
21
44.005202341105644
31
0
0
SPLINE
5
287
100
AcDbEntity
8
0
100
AcDbSpline
70
1064
71
3
72
9
73
5
74
3
42
0.000000001
43
0.0000000001
44
0.0000000001
40
0
40
0
40
0
40
0
40
0.11168479670245357
40
0.2161993708686914
40
0.2161993708686914
40
0.2161993708686914
40
0.2161993708686914
10
36.131521554542942
20
44.005202341105644
30
0
10
35.881471885390923
20
44.294618730369706
30
0
10
35.397425867018207
20
44.854870824884252
30
0
10
35.324381194160949
20
45.590153987147488
30
0
10
35.289070116019907
20
45.945602785572632
30
0
11
36.131521554542942
21
44.005202341105644
31
0
11
35.491051301075636
21
44.920159846058937
31
0
11
35.289070116019907
21
45.945602785572632
31
0
0
SPLINE
5
288
100
AcDbEntity
8
0
100
AcDbSpline
70
1064
71
3
72
9
73
5
74
3
42
0.000000001
43
0.0000000001
44
0.0000000001
40
0
40
0
40
0
40
0
40
0.1086744626009343
40
0.23254575956005546
40
0.23254575956005546
40
0.23254575956005546
40
0.23254575956005546
10
35.289070116019907
20
45.945602785572632
30
0
10
35.345125156994051
20
46.31146742642882
30
0
10
35.465073871425432
20
47.094358537806983
30
0
10
35.996766840437452
20
47.685209720244416
30
0
10
36.279986357233476
20
47.999941334430034
30
0
11
35.289070116019907
21
45.945602785572632
31
0
11
35.54715718581334
21
47.001256586098933
31
0
11
36.279986357233476
21
47.999941334430034
31
0
0
SPLINE
5
289
100
AcDbEntity
8
0
100
AcDbSpline
70
1064
71
3
72
9
73
5
74
3
42
0.000000001
43
0.0000000001
44
0.0000000001
40
0
40
0
40
0
40
0
40
0.099964853905432846
40
0.18021854165254392
40
0.18021854165254392
40
0.18021854165254392
40
0.18021854165254392
10
36.279986357233476
20
47.999941334430034
30
0
10
36.522642886340506
20
48.23303047248794
30
0
10
36.96010869646922
20
48.653248007898782
30
0
10
37.514364370346627
20
48.896392716949642
30
0
10
37.761181714308812
20
49.004668254963654
30
0
11
36.279986357233476
21
47.999941334430034
31
0
11
37.043889557123734
21
48.644727425184854
31
0
11
37.761181714308812
21
49.004668254963654
31
0
0
SPLINE
5
290
100
AcDbEntity
8
0
100
AcDbSpline
70
1064
71
3
72
9
73
5
74
3
42
0.000000001
43
0.0000000001
44
0.0000000001
40
0
40
0
40
0
40
0
40
0.070173868630492658
40
0.14012399225738686
40
0.14012399225738686
40
0.14012399225738686
40
0.14012399225738686
10
37.761181714308812
20
49.004668254963654
30
0
10
37.992182373118595
20
49.059248725108667
30
0
10
38.453447159544339
20
49.168235638973641
30
0
10
38.915196365509878
20
49.061435651380656
30
0
10
39.145702316143804
20
49.008120924793666
30
0
11
37.761181714308812
21
49.004668254963654
31
0
11
38.454305182683811
21
49.114290522066554
31
0
11
39.145702316143804
21
49.008120924793666
31
0
0
SPLINE
5
291
100
AcDbEntity
8
0
100
AcDbSpline
70
1064
71
3
72
9
73
5
74
3
42
0.000000001
43
0.0000000001
44
0.0000000001
40
0
40
0
40
0
40
0
40
0.077824778679601331
40
0.1711013555903465
40
0.1711013555903465
40
0.1711013555903465
40
0.1711013555903465
10
39.145702316143804
20
49.008120924793666
30
0
10
39.386445732768046
20
48.906050469886004
30
0
10
39.915731207558046
20
48.681643879893329
30
0
10
40.333531483102803
20
48.285146718121688
30
0
10
40.561296946448905
20
48.068994731030287
30
0
11
39.145702316143804
21
49.008120924793666
31
0
11
39.844867956721316
21
48.666306611622439
31
0
11
40.561296946448905
21
48.068994731030287
31
0
0
SPLINE
5
292
100
AcDbEntity
8
0
100
AcDbSpline
70
1064
71
3
72
9
73
5
74
3
42
0.000000001
43
0.0000000001
44
0.0000000001
40
0
40
0
40
0
40
0
40
0.050592070101015019
40
0.089514127507741625
40
0.089514127507741625
40
0.089514127507741625
40
0.089514127507741625
10
38.617443832151899
20
47.15403722607698
30
0
10
38.481908241726281
20
47.260134217843245
30
0
10
38.24210089446867
20
47.447854934354574
30
0
10
37.943017579838603
20
47.495744480271249
30
0
10
37.812971761758995
20
47.516567558228289
30
0
11
38.617443832151899
21
47.15403722607698
31
0
11
38.191902275602864
21
47.427661310105471
31
0
11
37.812971761758995
21
47.516567558228289
31
0
0
SPLINE
5
293
100
AcDbEntity
8
0
100
AcDbSpline
70
1064
71
3
72
9
73
5
74
3
42
0.000000001
43
0.0000000001
44
0.0000000001
40
0
40
0
40
0
40
0
40
0.034435513724700099
40
0.07194309466923926
40
0.07194309466923926
40
0.07194309466923926
40
0.07194309466923926
10
37.812971761758995
20
47.516567558228289
30
0
10
37.696284533593463
20
47.502545936254172
30
0
10
37.452500155357733
20
47.473251792854292
30
0
10
37.267319324488561
20
47.311087668269032
30
0
10
37.170775173376683
20
47.226543292507245
30
0
11
37.812971761758995
21
47.516567558228289
31
0
11
37.476336453332792
21
47.444061491798024
31
0
11
37.170775173376683
21
47.226543292507245
31
0
0
SPLINE
5
294
100
AcDbEntity
8
0
100
AcDbSpline
70
1064
71
3
72
9
73
5
74
3
42
0.000000001
43
0.0000000001
44
0.0000000001
40
0
40
0
40
0
40
0
40
0.043627116788646038
40
0.087095462072338065
40
0.087095462072338065
40
0.087095462072338065
40
0.087095462072338065
10
37.170775173376683
20
47.226543292507245
30
0
10
37.075806860122057
20
47.109582338381529
30
0
10
36.88621585035596
20
46.87608608435788
30
0
10
36.89638941654237
20
46.575528654735947
30
0
10
36.90146692663572
20
46.425523891944358
30
0
11
37.170775173376683
21
47.226543292507245
31
0
11
36.93599362493584
21
46.858833955610919
31
0
11
36.90146692663572
21
46.425523891944358
31
0
0
SPLINE
5
295
100
AcDbEntity
8
0
100
AcDbSpline
70
1064
71
3
72
9
73
5
74
3
42
0.000000001
43
0.0000000001
44
0.0000000001
40
0
40
0
40
0
40
0
40
0.032700720628036556
40
0.074164755359641676
40
0.074164755359641676
40
0.074164755359641676
40
0.074164755359641676
10
36.90146692663572
20
46.425523891944358
30
0
10
36.929596354207419
20
46.319118634350602
30
0
10
36.993393483879046
20
46.077793068832179
30
0
10
37.147028794184564
20
45.880063359145439
30
0
10
37.232923230316914
20
45.769516624242002
30
0
11
36.90146692663572
21
46.425523891944358
31
0
11
37.00332068662108
21
46.11478360724324
31
0
11
37.232923230316914
21
45.769516624242002
31
0
0
SPLINE
5
296
100
AcDbEntity
8
0
100
AcDbSpline
70
1064
71
3
72
9
73
5
74
3
42
0.000000001
43
0.0000000001
44
0.0000000001
40
0
40
0
40
0
40
0
40
0.060880296707796266
40
0.11235244215348886
40
0.11235244215348886
40
0.11235244215348886
40
0.11235244215348886
10
41.089555430440797
20
51.449158494612455
30
0
10
41.072194966537651
20
51.652837524324049
30
0
10
41.040156842186867
20
52.028719996010807
30
0
10
41.12376020029302
20
52.3960743866811
30
0
10
41.162061496871061
20
52.564370849706478
30
0
11
41.089555430440797
21
51.449158494612455
31
0
11
41.07142891383323
21
52.05769155215215
31
0
11
41.162061496871061
21
52.564370849706478
31
0
0
SPLINE
5
297
100
AcDbEntity
8
0
100
AcDbSpline
70
1064
71
3
72
9
73
5
74
3
42
0.000000001
43
0.0000000001
44
0.0000000001
40
0
40
0
40
0
40
0
40
0.050039895353749093
40
0.10671523661382269
40
0.10671523661382269
40
0.10671523661382269
40
0.10671523661382269
10
41.162061496871061
20
52.564370849706478
30
0
10
41.225369233400414
20
52.72022887677052
30
0
10
41.360379509410294
20
53.052612190498969
30
0
10
41.605188960556163
20
53.315527896161647
30
0
10
41.735204688653127
20
53.455159665849685
30
0
11
41.162061496871061
21
52.564370849706478
31
0
11
41.376127026331837
21
53.016670597438107
31
0
11
41.735204688653127
21
53.455159665849685
31
0
0
SPLINE
5
298
100
AcDbEntity
8
0
100
AcDbSpline
70
1064
71
3
72
9
73
5
74
3
42
0.000000001
43
0.0000000001
44
0.0000000001
40
0
40
0
40
0
40
0
40
0.074513402597342224
40
0.14114243867529447
40
0.14114243867529447
40
0.14114243867529447
40
0.14114243867529447
10
41.735204688653127
20
53.455159665849685
30
0
10
41.926569062245697
20
53.624533625583489
30
0
10
42.289049279534666
20
53.945359851357999
30
0
10
42.768904280912949
20
53.994667984100758
30
0
10
42.995429176607665
20
54.017944848141717
30
0
11
41.735204688653127
21
53.455159665849685
31
0
11
42.342011411277809
21
53.88760656205875
31
0
11
42.995429176607665
21
54.017944848141717
31
0
0
SPLINE
5
299
100
AcDbEntity
8
0
100
AcDbSpline
70
1064
71
3
72
9
73
5
74
3
42
0.000000001
43
0.0000000001
44
0.0000000001
40
0
40
0
40
0
40
0
40
0.071496530968867822
40
0.1613751040648172
40
0.1613751040648172
40
0.1613751040648172
40
0.1613751040648172
10
42.995429176607665
20
54.017944848141717
30
0
10
43.234014457721244
20
53.972065590406366
30
0
10
43.772526243486134
20
53.868511335519784
30
0
10
44.173749867632836
20
53.489927458092126
30
0
10
44.397213127592721
20
53.279073504519054
30
0
11
42.995429176607665
21
54.017944848141717
31
0
11
43.684236807695143
21
53.826321672576029
31
0
11
44.397213127592721
21
53.279073504519054
31
0
0
SPLINE
5
300
100
AcDbEntity
8
0
100
AcDbSpline
70
1064
71
3
72
9
73
5
74
3
42
0.000000001
43
0.0000000001
44
0.0000000001
40
0
40
0
40
0
40
0
40
0.041870295132183828
40
0.072277811506893663
40
0.072277811506893663
40
0.072277811506893663
40
0.072277811506893663
10
43.299264121648761
20
51.552738589512828
30
0
10
43.197331149402338
20
51.652688570572316
30
0
10
43.021371268271665
20
51.825225350366395
30
0
10
42.784388382414122
20
51.886174669841836
30
0
10
42.684688891906546
20
51.911816251834125
30
0
11
43.299264121648761
21
51.552738589512828
31
0
11
42.972986822712585
21
51.815141496593782
31
0
11
42.684688891906546
21
51.911816251834125
31
0
0
SPLINE
5
301
100
AcDbEntity
8
0
100
AcDbSpline
70
1064
71
3
72
9
73
5
74
3
42
0.000000001
43
0.0000000001
44
0.0000000001
40
0
40
0
40
0
40
0
40
0.026621405417058555
40
0.056123049829027424
40
0.056123049829027424
40
0.056123049829027424
40
0.056123049829027424
10
42.684688891906546
20
51.911816251834125
30
0
10
42.593718108835134
20
51.905375332593955
30
0
10
42.401934177396605
20
51.891796634332252
30
0
10
42.256859209578359
20
51.764608461778472
30
0
10
42.180599096724734
20
51.697750722373357
30
0
11
42.684688891906546
21
51.911816251834125
31
0
11
42.422285984825606
21
51.866931544043965
31
0
11
42.180599096724734
21
51.697750722373357
31
0
0
SPLINE
5
302
100
AcDbEntity
8
0
100
AcDbSpline
70
1064
71
3
72
9
73
5
74
3
42
0.000000001
43
0.0000000001
44
0.0000000001
40
0
40
0
40
0
40
0
40
0.033421415934858596
40
0.066440927776063113
40
0.066440927776063113
40
0.066440927776063113
40
0.066440927776063113
10
42.180599096724734
20
51.697750722373357
30
0
10
42.107483242456112
20
51.608915827742685
30
0
10
41.962130777371591
20
51.432314308834712
30
0
10
41.960459040055646
20
51.203697687139908
30
0
10
41.959628227603936
20
51.090080832291171
30
0
11
42.180599096724734
21
51.697750722373357
31
0
11
41.997607595734074
21
51.418084466142346
31
0
11
41.959628227603936
21
51.090080832291171
31
0
0
SPLINE
5
303
100
AcDbEntity
8
0
100
AcDbSpline
70
1064
71
3
72
9
73
5
74
3
42
0.000000001
43
0.0000000001
44
0.0000000001
40
0
40
0
40
0
40
0
40
0.041756790762410081
40
0.10195577496364198
40
0.10195577496364198
40
0.10195577496364198
40
0.10195577496364198
10
41.959628227603936
20
51.090080832291171
30
0
10
42.002103744139532
20
50.955692100450122
30
0
10
42.105814401167962
20
50.627560865959502
30
0
10
42.350386425834387
20
50.382164019330247
30
0
10
42.494792051255871
20
50.237271384278088
30
0
11
41.959628227603936
21
51.090080832291171
31
0
11
42.110682532666985
21
50.700792308957261
31
0
11
42.494792051255871
21
50.237271384278088
31
0
0
SPLINE
5
304
100
AcDbEntity
8
0
100
AcDbSpline
70
1064
71
3
72
9
73
5
74
3
42
0.000000001
43
0.0000000001
44
0.0000000001
40
0
40
0
40
0
40
0
40
0.027633494266536818
40
0.044669629878011943
40
0.044669629878011943
40
0.044669629878011943
40
0.044669629878011943
10
47.922389024035411
20
54.822416918534614
30
0
10
47.98745116072471
20
54.755889751524442
30
0
10
48.092624308099793
20
54.648348378055204
30
0
10
48.226830400398136
20
54.581902513354024
30
0
10
48.278014016526704
20
54.556561341623663
30
0
11
47.922389024035411
21
54.822416918534614
31
0
11
48.128686046378661
21
54.638562250086451
31
0
11
48.278014016526704
21
54.556561341623663
31
0
0
SPLINE
5
305
100
AcDbEntity
8
0
100
AcDbSpline
70
1064
71
3
72
9
73
5
74
3
42
0.000000001
43
0.0000000001
44
0.0000000001
40
0
40
0
40
0
40
0
40
0.018312174406835132
40
0.039475097192742684
40
0.039475097192742684
40
0.039475097192742684
40
0.039475097192742684
10
48.278014016526704
20
54.556561341623663
30
0
10
48.341378964647944
20
54.551543501886087
30
0
10
48.477973201363255
20
54.540726670037643
30
0
10
48.581558664181514
20
54.631951224829045
30
0
10
48.637091678847987
20
54.680857455504103
30
0
11
48.278014016526704
21
54.556561341623663
31
0
11
48.461005517517357
21
54.563466681283685
31
0
11
48.637091678847987
21
54.680857455504103
31
0
0
SPLINE
5
306
100
AcDbEntity
8
0
100
AcDbSpline
70
1064
71
3
72
9
73
5
74
3
42
0.000000001
43
0.0000000001
44
0.0000000001
40
0
40
0
40
0
40
0
40
0.026557517986950462
40
0.062980320992291339
40
0.062980320992291339
40
0.062980320992291339
40
0.062980320992291339
10
48.637091678847987
20
54.680857455504103
30
0
10
48.693996183728174
20
54.748977769089116
30
0
10
48.828943432376278
20
54.910522956323398
30
0
10
48.926145009235604
20
55.097519410001503
30
0
10
48.982358661849233
20
55.20566326966599
30
0
11
48.637091678847987
21
54.680857455504103
31
0
11
48.801093495773586
21
54.889743980219862
31
0
11
48.982358661849233
21
55.20566326966599
31
0
0
SPLINE
5
307
100
AcDbEntity
8
0
100
AcDbSpline
70
1064
71
3
72
9
73
5
74
3
42
0.000000001
43
0.0000000001
44
0.0000000001
40
0
40
0
40
0
40
0
40
0.072306131918322164
40
0.13883445223082216
40
0.13883445223082216
40
0.13883445223082216
40
0.13883445223082216
10
50.056138978983107
20
54.339043142332869
30
0
10
49.921866660005946
20
54.138341246236479
30
0
10
49.664051404779556
20
53.752975066813313
30
0
10
49.347914418381137
20
53.41392306071306
30
0
10
49.196424191310008
20
53.25145214587895
30
0
11
50.056138978983107
21
54.339043142332869
31
0
11
49.637502762094094
21
53.749499768858243
31
0
11
49.196424191310008
21
53.25145214587895
31
0
0
SPLINE
5
308
100
AcDbEntity
8
0
100
AcDbSpline
70
1064
71
3
72
9
73
5
74
3
42
0.000000001
43
0.0000000001
44
0.0000000001
40
0
40
0
40
0
40
0
40
0.064628708701640225
40
0.11176634598967372
40
0.11176634598967372
40
0.11176634598967372
40
0.11176634598967372
10
49.196424191310008
20
53.25145214587895
30
0
10
49.041435087265832
20
53.098705056428521
30
0
10
48.773403028831829
20
52.834550249820111
30
0
10
48.432252720588082
20
52.678515947031599
30
0
10
48.288372026016731
20
52.612708227326657
30
0
11
49.196424191310008
21
53.25145214587895
31
0
11
48.707008242905736
21
52.829363259159933
31
0
11
48.288372026016731
21
52.612708227326657
31
0
0
SPLINE
5
309
100
AcDbEntity
8
0
100
AcDbSpline
70
1064
71
3
72
9
73
5
74
3
42
0.000000001
43
0.0000000001
44
0.0000000001
40
0
40
0
40
0
40
0
40
0.038874555493232946
40
0.078898914752871224
40
0.078898914752871224
40
0.078898914752871224
40
0.078898914752871224
10
48.288372026016731
20
52.612708227326657
30
0
10
48.159262934090947
20
52.58616919775713
30
0
10
47.897226053966449
20
52.532306186204643
30
0
10
47.641332616535806
20
52.610845604114772
30
0
10
47.511521314263938
20
52.650687595456787
30
0
11
48.288372026016731
21
52.612708227326657
31
0
11
47.902536172512846
21
52.565234017163988
31
0
11
47.511521314263938
21
52.650687595456787
31
0
0
SPLINE
5
310
100
AcDbEntity
8
0
100
AcDbSpline
70
1064
71
3
72
9
73
5
74
3
42
0.000000001
43
0.0000000001
44
0.0000000001
40
0
40
0
40
0
40
0
40
0.052522587231539047
40
0.12758858424600544
40
0.12758858424600544
40
0.12758858424600544
40
0.12758858424600544
10
47.511521314263938
20
52.650687595456787
30
0
10
47.357961255516592
20
52.736288785635651
30
0
10
46.984931069361906
20
52.94423236268274
30
0
10
46.681728929083462
20
53.246341496281282
30
0
10
46.503341723900306
20
53.424085637379584
30
0
11
47.511521314263938
21
52.650687595456787
31
0
11
47.062674236362326
21
52.923448512027775
31
0
11
46.503341723900306
21
53.424085637379584
31
0
0
SPLINE
5
311
100
AcDbEntity
8
0
100
AcDbSpline
70
1064
71
3
72
9
73
5
74
3
42
0.000000001
43
0.0000000001
44
0.0000000001
40
0
40
0
40
0
40
0
40
0.033521361315836475
40
0.061577623363105037
40
0.061577623363105037
40
0.061577623363105037
40
0.061577623363105037
10
50.705240907025441
20
57.218569780563243
30
0
10
50.809166412368455
20
57.172550922847364
30
0
10
51.000074101514386
20
57.088015815178828
30
0
10
51.207874070498825
20
57.099430753016883
30
0
10
51.302552787617593
20
57.104631676172836
30
0
11
50.705240907025441
21
57.218569780563243
31
0
11
51.02202336392908
21
57.108947513460357
31
0
11
51.302552787617593
21
57.104631676172836
31
0
0
SPLINE
5
312
100
AcDbEntity
8
0
100
AcDbSpline
70
1064
71
3
72
9
73
5
74
3
42
0.000000001
43
0.0000000001
44
0.0000000001
40
0
40
0
40
0
40
0
40
0.0280360723321629
40
0.061211585394341489
40
0.061211585394341489
40
0.061211585394341489
40
0.061211585394341489
10
51.302552787617593
20
57.104631676172836
30
0
10
51.39293698440823
20
57.132696109018603
30
0
10
51.590274183235564
20
57.193969614355936
30
0
10
51.741788213978012
20
57.335313563522909
30
0
10
51.823905931949469
20
57.411919291043944
30
0
11
51.302552787617593
21
57.104631676172836
31
0
11
51.564092527241037
21
57.205622268700694
31
0
11
51.823905931949469
21
57.411919291043944
31
0
0
SPLINE
5
313
100
AcDbEntity
8
0
100
AcDbSpline
70
1064
71
3
72
9
73
5
74
3
42
0.000000001
43
0.0000000001
44
0.0000000001
40
0
40
0
40
0
40
0
40
0.035778473325711886
40
0.065205774962444785
40
0.065205774962444785
40
0.065205774962444785
40
0.065205774962444785
10
51.823905931949469
20
57.411919291043944
30
0
10
51.907021689095771
20
57.500546782973473
30
0
10
52.058499011981397
20
57.662069166604361
30
0
10
52.115725361479967
20
57.875107716851346
30
0
10
52.141551556310624
20
57.971251803505965
30
0
11
51.823905931949469
21
57.411919291043944
31
0
11
52.044876801070274
21
57.693311882189953
31
0
11
52.141551556310624
21
57.971251803505965
31
0
0
SPLINE
5
314
100
AcDbEntity
8
0
100
AcDbSpline
70
1064
71
3
72
9
73
5
74
3
42
0.000000001
43
0.0000000001
44
0.0000000001
40
0
40
0
40
0
40
0
40
0.019190291757676614
40
0.037161595764772321
40
0.037161595764772321
40
0.037161595764772321
40
0.037161595764772321
10
52.141551556310624
20
57.971251803505965
30
0
10
52.14577495757262
20
58.037498005157104
30
0
10
52.15395348515483
20
58.165782379245726
30
0
10
52.075777348941955
20
58.267384244136991
30
0
10
52.037971461410244
20
58.31651878650721
30
0
11
52.141551556310624
21
57.971251803505965
31
0
11
52.131193546820576
21
58.162874979071653
31
0
11
52.037971461410244
21
58.31651878650721
31
0
0
SPLINE
5
315
100
AcDbEntity
8
0
100
AcDbSpline
70
1064
71
3
72
9
73
5
74
3
42
0.000000001
43
0.0000000001
44
0.0000000001
40
0
40
0
40
0
40
0
40
0.019853602088781223
40
0.041860140635314361
40
0.041860140635314361
40
0.041860140635314361
40
0.041860140635314361
10
52.037971461410244
20
58.31651878650721
30
0
10
51.981704045454642
20
58.357027912909572
30
0
10
51.863067541380744
20
58.442438999554405
30
0
10
51.719724700991065
20
58.409692746399564
30
0
10
51.64436710078882
20
58.392477522767479
30
0
11
52.037971461410244
21
58.31651878650721
31
0
11
51.863611634994612
21
58.411467206832548
31
0
11
51.64436710078882
21
58.392477522767479
31
0
0
SPLINE
5
316
100
AcDbEntity
8
0
100
AcDbSpline
70
1064
71
3
72
9
73
5
74
3
42
0.000000001
43
0.0000000001
44
0.0000000001
40
0
40
0
40
0
40
0
40
0.030847097924367694
40
0.087991782452552333
40
0.087991782452552333
40
0.087991782452552333
40
0.087991782452552333
10
51.64436710078882
20
58.392477522767479
30
0
10
51.552172279311407
20
58.346673111041056
30
0
10
51.289185249070066
20
58.216015379740696
30
0
10
51.050286351088559
20
58.044597016264547
30
0
10
50.895137747676131
20
57.933272435375819
30
0
11
51.64436710078882
21
58.392477522767479
31
0
11
51.370743016760343
21
58.250054892279465
31
0
11
50.895137747676131
21
57.933272435375819
31
0
0
SPLINE
5
317
100
AcDbEntity
8
0
100
AcDbSpline
70
1064
71
3
72
9
73
5
74
3
42
0.000000001
43
0.0000000001
44
0.0000000001
40
0
40
0
40
0
40
0
40
0.089463882132654077
40
0.14793301332385378
40
0.14793301332385378
40
0.14793301332385378
40
0.14793301332385378
10
50.895137747676131
20
57.933272435375819
30
0
10
50.651175134036556
20
57.761119879401207
30
0
10
50.247770724192684
20
57.476456999257394
30
0
10
49.81347134244978
20
57.242131379666134
30
0
10
49.641818599381608
20
57.149516383963004
30
0
11
50.895137747676131
21
57.933272435375819
31
0
11
50.151950566765954
21
57.435224812396527
31
0
11
49.641818599381608
21
57.149516383963004
31
0
0
SPLINE
5
318
100
AcDbEntity
8
0
100
AcDbSpline
70
1064
71
3
72
9
73
5
74
3
42
0.000000001
43
0.0000000001
44
0.0000000001
40
0
40
0
40
0
40
0
40
0.042470996721471685
40
0.086493891021476976
40
0.086493891021476976
40
0.086493891021476976
40
0.086493891021476976
10
49.641818599381608
20
57.149516383963004
30
0
10
49.506711176789224
20
57.101939933646868
30
0
10
49.231559482974852
20
57.00504858127718
30
0
10
48.940568058293998
20
57.027568805308533
30
0
10
48.792461821198543
20
57.039030949402601
30
0
11
49.641818599381608
21
57.149516383963004
31
0
11
49.232677224525141
21
57.03557827957259
31
0
11
48.792461821198543
21
57.039030949402601
31
0
0
SPLINE
5
319
100
AcDbEntity
8
0
100
AcDbSpline
70
1064
71
3
72
9
73
5
74
3
42
0.000000001
43
0.0000000001
44
0.0000000001
40
0
40
0
40
0
40
0
40
0.044226699222420077
40
0.089062412118012774
40
0.089062412118012774
40
0.089062412118012774
40
0.089062412118012774
10
48.792461821198543
20
57.039030949402601
30
0
10
48.646358228163685
20
57.072348824561601
30
0
10
48.352139155893497
20
57.139443371079409
30
0
10
48.123704248642127
20
57.336756697136721
30
0
10
48.008705769785735
20
57.436087979854022
30
0
11
48.792461821198543
21
57.039030949402601
31
0
11
48.370372934479533
21
57.171095570400574
31
0
11
48.008705769785735
21
57.436087979854022
31
0
0
SPLINE
5
320
100
AcDbEntity
8
0
100
AcDbSpline
70
1064
71
3
72
9
73
5
74
3
42
0.000000001
43
0.0000000001
44
0.0000000001
40
0
40
0
40
0
40
0
40
0.048306848844433342
40
0.094690033845523297
40
0.094690033845523297
40
0.094690033845523297
40
0.094690033845523297
10
48.008705769785735
20
57.436087979854022
30
0
10
47.90100337478399
20
57.559870857117872
30
0
10
47.689887483933802
20
57.802507359352894
30
0
10
47.625785334968896
20
58.117390831195479
30
0
10
47.594385390184243
20
58.271634078717028
30
0
11
48.008705769785735
21
57.436087979854022
31
0
11
47.723860508809693
21
57.826239670645442
31
0
11
47.594385390184243
21
58.271634078717028
31
0
0
SPLINE
5
321
100
AcDbEntity
8
0
100
AcDbSpline
70
1064
71
3
72
9
73
5
74
3
42
0.000000001
43
0.0000000001
44
0.0000000001
40
0
40
0
40
0
40
0
40
0.047954371033728925
40
0.099872727631744276
40
0.099872727631744276
40
0.099872727631744276
40
0.099872727631744276
10
47.594385390184243
20
58.271634078717028
30
0
10
47.590864009454982
20
58.43335387803485
30
0
10
47.583530164992439
20
58.77016149581317
30
0
10
47.715617345837977
20
59.080504160784727
30
0
10
47.784282230834918
20
59.241834300950529
30
0
11
47.594385390184243
21
58.271634078717028
31
0
11
47.61596457662182
21
58.750692017631266
31
0
11
47.784282230834918
21
59.241834300950529
31
0
0
SPLINE
5
322
100
AcDbEntity
8
0
100
AcDbSpline
70
1064
71
3
72
9
73
5
74
3
42
0.000000001
43
0.0000000001
44
0.0000000001
40
0
40
0
40
0
40
0
40
0.062720505830965681
40
0.14183610140452685
40
0.14183610140452685
40
0.14183610140452685
40
0.14183610140452685
10
47.784282230834918
20
59.241834300950529
30
0
10
47.88953659511386
20
59.423360946092814
30
0
10
48.127558729778571
20
59.833865155312864
30
0
10
48.459077312759511
20
60.174145188801177
30
0
10
48.64399701850801
20
60.363951995704582
30
0
11
47.784282230834918
21
59.241834300950529
31
0
11
48.11832803688862
21
59.77268228731495
31
0
11
48.64399701850801
21
60.363951995704582
31
0
0
SPLINE
5
323
100
AcDbEntity
8
0
100
AcDbSpline
70
1064
71
3
72
9
73
5
74
3
42
0.000000001
43
0.0000000001
44
0.0000000001
40
0
40
0
40
0
40
0
40
0.080644142332869193
40
0.13779195591916835
40
0.13779195591916835
40
0.13779195591916835
40
0.13779195591916835
10
48.64399701850801
20
60.363951995704582
30
0
10
48.835258017576464
20
60.554315265861248
30
0
10
49.162054563367903
20
60.879577914471042
30
0
10
49.549982730484636
20
61.127675973873664
30
0
10
49.710871995981869
20
61.230572123037703
30
0
11
48.64399701850801
21
60.363951995704582
31
0
11
49.238719396727653
21
60.908610661389048
31
0
11
49.710871995981869
21
61.230572123037703
31
0
0
SPLINE
5
324
100
AcDbEntity
8
0
100
AcDbSpline
70
1064
71
3
72
9
73
5
74
3
42
0.000000001
43
0.0000000001
44
0.0000000001
40
0
40
0
40
0
40
0
40
0.044483366536432603
40
0.086484247097840528
40
0.086484247097840528
40
0.086484247097840528
40
0.086484247097840528
10
49.710871995981869
20
61.230572123037703
30
0
10
49.84700610234902
20
61.292866158691425
30
0
10
50.111677070627849
20
61.41397778291585
30
0
10
50.401980308759406
20
61.432291141271882
30
0
10
50.542965425014863
20
61.441184982668453
30
0
11
49.710871995981869
21
61.230572123037703
31
0
11
50.126055543040849
21
61.390258102675773
31
0
11
50.542965425014863
21
61.441184982668453
31
0
0
SPLINE
5
325
100
AcDbEntity
8
0
100
AcDbSpline
70
1064
71
3
72
9
73
5
74
3
42
0.000000001
43
0.0000000001
44
0.0000000001
40
0
40
0
40
0
40
0
40
0.04436680731565984
40
0.094976693678014715
40
0.094976693678014715
40
0.094976693678014715
40
0.094976693678014715
10
50.542965425014863
20
61.441184982668453
30
0
10
50.691339581411803
20
61.42978099628516
30
0
10
51.008966376181647
20
61.405368310609362
30
0
10
51.304105751229947
20
61.284578788301388
30
0
10
51.461375599798167
20
61.220214113547669
30
0
11
50.542965425014863
21
61.441184982668453
31
0
11
50.983180828341446
21
61.385942265388266
31
0
11
51.461375599798167
21
61.220214113547669
31
0
0
SPLINE
5
326
100
AcDbEntity
8
0
100
AcDbSpline
70
1064
71
3
72
9
73
5
74
3
42
0.000000001
43
0.0000000001
44
0.0000000001
40
0
40
0
40
0
40
0
40
0.02371088169348998
40
0.04468744930816726
40
0.04468744930816726
40
0.04468744930816726
40
0.04468744930816726
10
50.259846498953834
20
59.75628210562239
30
0
10
50.187251006197762
20
59.791336533460644
30
0
10
50.050431656986099
20
59.857402949180596
30
0
10
49.899235289001645
20
59.847328064923659
30
0
10
49.828262770202286
20
59.842598851372699
30
0
11
50.259846498953834
21
59.75628210562239
31
0
11
50.038012462375541
21
59.840009349000184
31
0
11
49.828262770202286
21
59.842598851372699
31
0
0
SPLINE
5
327
100
AcDbEntity
8
0
100
AcDbSpline
70
1064
71
3
72
9
73
5
74
3
42
0.000000001
43
0.0000000001
44
0.0000000001
40
0
40
0
40
0
40
0
40
0.028408570718337609
40
0.059417313509953676
40
0.059417313509953676
40
0.059417313509953676
40
0.059417313509953676
10
49.828262770202286
20
59.842598851372699
30
0
10
49.736355446479664
20
59.815107578942737
30
0
10
49.544128730055576
20
59.757608820242282
30
0
10
49.395062439452808
20
59.622884561602532
30
0
10
49.317267635360437
20
59.552574585651655
30
0
11
49.828262770202286
21
59.842598851372699
31
0
11
49.562407193291321
21
59.742471426302345
31
0
11
49.317267635360437
21
59.552574585651655
31
0
0
SPLINE
5
328
100
AcDbEntity
8
0
100
AcDbSpline
70
1064
71
3
72
9
73
5
74
3
42
0.000000001
43
0.0000000001
44
0.0000000001
40
0
40
0
40
0
40
0
40
0.029333981221442252
40
0.051458699190670594
40
0.051458699190670594
40
0.051458699190670594
40
0.051458699190670594
10
49.317267635360437
20
59.552574585651655
30
0
10
49.247931017306676
20
59.481060941215404
30
0
10
49.126298288888663
20
59.355609196725169
30
0
10
49.076343037428707
20
59.189120265594951
30
0
10
49.054864728279497
20
59.117538187070089
30
0
11
49.317267635360437
21
59.552574585651655
31
0
11
49.132549799454779
21
59.324698376870835
31
0
11
49.054864728279497
21
59.117538187070089
31
0
0
SPLINE
5
329
100
AcDbEntity
8
0
100
AcDbSpline
70
1064
71
3
72
9
73
5
74
3
42
0.000000001
43
0.0000000001
44
0.0000000001
40
0
40
0
40
0
40
0
40
0.017305592670404275
40
0.033500969768024025
40
0.033500969768024025
40
0.033500969768024025
40
0.033500969768024025
10
49.054864728279497
20
59.117538187070089
30
0
10
49.05215118774214
20
59.057836211085259
30
0
10
49.046898189983651
20
58.942262354086964
30
0
10
49.117438280600787
20
58.850943961732781
30
0
10
49.151539483519848
20
58.80679790236897
30
0
11
49.054864728279497
21
59.117538187070089
31
0
11
49.066949072684537
21
58.944904695569477
31
0
11
49.151539483519848
21
58.80679790236897
31
0
0
SPLINE
5
330
100
AcDbEntity
8
0
100
AcDbSpline
70
1064
71
3
72
9
73
5
74
3
42
0.000000001
43
0.0000000001
44
0.0000000001
40
0
40
0
40
0
40
0
40
0.017421875684250618
40
0.036411952094110245
40
0.036411952094110245
40
0.036411952094110245
40
0.036411952094110245
10
49.151539483519848
20
58.80679790236897
30
0
10
49.200820231227098
20
58.770885931861244
30
0
10
49.303817649943639
20
58.695829435452261
30
0
10
49.428386754754932
20
58.725646538281133
30
0
10
49.493353796691075
20
58.741197175598728
30
0
11
49.151539483519848
21
58.80679790236897
31
0
11
49.304320123497895
21
58.723070658991162
31
0
11
49.493353796691075
21
58.741197175598728
31
0
0
SPLINE
5
331
100
AcDbEntity
8
0
100
AcDbSpline
70
1064
71
3
72
9
73
5
74
3
42
0.000000001
43
0.0000000001
44
0.0000000001
40
0
40
0
40
0
40
0
40
0.032364060663611721
40
0.08695392625087256
40
0.08695392625087256
40
0.08695392625087256
40
0.08695392625087256
10
49.493353796691075
20
58.741197175598728
30
0
10
49.589782314877624
20
58.790070313471084
30
0
10
49.84886099928702
20
58.921379893884129
30
0
10
50.075887024502919
20
59.103395693799342
30
0
10
50.218414460993692
20
59.217665612140436
30
0
11
49.493353796691075
21
58.741197175598728
31
0
11
49.778199057667109
21
58.894840983034285
31
0
11
50.218414460993692
21
59.217665612140436
31
0
0
SPLINE
5
332
100
AcDbEntity
8
0
100
AcDbSpline
70
1064
71
3
72
9
73
5
74
3
42
0.000000001
43
0.0000000001
44
0.0000000001
40
0
40
0
40
0
40
0
40
0.087462676125981922
40
0.15104666350071308
40
0.15104666350071308
40
0.15104666350071308
40
0.15104666350071308
10
50.218414460993692
20
59.217665612140436
30
0
10
50.447890126675532
20
59.398974916162871
30
0
10
50.844190985408929
20
59.712093227278544
30
0
10
51.293114575410719
20
59.942436617616522
30
0
10
51.482091618778234
20
60.039401031683411
30
0
11
50.218414460993692
21
59.217665612140436
31
0
11
50.924485441231226
21
59.733839751727309
31
0
11
51.482091618778234
21
60.039401031683411
31
0
0
SPLINE
5
333
100
AcDbEntity
8
0
100
AcDbSpline
70
1064
71
3
72
9
73
5
74
3
42
0.000000001
43
0.0000000001
44
0.0000000001
40
0
40
0
40
0
40
0
40
0.049041586628181186
40
0.094287701729678625
40
0.094287701729678625
40
0.094287701729678625
40
0.094287701729678625
10
51.482091618778234
20
60.039401031683411
30
0
10
51.638270329260145
20
60.094918764578757
30
0
10
51.93854062398141
20
60.201657550981224
30
0
10
52.255369523084489
20
60.171340255247429
30
0
10
52.407407133221575
20
60.156791805903836
30
0
11
51.482091618778234
21
60.039401031683411
31
0
11
51.955107385489953
21
60.168876150308876
31
0
11
52.407407133221575
21
60.156791805903836
31
0
0
SPLINE
5
334
100
AcDbEntity
8
0
100
AcDbSpline
70
1064
71
3
72
9
73
5
74
3
42
0.000000001
43
0.0000000001
44
0.0000000001
40
0
40
0
40
0
40
0
40
0.043509462423578553
40
0.086600455639857021
40
0.086600455639857021
40
0.086600455639857021
40
0.086600455639857021
10
52.407407133221575
20
60.156791805903836
30
0
10
52.550149455187317
20
60.120793810583173
30
0
10
52.834261219221126
20
60.049144044687608
30
0
10
53.056441275150199
20
59.858198750914354
30
0
10
53.166994495824312
20
59.763187445282412
30
0
11
52.407407133221575
21
60.156791805903836
31
0
11
52.820001177908054
21
60.018685012703337
31
0
11
53.166994495824312
21
59.763187445282412
31
0
0
SPLINE
5
335
100
AcDbEntity
8
0
100
AcDbSpline
70
1064
71
3
72
9
73
5
74
3
42
0.000000001
43
0.0000000001
44
0.0000000001
40
0
40
0
40
0
40
0
40
0.044835712895592704
40
0.092557711687966421
40
0.092557711687966421
40
0.092557711687966421
40
0.092557711687966421
10
53.166994495824312
20
59.763187445282412
30
0
10
53.264606917944597
20
59.647543949274393
30
0
10
53.466115533293568
20
59.408812441045157
30
0
10
53.548959311000026
20
59.107278478839547
30
0
10
53.591672884915837
20
58.951810035229492
30
0
11
53.166994495824312
21
59.763187445282412
31
0
11
53.431986905277775
21
59.401520280588613
31
0
11
53.591672884915837
21
58.951810035229492
31
0
0
SPLINE
5
336
100
AcDbEntity
8
0
100
AcDbSpline
70
1064
71
3
72
9
73
5
74
3
42
0.000000001
43
0.0000000001
44
0.0000000001
40
0
40
0
40
0
40
0
40
0.051673965194963867
40
0.11037874484658954
40
0.11037874484658954
40
0.11037874484658954
40
0.11037874484658954
10
53.591672884915837
20
58.951810035229492
30
0
10
53.611811518199332
20
58.778485441201639
30
0
10
53.65482886854916
20
58.40825352523283
30
0
10
53.532459008423317
20
58.055358454093962
30
0
10
53.467376771035397
20
57.867671708605585
30
0
11
53.591672884915837
21
58.951810035229492
31
0
11
53.61584157372593
21
58.435635895642626
31
0
11
53.467376771035397
21
57.867671708605585
31
0
0
SPLINE
5
337
100
AcDbEntity
8
0
100
AcDbSpline
70
1064
71
3
72
9
73
5
74
3
42
0.000000001
43
0.0000000001
44
0.0000000001
40
0
40
0
40
0
40
0
40
0.071218167940768295
40
0.1613991345843247
40
0.1613991345843247
40
0.1613991345843247
40
0.1613991345843247
10
53.467376771035397
20
57.867671708605585
30
0
10
53.357774061824806
20
57.655714592611943
30
0
10
53.109385442373132
20
57.17536391694145
30
0
10
52.732133109275168
20
56.78665630466115
30
0
10
52.521345237611989
20
56.569467852520901
30
0
11
53.467376771035397
21
57.867671708605585
31
0
11
53.113478113459117
21
57.249643809033358
31
0
11
52.521345237611989
21
56.569467852520901
31
0
0
SPLINE
5
338
100
AcDbEntity
8
0
100
AcDbSpline
70
1064
71
3
72
9
73
5
74
3
42
0.000000001
43
0.0000000001
44
0.0000000001
40
0
40
0
40
0
40
0
40
0.1221251097710857
40
0.20857726659784259
40
0.20857726659784259
40
0.20857726659784259
40
0.20857726659784259
10
52.521345237611989
20
56.569467852520901
30
0
10
52.22815240863379
20
56.278762534617428
30
0
10
51.727408876292344
20
55.782267418196092
30
0
10
51.073111950257641
20
55.528404041124602
30
0
10
50.801915662265799
20
55.423181468956777
30
0
11
52.521345237611989
21
56.569467852520901
31
0
11
51.589124383508619
21
55.780532796363069
31
0
11
50.801915662265799
21
55.423181468956777
31
0
0
SPLINE
5
339
100
AcDbEntity
8
0
100
AcDbSpline
70
1064
71
3
72
9
73
5
74
3
42
0.000000001
43
0.0000000001
44
0.0000000001
40
0
40
0
40
0
40
0
40
0.069571511259894275
40
0.14134927021383792
40
0.14134927021383792
40
0.14134927021383792
40
0.14134927021383792
10
50.801915662265799
20
55.423181468956777
30
0
10
50.565786398222762
20
55.400914130754309
30
0
10
50.086039752732617
20
55.35567331382326
30
0
10
49.658612911943834
20
55.579055363424921
30
0
10
49.441563749240885
20
55.692489715697747
30
0
11
50.801915662265799
21
55.423181468956777
31
0
11
50.106202691518284
21
55.421455134041778
31
0
11
49.441563749240885
21
55.692489715697747
31
0
0
ENDSEC
0
SECTION
2
OBJECTS
0
DICTIONARY
5
C
100
AcDbDictionary
3
ACAD_GROUP
350
D
3
ACAD_MLINESTYLE
350
17
0
DICTIONARY
5
D
100
AcDbDictionary
0
DICTIONARY
5
1A
330
C
100
AcDbDictionary
0
DICTIONARY
5
17
100
AcDbDictionary
0
ENDSEC
0
EOF
